<svg xmlns="http://www.w3.org/2000/svg" width="66" height="66" viewBox="0 0 66 66" fill="none">
  <path d="M65.6515 33.3599C65.4715 33.6199 65.2915 33.8799 65.0315 34.0799C63.6715 35.0799 62.3215 36.0999 60.9815 37.1099C60.6815 37.3399 60.3615 37.4698 59.9815 37.4698C55.9615 37.4698 51.9515 37.4899 47.9315 37.4499C45.6815 37.4299 43.9215 35.7498 43.6415 33.4698C43.3915 31.4298 44.8015 29.3899 46.8615 28.8099C47.3815 28.6699 47.9115 28.6299 48.4515 28.6299C52.5515 28.6299 56.6515 28.6299 60.7515 28.6299C63.3815 28.6299 64.8415 29.7199 65.5815 32.2299C65.5915 32.2699 65.6315 32.2999 65.6615 32.3299V33.3599H65.6515ZM54.6915 30.8499C52.5315 30.8499 50.3715 30.8499 48.2215 30.8499C46.8115 30.8499 45.8215 31.7799 45.8315 33.0599C45.8315 34.3399 46.8315 35.2599 48.2415 35.2599C51.9415 35.2599 55.6315 35.2599 59.3315 35.2599C59.5915 35.2599 59.8215 35.2399 60.0515 35.0599C61.0515 34.2899 62.0515 33.5299 63.0815 32.7999C63.4015 32.5699 63.3915 32.3499 63.2215 32.0499C62.7515 31.1899 62.0015 30.8399 61.0515 30.8499C58.9415 30.8499 56.8215 30.8499 54.7115 30.8499H54.6915Z" fill="#8D6A50"/>
  <path d="M28.2019 65.5502C27.3619 65.3102 26.532 65.0503 25.862 64.4403C25.482 64.1003 25.292 63.7103 25.362 63.2003C25.622 61.4303 25.872 59.6503 26.122 57.8803C26.162 57.5603 26.342 57.3302 26.552 57.1202C29.352 54.3302 32.1319 51.5202 34.9419 48.7402C36.7219 46.9802 39.5919 47.0002 41.2819 48.7402C42.9619 50.4602 42.9219 53.1802 41.1519 54.9702C38.0819 58.0602 34.992 61.1302 31.912 64.2202C31.192 64.9402 30.2919 65.2903 29.3419 65.5603H28.1919L28.2019 65.5502ZM40.302 51.9603C40.312 50.9103 39.8219 50.1102 39.0019 49.7902C38.0519 49.4202 37.192 49.5903 36.472 50.3203C33.822 52.9603 31.1819 55.6103 28.5319 58.2503C28.3819 58.4003 28.2419 58.5402 28.2119 58.7802C28.0419 60.0502 27.882 61.3202 27.672 62.5902C27.612 62.9902 27.772 63.1402 28.102 63.2202C28.982 63.4502 29.7619 63.2502 30.4019 62.6102C33.4919 59.5302 36.5719 56.4502 39.6519 53.3602C40.0819 52.9302 40.312 52.4203 40.302 51.9503V51.9603Z" fill="#8D6A50"/>
  <path d="M54.9016 56.23C53.4816 56.22 52.4316 55.8 51.5816 54.95C48.4516 51.83 45.3116 48.72 42.2116 45.57C40.5316 43.87 40.4517 41.32 41.9317 39.58C42.3317 39.11 42.7916 38.94 43.4016 39.03C45.0416 39.29 46.6916 39.53 48.3416 39.75C48.7516 39.8 49.0617 39.96 49.3517 40.25C52.1717 43.08 55.0217 45.88 57.8117 48.73C59.1617 50.11 59.5017 51.78 58.7317 53.57C57.9817 55.3 56.5817 56.16 54.9117 56.23H54.9016ZM56.8316 51.8C56.8516 51.14 56.5817 50.6 56.1217 50.14C53.4817 47.5 50.8416 44.86 48.2016 42.21C48.0116 42.02 47.8217 41.88 47.5517 41.84C46.3217 41.67 45.1016 41.5 43.8816 41.31C43.4816 41.25 43.3116 41.4 43.2016 41.77C42.9316 42.72 43.2417 43.48 43.9117 44.14C46.9217 47.14 49.9217 50.15 52.9217 53.15C53.0617 53.29 53.1917 53.42 53.3517 53.53C54.0817 54.02 54.8716 54.09 55.6516 53.7C56.4216 53.31 56.8116 52.65 56.8316 51.79V51.8Z" fill="#8D6A50"/>
  <path d="M32.5719 8.83002C30.4319 8.83002 28.3019 8.85002 26.1619 8.83002C23.6519 8.81002 21.7819 7.10002 21.6019 4.71002C21.5619 4.17002 21.7119 3.75999 22.1519 3.42999C23.5419 2.39999 24.9219 1.36 26.3019 0.309998C26.6319 0.0599976 26.9819 0 27.3819 0C31.2719 0 35.1619 0 39.0419 0C41.6419 0 43.5819 1.88 43.5919 4.37C43.6019 6.85999 41.6919 8.77 39.1019 8.81C36.9219 8.84 34.7419 8.81 32.5619 8.81L32.5719 8.83002ZM32.5619 6.60999C34.7419 6.60999 36.9219 6.61999 39.1019 6.60999C40.4719 6.59999 41.4219 5.66996 41.4119 4.39996C41.4119 3.14996 40.4219 2.22002 39.0619 2.21002C35.3419 2.21002 31.6219 2.21002 27.9119 2.21002C27.6219 2.21002 27.3819 2.27001 27.1419 2.45001C26.1619 3.20001 25.1719 3.94999 24.1619 4.67999C23.8719 4.88999 23.8519 5.08999 24.0019 5.37C24.4719 6.25999 25.2219 6.63 26.2119 6.62C28.3319 6.60999 30.4419 6.62 32.5619 6.62V6.60999Z" fill="#8D6A50"/>
  <path d="M24.9115 44.0799C22.7715 44.0799 20.6415 44.0999 18.5015 44.0799C15.9615 44.0499 14.1815 42.4799 13.9015 40.0799C13.8315 39.4999 13.9815 39.0399 14.4715 38.6799C15.8615 37.6499 17.2415 36.6099 18.6215 35.5699C18.9115 35.3499 19.2215 35.2798 19.5815 35.2798C23.5515 35.2798 27.5315 35.2698 31.5015 35.2798C33.9215 35.2898 35.8315 37.1398 35.9015 39.4698C35.9715 41.9298 34.2415 43.8599 31.7715 44.0599C31.6615 44.0599 31.5615 44.0799 31.4515 44.0799C29.2715 44.0799 27.0915 44.0799 24.9115 44.0799ZM24.9415 41.8599C27.1015 41.8599 29.2615 41.8699 31.4115 41.8599C32.7615 41.8599 33.7315 40.8899 33.7115 39.6399C33.6915 38.4099 32.7115 37.4798 31.4015 37.4798C27.6615 37.4798 23.9215 37.4798 20.1815 37.4798C19.8915 37.4798 19.6515 37.5398 19.4215 37.7298C18.4615 38.4698 17.4915 39.2098 16.4915 39.9098C16.1315 40.1598 16.1615 40.3899 16.3415 40.7099C16.8015 41.5099 17.4815 41.8799 18.4015 41.8799C20.5815 41.8799 22.7615 41.8799 24.9415 41.8799V41.8599Z" fill="#8D6A50"/>
  <path d="M26.0315 21.7601C25.9415 23.5001 25.1115 24.8801 23.4215 25.6501C21.7215 26.4201 20.0415 26.2001 18.7215 24.9201C15.4215 21.7301 12.1815 18.4701 8.98148 15.1801C7.43148 13.5901 7.47147 11.0501 8.91147 9.39011C9.26147 8.99011 9.66145 8.78008 10.2014 8.86008C11.9714 9.12008 13.7515 9.37009 15.5215 9.62009C15.8415 9.66009 16.0715 9.8401 16.2815 10.0601C19.1015 12.8801 21.9314 15.7101 24.7514 18.5301C25.6014 19.3901 26.0115 20.4401 26.0515 21.7601H26.0315ZM10.7014 11.1501C10.3714 10.9901 10.2214 11.2801 10.1314 11.6201C9.88144 12.5301 10.1515 13.2901 10.8115 13.9501C13.8515 16.9801 16.8815 20.0201 19.9215 23.0501C20.8915 24.0101 22.2314 24.0501 23.1314 23.1701C24.0514 22.2701 24.0215 20.9101 23.0215 19.9201C20.4015 17.2901 17.7715 14.6601 15.1415 12.0401C14.9915 11.8901 14.8515 11.7301 14.6215 11.7001C13.3515 11.5301 12.0915 11.3401 10.7115 11.1501H10.7014Z" fill="#8D6A50"/>
  <path d="M59.0615 24.9299C57.8715 24.9199 56.8414 24.5199 56.0014 23.6799C52.8514 20.5499 49.7014 17.4199 46.5814 14.2499C44.8914 12.5299 44.8614 9.93992 46.4114 8.21992C46.7714 7.81992 47.1814 7.65995 47.7214 7.74995C49.3914 7.99995 51.0514 8.24992 52.7214 8.46992C53.1214 8.51992 53.4514 8.67997 53.7314 8.95997C56.5514 11.79 59.3914 14.5999 62.1914 17.4399C63.5014 18.7599 63.8214 20.6399 63.1014 22.2999C62.3914 23.9199 60.8015 24.9499 59.0515 24.9299H59.0615ZM61.2514 20.58C61.2514 19.81 60.9114 19.2399 60.4014 18.7399C57.8114 16.1599 55.2314 13.5799 52.6514 10.9899C52.4114 10.7499 52.1514 10.61 51.8214 10.57C50.6414 10.41 49.4514 10.2499 48.2714 10.0499C47.8514 9.97993 47.6814 10.16 47.5914 10.51C47.3414 11.45 47.6315 12.21 48.3115 12.89C51.3215 15.89 54.3314 18.8999 57.3314 21.9099C57.4514 22.0299 57.5714 22.16 57.7114 22.26C58.4314 22.78 59.2014 22.8799 60.0014 22.4899C60.8114 22.0999 61.1814 21.4199 61.2514 20.5899V20.58Z" fill="#8D6A50"/>
  <path d="M17.1815 47.36C19.3415 47.36 21.5015 47.34 23.6515 47.36C26.0315 47.39 27.7915 48.91 28.1615 51.19C28.2715 51.89 28.1015 52.42 27.5015 52.86C26.1715 53.82 24.8615 54.82 23.5515 55.81C23.2115 56.07 22.8515 56.18 22.4315 56.18C18.5215 56.18 14.6115 56.18 10.7015 56.18C8.16147 56.18 6.2015 54.28 6.1715 51.83C6.1315 49.37 8.08148 47.4 10.6515 47.36C12.8315 47.33 15.0115 47.36 17.1915 47.36H17.1815ZM17.2015 49.57C15.0215 49.57 12.8415 49.55 10.6615 49.57C9.30149 49.59 8.33152 50.56 8.37152 51.81C8.40152 53.05 9.36151 53.97 10.6815 53.97C14.4215 53.98 18.1615 53.97 21.9015 53.97C22.1415 53.97 22.3615 53.95 22.5615 53.79C23.5815 53.01 24.6015 52.24 25.6415 51.49C25.9415 51.27 25.9115 51.06 25.7715 50.79C25.3015 49.9 24.5315 49.55 23.5515 49.56C21.4415 49.56 19.3215 49.56 17.2015 49.56V49.57Z" fill="#8D6A50"/>
  <path d="M45.3815 17.8699C45.3615 18.7899 44.9915 19.8298 44.1715 20.6498C41.0115 23.8298 37.8515 27.0198 34.6415 30.1698C33.0115 31.7698 30.4415 31.7899 28.7515 30.3199C28.3015 29.9299 28.1315 29.4898 28.2215 28.8998C28.4815 27.2498 28.7215 25.6099 28.9415 23.9599C28.9915 23.5599 29.1415 23.2299 29.4315 22.9499C32.2315 20.1599 35.0015 17.3399 37.8315 14.5699C39.2315 13.1999 40.9315 12.9198 42.7515 13.6498C44.3515 14.2898 45.3715 15.8899 45.3815 17.8699ZM31.4515 29.1498C32.3315 29.1698 32.8715 28.8698 33.3415 28.3998C36.3615 25.3798 39.3915 22.3599 42.4015 19.3299C43.3915 18.3399 43.4415 17.0299 42.5615 16.1299C41.6715 15.2199 40.2815 15.2399 39.3015 16.2099C36.6615 18.8299 34.0415 21.4698 31.4115 24.0898C31.2015 24.2998 31.0815 24.5199 31.0415 24.8099C30.8715 26.0199 30.7115 27.2198 30.5215 28.4198C30.4615 28.7998 30.5915 28.9899 30.9515 29.0599C31.1815 29.1099 31.4115 29.1398 31.4615 29.1498H31.4515Z" fill="#8D6A50"/>
  <path d="M3.07163 42.3899C2.31163 42.3899 1.32165 42.0098 0.471652 41.2498C0.0816523 40.9098 -0.0583599 40.4998 0.0216401 39.9898C0.27164 38.2798 0.52163 36.5698 0.76163 34.8598C0.81163 34.4998 0.971652 34.2198 1.22165 33.9698C4.03165 31.1698 6.82165 28.3398 9.66165 25.5598C11.4417 23.8198 14.2516 23.8598 15.9516 25.5898C17.6216 27.2998 17.6216 29.9998 15.8916 31.7598C12.8016 34.8898 9.68168 37.9898 6.56168 41.0998C5.70168 41.9498 4.67164 42.3899 3.08164 42.3899H3.07163ZM3.43167 40.1999C4.05167 40.1798 4.57162 39.9598 5.00162 39.5398C8.13162 36.4198 11.2617 33.2998 14.3717 30.1598C14.8917 29.6298 15.1016 28.9599 14.9416 28.2099C14.7616 27.3899 14.2717 26.8298 13.4817 26.5698C12.5817 26.2798 11.7916 26.5198 11.1316 27.1698C8.49162 29.8098 5.85163 32.4498 3.20163 35.0898C2.99163 35.2998 2.88165 35.5298 2.84165 35.8098C2.67165 37.0098 2.51163 38.2198 2.32163 39.4198C2.26163 39.7998 2.39162 39.9798 2.75162 40.0498C2.98162 40.0898 3.21162 40.1398 3.44162 40.1798L3.43167 40.1999Z" fill="#8D6A50"/>
</svg>