<svg xmlns="http://www.w3.org/2000/svg" width="70" height="51" viewBox="0 0 70 51" fill="none">
  <path d="M0.0100098 23.2808C0.26001 21.9208 0.389941 20.5508 0.689941 19.2008C2.82994 9.77078 11.08 1.98075 20.59 0.420755C22.45 0.120755 24.32 -0.179223 26.2 0.130777C29.13 0.610777 31.1199 2.31077 32.1899 5.06077C32.3699 5.52077 32.56 5.65079 33.01 5.58079C34.23 5.40079 35.4499 5.40079 36.6699 5.58079C37.1399 5.65079 37.32 5.49081 37.48 5.04081C38.58 2.00081 41.39 0.0407817 44.62 0.0107817C56.57 -0.0892183 67.25 8.84076 69.25 20.6108C71.3 32.7008 64.79 44.1208 53.33 48.5008C50.53 49.5708 47.61 50.0708 44.62 50.0708C41.42 50.0708 38.61 48.1208 37.51 45.1108C37.33 44.6208 37.13 44.4308 36.6 44.5208C35.38 44.7208 34.1599 44.6908 32.9399 44.5208C32.5399 44.4608 32.36 44.5808 32.21 44.9908C31.07 48.1508 28.26 50.0908 24.91 50.0908C12.92 50.0908 2.43002 41.2408 0.400024 29.4308C0.250024 28.5608 0.13 27.6908 0 26.8208C0 25.6408 0 24.4608 0 23.2808H0.0100098ZM46.8099 25.0408C46.8099 21.0308 46.8099 17.0108 46.8099 13.0008C46.8099 12.6108 46.71 12.3308 46.41 12.0608C40.05 6.18077 29.64 6.17081 23.26 12.0408C22.97 12.3108 22.84 12.5708 22.85 12.9708C22.86 21.0208 22.86 29.0708 22.85 37.1208C22.85 37.5208 22.98 37.7808 23.27 38.0508C29.66 43.9008 39.96 43.9108 46.37 38.0708C46.68 37.7908 46.8099 37.5108 46.8099 37.0808C46.7899 33.0708 46.7999 29.0508 46.7999 25.0408H46.8099ZM18.8199 46.9408C17.4999 45.1008 17.4 43.0208 17.4 40.8808C17.43 30.4108 17.43 19.9408 17.4 9.4708C17.4 7.2508 17.42 5.07077 18.86 3.19077C18.6 3.08077 18.44 3.19076 18.27 3.24076C16.24 3.86076 14.34 4.74076 12.58 5.92075C7.48996 9.31075 4.22001 13.9808 2.76001 19.9208C2.62001 20.4908 2.64999 20.7408 3.35999 20.7108C4.71999 20.6508 6.07994 20.6908 7.43994 20.6908C9.70994 20.7008 11.16 22.3908 10.79 24.6208C10.73 24.9608 10.79 25.0608 11.14 25.0508C11.75 25.0308 12.36 25.0408 12.98 25.0508C14.88 25.0708 16.34 26.5008 16.33 28.3308C16.33 30.1608 14.8599 31.5608 12.9399 31.5708C11.8599 31.5708 10.77 31.5708 9.62 31.5708C9.76999 32.1408 9.88999 32.6608 9.73999 33.1708C9.60999 33.6108 9.68992 33.7208 10.1699 33.7808C11.9299 33.9908 13.1599 35.4908 13.0599 37.2208C12.9599 38.9308 11.54 40.2408 9.75 40.2708C9.24 40.2708 8.72993 40.2708 8.04993 40.2708C11.0999 43.5808 14.6199 45.7808 18.8199 46.9308V46.9408ZM61.62 9.81077C58.56 6.50077 55.05 4.30076 50.72 3.05076C51.79 4.62076 52.26 6.19075 52.25 7.92075C52.24 19.3508 52.25 30.7808 52.25 42.2008C52.25 42.6308 52.2199 43.0608 52.1699 43.4908C52.0299 44.7408 51.5099 45.8508 50.7999 46.9608C58.1499 45.1608 65.45 38.3408 67.02 29.4008C65.38 29.4008 63.75 29.4208 62.12 29.4008C59.95 29.3708 58.5 27.6308 58.87 25.4908C58.94 25.0908 58.82 25.0308 58.48 25.0408C57.89 25.0608 57.3 25.0508 56.71 25.0408C54.79 25.0108 53.34 23.6008 53.34 21.7708C53.34 19.9308 54.79 18.5308 56.72 18.5208C57.67 18.5208 58.62 18.5108 59.58 18.5208C59.94 18.5208 60.09 18.4408 59.96 18.0608C59.84 17.7108 59.8199 17.3308 59.9199 16.9908C60.0699 16.5008 59.9899 16.3708 59.4399 16.3008C57.6799 16.0708 56.48 14.5308 56.62 12.8008C56.76 11.1108 58.1699 9.84078 59.9199 9.82078C60.4199 9.82078 60.92 9.82078 61.62 9.82078V9.81077ZM9.78003 29.4008C10.82 29.4008 11.87 29.4008 12.91 29.4008C13.29 29.4008 13.64 29.3208 13.89 29.0208C14.17 28.6808 14.2599 28.3008 14.0599 27.8808C13.8399 27.4208 13.46 27.2308 12.96 27.2308C11.24 27.2308 9.51004 27.2308 7.79004 27.2308C7.06004 27.2308 6.60993 26.8508 6.54993 26.2408C6.48993 25.6308 6.89998 25.1808 7.59998 25.0508C8.35998 24.9208 8.77996 24.4708 8.70996 23.8608C8.64996 23.2408 8.18001 22.8808 7.39001 22.8808C5.94001 22.8808 4.49004 22.9108 3.04004 22.8608C2.46004 22.8408 2.26998 23.0008 2.22998 23.5808C1.93998 28.7608 3.23998 33.4908 6.09998 37.8108C6.25998 38.0508 6.43997 38.1208 6.71997 38.1208C7.68997 38.1108 8.67001 38.1208 9.64001 38.1208C10.39 38.1208 10.87 37.6908 10.88 37.0608C10.89 36.4008 10.4 35.9608 9.60999 35.9508C8.65999 35.9508 7.71 35.9508 6.75 35.9508C5.96 35.9508 5.49994 35.5808 5.43994 34.9608C5.38994 34.3308 5.77994 33.9008 6.55994 33.7808C7.17994 33.6808 7.54997 33.3508 7.58997 32.7208C7.62997 32.1408 7.21003 31.7308 6.53003 31.6108C5.79003 31.4808 5.39993 31.0808 5.42993 30.4808C5.45993 29.8408 5.92994 29.4508 6.68994 29.4408C7.70994 29.4308 8.73 29.4408 9.75 29.4408L9.78003 29.4008ZM59.85 20.6908C58.9 20.6908 57.95 20.6908 56.99 20.6908C56.01 20.6908 55.5 21.0808 55.52 21.7908C55.53 22.5008 56.04 22.8608 57.03 22.8608C58.66 22.8608 60.2899 22.8608 61.9299 22.8608C62.6399 22.8608 63.1 23.2708 63.13 23.8908C63.16 24.4708 62.76 24.9108 62.1 25.0308C61.31 25.1708 60.92 25.5808 60.96 26.2008C61.01 26.8308 61.48 27.2108 62.26 27.2108C63.64 27.2108 65.03 27.2108 66.41 27.2108C67.39 27.2108 67.41 27.2108 67.45 26.2508C67.68 21.2008 66.41 16.5708 63.62 12.3508C63.44 12.0708 63.24 11.9608 62.91 11.9608C61.98 11.9808 61.05 11.9608 60.12 11.9608C59.27 11.9608 58.77 12.3808 58.78 13.0608C58.79 13.7108 59.28 14.1208 60.09 14.1308C61.06 14.1308 62.04 14.1308 63.01 14.1308C63.72 14.1308 64.18 14.5508 64.21 15.1608C64.24 15.7408 63.8399 16.1808 63.1799 16.3008C62.4199 16.4308 62.0399 16.8108 62.0499 17.4108C62.0599 17.9908 62.44 18.3608 63.15 18.4808C63.86 18.6008 64.26 19.0508 64.21 19.6508C64.16 20.2608 63.7 20.6408 62.97 20.6508C61.93 20.6608 60.88 20.6508 59.84 20.6508L59.85 20.6908ZM50.0699 25.0508C50.0699 19.2208 50.0799 13.4008 50.0699 7.57078C50.0699 5.01078 48.23 2.82078 45.77 2.32078C43.22 1.80078 40.6899 3.08076 39.6799 5.43076C39.5999 5.62076 39.24 5.95078 39.71 6.07078C40.02 6.15078 40.43 6.54078 40.7 5.88078C41.16 4.76078 42 3.98077 43.14 3.56077C46.02 2.49077 48.98 4.59079 48.98 7.77079C49 19.3308 48.98 30.8908 48.98 42.4608C48.98 42.9208 48.9 43.3608 48.76 43.8008C48.21 45.4908 46.6799 46.6908 44.9299 46.8108C43.1299 46.9308 41.47 45.9908 40.72 44.2908C40.43 43.6308 40.04 43.9208 39.7 44.0308C39.2 44.2008 39.6 44.5308 39.7 44.7308C40.6399 46.7008 42.23 47.7908 44.4 47.8908C47.53 48.0408 50.0499 45.5808 50.0599 42.4008C50.0799 36.6208 50.0599 30.8408 50.0599 25.0608L50.0699 25.0508ZM19.59 25.0508C19.59 30.8108 19.59 36.5708 19.59 42.3308C19.59 44.4208 20.48 46.0608 22.27 47.1408C25.07 48.8308 28.8 47.6008 30.03 44.6108C30.09 44.4508 30.32 44.2708 30.09 44.0708C29.77 43.7808 29.16 43.9108 28.96 44.3008C28.18 45.8408 26.94 46.7308 25.2 46.8108C22.64 46.9208 20.6799 44.9408 20.6799 42.2708C20.6799 30.8408 20.6799 19.4108 20.6799 7.99076C20.6799 7.79076 20.68 7.58078 20.7 7.38078C20.87 4.98078 22.88 3.16077 25.28 3.31077C27.01 3.42077 28.27 4.31079 28.98 5.89079C29.27 6.53079 29.66 6.16079 29.97 6.08079C30.45 5.95079 30.09 5.62077 30 5.44077C29.05 3.44077 27.46 2.3208 25.26 2.2208C22.14 2.0808 19.61 4.5108 19.6 7.6508C19.58 13.4508 19.6 19.2608 19.6 25.0608L19.59 25.0508ZM22.86 9.54081C24.18 8.57081 25.45 7.77075 26.84 7.17075C27.16 7.03076 27.0399 6.84078 26.9399 6.63078C26.5399 5.83078 25.5699 5.33076 24.6699 5.49076C23.6899 5.66076 22.92 6.49077 22.86 7.50077C22.82 8.13077 22.86 8.76076 22.86 9.55076V9.54081ZM22.86 40.5508C22.86 41.3408 22.83 41.9708 22.86 42.6008C22.91 43.5808 23.64 44.3908 24.6 44.6008C25.51 44.7908 26.5199 44.3008 26.9299 43.4708C27.0299 43.2608 27.16 43.0708 26.83 42.9308C25.45 42.3208 24.17 41.5208 22.85 40.5508H22.86ZM46.78 40.5708C45.47 41.5308 44.17 42.3308 42.78 42.9608C42.42 43.1208 42.67 43.3408 42.76 43.5108C43.17 44.2908 44.12 44.7608 44.98 44.6108C45.88 44.4608 46.67 43.7208 46.77 42.8108C46.85 42.1008 46.79 41.3908 46.79 40.5608L46.78 40.5708ZM46.78 9.5308C46.78 8.7108 46.84 7.99081 46.76 7.29081C46.66 6.37081 45.88 5.64076 44.97 5.49076C44.1 5.34076 43.15 5.8008 42.75 6.5908C42.66 6.7608 42.42 6.9908 42.77 7.1508C44.17 7.7808 45.46 8.58081 46.78 9.54081V9.5308Z" fill="#A383FC"/>
</svg>