<svg xmlns="http://www.w3.org/2000/svg" width="33" height="41" viewBox="0 0 33 41" fill="none">
  <path d="M25.0373 40.1722C24.65 40.1722 24.2626 40.1722 23.8753 40.1722C23.7915 40.1511 23.7078 40.1195 23.6135 40.109C22.0851 39.9616 20.7242 39.4035 19.4889 38.4981C14.3278 34.6973 9.15623 30.9071 4.01607 27.0747C-0.736739 23.5372 -0.72625 16.9674 4.03703 13.4403C9.16672 9.63955 14.3069 5.84931 19.4575 2.06958C24.3987 -1.56274 31.0988 0.911446 32.5016 6.87057C32.6481 7.48122 32.7005 8.09188 32.7005 8.72359C32.7005 16.4199 32.7005 24.1162 32.7005 31.8125C32.7005 35.5923 30.3241 38.7613 26.7438 39.8458C26.1889 40.0142 25.6131 40.0563 25.0478 40.1826L25.0373 40.1722Z" fill="#7A7A7A"/>
</svg>