<svg xmlns="http://www.w3.org/2000/svg" width="57" height="66" viewBox="0 0 57 66" fill="none">
  <path d="M30.16 0C31.18 0.43 31.63 1.25999 31.83 2.29999C32.04 3.38999 32.36 4.45004 32.61 5.54004C32.7 5.92004 32.87 6.09999 33.27 6.17999C34.04 6.32999 34.8 6.55999 35.55 6.79999C35.8801 6.89999 36.08 6.86999 36.33 6.60999C37.22 5.64999 38.13 4.72004 39.04 3.79004C39.95 2.85004 40.77 2.73 41.92 3.37C42.5 3.69 43.07 4.02 43.64 4.37C44.61 4.97 44.93 5.78001 44.63 6.89001C44.28 8.14001 43.92 9.39001 43.53 10.64C43.41 11.03 43.44 11.29 43.78 11.57C44.36 12.07 44.9 12.62 45.41 13.2C45.68 13.51 45.92 13.56 46.29 13.44C47.49 13.07 48.7 12.73 49.91 12.38C51.2 12.01 51.98 12.31 52.66 13.45C53 14.02 53.33 14.59 53.65 15.17C54.19 16.16 54.07 17 53.28 17.79C52.32 18.74 51.36 19.68 50.37 20.6C50.1 20.86 50.05 21.07 50.16 21.43C50.4 22.18 50.62 22.94 50.78 23.71C50.86 24.08 51.02 24.25 51.37 24.33C52.64 24.63 53.9 24.94 55.16 25.26C56.35 25.56 56.92 26.29 56.94 27.51C56.94 28.13 56.94 28.75 56.94 29.37C56.94 30.62 56.36 31.35 55.13 31.66C53.89 31.97 52.65 32.29 51.4 32.57C51.01 32.66 50.85 32.84 50.77 33.23C50.61 34 50.39 34.76 50.15 35.51C50.04 35.84 50.08 36.04 50.34 36.29C51.29 37.18 52.23 38.09 53.16 39C54.1 39.92 54.21 40.73 53.57 41.88C53.28 42.4 52.98 42.92 52.67 43.43C51.98 44.59 51.21 44.89 49.92 44.53C48.67 44.18 47.41 43.83 46.17 43.45C45.85 43.35 45.67 43.41 45.45 43.65C44.88 44.26 44.3 44.86 43.68 45.42C43.41 45.67 43.38 45.88 43.48 46.2C43.85 47.45 44.21 48.7 44.56 49.95C44.91 51.18 44.56 52.01 43.46 52.64C43.09 52.85 42.72 53.07 42.33 53.25C41.96 53.42 41.95 53.58 42.17 53.91C43.6 56.06 45 58.23 46.41 60.4C47.15 61.52 47.31 62.7 46.68 63.92C46.12 65.01 45.19 65.59 43.96 65.68C43.79 65.69 43.62 65.68 43.45 65.68C33.45 65.68 23.45 65.68 13.45 65.68C12.08 65.68 10.97 65.22 10.29 64C9.59004 62.73 9.78 61.51 10.56 60.32C11.94 58.24 13.27 56.12 14.67 54.05C15.01 53.54 14.91 53.35 14.41 53.14C14.06 52.99 13.73 52.78 13.4 52.59C12.36 51.99 12.01 51.17 12.34 50C12.69 48.75 13.06 47.5 13.43 46.25C13.54 45.88 13.5 45.64 13.19 45.37C12.63 44.88 12.08 44.36 11.6 43.79C11.28 43.41 10.99 43.38 10.56 43.51C9.36 43.88 8.14999 44.22 6.92999 44.56C5.74999 44.89 4.94001 44.57 4.32001 43.53C3.96001 42.93 3.60001 42.32 3.26001 41.7C2.75001 40.75 2.86001 39.9 3.64001 39.13C4.58001 38.2 5.53001 37.28 6.51001 36.38C6.81001 36.1 6.91002 35.86 6.77002 35.45C6.52002 34.7 6.32002 33.94 6.15002 33.17C6.08002 32.81 5.92003 32.67 5.59003 32.59C4.34003 32.3 3.10005 31.98 1.86005 31.68C0.560046 31.36 0 30.65 0 29.3C0 28.72 0 28.15 0 27.57C0 26.29 0.560029 25.57 1.78003 25.27C3.00003 24.96 4.22001 24.66 5.45001 24.37C5.86001 24.27 6.08999 24.13 6.17999 23.65C6.30999 22.88 6.56005 22.12 6.80005 21.37C6.90005 21.06 6.85 20.87 6.62 20.65C5.67 19.76 4.74005 18.85 3.80005 17.94C2.85005 17.02 2.72004 16.2 3.35004 15.07C3.68004 14.47 4.02 13.88 4.38 13.3C4.95001 12.38 5.75004 12.05 6.79004 12.33C8.09004 12.68 9.38003 13.06 10.66 13.45C11.03 13.56 11.27 13.51 11.54 13.2C12.06 12.61 12.63 12.05 13.22 11.53C13.51 11.27 13.54 11.04 13.44 10.7C13.07 9.47001 12.72 8.24001 12.37 7.01001C12.01 5.76001 12.32 4.97 13.43 4.31C14.02 3.96 14.61 3.61004 15.21 3.29004C16.17 2.77004 17.01 2.89003 17.78 3.66003C18.73 4.62003 19.67 5.58001 20.58 6.57001C20.86 6.87001 21.1 6.90003 21.46 6.78003C22.19 6.55003 22.93 6.32999 23.68 6.17999C24.09 6.09999 24.25 5.92004 24.34 5.54004C24.59 4.46004 24.9 3.38999 25.12 2.29999C25.33 1.24999 25.77 0.43 26.79 0H30.12H30.16ZM28.61 10.93C29.66 10.97 30.8 11.05 31.94 11.28C40.63 13.03 46.96 21.1 45.87 30.42C45.15 36.58 41.9 41.13 36.42 44.05C36.05 44.25 35.99 44.38 36.23 44.74C37.46 46.59 38.67 48.45 39.88 50.32C40.76 51.67 40.76 51.67 42.14 50.88C42.43 50.71 42.51 50.56 42.41 50.22C42.02 48.93 41.66 47.64 41.29 46.35C41.03 45.46 41.23 44.7 41.93 44.09C42.7 43.41 43.43 42.69 44.1 41.91C44.75 41.17 45.54 40.98 46.47 41.26C47.39 41.53 48.3201 41.79 49.2401 42.06C50.7301 42.49 50.7101 42.48 51.4901 41.16C51.7401 40.75 51.64 40.55 51.33 40.26C50.39 39.39 49.49 38.48 48.55 37.6C47.83 36.92 47.65 36.13 47.96 35.21C48.28 34.28 48.54 33.33 48.72 32.37C48.91 31.37 49.51 30.79 50.47 30.56C51.4 30.33 52.34 30.11 53.27 29.88C54.77 29.51 54.76 29.51 54.76 27.96C54.76 27.53 54.61 27.38 54.2 27.29C52.91 27 51.63 26.66 50.35 26.33C49.45 26.1 48.92 25.53 48.73 24.63C48.53 23.65 48.28 22.68 47.95 21.73C47.63 20.78 47.84 19.98 48.58 19.29C49.29 18.64 49.97 17.96 50.66 17.29C51.76 16.23 51.75 16.24 50.95 14.89C50.75 14.55 50.57 14.47 50.19 14.59C48.93 14.98 47.65 15.32 46.38 15.69C45.49 15.95 44.73 15.74 44.12 15.05C43.42 14.27 42.69 13.53 41.9 12.83C41.21 12.22 41.01 11.45 41.27 10.57C41.55 9.63001 41.81 8.67999 42.08 7.73999C42.51 6.21999 42.5 6.24001 41.13 5.45001C40.76 5.24001 40.58 5.33004 40.33 5.60004C39.44 6.55004 38.52 7.46998 37.62 8.41998C36.94 9.12998 36.15 9.32 35.23 9C34.3 8.68 33.35 8.41999 32.39 8.23999C31.43 8.05999 30.84 7.49999 30.6 6.54999C30.37 5.61999 30.13 4.69 29.91 3.75C29.52 2.17 29.53 2.18001 27.91 2.20001C27.53 2.20001 27.4 2.35 27.32 2.69C27.03 3.96 26.7 5.21998 26.39 6.47998C26.15 7.44998 25.57 8.04999 24.58 8.23999C23.59 8.42999 22.63 8.70002 21.68 9.02002C20.8 9.31002 20.04 9.13002 19.4 8.46002C18.72 7.75002 18.03 7.05003 17.35 6.34003C16.23 5.18003 16.24 5.19004 14.85 6.04004C14.56 6.22004 14.49 6.37001 14.59 6.70001C14.98 7.99001 15.33 9.28001 15.71 10.57C15.97 11.46 15.77 12.22 15.08 12.84C14.3 13.54 13.56 14.28 12.86 15.06C12.27 15.72 11.53 15.96 10.66 15.7C9.70003 15.42 8.73002 15.15 7.77002 14.88C6.25002 14.45 6.26004 14.45 5.48004 15.83C5.30004 16.15 5.31002 16.33 5.58002 16.59C6.55002 17.49 7.49001 18.43 8.45001 19.34C9.16001 20.02 9.34003 20.81 9.03003 21.74C8.70003 22.71 8.45005 23.7 8.24005 24.71C8.06005 25.56 7.54001 26.11 6.70001 26.33C5.73001 26.58 4.76003 26.83 3.78003 27.07C2.22003 27.45 2.23004 27.44 2.23004 29.01C2.23004 29.41 2.36005 29.57 2.74005 29.66C3.99005 29.95 5.23003 30.27 6.47003 30.57C7.46003 30.81 8.08002 31.38 8.27002 32.41C8.45002 33.38 8.72003 34.32 9.03003 35.25C9.34003 36.17 9.14999 36.97 8.42999 37.64C7.72999 38.3 7.05004 38.98 6.35004 39.64C5.18004 40.76 5.19005 40.75 6.05005 42.14C6.23005 42.43 6.38002 42.5 6.71002 42.39C7.99002 41.99 9.29002 41.64 10.58 41.27C11.46 41.02 12.23 41.21 12.84 41.9C13.53 42.69 14.28 43.42 15.06 44.12C15.75 44.74 15.94 45.5 15.68 46.39C15.4 47.35 15.13 48.32 14.86 49.28C14.46 50.69 14.46 50.68 15.76 51.4C16.15 51.62 16.33 51.55 16.56 51.19C17.92 49.07 19.29 46.95 20.69 44.86C20.97 44.45 20.9501 44.29 20.4901 44.03C14.7401 40.9 11.49 36.07 11.04 29.53C10.34 19.49 18.43 10.94 28.6 10.95L28.61 10.93ZM28.4901 24.09C30.0101 24.09 31.52 24.08 33.04 24.09C33.66 24.09 34.28 24.04 34.89 24.18C36.98 24.66 38.43 26.52 38.35 28.6C38.26 30.76 36.7 32.48 34.48 32.79C34.05 32.85 33.97 32.99 33.97 33.38C33.99 35.47 33.97 37.57 33.97 39.66C33.97 40.37 34.11 41.06 34.38 41.72C34.5933 42.2267 34.9367 42.3567 35.41 42.11C41.31 39.09 44.54 32.86 43.63 26.24C42.43 17.43 33.63 11.43 25 13.53C17.17 15.43 12.18 22.69 13.35 30.69C14.12 35.93 17.01 39.74 21.7 42.2C22.12 42.42 22.32 42.37 22.51 41.92C22.84 41.14 23.01 40.34 23 39.49C23 37.61 23 35.73 23 33.85C23 33.23 22.6933 32.8566 22.08 32.73C21.96 32.7 21.83 32.67 21.71 32.64C19.71 32.01 18.38 29.99 18.66 27.99C18.97 25.74 20.69 24.15 22.9 24.11C24.76 24.08 26.62 24.11 28.48 24.11L28.4901 24.09ZM28.51 63.48C33.53 63.48 38.56 63.48 43.58 63.48C44.21 63.48 44.67 63.29 44.88 62.67C45.04 62.18 44.77 61.81 44.52 61.43C40.75 55.65 36.99 49.87 33.21 44.1C32.27 42.66 31.78 41.12 31.8 39.39C31.82 37.15 31.8 34.9 31.8 32.66C31.8 30.78 31.91 30.66 33.78 30.65C35.18 30.64 36.19 29.7 36.17 28.44C36.15 27.19 35.17 26.29 33.8 26.28C30.27 26.28 26.75 26.28 23.22 26.28C22.95 26.28 22.66 26.3 22.4 26.37C21.39 26.66 20.73 27.68 20.85 28.68C20.99 29.81 21.87 30.63 23.02 30.64C24.79 30.66 26.57 30.64 28.34 30.65C29.1 30.65 29.58 31.08 29.58 31.73C29.58 32.38 29.11 32.82 28.35 32.83C27.56 32.84 26.77 32.87 25.98 32.82C25.38 32.78 25.18 32.93 25.19 33.58C25.24 35.44 25.17 37.3 25.22 39.16C25.26 41.04 24.73 42.71 23.69 44.28C19.93 49.99 16.21 55.72 12.48 61.44C12.18 61.91 11.9201 62.36 12.2401 62.92C12.5401 63.44 13.04 63.48 13.57 63.48C18.55 63.48 23.53 63.48 28.51 63.48Z" fill="#00ADA4"/>
  <path d="M28.4702 61.29C25.5202 61.29 22.5701 61.28 19.6201 61.29C18.6501 61.29 17.8402 61.0199 17.3502 60.1299C16.8502 59.2199 17.0902 58.3799 17.6402 57.5499C20.2102 53.7399 22.7602 49.92 25.3002 46.1C25.8602 45.26 26.5702 44.8199 27.5902 44.8599C28.2702 44.8899 28.9602 44.8599 29.6402 44.8599C30.4302 44.8599 31.0502 45.18 31.4902 45.83C34.1702 49.82 36.8402 53.8199 39.5102 57.8099C40.0002 58.5499 40.0702 59.3299 39.6402 60.1099C39.2002 60.9199 38.4802 61.27 37.5702 61.27C34.5302 61.27 31.5002 61.27 28.4602 61.27L28.4702 61.29ZM19.2902 59.0599H37.6801C37.5301 58.8099 37.4201 58.63 37.3101 58.46C35.1101 55.18 32.8402 51.94 30.7602 48.59C29.9802 47.34 29.1302 46.8199 27.7402 47.0699C27.6602 47.0799 27.5702 47.0699 27.4802 47.0699C27.3702 47.0699 27.2802 47.11 27.2102 47.21C26.7802 47.86 26.3402 48.4999 25.8502 49.2399C26.4102 49.2399 26.8301 49.2399 27.2501 49.2399C28.0001 49.2499 28.4902 49.69 28.4902 50.33C28.4902 50.97 28.0001 51.4099 27.2501 51.4199C26.4401 51.4199 25.6301 51.4199 24.8101 51.4199C24.6201 51.4199 24.4202 51.3699 24.2802 51.5699C23.8502 52.2199 23.4102 52.8599 22.9102 53.6099C23.7002 53.6099 24.3602 53.6099 25.0102 53.6099C25.7902 53.6199 26.3002 54.0799 26.2802 54.7399C26.2602 55.3799 25.7802 55.79 25.0102 55.79C23.9602 55.79 22.9201 55.79 21.8701 55.79C21.6601 55.79 21.4502 55.7599 21.3002 55.9899C20.6402 56.9899 19.9802 57.9699 19.2602 59.0499L19.2902 59.0599Z" fill="#00ADA4"/>
</svg>