<svg xmlns="http://www.w3.org/2000/svg" width="74" height="74" viewBox="0 0 74 74" fill="none">
  <path d="M17.6877 35.4311C16.3177 35.4311 14.9478 35.4111 13.5878 35.4311C12.9978 35.4411 12.5378 35.2411 12.1278 34.8211C10.9578 33.6311 9.75778 32.4711 8.60778 31.2611C8.22778 30.8611 7.94771 30.8011 7.41771 31.0311C4.57771 32.2711 1.35774 30.8611 0.317738 27.9711C-0.722262 25.0711 0.877767 21.9211 3.84777 21.0811C5.92777 20.4911 7.77777 21.0211 9.22777 22.6011C10.6978 24.2111 11.0378 26.1311 10.2078 28.1611C9.97775 28.7211 10.0578 29.0312 10.4678 29.4212C11.4778 30.3812 12.4577 31.3711 13.4277 32.3811C13.7177 32.6811 14.0077 32.8011 14.4277 32.8011C16.9977 32.7811 19.5678 32.7911 22.1378 32.8011C22.4778 32.8011 22.7277 32.7811 22.9177 32.4011C23.7177 30.8211 25.0477 30.0811 26.7977 30.1911C27.6177 30.2411 27.8178 29.9711 27.7578 29.2011C27.6878 28.2811 27.7278 27.3411 27.7478 26.4111C27.7578 25.5011 28.2677 24.9311 29.0477 24.9311C29.8177 24.9311 30.3578 25.4911 30.3678 26.3911C30.3878 27.4611 30.3978 28.5211 30.3678 29.5911C30.3578 30.0611 30.5078 30.1911 30.9678 30.1911C32.3378 30.1611 33.7077 30.1711 35.0677 30.1911C35.4877 30.1911 35.6378 30.0911 35.6378 29.6411C35.6178 27.5311 35.6178 25.4311 35.6378 23.3211C35.6378 22.9511 35.4878 22.7112 35.2378 22.4812C34.4578 21.7512 33.6677 21.0311 32.9277 20.2611C32.5777 19.9011 32.2878 19.9111 31.8578 20.0611C29.7478 20.8011 27.5577 21.2012 25.3277 20.9212C22.0077 20.5012 19.5577 18.7411 17.9077 15.8411C16.3577 13.1111 15.6178 10.1311 15.1178 7.06111C14.8178 5.22111 14.6378 3.37112 14.6178 1.51112C14.6078 0.55112 15.0777 -0.02889 15.9477 0.00110998C20.8177 0.14111 25.5978 0.771139 30.0078 3.03114C33.1878 4.66114 35.1677 7.20112 35.5577 10.8211C35.7977 13.0611 35.4278 15.2411 34.6478 17.3411C34.4478 17.8811 34.4677 18.2412 34.9377 18.6112C35.4277 19.0012 35.8977 19.4311 36.2977 19.9111C36.7877 20.5011 37.0778 20.2911 37.6078 19.9111C39.0578 18.8411 39.5877 17.7311 38.8077 15.8911C38.0977 14.2111 38.0978 12.3211 38.3578 10.4711C38.7778 7.49114 40.3077 5.23112 42.8277 3.64112C45.6977 1.82112 48.9278 1.0211 52.2378 0.4911C54.0778 0.2011 55.9277 0.02111 57.7877 0.00110998C58.7177 0.00110998 59.2678 0.491125 59.2478 1.39112C59.1178 5.96112 58.4978 10.4411 56.5878 14.6411C55.0178 18.1011 52.4878 20.4212 48.5978 20.9212C46.3578 21.2112 44.1777 20.8411 42.0677 20.0911C41.5377 19.9011 41.2278 19.9812 40.8578 20.3612C40.0178 21.2212 38.8178 21.9012 38.3678 22.9212C37.9278 23.9112 38.2478 25.2311 38.2478 26.4111C38.2478 27.4511 38.2678 28.4911 38.2478 29.5311C38.2378 29.9911 38.3178 30.2211 38.8578 30.2011C40.2278 30.1611 41.5878 30.1711 42.9578 30.2011C43.3878 30.2011 43.5278 30.0711 43.5078 29.6411C43.4778 28.6011 43.4878 27.5611 43.5078 26.5211C43.5078 25.5411 43.9977 24.9611 44.7977 24.9411C45.6177 24.9211 46.1278 25.5311 46.1278 26.5511C46.1278 27.5311 46.1578 28.5211 46.1278 29.5011C46.1078 30.0211 46.2477 30.2311 46.7977 30.1911C48.6977 30.0611 50.1678 30.7611 51.0178 32.5211C51.1678 32.8211 51.3778 32.8011 51.6178 32.8011C54.2678 32.8011 56.9277 32.8011 59.5777 32.8011C59.9177 32.8011 60.1378 32.6811 60.3578 32.4511C61.4178 31.3811 62.4677 30.3111 63.5477 29.2611C63.8677 28.9611 63.8577 28.7211 63.6977 28.3411C62.8077 26.2611 63.0778 24.3011 64.5878 22.6211C66.0478 20.9911 67.9177 20.4411 70.0277 21.0711C72.1977 21.7211 73.4777 23.2512 73.7877 25.4812C74.0577 27.4512 73.3577 29.1111 71.7977 30.3211C70.2077 31.5611 68.4177 31.8211 66.5477 31.0511C65.9677 30.8111 65.6478 30.8711 65.2278 31.3211C64.1578 32.4611 63.0177 33.5211 61.9377 34.6411C61.4077 35.1911 60.8377 35.4411 60.0577 35.4311C57.4077 35.3911 54.7478 35.4311 52.0978 35.4011C51.5078 35.4011 51.3778 35.5711 51.3778 36.1411C51.3878 38.0411 51.3777 38.0411 53.2877 38.0411C53.9477 38.0411 54.5978 38.0211 55.2578 38.0411C56.0878 38.0711 56.6378 38.6112 56.6378 39.3612C56.6378 40.1012 56.0778 40.6411 55.2378 40.6511C54.1478 40.6711 53.0478 40.6711 51.9578 40.6511C51.5378 40.6511 51.3978 40.7511 51.3878 41.1911C51.3078 43.2811 51.2978 43.2811 53.3578 43.2811C55.1378 43.2811 56.9177 43.2612 58.6877 43.2911C59.2277 43.2911 59.4777 43.1611 59.6977 42.6311C60.6977 40.1011 63.4178 38.8111 66.0078 39.5511C68.4978 40.2611 70.1478 42.8311 69.7378 45.3811C69.3078 48.0811 66.9378 50.0311 64.2078 49.8311C62.0578 49.6711 60.5177 48.5511 59.6877 46.5611C59.4877 46.0911 59.2878 45.8911 58.7578 45.9011C56.5178 45.9311 54.2677 45.9311 52.0277 45.9011C51.5377 45.9011 51.3778 46.0111 51.3778 46.5311C51.3578 48.5411 51.3378 48.5411 53.3578 48.5411C54.0178 48.5411 54.6677 48.5211 55.3277 48.5411C56.1077 48.5812 56.6378 49.1211 56.6378 49.8411C56.6378 50.5511 56.1078 51.1211 55.3378 51.1511C54.2478 51.1811 53.1477 51.1811 52.0577 51.1511C51.5977 51.1411 51.3878 51.2111 51.3778 51.7611C51.3578 53.7911 51.3278 53.7911 53.3378 53.7911C55.6378 53.7911 57.9378 53.8011 60.2278 53.7911C60.8778 53.7911 61.3777 53.9911 61.8277 54.4511C62.9677 55.6311 64.1577 56.7611 65.2877 57.9511C65.6677 58.3411 65.9478 58.4211 66.4778 58.1911C69.2578 56.9811 72.4278 58.3611 73.4578 61.1811C74.4878 63.9811 72.9878 67.0511 70.1378 67.9811C67.2778 68.9111 64.2378 67.2511 63.4578 64.3311C63.1478 63.1811 63.2078 62.0411 63.7078 60.9611C63.9078 60.5211 63.8977 60.2511 63.5277 59.9011C62.4577 58.8811 61.4278 57.8311 60.3878 56.7711C60.1378 56.5111 59.8778 56.4212 59.5178 56.4212C56.9178 56.4312 54.3178 56.4212 51.7278 56.4212C51.4378 56.4212 51.1678 56.3811 50.9878 56.7511C50.1778 58.4011 48.7878 59.1311 46.9878 59.0311C46.3178 58.9911 46.0678 59.1512 46.1178 59.8612C46.1878 60.8412 46.1478 61.8311 46.1278 62.8111C46.1178 63.7111 45.5877 64.2811 44.8177 64.2811C44.0477 64.2811 43.5278 63.7111 43.5078 62.8111C43.4878 61.7711 43.4878 60.7311 43.5078 59.6911C43.5178 59.2211 43.4378 59.0111 42.8878 59.0211C41.5178 59.0611 40.1577 59.0511 38.7877 59.0211C38.3477 59.0211 38.2278 59.1611 38.2378 59.5811C38.2678 60.5411 38.2778 61.5011 38.2378 62.4511C38.2078 62.9811 38.4078 63.1911 38.8978 63.3811C41.2578 64.3311 42.5878 66.7911 42.0878 69.2111C41.5578 71.7611 39.4677 73.4911 36.9077 73.4811C34.3977 73.4811 32.3177 71.7411 31.7977 69.2311C31.3077 66.8311 32.5877 64.3811 34.9077 63.4411C35.4877 63.2011 35.6878 62.9311 35.6478 62.3111C35.5878 61.4111 35.6178 60.5111 35.6478 59.6011C35.6578 59.2011 35.5678 59.0111 35.1178 59.0211C33.7278 59.0511 32.3277 59.0511 30.9377 59.0211C30.4977 59.0211 30.3778 59.1711 30.3878 59.5911C30.4078 60.6311 30.4078 61.6711 30.3878 62.7111C30.3878 63.6811 29.8878 64.2711 29.0978 64.2811C28.3078 64.2911 27.7778 63.7011 27.7678 62.7411C27.7578 61.7011 27.7478 60.6611 27.7678 59.6211C27.7778 59.1511 27.6377 59.0011 27.1677 59.0211C25.2477 59.1411 23.7378 58.4611 22.8778 56.6511C22.7278 56.3411 22.4878 56.4011 22.2578 56.4011C19.6278 56.4011 17.0078 56.4011 14.3778 56.4011C14.0178 56.4011 13.7678 56.5011 13.5178 56.7511C12.4878 57.8111 11.4478 58.8611 10.3778 59.8811C10.0578 60.1911 9.98772 60.4312 10.1777 60.8612C11.0777 62.9412 10.7877 64.9011 9.28771 66.5811C7.82771 68.2011 5.95777 68.7511 3.84777 68.1211C1.71777 67.4811 0.437777 65.9811 0.107777 63.7811C-0.192223 61.8111 0.497709 60.1511 2.03771 58.9111C3.63771 57.6311 5.45777 57.3511 7.34777 58.1411C7.93777 58.3911 8.25771 58.3012 8.66771 57.8612C9.75771 56.7112 10.9178 55.6312 12.0178 54.4812C12.5078 53.9712 13.0378 53.7411 13.7578 53.7511C16.4078 53.7811 19.0678 53.7511 21.7178 53.7711C22.2878 53.7711 22.5278 53.6911 22.5178 53.0311C22.4878 51.1311 22.5178 51.1311 20.5978 51.1311C19.9978 51.1311 19.3977 51.1311 18.7877 51.1311C17.8277 51.1111 17.2378 50.6011 17.2578 49.8011C17.2678 49.0011 17.8477 48.5211 18.8277 48.5111C19.8677 48.5111 20.9077 48.4911 21.9477 48.5111C22.3677 48.5211 22.4978 48.4011 22.5178 47.9611C22.5878 45.8711 22.6077 45.8711 20.5377 45.8711C18.7877 45.8711 17.0377 45.9011 15.2877 45.8511C14.6777 45.8311 14.3977 46.0111 14.1577 46.5911C13.2577 48.8111 10.8778 50.1311 8.60778 49.7511C6.13778 49.3411 4.2778 47.3711 4.1278 44.9911C3.9678 42.4911 5.41779 40.3111 7.74779 39.5611C10.3478 38.7211 13.1377 39.9811 14.1677 42.5311C14.4077 43.1311 14.7077 43.2711 15.3077 43.2611C17.4977 43.2211 19.6878 43.2311 21.8678 43.2611C22.3678 43.2611 22.5178 43.1411 22.5178 42.6311C22.5378 40.6311 22.5577 40.6311 20.5377 40.6311C19.8777 40.6311 19.2277 40.6511 18.5677 40.6311C17.7877 40.5911 17.2578 40.0411 17.2578 39.3311C17.2578 38.6111 17.7777 38.0511 18.5577 38.0311C19.6477 38.0011 20.7478 38.0011 21.8378 38.0311C22.2978 38.0411 22.5078 37.9712 22.5178 37.4212C22.5378 35.3912 22.5677 35.3911 20.5577 35.3911C19.5977 35.3911 18.6477 35.3911 17.6877 35.3911V35.4311ZM25.1278 44.5411C25.1278 47.9311 25.1278 51.3211 25.1278 54.7211C25.1278 56.0111 25.5678 56.4411 26.8478 56.4411C33.5778 56.4411 40.3077 56.4411 47.0377 56.4411C48.3177 56.4411 48.7578 56.0011 48.7578 54.7211C48.7578 47.9911 48.7578 41.2611 48.7578 34.5311C48.7578 33.2411 48.3177 32.8111 47.0377 32.8111C40.3077 32.8111 33.5778 32.8111 26.8478 32.8111C25.5578 32.8111 25.1278 33.2411 25.1278 34.5311C25.1278 37.8711 25.1278 41.2011 25.1278 44.5411ZM32.2877 16.0511C32.4177 15.5811 32.5378 15.2211 32.6178 14.8511C33.7578 9.78115 32.0877 6.55114 27.2977 4.59114C24.2477 3.35114 21.0377 2.91111 17.7877 2.62111C17.3177 2.58111 17.2277 2.76115 17.2777 3.17115C17.4477 4.42115 17.5578 5.67114 17.7578 6.91114C18.2078 9.67114 18.8978 12.3511 20.3378 14.8011C22.3278 18.1711 26.2778 19.1811 30.2678 17.7111C29.9778 17.4311 29.7077 17.1711 29.4277 16.9111C27.3577 14.9611 25.2878 13.0111 23.2178 11.0611C22.7778 10.6511 22.4278 10.2211 22.5978 9.56111C22.8678 8.49111 24.0377 8.2211 24.9177 9.0511C26.6477 10.6811 28.3678 12.3311 30.0878 13.9611C30.7978 14.6311 31.5077 15.3011 32.2877 16.0311V16.0511ZM43.8978 17.8211C47.8578 19.1411 51.8878 18.2611 54.0078 14.0011C55.5078 10.9911 56.0978 7.75113 56.4578 4.46113C56.5178 3.88113 56.8878 3.1211 56.5078 2.7411C56.1278 2.3611 55.3677 2.72115 54.7777 2.79115C51.4877 3.15115 48.2478 3.7411 45.2378 5.2411C40.9678 7.3611 39.9878 11.5311 41.6378 16.0111C41.8278 15.8311 42.0077 15.6711 42.1877 15.5011C44.4277 13.3811 46.6677 11.2511 48.9077 9.13111C49.5677 8.50111 50.2377 8.42111 50.8177 8.88111C51.4877 9.41111 51.4678 10.3111 50.7378 11.0111C49.1378 12.5411 47.5077 14.0411 45.9277 15.5911C45.1877 16.3111 44.5378 17.1211 43.8978 17.8311V17.8211ZM11.9978 44.6112C11.9978 43.1712 10.8178 42.0011 9.38781 42.0011C7.92781 42.0011 6.7278 43.2012 6.7578 44.6712C6.7878 46.1012 7.9677 47.2511 9.4077 47.2411C10.8277 47.2411 12.0078 46.0312 11.9978 44.6112ZM68.4978 60.3711C67.0678 60.3511 65.8678 61.5211 65.8378 62.9411C65.8078 64.4011 67.0078 65.6211 68.4678 65.6211C69.8978 65.6211 71.0778 64.4411 71.0878 63.0111C71.0878 61.5811 69.9178 60.3911 68.4978 60.3711ZM39.5777 68.2211C39.5777 66.8011 38.3778 65.6111 36.9578 65.6211C35.5178 65.6211 34.3478 66.7911 34.3378 68.2211C34.3278 69.6811 35.5378 70.8811 36.9978 70.8612C38.4278 70.8412 39.5877 69.6511 39.5777 68.2211ZM8.06774 26.2011C8.05774 24.7811 6.85773 23.6012 5.43773 23.6112C4.00773 23.6112 2.82775 24.7911 2.82775 26.2211C2.82775 27.6811 4.04779 28.8912 5.49779 28.8612C6.91779 28.8312 8.08775 27.6311 8.07775 26.2011H8.06774ZM71.0878 26.2511C71.0878 24.8211 69.9278 23.6312 68.4978 23.6112C67.0578 23.5912 65.8678 24.7412 65.8378 26.1712C65.8078 27.6312 67.0078 28.8512 68.4678 28.8612C69.8878 28.8612 71.0778 27.6811 71.0878 26.2511ZM64.5577 47.2312C65.9877 47.2212 67.1578 46.0311 67.1478 44.6011C67.1478 43.1411 65.9278 41.9511 64.4578 41.9911C63.0278 42.0211 61.8777 43.2311 61.9077 44.6611C61.9377 46.1011 63.1277 47.2512 64.5577 47.2312ZM5.45775 65.6112C6.88775 65.6112 8.06774 64.4211 8.06774 62.9911C8.06774 61.5311 6.84781 60.3312 5.38781 60.3612C3.95781 60.3912 2.80774 61.5811 2.81774 63.0211C2.83774 64.4411 4.02775 65.6212 5.45775 65.6112Z" fill="#B1D34C"/>
  <path d="M36.9278 38.061C38.1878 38.061 39.4378 38.061 40.6978 38.061C42.3878 38.071 43.4779 39.151 43.4979 40.811C43.5079 42.011 43.5079 43.2211 43.4979 44.4211C43.4979 45.3311 42.9878 45.911 42.2278 45.931C41.4378 45.951 40.8979 45.3611 40.8779 44.4111C40.8679 43.3711 40.8579 42.3311 40.8779 41.2911C40.8879 40.8611 40.7978 40.6611 40.3078 40.6711C38.0678 40.6911 35.8278 40.6911 33.5878 40.6711C33.1178 40.6711 32.9878 40.8111 32.9878 41.2711C33.0078 43.5111 33.0078 45.751 32.9878 47.991C32.9878 48.491 33.1879 48.561 33.6179 48.561C35.9179 48.541 38.2079 48.551 40.5079 48.561C41.5879 48.561 42.2078 49.0711 42.1878 49.9111C42.1678 50.7211 41.5679 51.181 40.5179 51.191C38.0879 51.191 35.6478 51.191 33.2178 51.191C31.4778 51.191 30.3879 50.1111 30.3779 48.3911C30.3679 45.8811 30.3679 43.3611 30.3779 40.8511C30.3779 39.1611 31.4679 38.091 33.1479 38.071C34.4079 38.061 35.6578 38.071 36.9178 38.071L36.9278 38.061Z" fill="#B1D34C"/>
</svg>