<svg xmlns="http://www.w3.org/2000/svg" width="107" height="96" viewBox="0 0 107 96" fill="#C6DA00">
  <path d="M0.29453 12.9978C0.466395 12.2997 0.618061 11.5916 0.820255 10.9036C2.53891 4.87382 7.89715 0.826921 14.3067 0.806686C22.9303 0.776335 31.5539 0.806686 40.1774 0.806686C50.0445 0.806686 59.9116 0.806686 69.7787 0.806686C70.0921 0.806686 70.4054 0.786452 70.7087 0.806686C71.6894 0.887624 72.3162 1.49468 72.3263 2.35464C72.3263 3.24495 71.6591 3.87218 70.6279 3.90253C70.1123 3.92276 69.5967 3.90253 69.071 3.90253C50.924 3.90253 32.7771 3.90253 14.6302 3.90253C9.53487 3.90253 5.54149 6.66455 3.97448 11.2173C3.59031 12.3403 3.39828 13.4835 3.39828 14.6672C3.39828 28.3051 3.39826 41.943 3.37804 55.5809C3.37804 56.2891 3.53981 56.5521 4.27782 56.5117C5.45055 56.4509 6.62326 56.4509 7.79598 56.5117C8.55421 56.5521 8.72609 56.2587 8.69576 55.5606C8.64522 54.1139 8.68565 52.657 8.68565 51.2103C8.68565 39.7172 8.68565 28.2141 8.68565 16.721C8.68565 13.18 10.4145 10.6204 13.417 9.57829C14.246 9.29501 15.0952 9.21403 15.9646 9.21403C40.8345 9.21403 65.7045 9.21403 90.5845 9.21403C95.0226 9.21403 97.8634 12.1581 97.8634 16.7007C97.8735 29.5394 97.8736 42.3882 97.8433 55.2268C97.8433 56.1778 98.005 56.6027 99.0665 56.4915C100.128 56.3903 101.21 56.4206 102.271 56.4915C103.009 56.5319 103.191 56.2891 103.181 55.5708C103.151 51.706 103.161 47.8413 103.161 43.9664C103.161 34.2337 103.181 24.4909 103.161 14.7583C103.151 9.55805 99.8046 5.35942 94.8104 4.17571C93.8298 3.94302 92.8389 3.88234 91.8381 3.88234C87.5212 3.88234 83.2144 3.88234 78.8976 3.88234C77.7148 3.88234 77.0779 3.34609 77.0577 2.38496C77.0375 1.39348 77.7047 0.806719 78.9178 0.776367C79.0189 0.776367 79.1201 0.776367 79.2313 0.776367C83.5481 0.776367 87.8548 0.776367 92.1717 0.776367C93.4556 0.776367 94.7193 0.917968 95.9628 1.24172C102.019 2.84022 106.265 8.27316 106.275 14.5559C106.295 30.2274 106.305 45.8988 106.275 61.5702C106.255 69.1277 100.108 75.2587 92.5558 75.2992C84.7916 75.3397 77.0274 75.3295 69.2732 75.2891C68.3229 75.2891 68.1409 75.4914 68.3127 76.4323C68.7475 78.8098 69.071 81.1975 69.3945 83.5952C69.4653 84.1112 69.6372 84.263 70.1528 84.3035C74.0551 84.607 76.4713 86.8631 77.0779 90.7379C77.4621 93.2065 75.8041 95.3412 73.2868 95.584C72.9835 95.6144 72.67 95.6043 72.3566 95.6043C59.6285 95.6043 46.9003 95.6043 34.1722 95.6043C33.6566 95.6043 33.131 95.5638 32.6356 95.4626C30.7148 95.0377 29.3399 93.3785 29.4814 91.4158C29.7645 87.5106 32.12 84.5361 36.174 84.3338C36.9323 84.2933 37.1445 84.0606 37.2355 83.3524C37.5388 80.9952 37.8825 78.6378 38.297 76.2906C38.4386 75.4914 38.2768 75.2992 37.468 75.3093C30.9877 75.3397 24.4972 75.3296 18.0068 75.3296C17.5619 75.3296 17.1071 75.3296 16.6622 75.3296C15.5502 75.2992 14.8424 74.6921 14.8323 73.7715C14.8323 72.8508 15.5299 72.2337 16.6521 72.2236C21.1712 72.2135 25.6902 72.2236 30.2093 72.2236C50.8028 72.2236 71.3962 72.2236 91.9897 72.2236C97.358 72.2236 101.554 69.0468 102.837 64.0692C103.171 62.7843 103.171 61.4792 103.171 60.164C103.171 59.7896 103.07 59.567 102.655 59.6075C102.413 59.6277 102.17 59.6075 101.928 59.6075C69.4956 59.6075 37.0737 59.6075 4.64176 59.5772C3.58024 59.5772 3.3578 59.8503 3.3578 60.8721C3.37802 65.5564 5.34939 69.0164 9.52471 71.1916C10.6064 71.7481 10.9503 72.5878 10.4852 73.4477C10.0505 74.2571 9.181 74.4696 8.15992 73.9637C3.95428 71.8796 1.41678 68.5005 0.496798 63.9073C0.44625 63.6442 0.476608 63.3509 0.274414 63.1283C0.274414 46.4148 0.274414 29.7113 0.274414 12.9978H0.29453ZM51.7328 34.436C51.7328 27.4653 51.7126 20.4946 51.753 13.5239C51.753 12.6033 51.5408 12.3099 50.5703 12.32C39.1564 12.3605 27.7324 12.3402 16.3185 12.3402C13.2553 12.3402 11.7994 13.7769 11.7994 16.8221C11.7994 29.6608 11.7995 42.4994 11.7793 55.3381C11.7793 56.2891 12.0421 56.5218 12.9823 56.5218C25.4981 56.4914 38.0241 56.4813 50.5399 56.5218C51.5812 56.5218 51.7631 56.198 51.753 55.247C51.7126 48.3066 51.7328 41.3764 51.7328 34.436ZM54.8365 34.436C54.8365 41.4472 54.8365 48.4483 54.8264 55.4595C54.8264 56.2183 54.9578 56.5218 55.8273 56.5218C68.4846 56.4914 81.1421 56.4914 93.7994 56.5218C94.5577 56.5218 94.7902 56.3396 94.7902 55.5505C94.7699 42.5702 94.78 29.59 94.7699 16.6198C94.7699 13.8376 93.2534 12.3504 90.4632 12.3504C78.9482 12.3504 67.4231 12.3504 55.9081 12.3301C55.0387 12.3301 54.8163 12.5831 54.8264 13.4329C54.8567 20.4441 54.8467 27.4451 54.8467 34.4563L54.8365 34.436ZM53.2291 84.3035C57.3033 84.3035 61.3674 84.3035 65.4416 84.3035C65.9269 84.3035 66.402 84.4147 66.2706 83.5851C65.8459 81.1064 65.4719 78.6176 65.1383 76.1187C65.0574 75.5116 64.8855 75.3093 64.2587 75.3093C56.9494 75.3295 49.63 75.3295 42.3207 75.3093C41.6939 75.3093 41.522 75.5116 41.4412 76.1187C41.1176 78.5468 40.7638 80.9749 40.3493 83.3828C40.2179 84.1517 40.3998 84.3237 41.1378 84.3136C45.1716 84.2832 49.2053 84.3035 53.2492 84.3035H53.2291ZM53.2695 92.5084C59.5375 92.5084 65.8156 92.5084 72.0836 92.5084C72.397 92.5084 72.7105 92.5287 73.0138 92.4882C73.7619 92.3769 74.0854 91.9318 73.9843 91.1831C73.6608 88.7651 72.1646 87.4094 69.7382 87.4094C58.7793 87.4094 47.8204 87.4094 36.8614 87.4094C34.5867 87.4094 33.4241 88.2997 32.7872 90.4546C32.3019 92.0936 32.6154 92.5084 34.3542 92.5084C40.6627 92.5084 46.9711 92.5084 53.2796 92.5084H53.2695Z" fill="#C6DA00"/>
  <path d="M36.9222 24.5718C36.8413 24.8248 36.73 25.189 36.6087 25.5431C34.3542 31.755 32.0998 37.9669 29.8454 44.1687C29.7847 44.3306 29.7341 44.4925 29.6633 44.6544C29.269 45.5548 28.4906 45.9494 27.6717 45.6762C26.8326 45.3929 26.4282 44.533 26.772 43.5718C27.5807 41.2651 28.4299 38.9787 29.269 36.6821C30.7349 32.6352 32.2008 28.5985 33.6667 24.5516C33.7881 24.2279 33.8993 23.894 34.0914 23.6108C34.4958 22.9936 35.1124 22.7811 35.81 22.9936C36.5076 23.1959 36.8514 23.7422 36.9323 24.5718H36.9222Z" fill="#C6DA00"/>
  <path d="M24.8508 26.4232C25.5484 26.403 26.0539 26.6761 26.3168 27.2629C26.6403 27.961 26.4785 28.5984 25.9326 29.1447C24.4263 30.6522 22.9402 32.19 21.3934 33.657C20.8272 34.1932 20.8272 34.4866 21.3934 35.0228C22.8896 36.4392 24.3353 37.9264 25.7911 39.3934C26.6403 40.2533 26.7211 41.1639 26.0236 41.8417C25.3563 42.4993 24.4262 42.4083 23.577 41.5585C21.6258 39.616 19.6746 37.6633 17.7335 35.7107C16.7529 34.7192 16.7529 33.9504 17.7335 32.9589C19.6746 31.0063 21.6258 29.0638 23.577 27.1112C23.951 26.7368 24.3352 26.4029 24.8609 26.4131L24.8508 26.4232Z" fill="#C6DA00"/>
  <path d="M46.4958 34.335C46.5261 34.8712 46.2633 35.2557 45.9095 35.6098C43.8875 37.6332 41.8757 39.6566 39.8436 41.6699C39.0753 42.4287 38.0946 42.4591 37.4678 41.8015C36.8612 41.1641 36.9118 40.2535 37.6498 39.5048C39.1663 37.9569 40.6928 36.409 42.2598 34.9117C42.7248 34.4564 42.7046 34.2136 42.2598 33.7786C40.7433 32.3217 39.2775 30.8243 37.8015 29.327C36.9421 28.4569 36.841 27.5666 37.4981 26.8787C38.1654 26.1806 39.1359 26.2817 40.0154 27.1619C41.9464 29.0842 43.8571 31.0065 45.788 32.9287C46.1823 33.3233 46.5565 33.728 46.516 34.335H46.4958Z" fill="#C6DA00"/>
  <path d="M68.9494 41.6596C66.9881 41.6596 65.0269 41.6596 63.0555 41.6596C61.7715 41.6596 61.1447 41.1436 61.1245 40.1522C61.1043 39.1506 61.7513 38.5638 62.9846 38.5638C66.9476 38.5435 70.9107 38.5435 74.8636 38.5638C76.1576 38.5638 76.8957 39.2922 76.7238 40.3444C76.5722 41.2954 75.9352 41.6596 75.0355 41.6596C73.0034 41.6596 70.9713 41.6596 68.9393 41.6596H68.9494Z" fill="#C6DA00"/>
  <path d="M68.7875 27.2833C70.7185 27.2833 72.6394 27.2833 74.5704 27.2833C75.7128 27.2833 76.4002 27.8498 76.4406 28.7604C76.4811 29.7013 75.7431 30.3791 74.5805 30.3791C70.6882 30.3893 66.8061 30.3893 62.9138 30.3791C61.7815 30.3791 61.1244 29.7721 61.1143 28.8312C61.1143 27.8701 61.7512 27.2934 62.8936 27.2833C64.8549 27.2732 66.8162 27.2833 68.7775 27.2833H68.7875Z" fill="#C6DA00"/>
  <path d="M79.1097 36.0143C77.3203 36.0143 75.5207 36.0143 73.7313 36.0143C72.5788 36.0143 71.9217 35.4377 71.9015 34.4968C71.8914 33.5458 72.5586 32.9185 73.6707 32.9185C77.3203 32.8983 80.98 32.8983 84.6296 32.9185C85.6709 32.9185 86.3583 33.566 86.3684 34.4462C86.3886 35.3669 85.6811 36.0042 84.5791 36.0143C82.7492 36.0245 80.9295 36.0143 79.0996 36.0143H79.1097Z" fill="#C6DA00"/>
  <path d="M77.6033 47.3353C76.4305 47.3353 75.2578 47.3555 74.0851 47.3353C72.9427 47.315 72.2957 46.7181 72.3058 45.7671C72.3058 44.806 72.9426 44.2597 74.1153 44.2496C76.4911 44.2293 78.8771 44.2293 81.2529 44.2496C82.3649 44.2496 83.0726 44.887 83.0625 45.7975C83.0524 46.708 82.3447 47.3252 81.2225 47.3454C80.0194 47.3656 78.8063 47.3454 77.6033 47.3454V47.3353Z" fill="#C6DA00"/>
  <path d="M77.3303 21.6378C78.4323 21.6378 79.5342 21.6175 80.6362 21.6378C81.6775 21.6681 82.2538 22.2043 82.2942 23.0946C82.3245 24.0254 81.7381 24.683 80.6765 24.7134C78.4423 24.7538 76.2082 24.7538 73.9638 24.7134C72.8922 24.6931 72.2957 24.0557 72.3058 23.125C72.326 22.1942 72.9224 21.658 74.0244 21.6276C75.1264 21.6074 76.2283 21.6276 77.3303 21.6276V21.6378Z" fill="#C6DA00"/>
  <path d="M83.7401 27.2832C84.7713 27.2832 85.8025 27.2629 86.8337 27.2832C87.8346 27.3034 88.4513 27.8598 88.4917 28.74C88.5322 29.6606 87.9154 30.3486 86.8842 30.3689C84.7511 30.4093 82.6179 30.4093 80.4848 30.3689C79.5143 30.3486 78.9178 29.6809 78.9279 28.8007C78.9279 27.9104 79.5446 27.3135 80.5354 27.2932C81.5969 27.2629 82.6685 27.2932 83.73 27.2932L83.7401 27.2832Z" fill="#C6DA00"/>
  <path d="M83.8511 41.6496C82.8502 41.6496 81.8494 41.6597 80.8586 41.6496C79.9285 41.6293 79.3725 41.1437 79.2714 40.2129C79.1805 39.353 79.8072 38.6145 80.7677 38.5841C82.83 38.5234 84.9025 38.5234 86.9649 38.5841C87.9557 38.6043 88.5218 39.2923 88.4915 40.1826C88.4612 41.0729 87.8748 41.599 86.8436 41.6597C86.7728 41.6597 86.702 41.6597 86.6413 41.6597C85.7113 41.6597 84.7811 41.6597 83.8511 41.6597V41.6496Z" fill="#C6DA00"/>
  <path d="M65.5025 44.2396C66.4022 44.2396 67.2919 44.2093 68.1917 44.2396C69.1622 44.27 69.8092 44.9175 69.8092 45.7572C69.8092 46.5969 69.1622 47.2849 68.2018 47.3051C66.3719 47.3456 64.542 47.3456 62.7223 47.3051C61.7214 47.2849 61.1351 46.6475 61.125 45.7673C61.125 44.8264 61.7215 44.2599 62.8134 44.2296C63.7131 44.1992 64.6027 44.2296 65.5025 44.2296V44.2396Z" fill="#C6DA00"/>
  <path d="M65.5123 21.6378C66.4121 21.6378 67.3018 21.6277 68.2015 21.6378C69.1417 21.6479 69.6876 22.1639 69.7988 23.0744C69.8999 23.8939 69.2327 24.6729 68.2823 24.7033C66.3918 24.764 64.4912 24.764 62.6007 24.7033C61.6201 24.6729 61.0438 23.9647 61.1247 23.0643C61.2056 22.1133 61.792 21.6682 62.712 21.6479C63.6421 21.6277 64.5721 21.6479 65.5022 21.6479L65.5123 21.6378Z" fill="#C6DA00"/>
  <path d="M65.219 36.0043C64.3597 36.0043 63.5003 36.0347 62.641 36.0043C61.7311 35.9639 61.1448 35.3568 61.1245 34.507C61.1043 33.6571 61.6705 32.9692 62.5703 32.9388C64.3597 32.8882 66.1491 32.8882 67.9385 32.9388C68.8281 32.9591 69.4347 33.6773 69.4246 34.4968C69.4246 35.3467 68.7675 35.9841 67.8071 36.0144C66.9477 36.0448 66.0885 36.0144 65.2292 36.0144L65.219 36.0043Z" fill="#C6DA00"/>
</svg>