<svg width="101" height="84" viewBox="0 0 101 84" fill="none" xmlns="http://www.w3.org/2000/svg">
<path d="M100.965 35.2506C100.165 37.9106 98.3551 39.2706 95.5851 39.3506C95.0651 39.3706 94.8451 39.6106 94.7151 40.0706C94.3251 41.3806 93.8351 42.6606 93.1551 43.8406C92.8151 44.4306 92.9151 44.8206 93.3351 45.2906C94.5951 46.7006 95.2451 48.3006 94.7251 50.2206C94.7251 50.2506 94.7151 50.2806 94.7051 50.3206C94.1951 52.1506 89.8551 56.4606 88.0051 56.9506C86.3351 57.3906 84.7951 57.0606 83.5451 55.9206C82.6851 55.1406 81.9851 55.0806 81.0051 55.6706C80.1251 56.2006 79.1151 56.5406 78.125 56.8406C77.4351 57.0506 77.1551 57.3406 77.0851 58.0906C76.8251 60.8406 75.5551 62.5906 73.2751 63.0006C71.0051 63.4006 68.6651 63.3906 66.3851 63.0006C64.3251 62.6506 62.8951 60.9706 62.6951 58.8606C62.5851 57.6206 62.2351 56.8506 60.8851 56.6006C60.0451 56.4406 59.2051 56.0506 58.4751 55.5806C57.5551 54.9906 56.9451 55.2006 56.1851 55.8606C54.8251 57.0606 53.2151 57.4206 51.4551 56.8906C49.7751 56.3906 45.4551 52.0706 44.9651 50.4006C44.4951 48.7906 44.6851 47.2206 45.7951 46.0006C46.7451 44.9606 46.7951 44.1206 46.0951 42.9606C45.5851 42.1106 45.2851 41.1206 44.9751 40.1706C44.8051 39.6306 44.5752 39.3906 43.9852 39.3306C40.2652 38.9606 38.6851 37.1906 38.6851 33.4706C38.6851 32.2706 38.6751 31.0606 38.6851 29.8606C38.7251 27.1606 40.5051 25.1506 43.2051 24.9006C44.3051 24.8006 44.9451 24.4806 45.2051 23.3006C45.4051 22.3606 45.8251 21.4306 46.3351 20.6206C46.8751 19.7606 46.6951 19.2006 46.0851 18.5106C44.9151 17.1906 44.4651 15.6406 44.9151 13.8906C45.1551 12.9906 45.6251 12.2206 46.2751 11.5606C47.2651 10.5706 48.245 9.57064 49.245 8.59064C51.295 6.58064 53.8751 6.3606 56.0951 8.1806C56.9751 8.9006 57.6451 9.06061 58.625 8.44061C59.385 7.96061 60.2551 7.58063 61.1351 7.40063C62.2351 7.17063 62.5251 6.5706 62.6451 5.5506C63.0251 2.5106 64.9152 0.910625 67.9852 0.890625C69.1252 0.890625 70.2651 0.890625 71.4051 0.890625C74.8551 0.890625 76.7151 2.53059 77.0751 5.98059C77.1551 6.71059 77.3851 7.06061 78.0951 7.25061C79.3151 7.58061 80.4951 8.07063 81.5951 8.71063C82.1851 9.05063 82.5651 8.9806 83.0451 8.5506C84.3851 7.3406 85.9151 6.67064 87.7751 7.09064C88.7551 7.31064 89.5851 7.7806 90.2951 8.4906C91.2851 9.4806 92.2851 10.4606 93.2651 11.4606C95.3051 13.5306 95.4951 16.1406 93.6451 18.3906C92.9751 19.2006 92.8251 19.8106 93.375 20.7606C93.9351 21.7306 94.2951 22.8406 94.6651 23.9106C94.8451 24.4206 95.0051 24.7406 95.6351 24.7606C98.3451 24.8606 100.135 26.2106 100.965 28.8006V35.2406V35.2506ZM57.1651 50.7106C57.5251 50.7406 57.8651 50.8406 58.1751 51.0306C60.1951 52.2506 62.3451 53.1406 64.6351 53.7106C65.6051 53.9506 66.0951 54.6206 66.1951 55.6006C66.2951 56.4706 66.4051 57.3406 66.5051 58.2106C66.5951 58.9506 67.005 59.2906 67.745 59.2806C69.115 59.2606 70.4751 59.2606 71.8451 59.2806C72.6551 59.3006 73.0551 58.9206 73.1451 58.1506C73.2451 57.3106 73.3351 56.4706 73.4251 55.6306C73.5351 54.6206 74.0451 53.9306 75.0551 53.6806C77.3151 53.1306 79.4351 52.2406 81.4251 51.0406C82.2851 50.5206 83.0952 50.6406 83.8652 51.2506C84.5552 51.8006 85.2451 52.3306 85.9351 52.8806C86.5151 53.3406 87.0551 53.3206 87.5851 52.7906C88.5751 51.8006 89.5651 50.8106 90.5551 49.8206C91.0851 49.3006 91.1151 48.7606 90.6451 48.1806C90.1351 47.5506 89.6351 46.9106 89.1351 46.2606C88.2951 45.1606 88.2451 44.6006 88.9351 43.4206C90.0251 41.5606 90.8451 39.5906 91.3851 37.5006C91.7051 36.2406 92.2551 35.7906 93.5651 35.6506C94.3451 35.5706 95.1151 35.4906 95.8951 35.3906C96.6551 35.3006 97.0551 34.9006 97.0451 34.0906C97.0251 32.7206 97.0351 31.3606 97.0451 29.9906C97.0451 29.2606 96.7352 28.8206 95.9852 28.7406C95.0852 28.6406 94.1751 28.5106 93.2751 28.4006C92.3251 28.2906 91.6951 27.7806 91.4651 26.8706C90.8951 24.5806 90.0051 22.4306 88.7851 20.4106C88.2851 19.5906 88.3851 18.8006 88.9551 18.0506C89.4951 17.3606 90.0351 16.6606 90.5851 15.9806C91.0751 15.3806 91.1051 14.8206 90.5351 14.2606C89.5451 13.2806 88.5551 12.2806 87.5651 11.2906C87.0351 10.7606 86.4951 10.7506 85.9251 11.2206C85.2451 11.7706 84.5452 12.3106 83.8552 12.8506C83.0452 13.4906 82.2151 13.5406 81.3251 13.0006C79.3951 11.8306 77.3351 10.9706 75.1351 10.4406C74.0851 10.1906 73.5351 9.51063 73.4251 8.46063C73.3351 7.62063 73.2451 6.78061 73.1451 5.94061C73.0551 5.17061 72.6151 4.7906 71.8351 4.8006C70.4651 4.8006 69.1052 4.8006 67.7352 4.8006C67.0052 4.8006 66.585 5.16063 66.495 5.90063C66.395 6.77063 66.2751 7.64062 66.1851 8.51062C66.0751 9.49062 65.5752 10.1606 64.6152 10.4006C62.3552 10.9606 60.235 11.8406 58.245 13.0306C57.355 13.5606 56.5251 13.4706 55.7251 12.8106C55.0451 12.2506 54.3451 11.7306 53.6551 11.1806C53.1051 10.7506 52.5851 10.7606 52.0951 11.2606C51.0851 12.2706 50.0751 13.2906 49.0551 14.3006C48.5651 14.7906 48.5251 15.3106 48.9551 15.8606C49.5151 16.5806 50.0851 17.2906 50.6451 18.0106C51.2551 18.7906 51.3251 19.6006 50.8151 20.4506C49.6251 22.4406 48.7351 24.5606 48.1851 26.8206C47.9551 27.7706 47.2951 28.2906 46.3051 28.3906C45.4351 28.4806 44.5651 28.6206 43.6951 28.7106C42.8851 28.8006 42.5751 29.2606 42.5851 30.0306C42.5951 31.3606 42.6051 32.7006 42.5851 34.0306C42.5751 34.8806 42.9951 35.2906 43.7951 35.3706C44.6351 35.4606 45.4751 35.5406 46.3151 35.6506C47.3351 35.7706 47.9751 36.3306 48.2151 37.3406C48.7451 39.5406 49.6051 41.6006 50.7751 43.5306C51.3351 44.4606 51.2651 45.3106 50.5851 46.1406C50.0551 46.8006 49.5551 47.4806 49.0151 48.1306C48.5051 48.7506 48.565 49.3006 49.125 49.8506C50.095 50.8106 51.0651 51.7706 52.0251 52.7506C52.5851 53.3206 53.145 53.3206 53.745 52.8306C54.405 52.3006 55.0752 51.7906 55.7352 51.2606C56.1552 50.9206 56.6151 50.7106 57.1551 50.6906L57.1651 50.7106Z" fill="black"/>
<path d="M42.235 47.0004C42.265 47.9104 42.0149 48.7904 41.3849 49.4904C40.9049 50.0304 40.8949 50.4904 41.2649 51.0404C41.3049 51.0904 41.335 51.1504 41.355 51.2104C41.725 52.5504 42.3249 53.4004 43.9249 53.7104C45.6649 54.0504 46.505 55.5904 46.585 57.3804C46.635 58.5204 46.645 59.6604 46.585 60.8004C46.475 62.9704 45.105 64.4504 42.975 64.7404C42.385 64.8204 41.9949 65.0004 41.8849 65.6204C41.8549 65.8104 41.7749 66.0004 41.6749 66.1604C41.0049 67.2604 40.9749 68.1804 41.7649 69.3804C42.7149 70.8304 42.4149 72.4704 41.2549 73.8104C40.4249 74.7704 39.5149 75.6604 38.575 76.5104C37.095 77.8404 35.055 77.9504 33.465 76.7304C32.835 76.2504 32.3449 76.1904 31.7449 76.6104C31.7149 76.6304 31.6849 76.6404 31.6549 76.6504C30.3449 77.0504 29.4349 77.6204 29.1749 79.2304C28.9149 80.8304 27.195 81.8504 25.485 81.8904C24.375 81.9204 23.2749 81.9204 22.1649 81.8904C20.0549 81.8504 18.4649 80.4604 18.1449 78.3604C18.0449 77.7104 17.8649 77.2504 17.1549 77.1504C16.9949 77.1304 16.835 77.0604 16.705 76.9804C15.605 76.2804 14.665 76.2504 13.485 77.0704C12.085 78.0504 10.2049 77.6404 8.90491 76.4304C8.07491 75.6504 7.26498 74.8404 6.48498 74.0204C5.02498 72.4704 4.87494 70.3904 6.19494 68.6904C6.62494 68.1304 6.69493 67.6904 6.30493 67.1404C6.26493 67.0904 6.25498 67.0204 6.23498 66.9604C5.82498 65.6704 5.27492 64.7504 3.66492 64.4504C1.96492 64.1304 1.10488 62.6404 1.00488 60.8804C0.934881 59.7104 0.964881 58.5404 1.00488 57.3704C1.05488 55.3004 2.52498 53.6604 4.60498 53.4204C5.20498 53.3504 5.58494 53.1804 5.69494 52.5604C5.72495 52.4004 5.79488 52.2504 5.87488 52.1104C6.52488 50.9604 6.68492 49.9904 5.79492 48.7104C4.80492 47.2904 5.21488 45.6204 6.37488 44.3004C7.18488 43.3704 8.07487 42.5004 8.99487 41.6704C10.4749 40.3204 12.5349 40.2404 14.1849 41.4704C14.7349 41.8804 15.1849 42.0104 15.7449 41.6004C15.7949 41.5604 15.8549 41.5304 15.9249 41.5204C17.2649 41.1504 18.1149 40.5404 18.4449 38.9504C18.8149 37.1604 20.385 36.3504 22.205 36.2604C23.275 36.2104 24.3549 36.2204 25.4249 36.2604C27.6549 36.3504 29.2149 37.7604 29.4949 39.9704C29.5649 40.4904 29.6949 40.8304 30.2449 40.9304C30.4349 40.9604 30.6249 41.0304 30.7949 41.1304C31.9549 41.8204 32.935 41.9204 34.205 41.0504C35.555 40.1304 37.185 40.4404 38.465 41.5304C39.495 42.4204 40.445 43.4204 41.365 44.4204C42.005 45.1104 42.2749 45.9804 42.2649 46.9704L42.235 47.0004ZM38.325 47.0904C38.385 47.0104 38.4549 46.9304 38.5149 46.8504C38.0649 46.4804 37.5949 46.1504 37.1849 45.7404C35.8949 44.4804 35.885 44.4404 34.465 45.6004C33.515 46.3804 32.5949 46.5104 31.5249 45.8504C30.3049 45.0904 28.9749 44.5604 27.5749 44.2304C26.4849 43.9704 25.9249 43.2804 25.8049 42.1804C25.5749 40.1604 25.555 40.1504 23.465 40.1704C22.025 40.1804 22.005 39.8604 21.855 41.5904C21.685 43.5004 21.3749 43.8404 19.5649 44.3604C18.3349 44.7104 17.165 45.1904 16.085 45.8504C15.065 46.4704 14.165 46.4204 13.225 45.6604C11.715 44.4504 11.695 44.4704 10.365 45.8104C9.58499 46.5904 9.53831 47.4204 10.225 48.3004C11.225 49.5704 11.2749 50.1104 10.5049 51.4804C9.82488 52.6704 9.29497 53.9204 8.97497 55.2604C8.70497 56.3804 7.99499 56.9504 6.86499 57.0904C4.91499 57.3304 4.91492 57.3404 4.91492 59.2804C4.91492 60.3338 5.46494 60.9271 6.56494 61.0604C8.19494 61.2604 8.58491 61.5904 9.03491 63.2004C9.39491 64.4604 9.86493 65.6704 10.5549 66.7804C11.2349 67.8704 11.1149 68.8304 10.3049 69.8104C9.16493 71.1904 9.19493 71.2104 10.4249 72.4404C11.2849 73.2937 12.1916 73.3504 13.1449 72.6104C14.2849 71.7204 14.8749 71.6604 16.1649 72.3904C17.3049 73.0304 18.4849 73.6004 19.7549 73.8804C21.1049 74.1704 21.725 74.9404 21.865 76.3004C22.045 78.0204 22.095 78.0204 23.865 78.0204C25.635 78.0204 25.6449 78.0204 25.8249 76.2304C25.9649 74.8104 26.3649 74.3304 27.7849 73.9304C29.0749 73.5704 30.305 73.0704 31.465 72.4104C32.765 71.6604 33.3449 71.7204 34.5649 72.6704C35.4783 73.3837 36.3549 73.3204 37.1949 72.4804C38.0349 71.6404 38.0917 70.7604 37.365 69.8404C36.395 68.6004 36.3549 68.1404 37.1349 66.7504C37.7749 65.6104 38.325 64.4304 38.605 63.1604C38.895 61.8604 39.635 61.2404 40.955 61.1004C42.735 60.9104 42.735 60.8704 42.735 59.0404C42.735 57.9004 42.1483 57.2671 40.975 57.1404C39.535 56.9904 39.0549 56.6004 38.6549 55.2004C38.3249 54.0404 37.9849 52.8604 37.3049 51.8704C36.3349 50.4504 36.4349 49.2304 37.6449 48.0404C37.9149 47.7704 38.125 47.4304 38.355 47.1204L38.325 47.0904Z" fill="black"/>
<path d="M22.7953 20.9607C23.0053 20.8707 23.1953 20.7807 23.4053 20.7107C24.3053 20.4207 25.2254 20.7407 25.6954 21.5207C26.1954 22.3307 26.1054 23.3907 25.3154 23.9907C23.8054 25.1207 22.2553 26.2007 20.6753 27.2307C19.8553 27.7607 18.8154 27.5507 18.2254 26.7607C17.1454 25.3007 16.1054 23.8007 15.1054 22.2807C14.5154 21.3807 14.7654 20.2607 15.5754 19.6707C16.4254 19.0507 17.4454 19.1707 18.2054 19.9907C18.3554 20.1507 18.4954 20.3307 18.7254 20.6107C18.9354 19.7007 19.0953 18.8907 19.2953 18.1007C21.9153 7.85068 31.3053 0.720719 41.8953 0.950719C42.3853 0.960719 42.8754 1.00072 43.3554 1.08072C44.3954 1.25072 45.0254 2.0307 44.9854 3.0607C44.9454 4.0907 44.1854 4.91073 43.0954 4.90073C41.7954 4.88073 40.5054 4.8707 39.1954 4.9907C31.0954 5.7407 23.8154 12.6907 22.7254 20.7507C22.7254 20.8107 22.7553 20.8707 22.7953 20.9807V20.9607Z" fill="black"/>
<path d="M79.6853 71.221C79.3253 71.201 79.0753 71.201 78.8253 71.161C77.9253 71.001 77.2453 70.2311 77.1853 69.3411C77.1353 68.5011 77.6653 67.6011 78.5453 67.4211C80.4553 67.0211 82.3753 66.6711 84.3053 66.4211C85.2753 66.2911 86.0553 67.031 86.2653 68.101C86.5753 69.701 86.8554 71.3011 87.0954 72.9011C87.3054 74.2911 86.7253 75.2111 85.5753 75.4411C84.5153 75.6511 83.6453 75.0011 83.2753 73.7111C83.2353 73.5911 83.2053 73.4611 83.1353 73.2311C82.6853 73.831 82.3053 74.3811 81.8853 74.9011C75.0653 83.5711 63.1153 86.1311 53.3354 81.0111C51.8054 80.2111 51.3253 79.2311 51.9153 78.0911C52.5053 76.9511 53.5854 76.791 55.1154 77.541C62.1854 81.021 68.9454 80.4211 75.3554 75.8811C77.0854 74.6611 78.5053 73.101 79.6853 71.2311V71.221Z" fill="black"/>
<path d="M69.8347 50.9704C60.1847 51.0504 51.7046 43.3104 50.9946 33.7804C50.2346 23.5204 57.2746 14.7004 67.2946 13.3404C75.1046 12.2904 82.7647 16.1604 86.4447 23.0204C86.8847 23.8404 86.9846 24.6304 86.4046 25.3904C85.8746 26.0904 85.1346 26.2604 84.3046 26.0504C83.5746 25.8704 83.2346 25.2604 82.8846 24.6604C80.6346 20.8004 77.3247 18.3704 72.9747 17.3904C64.9447 15.5804 56.8046 20.9104 55.1346 29.0504C53.4646 37.1804 58.8847 45.2904 66.9747 46.7804C73.4447 47.9704 79.5846 45.1504 82.8946 39.4604C82.9746 39.3204 83.0546 39.1804 83.1446 39.0404C83.8046 38.0104 84.8547 37.6804 85.8147 38.2104C86.7947 38.7504 87.1046 39.9004 86.5046 41.0004C84.3746 44.9104 81.2646 47.7504 77.1646 49.5004C74.8346 50.4904 72.3847 50.9604 69.8547 50.9704H69.8347Z" fill="black"/>
<path d="M59.8947 32.1107C59.8647 26.6107 64.2647 22.1708 69.7647 22.1408C75.2947 22.1108 79.7947 26.5708 79.7847 32.0808C79.7747 37.5508 75.3148 42.0207 69.8448 42.0407C64.3948 42.0607 59.9147 37.6008 59.8947 32.1208V32.1107ZM69.8247 26.0407C66.4847 26.0407 63.8247 28.6908 63.7947 32.0308C63.7647 35.3808 66.4947 38.1408 69.8347 38.1408C73.1247 38.1408 75.8447 35.4308 75.8747 32.1208C75.9047 28.7708 73.1947 26.0407 69.8247 26.0407Z" fill="black"/>
<path d="M88.7145 32.081C88.7145 33.141 87.8745 34.031 86.8145 34.051C85.7845 34.071 84.8745 33.191 84.8445 32.151C84.8145 31.051 85.6945 30.161 86.8045 30.171C87.8945 30.171 88.7045 30.991 88.7045 32.091L88.7145 32.081Z" fill="black"/>
<path d="M23.7649 48.6603C29.5349 48.6503 34.195 53.2703 34.225 59.0403C34.255 64.8403 29.5449 69.5704 23.7749 69.5504C18.0449 69.5204 13.335 64.8104 13.335 59.0904C13.335 53.3604 18.0249 48.6704 23.7749 48.6504L23.7649 48.6603ZM23.825 52.5704C20.235 52.5504 17.295 55.4204 17.235 59.0104C17.175 62.5904 20.1449 65.6204 23.7549 65.6504C27.3349 65.6804 30.2749 62.7704 30.3149 59.1804C30.3549 55.5204 27.485 52.5904 23.825 52.5704Z" fill="black"/>
</svg>
