<svg width="112" height="110" viewBox="0 0 112 110" fill="none" xmlns="http://www.w3.org/2000/svg">
    <path
        d="M73.7347 50.2699C73.2847 50.2699 72.8346 50.2699 72.3846 50.2699C53.2146 50.2699 34.0546 50.2699 14.8846 50.2699C12.0546 50.2699 10.2847 49.1099 9.59468 46.8499C9.43468 46.3299 9.41463 45.7999 9.41463 45.2699C9.41463 41.3899 9.40463 37.5099 9.41463 33.6299C9.41463 30.4999 11.3247 28.5999 14.4647 28.5599C16.0447 28.5399 16.8347 27.7399 16.8347 26.1599C16.8347 25.2499 16.8147 24.3299 16.8347 23.4199C16.8547 22.8299 16.6346 22.5999 16.0346 22.6199C15.2346 22.6399 14.4346 22.6399 13.6446 22.5699C11.2846 22.3599 9.49464 20.4699 9.42464 18.1099C9.38464 16.6299 9.38464 15.1399 9.42464 13.6599C9.44464 12.9499 9.28459 12.6799 8.49459 12.6699C4.67459 12.6099 3.07466 14.1599 3.06466 17.9999C3.06466 19.0999 3.06466 20.2099 3.06466 21.3099C3.06466 22.0699 2.74466 22.5799 1.94466 22.5899C1.19466 22.5899 0.814656 22.1099 0.814656 21.4199C0.814656 19.6299 0.634621 17.8399 0.904621 16.0599C1.42462 12.6599 4.02466 10.4499 7.44466 10.4099C8.75133 10.3965 9.40796 9.73654 9.41463 8.42987C9.41463 7.47987 9.39463 6.52989 9.41463 5.5799C9.47463 3.17989 11.1346 1.32988 13.5146 0.999878C14.0046 0.929878 14.5046 0.919861 14.9946 0.919861C37.9246 0.919861 60.8546 0.949883 83.7846 0.879883C87.1046 0.879883 89.6347 2.85989 89.3647 6.50989C89.2947 7.52989 89.3847 8.55991 89.3447 9.5899C89.3147 10.2499 89.5847 10.4399 90.2147 10.4199C91.0447 10.3999 91.9047 10.3699 92.7147 10.5299C95.8347 11.1599 97.9347 13.7999 97.9447 17.0999C97.9647 22.6199 97.9447 28.1299 97.9447 33.6499C97.9447 39.3899 97.9846 45.1399 97.9146 50.8799C97.8946 52.1499 98.2746 52.6199 99.4946 52.8899C102.185 53.4999 104.665 54.6399 106.785 56.4799C107.715 57.2899 108.485 58.2199 109.065 59.3099C109.315 59.7799 109.345 60.2599 108.975 60.6899C108.605 61.1099 108.145 61.1798 107.625 60.9698C104.735 59.8498 101.715 60.1199 98.7247 60.1799C98.1347 60.1899 97.9347 60.3999 97.9447 60.9899C97.9747 62.7799 97.9447 64.5699 97.9647 66.3499C97.9647 67.1999 97.9247 68.0899 96.8447 68.1099C95.7647 68.1299 95.6646 67.2699 95.6746 66.3999C95.6946 64.7999 95.6447 63.1999 95.6947 61.6099C95.7147 60.7999 95.6547 60.4299 94.6147 60.5799C91.4947 61.0199 88.3846 61.5399 85.2846 62.1399C84.7146 62.2499 84.3246 62.3199 84.3846 63.0999C84.4446 63.9199 84.0647 64.6799 83.3647 65.1599C82.8947 65.4899 82.8846 65.7999 83.0246 66.3099C83.7046 68.6399 84.3547 70.9899 84.9647 73.3399C85.1247 73.9699 85.4247 74.1599 86.0747 74.1499C88.9647 74.1099 91.8546 74.1099 94.7446 74.1499C95.5146 74.1599 95.7646 73.9099 95.6746 73.1799C95.6346 72.8099 95.6347 72.4099 95.6947 72.0399C95.7847 71.4499 96.1546 71.0899 96.7846 71.0799C97.4046 71.0699 97.7646 71.4099 97.9146 71.9999C97.9146 72.0399 97.9347 72.0799 97.9347 72.1099C97.9047 76.4099 98.2246 80.7199 97.7946 84.9899C97.4646 88.2399 94.7247 90.3399 91.3547 90.4698C90.3147 90.5098 89.938 91.0432 90.2247 92.0699C90.2747 92.2499 90.3446 92.4299 90.3846 92.6199C90.5346 93.3299 90.4246 93.9499 89.6346 94.1599C88.8646 94.3699 88.4047 93.9399 88.1947 93.2299C87.8647 92.0999 87.5546 90.9599 87.2446 89.8299C85.1646 82.3699 83.0846 74.9099 81.0346 67.4299C80.7846 66.5099 80.4846 66.1399 79.5046 66.5399C78.7046 66.8699 77.8347 67.0699 76.9847 67.2399C76.1347 67.4099 75.9247 67.7399 76.1847 68.6299C78.1247 75.4199 79.9946 82.2299 81.8946 89.0399C83.3746 94.3399 84.8447 99.6499 86.3247 104.95C86.4047 105.24 86.4747 105.54 86.5747 105.83C87.0347 107.1 88.2147 107.78 89.4447 107.5C90.7647 107.2 91.5747 106.09 91.3347 104.69C91.1547 103.61 90.7846 102.56 90.5046 101.5C90.3746 101.02 90.2346 100.55 90.1546 100.06C90.0546 99.4099 90.3147 98.9199 90.9747 98.7699C91.5647 98.6299 92.0646 98.8699 92.2446 99.4599C92.7646 101.17 93.3546 102.86 93.6246 104.62C93.7346 105.34 93.6847 106.08 93.3547 106.74C92.9647 107.53 93.3246 107.61 94.0046 107.61C96.7046 107.59 99.4047 107.61 102.105 107.6C102.935 107.6 103.845 107.57 103.855 108.7C103.855 109.8 102.975 109.86 102.135 109.86C97.5746 109.86 93.0047 109.86 88.4447 109.86C62.0147 109.86 35.5846 109.86 9.15462 109.86C8.73462 109.86 8.31462 109.88 7.90462 109.84C7.20462 109.76 6.75465 109.37 6.80465 108.64C6.84465 107.98 7.26466 107.62 7.94466 107.61C8.28466 107.61 8.62469 107.61 8.97469 107.61C15.5547 107.61 22.1347 107.6 28.7047 107.62C29.5547 107.62 29.7946 107.53 29.5346 106.57C28.8046 103.8 30.7346 101.14 33.6446 101.19C35.3446 101.22 36.2046 100.45 37.0546 99.2599C38.6946 96.9799 39.6347 94.5499 39.0647 91.6799C38.8847 90.7999 38.5447 90.4499 37.5647 90.4499C27.7947 90.4899 18.0146 90.4799 8.24459 90.4799C3.38459 90.4799 0.784626 87.8799 0.784626 82.9999C0.784626 65.8799 0.784626 48.7599 0.784626 31.6399C0.784626 31.2199 0.764685 30.7899 0.844685 30.3899C0.964685 29.7999 1.3846 29.4699 2.0046 29.5099C2.6146 29.5499 2.98463 29.8999 3.03463 30.5199C3.06463 30.8999 3.05465 31.2799 3.05465 31.6599C3.05465 45.3899 3.06463 59.1299 3.03463 72.8599C3.03463 73.8199 3.21461 74.1399 4.26461 74.1399C18.4446 74.0999 32.6347 74.0999 46.8147 74.1399C47.6947 74.1399 48.0046 73.8799 48.2846 73.0399C49.7046 68.7499 52.7146 65.6599 56.1646 62.9399C59.4946 60.3099 63.1847 58.2799 67.0947 56.6399C67.7847 56.3499 67.9846 56.0699 67.7746 55.2999C67.2746 53.5399 68.0346 52.2499 69.7946 51.6999C71.1146 51.2899 72.4546 50.9099 73.7846 50.5199C73.7646 50.4299 73.7447 50.3399 73.7247 50.2399L73.7347 50.2699ZM49.3547 30.8099C37.8347 30.8099 26.3146 30.8099 14.7946 30.8099C12.5346 30.8099 11.6847 31.6599 11.6847 33.8899C11.6847 37.5399 11.6847 41.1899 11.6847 44.8399C11.6847 47.1599 12.5147 47.9899 14.8547 47.9899C37.8947 47.9899 60.9447 47.9899 83.9847 47.9899C86.2547 47.9899 87.1047 47.1399 87.1147 44.8999C87.1247 41.3199 87.1147 37.7499 87.1147 34.1699C87.1147 31.5499 86.3547 30.7899 83.7047 30.7899C72.2547 30.7899 60.8147 30.7899 49.3647 30.7899L49.3547 30.8099ZM49.2347 20.3599C60.6447 20.3599 72.0447 20.3599 83.4547 20.3599C83.9147 20.3599 84.3647 20.3599 84.8247 20.3099C86.1847 20.1499 87.0446 19.3499 87.0546 18.0199C87.1047 13.8399 87.0947 9.64985 87.0546 5.46985C87.0446 4.23985 86.2146 3.44987 84.9946 3.23987C84.5446 3.16987 84.0846 3.16986 83.6346 3.16986C60.8246 3.16986 38.0047 3.16986 15.1947 3.16986C14.8147 3.16986 14.4346 3.14988 14.0546 3.18988C12.5746 3.33988 11.6947 4.24988 11.6847 5.74988C11.6646 9.77988 11.6646 13.8099 11.6847 17.8399C11.6847 19.2899 12.5446 20.1499 13.9946 20.3099C14.4446 20.3599 14.9047 20.3499 15.3647 20.3499C26.6547 20.3499 37.9446 20.3499 49.2446 20.3499L49.2347 20.3599ZM39.6346 76.4099C27.8846 76.4099 16.1346 76.4299 4.3846 76.3799C3.2546 76.3799 2.97462 76.6899 3.02462 77.7799C3.11462 79.7499 3.02465 81.7299 3.05465 83.7099C3.08465 86.3599 4.8347 88.1199 7.4847 88.2099C8.1647 88.2299 8.85463 88.2099 9.53463 88.2099C32.3846 88.2099 55.2347 88.2099 78.0847 88.2299C79.1247 88.2299 79.2647 87.9899 78.9847 87.0499C78.0447 83.8799 77.1446 80.7099 76.3046 77.5099C76.0846 76.6599 75.7447 76.3899 74.8547 76.3899C63.1047 76.4199 51.3547 76.4099 39.6047 76.4099H39.6346ZM49.5847 28.5499C56.8047 28.5499 64.0246 28.5499 71.2446 28.5499C73.8246 28.5499 76.4146 28.5299 78.9946 28.5599C79.7246 28.5699 80.0147 28.3799 79.9747 27.6099C79.9147 26.4299 79.9647 25.2499 79.9547 24.0799C79.9547 23.1066 79.4647 22.6199 78.4847 22.6199C59.1747 22.6199 39.8747 22.6199 20.5647 22.6199C20.4547 22.6199 20.3347 22.6299 20.2247 22.6199C19.3747 22.4999 18.9746 22.7799 19.0446 23.7299C19.1246 24.8999 19.1346 26.0899 19.0446 27.2599C18.9546 28.3399 19.3646 28.5799 20.3846 28.5799C30.1146 28.5399 39.8447 28.5599 49.5747 28.5599L49.5847 28.5499ZM70.1147 90.4799C67.3047 90.4799 64.4846 90.4799 61.6746 90.4799C59.8446 90.4799 59.8247 90.5199 59.5947 92.3299C59.2047 95.4999 60.5946 97.9999 62.5346 100.31C63.0146 100.88 63.5146 101.13 64.2846 101.13C68.0846 101.12 69.8647 103.3 69.0947 106.99C68.9947 107.49 69.0846 107.6 69.5346 107.6C74.4046 107.6 79.2646 107.6 84.1346 107.6C84.5246 107.6 84.7747 107.59 84.6147 107.02C83.1047 101.77 81.6146 96.5099 80.1646 91.2399C79.9746 90.5599 79.6146 90.4698 79.0146 90.4698C76.0446 90.4898 73.0847 90.4698 70.1147 90.4698V90.4799ZM95.6746 33.9999C95.6746 28.5199 95.6746 23.0499 95.6746 17.5699C95.6746 17.0399 95.6747 16.4999 95.5546 15.9899C95.0046 13.6599 93.3147 12.6299 90.3247 12.6499C89.5847 12.6499 89.3247 12.8499 89.3447 13.6099C89.3947 15.0499 89.3947 16.4999 89.3447 17.9399C89.2547 20.5699 87.4547 22.3999 84.8147 22.5799C84.2847 22.6199 83.7447 22.6499 83.2247 22.5999C82.3947 22.5199 82.1747 22.8799 82.2247 23.6499C82.2847 24.5999 82.2347 25.5499 82.2347 26.4999C82.2347 27.8465 82.9113 28.5299 84.2646 28.5499C87.4146 28.5899 89.3247 30.4499 89.3447 33.5799C89.3747 37.4599 89.3747 41.3398 89.3447 45.2198C89.3247 48.2999 87.4546 50.1799 84.3746 50.2599C83.4246 50.2799 82.4746 50.2599 81.5246 50.2699C81.3046 50.2699 80.8946 50.2599 80.9246 50.4199C81.0146 51.0099 81.2046 51.5899 81.4246 52.1399C81.5946 52.5899 82.0047 52.3799 82.3247 52.3299C86.3247 51.7199 90.3347 51.4899 94.3647 51.9499C95.3547 52.0599 95.7247 51.9099 95.7047 50.7699C95.6347 45.1799 95.6746 39.5899 95.6746 33.9999ZM60.1147 101.06C59.9547 100.77 59.8947 100.64 59.8147 100.52C57.7647 97.6899 56.7146 94.6099 57.5146 91.0899C57.6446 90.4999 57.3246 90.4698 56.8946 90.4698C51.8746 90.4698 46.8547 90.4698 41.8347 90.4698C41.2947 90.4698 41.1146 90.5799 41.2546 91.1899C41.9746 94.3999 41.0947 97.2699 39.3347 99.9499C39.1147 100.28 38.7546 100.55 38.7546 101.06H60.1147ZM49.4747 103.37C44.5347 103.37 39.5946 103.37 34.6546 103.37C34.2746 103.37 33.8946 103.35 33.5146 103.41C32.3946 103.57 31.6147 104.44 31.6147 105.49C31.6147 106.49 32.3546 107.35 33.4146 107.54C33.7846 107.61 34.1746 107.6 34.5446 107.6C44.4246 107.6 54.3046 107.6 64.1847 107.6C64.6347 107.6 65.1046 107.58 65.5346 107.48C66.5546 107.23 67.0847 106.5 67.0847 105.49C67.0847 104.48 66.5346 103.76 65.5246 103.5C65.0946 103.39 64.6246 103.39 64.1746 103.39C59.2746 103.39 54.3747 103.39 49.4647 103.39L49.4747 103.37ZM82.1147 62.8899C82.0947 62.8199 82.0847 62.7799 82.0747 62.7499C81.0547 59.2099 80.0346 55.6799 79.0246 52.1399C78.8746 51.6099 78.5347 51.5499 78.0546 51.6899C75.5446 52.4199 73.0246 53.1399 70.5046 53.8599C69.9746 54.0099 69.7747 54.3199 69.9347 54.8799C70.9347 58.2999 71.9146 61.7299 72.9046 65.1599C73.0646 65.7198 73.3446 65.9599 73.9946 65.7599C76.4646 65.0099 78.9446 64.3099 81.4246 63.6099C81.8146 63.4999 82.1447 63.3499 82.1147 62.8899ZM52.5546 74.1299C59.9246 74.1299 67.2946 74.1299 74.6646 74.1399C75.3046 74.1399 75.3146 73.8999 75.1646 73.3999C74.7546 72.0199 74.3546 70.6299 74.0146 69.2299C73.8446 68.5499 73.5947 68.1399 72.8147 68.0199C71.9947 67.8999 71.3546 67.3399 71.0446 66.5599C70.8146 65.9599 70.4746 65.9999 70.0046 66.1699C65.9546 67.5599 61.9246 69.0199 58.0346 70.8499C56.1246 71.7499 54.2247 72.6699 52.5647 74.1399L52.5546 74.1299ZM85.8846 76.4199C86.0146 76.9199 86.1147 77.3099 86.2247 77.7099C87.0047 80.5199 87.7947 83.3299 88.5747 86.1499C88.988 87.6432 89.978 88.3299 91.5446 88.2099C93.7246 88.0399 95.5047 86.5099 95.6147 84.4499C95.7447 81.9899 95.6546 79.5099 95.6746 77.0399C95.6746 76.6299 95.5647 76.4099 95.1047 76.4099C92.0747 76.4199 89.0346 76.4099 85.8846 76.4099V76.4199ZM104.975 57.9599C103.575 56.7199 102.205 56.0999 100.785 55.6099C94.9246 53.5699 88.9146 53.7499 82.8746 54.5299C82.2646 54.6099 82.1447 54.8499 82.3347 55.4399C82.7347 56.6699 83.1046 57.9099 83.3846 59.1599C83.5746 60.0098 83.9746 60.0999 84.7446 59.9499C91.3046 58.6099 97.8947 57.5299 104.975 57.9599ZM51.3147 71.6299C53.7147 70.4099 56.0346 69.2399 58.4046 68.1899C61.9346 66.6199 65.5547 65.2399 69.2347 64.0599C69.9747 63.8199 70.1646 63.5399 69.9046 62.7899C69.5146 61.6799 69.2146 60.5399 68.9246 59.3999C68.7546 58.7299 68.5346 58.4099 67.7846 58.8099C66.5446 59.4599 65.2346 59.9899 63.9946 60.6399C59.6046 62.9799 55.5446 65.7399 52.5146 69.7799C52.0746 70.3699 51.7046 71.0099 51.3046 71.6199L51.3147 71.6299Z"
        fill="black" />
    <path
        d="M108.765 107.62C109.255 107.62 109.745 107.59 110.235 107.62C110.855 107.66 111.205 108.03 111.245 108.64C111.285 109.25 110.975 109.7 110.375 109.78C109.255 109.93 108.105 109.94 106.985 109.78C106.385 109.69 106.095 109.23 106.145 108.62C106.195 108 106.565 107.66 107.175 107.63C107.705 107.6 108.235 107.63 108.765 107.63V107.62Z"
        fill="black" />
    <path
        d="M1.87482 109.86C1.87482 109.86 1.52489 109.87 1.19489 109.81C0.544892 109.69 0.204828 109.28 0.254828 108.61C0.304828 108 0.674857 107.65 1.28486 107.62C1.84486 107.59 2.41493 107.61 2.98493 107.6C3.73493 107.6 4.25484 107.92 4.26484 108.71C4.26484 109.5 3.72483 109.82 3.00483 109.86C2.74483 109.87 2.47482 109.86 1.87482 109.86Z"
        fill="black" />
    <path
        d="M61.5948 39.9898C61.5948 37.4298 63.6748 35.3398 66.2248 35.3398C68.8248 35.3398 70.9247 37.4698 70.8847 40.0798C70.8447 42.6498 68.7647 44.6898 66.1947 44.6698C63.6447 44.6498 61.5848 42.5698 61.5948 39.9998V39.9898ZM66.1847 37.6098C64.8747 37.6398 63.8448 38.7398 63.8648 40.0598C63.8948 41.3898 64.9647 42.4198 66.2847 42.3898C67.6047 42.3598 68.6348 41.2798 68.6048 39.9598C68.5748 38.6498 67.4747 37.5898 66.1747 37.6198L66.1847 37.6098Z"
        fill="black" />
    <path
        d="M59.6249 39.9502C59.6549 42.4902 57.5849 44.6202 55.0449 44.6602C52.4549 44.7002 50.2949 42.5802 50.2949 40.0002C50.2949 37.4702 52.4049 35.3502 54.9349 35.3302C57.4649 35.3102 59.5949 37.4102 59.6249 39.9402V39.9502ZM55.0149 42.3902C56.3149 42.3702 57.375 41.2602 57.355 39.9602C57.325 38.6602 56.2149 37.5902 54.9249 37.6202C53.6349 37.6502 52.555 38.7702 52.585 40.0602C52.615 41.3602 53.7249 42.4202 55.0249 42.3902H55.0149Z"
        fill="black" />
    <path
        d="M77.5545 44.6601C75.0145 44.6701 72.8946 42.5901 72.8646 40.0601C72.8346 37.4801 74.9745 35.3201 77.5545 35.3301C80.0845 35.3501 82.1945 37.4701 82.1945 40.0001C82.1945 42.5301 80.0945 44.6401 77.5545 44.6601ZM77.5345 37.6101C76.2445 37.6101 75.1445 38.7001 75.1445 39.9901C75.1445 41.2901 76.2145 42.3801 77.5145 42.3801C78.8145 42.3801 79.9045 41.3001 79.9145 40.0101C79.9145 38.7201 78.8245 37.6101 77.5345 37.6101Z"
        fill="black" />
    <path
        d="M26.3346 39.2294C26.3346 40.5994 26.3346 41.9694 26.3346 43.3294C26.3346 44.0794 26.0545 44.6194 25.2445 44.6394C24.4445 44.6594 24.0846 44.1194 24.0746 43.3894C24.0546 40.5794 24.0546 37.7694 24.0746 34.9594C24.0746 34.2194 24.5045 33.6994 25.2845 33.7494C25.9945 33.7994 26.3246 34.2894 26.3246 35.0094C26.3246 36.4194 26.3246 37.8194 26.3246 39.2294H26.3346Z"
        fill="black" />
    <path
        d="M18.8253 39.2995C18.8253 40.6295 18.8253 41.9595 18.8253 43.2895C18.8253 44.0295 18.5952 44.5995 17.7852 44.6495C16.9152 44.6995 16.5753 44.1095 16.5653 43.3295C16.5453 40.5895 16.5553 37.8595 16.5653 35.1195C16.5653 34.3395 16.8952 33.7295 17.7452 33.7495C18.6052 33.7795 18.8353 34.4095 18.8253 35.1895C18.8053 36.5595 18.8253 37.9295 18.8253 39.2895V39.2995Z"
        fill="black" />
    <path
        d="M33.855 39.1801C33.855 40.5501 33.855 41.9201 33.855 43.2801C33.855 44.0801 33.5649 44.6601 32.6949 44.6401C31.8949 44.6201 31.595 44.0501 31.585 43.3201C31.585 40.5801 31.585 37.8501 31.585 35.1101C31.585 34.3201 31.9249 33.7201 32.7649 33.7501C33.6149 33.7801 33.865 34.4001 33.855 35.1901C33.835 36.5201 33.855 37.8501 33.855 39.1801Z"
        fill="black" />
    <path
        d="M61.5947 12.3592C61.5947 9.78923 63.6547 7.70925 66.2147 7.69925C68.8147 7.68925 70.9146 9.81922 70.8846 12.4192C70.8546 14.9792 68.7647 17.0393 66.2047 17.0293C63.6547 17.0193 61.5947 14.9292 61.5947 12.3592ZM68.6147 12.3092C68.5847 10.9992 67.4947 9.94921 66.1847 9.96921C64.8747 9.99921 63.8347 11.0792 63.8647 12.4092C63.8947 13.7292 64.9747 14.7792 66.2847 14.7492C67.6047 14.7192 68.6347 13.6392 68.6047 12.3092H68.6147Z"
        fill="black" />
    <path
        d="M77.4853 17.0295C74.9553 17.0095 72.8553 14.8894 72.8653 12.3494C72.8653 9.81943 74.9752 7.69945 77.5052 7.68945C80.0752 7.68945 82.2352 9.85944 82.1852 12.4294C82.1452 14.9694 80.0053 17.0495 77.4753 17.0295H77.4853ZM79.9152 12.3494C79.9152 11.0594 78.7952 9.96943 77.5052 9.97943C76.2052 9.98943 75.1352 11.0895 75.1452 12.3895C75.1552 13.6895 76.2452 14.7695 77.5452 14.7595C78.8352 14.7495 79.9252 13.6494 79.9152 12.3494Z"
        fill="black" />
    <path
        d="M54.9653 7.7002C57.4953 7.7002 59.6053 9.81016 59.6153 12.3502C59.6253 14.9302 57.4652 17.0702 54.8952 17.0402C52.3652 17.0002 50.2652 14.8702 50.2952 12.3402C50.3152 9.81021 52.4453 7.70021 54.9653 7.71021V7.7002ZM57.3453 12.3602C57.3453 11.0602 56.2453 9.98016 54.9553 9.98016C53.6653 9.98016 52.5653 11.0902 52.5753 12.3802C52.5753 13.6702 53.6853 14.7602 54.9753 14.7602C56.2753 14.7602 57.3553 13.6602 57.3453 12.3602Z"
        fill="black" />
    <path
        d="M18.8251 11.5695C18.8251 12.9395 18.8251 14.3095 18.8251 15.6695C18.8251 16.4095 18.5651 16.9795 17.7651 17.0095C16.9051 17.0395 16.5651 16.4495 16.5651 15.6695C16.5551 12.9295 16.5551 10.1995 16.5651 7.45951C16.5651 6.67951 16.9051 6.07948 17.7651 6.10948C18.5551 6.13948 18.8351 6.7095 18.8251 7.4495C18.8151 8.8195 18.8251 10.1895 18.8251 11.5495V11.5695Z"
        fill="black" />
    <path
        d="M26.3345 11.6399C26.3345 12.9699 26.3345 14.2999 26.3345 15.6299C26.3345 16.4199 26.0645 17.0299 25.2045 17.0199C24.3445 17.0099 24.0645 16.3799 24.0645 15.6099C24.0645 12.9099 24.0645 10.2099 24.0645 7.5199C24.0645 6.7399 24.3745 6.12988 25.2245 6.12988C26.0845 6.12988 26.3445 6.75986 26.3345 7.53986C26.3245 8.90986 26.3345 10.2799 26.3345 11.6399Z"
        fill="black" />
    <path
        d="M33.855 11.68C33.855 13.01 33.855 14.34 33.855 15.67C33.855 16.42 33.5749 16.98 32.7949 17.02C31.9449 17.06 31.595 16.48 31.585 15.69C31.585 12.95 31.585 10.22 31.585 7.47998C31.585 6.68998 31.9249 6.1 32.7749 6.13C33.5549 6.15 33.855 6.70997 33.855 7.46997C33.855 8.87997 33.855 10.28 33.855 11.69V11.68Z"
        fill="black" />
    <path
        d="M48.9246 87.1897C46.6846 87.2097 44.8346 85.4097 44.8146 83.1797C44.7946 80.9497 46.6147 79.1197 48.8547 79.0997C51.1147 79.0897 52.9346 80.8697 52.9646 83.1097C52.9946 85.3197 51.1646 87.1697 48.9246 87.1897ZM50.6946 83.1897C50.7246 82.2097 49.9146 81.3897 48.9146 81.3797C47.9146 81.3797 47.0947 82.1696 47.1047 83.1596C47.1047 84.0896 47.8846 84.8797 48.8246 84.9197C49.8246 84.9597 50.6746 84.1697 50.6946 83.1997V83.1897Z"
        fill="black" />
</svg>