<svg width="101" height="101" viewBox="0 0 101 101" fill="none" xmlns="http://www.w3.org/2000/svg">
<path d="M0.945312 35.9399C1.10531 35.4899 1.24529 35.0299 1.42529 34.5799C2.47529 31.9699 4.83525 30.4199 7.88525 30.4099C13.0953 30.3899 18.3053 30.4099 23.5153 30.4099C26.3453 30.4099 29.1853 30.4099 32.0153 30.4099C35.6453 30.4099 37.6353 32.3999 37.6453 36.0199C37.6453 47.4499 37.6253 58.8799 37.6453 70.2999C37.6553 76.8199 41.9953 82.1499 48.2753 83.4499C55.4853 84.9499 62.7753 79.9599 64.0653 72.6599C64.2453 71.6299 64.2853 70.5899 64.2853 69.5499C64.2853 58.3199 64.2853 47.0799 64.2853 35.8499C64.2853 33.1699 65.6253 31.2599 67.9353 30.5799C68.5053 30.4099 69.0953 30.4 69.6753 30.4C77.7453 30.4 85.8253 30.39 93.8953 30.4C98.2153 30.4 100.975 33.1799 100.975 37.4999C100.975 55.7999 100.975 74.0999 100.975 92.3899C100.975 97.0799 99.7053 98.8699 95.3053 100.41H6.60535C4.54535 99.8999 2.83529 98.8899 1.79529 96.9699C1.44529 96.3299 1.22531 95.6199 0.945312 94.9399C0.945312 75.2699 0.945312 55.5999 0.945312 35.9399ZM4.27527 74.1999C4.27527 80.6199 4.27527 86.9099 4.27527 93.1899C4.27527 95.7999 5.56529 97.0799 8.17529 97.0799C36.6953 97.0799 65.2252 97.0799 93.7452 97.0799C96.3552 97.0799 97.6453 95.7899 97.6453 93.1799C97.6453 87.1899 97.6453 81.2 97.6453 75.2099C97.6453 74.8999 97.6153 74.59 97.6053 74.2099C96.2753 74.7 95.1853 75.3899 94.1853 76.2299C93.2153 77.0499 92.2853 77.8999 91.1753 78.5499C86.0553 81.5499 79.6452 80.9199 75.1252 76.8799C73.1352 75.0999 70.9453 73.9399 68.2552 73.7599C67.4652 73.7099 67.1453 73.8999 66.9253 74.7099C65.0553 81.84 58.3753 87.0299 51.0753 87.0799C43.5353 87.1399 36.8553 82.0799 34.9253 74.7699C34.6953 73.8899 34.3353 73.6799 33.4653 73.7499C30.8453 73.9699 28.6953 75.1 26.7853 76.84C23.8353 79.53 20.3354 80.6499 16.3654 80.3199C13.3754 80.0699 10.7753 78.9099 8.54529 76.9099C7.30529 75.7999 5.99527 74.8099 4.27527 74.1799V74.1999ZM19.2452 48.7199C23.9352 48.7199 28.6253 48.7099 33.3153 48.7299C34.0353 48.7299 34.3453 48.5899 34.3353 47.7699C34.2953 43.7999 34.3253 39.8299 34.3153 35.8499C34.3153 34.2899 33.7453 33.7299 32.1853 33.7299C24.1053 33.7299 16.0353 33.7299 7.95532 33.7299C5.58532 33.7299 4.28528 35.0499 4.28528 37.4399C4.28528 40.8599 4.30526 44.2799 4.26526 47.6999C4.25526 48.4999 4.46528 48.7399 5.28528 48.7399C9.94528 48.6999 14.5952 48.7199 19.2552 48.7199H19.2452ZM82.6252 48.7199C87.3152 48.7199 92.0053 48.6999 96.6953 48.7399C97.4653 48.7399 97.6753 48.5299 97.6653 47.7599C97.6253 44.3399 97.6553 40.9199 97.6453 37.4999C97.6453 35.0499 96.3553 33.7399 93.9253 33.7399C85.8853 33.7399 77.8353 33.7399 69.7953 33.7399C68.1653 33.7399 67.6154 34.28 67.6154 35.9C67.6154 39.84 67.6353 43.7799 67.5953 47.7199C67.5953 48.5699 67.8753 48.7399 68.6553 48.7399C73.3153 48.7099 77.9652 48.7199 82.6252 48.7199ZM31.3654 52.0699C29.1454 51.4499 27.8753 52.5199 27.0753 54.4499C26.9753 54.6899 26.8053 54.8999 26.6753 55.1199C22.5153 61.8699 18.3553 68.6299 14.2053 75.3799C13.6153 76.3299 13.6153 76.3399 14.7253 76.6699C16.3853 77.1599 18.0552 77.1399 19.7452 76.8699C20.8052 76.6999 21.5053 76.1899 22.0853 75.2399C25.7653 69.1499 29.4753 63.0699 33.2853 57.0599C34.1753 55.6599 34.3753 54.2799 34.3153 52.7399C34.2953 52.2199 34.0953 52.0599 33.6053 52.0699C32.8553 52.0899 32.1054 52.0699 31.3654 52.0699ZM71.0052 52.0699C69.8552 52.0699 69.0753 52.0699 68.2953 52.0699C68.0453 52.0699 67.6453 52.0299 67.6653 52.3499C67.7053 53.5599 67.2953 54.7999 68.0153 55.9599C72.0753 62.5399 76.1353 69.1299 80.1753 75.7199C80.4653 76.1899 80.7953 76.5 81.3453 76.65C83.3353 77.19 85.3153 77.1899 87.3053 76.6399C88.0853 76.4199 88.2653 76.2099 87.7853 75.4299C83.4453 68.4499 79.0952 61.4699 74.8752 54.4099C73.8452 52.6899 72.8653 51.3899 71.0153 52.0599L71.0052 52.0699ZM77.4553 52.0699C77.5053 52.3099 77.5053 52.3799 77.5353 52.4299C81.9453 59.5999 86.3653 66.77 90.7653 73.9599C91.1053 74.5099 91.3252 74.2899 91.6252 74.0199C92.9452 72.8399 94.4153 71.8899 96.0553 71.2199C96.5653 71.0099 96.5853 70.8099 96.3153 70.3699C92.6553 64.4499 89.0152 58.52 85.3752 52.59C85.1952 52.3 85.0253 52.0699 84.6353 52.0699C82.2653 52.0699 79.8953 52.0699 77.4653 52.0699H77.4553ZM20.6953 52.0699C19.6553 52.0699 18.6153 52.0699 17.5753 52.0699C17.1653 52.0699 16.8453 52.12 16.5953 52.53C12.9453 58.49 9.28535 64.45 5.60535 70.4C5.30535 70.88 5.43526 71.0499 5.89526 71.2399C7.50526 71.8999 8.96535 72.8099 10.2354 73.9999C10.7354 74.4699 10.9653 74.3399 11.2853 73.7999C12.8653 71.1799 14.4753 68.5799 16.0753 65.9799C18.7553 61.6299 21.4253 57.2799 24.1053 52.9299C24.2353 52.7199 24.5253 52.4999 24.4053 52.2499C24.2553 51.9299 23.8854 52.0899 23.6154 52.0799C22.6354 52.0599 21.6653 52.0799 20.6853 52.0799L20.6953 52.0699ZM12.9653 52.0699C10.2053 52.0699 7.66525 52.0899 5.13525 52.0599C4.45525 52.0599 4.25526 52.2599 4.26526 52.9399C4.29526 57.0699 4.27528 61.1999 4.28528 65.3299C4.28528 65.4999 4.17535 65.7299 4.48535 65.8499C7.26535 61.3299 10.0553 56.7999 12.9653 52.0699ZM97.4453 65.8599C97.5153 65.8399 97.5853 65.8099 97.6453 65.7899C97.6453 61.4399 97.6353 57.0799 97.6553 52.7299C97.6553 52.0999 97.3354 52.0699 96.8654 52.0699C94.4554 52.0699 92.0553 52.0699 89.6453 52.0799C89.4753 52.0799 89.2453 51.9999 89.1053 52.3199C91.8753 56.8099 94.6553 61.3399 97.4353 65.8599H97.4453ZM67.8453 62.0599C67.7653 62.0799 67.6954 62.1099 67.6154 62.1299C67.6154 64.7499 67.6154 67.3699 67.6154 69.9799C67.6154 70.4999 68.0353 70.38 68.3253 70.4C69.7953 70.5 71.2253 70.7699 72.5953 71.3199C72.9253 71.4499 73.2153 71.7499 73.7153 71.6099C71.7353 68.3899 69.7853 65.2199 67.8353 62.0599H67.8453ZM34.3053 62.1699C34.2253 62.1399 34.1553 62.0999 34.0753 62.0699C32.1253 65.2399 30.1753 68.4099 28.2253 71.5799C30.0853 70.8899 31.9053 70.4799 33.7953 70.4099C34.2553 70.3899 34.3053 70.1299 34.3053 69.7699C34.3053 67.2399 34.3053 64.7099 34.3053 62.1799V62.1699Z" fill="black"/>
<path d="M50.9549 0.380227C55.8049 0.380227 60.6548 0.380227 65.5048 0.380227C68.8948 0.380227 70.9349 2.39023 70.9449 5.76023C70.9649 8.85023 70.9649 11.9502 70.9449 15.0402C70.9249 18.0002 69.4348 19.7902 66.5348 20.3202C66.1448 20.3902 65.9449 20.5102 65.9749 20.9302C65.9949 21.1902 65.9749 21.4502 65.9749 21.7102C65.9449 24.9402 63.9048 27.0002 60.6648 27.0602C59.1848 27.0902 59.3249 26.8202 59.3149 28.4102C59.3149 28.7402 59.3349 29.0602 59.3149 29.3902C59.2749 29.9802 59.3348 30.4002 60.0448 30.6202C60.6748 30.8102 60.9549 31.4202 60.9449 32.1002C60.9349 32.7902 60.6049 33.3602 59.9749 33.5402C59.3249 33.7302 59.2949 34.1102 59.3149 34.6302C59.3349 35.4102 59.3249 36.1902 59.3149 36.9702C59.3149 37.8502 59.1949 38.6302 60.3149 39.1602C61.3749 39.6602 61.1548 41.3802 60.0148 41.8402C59.3848 42.1002 59.2848 42.4202 59.3048 42.9902C59.3449 43.8302 59.3049 44.6803 59.3149 45.5303C59.3149 46.3003 59.1648 47.0002 60.2448 47.4502C61.3648 47.9202 61.1748 49.6802 60.0048 50.1902C59.3948 50.4502 59.2848 50.7702 59.3048 51.3502C59.3449 52.4602 59.3249 53.5602 59.3048 54.6702C59.3048 55.0802 59.3049 55.3802 59.8349 55.5303C60.5549 55.7303 60.9349 56.3102 60.9349 57.0802C60.9349 57.8102 60.5748 58.3602 59.9048 58.5802C59.3748 58.7502 59.2948 59.0402 59.3048 59.5202C59.3249 60.6602 59.3249 61.8002 59.3048 62.9402C59.3048 63.4002 59.3448 63.7202 59.8848 63.8902C60.6048 64.1202 60.9649 64.7002 60.9349 65.4702C60.9149 66.2002 60.5449 66.7602 59.8649 66.9402C59.3449 67.0802 59.3048 67.3802 59.2748 67.7803C59.1948 68.7803 58.8248 69.6602 58.2648 70.4902C56.8048 72.6502 55.3848 74.8202 53.9148 76.9802C52.2948 79.3702 49.6048 79.3702 47.9948 76.9802C46.5348 74.8202 45.1048 72.6502 43.6648 70.4902C43.2848 69.9202 42.8948 69.3302 42.8048 68.6502C42.6848 67.7802 42.5149 67.1202 41.5849 66.6202C40.5549 66.0602 40.8149 64.4002 41.9549 63.9402C42.5549 63.7002 42.6349 63.3702 42.6149 62.8502C42.5949 62.0702 42.6149 61.2902 42.6149 60.5102C42.6149 59.6402 42.7748 58.8502 41.6248 58.3102C40.5248 57.8002 40.7948 56.0502 41.9948 55.5802C42.5548 55.3602 42.6348 55.0702 42.6248 54.5802C42.6048 53.7002 42.6248 52.8202 42.6248 51.9402C42.6248 51.1702 42.7849 50.4702 41.7049 50.0202C40.5749 49.5502 40.7649 47.7803 41.9349 47.2803C42.5449 47.0203 42.6648 46.7102 42.6348 46.1302C42.5948 45.2902 42.6148 44.4402 42.6348 43.5902C42.6448 42.7902 42.7249 42.1402 41.6949 41.6802C40.5549 41.1702 40.7948 39.4302 42.0248 38.8902C42.5048 38.6802 42.6448 38.4402 42.6348 37.9602C42.6048 36.7902 42.6148 35.6202 42.6348 34.4402C42.6348 34.0002 42.5449 33.7402 42.0649 33.5802C41.3449 33.3402 40.9848 32.7802 40.9948 32.0002C41.0048 31.2702 41.3848 30.7202 42.0548 30.5202C42.5548 30.3702 42.6348 30.1202 42.6248 29.6802C42.5948 28.9002 42.8548 27.9902 42.5348 27.3702C42.1548 26.6202 41.1348 27.1102 40.4048 27.0102C37.9348 26.6602 36.1149 24.7402 35.9649 22.2002C35.9449 21.8102 35.9349 21.4202 35.9649 21.0303C36.0049 20.5403 35.8049 20.3802 35.3149 20.3002C32.6849 19.8902 31.0348 18.0002 30.9948 15.3302C30.9548 12.0102 30.9448 8.69022 30.9948 5.37022C31.0348 2.43022 33.1648 0.380217 36.1248 0.370217C41.0748 0.350217 46.0249 0.370217 50.9649 0.370217L50.9549 0.380227ZM50.9649 17.0402C55.8149 17.0402 60.6648 17.0402 65.5148 17.0402C67.0848 17.0402 67.6149 16.5102 67.6149 14.9202C67.6149 11.8902 67.6149 8.87025 67.6149 5.84025C67.6149 4.28025 67.0548 3.72019 65.5048 3.72019C55.8048 3.72019 46.1048 3.72019 36.4048 3.72019C34.8648 3.72019 34.3048 4.2902 34.3048 5.8502C34.3048 8.8402 34.3048 11.8402 34.3048 14.8302C34.3048 16.5402 34.8048 17.0402 36.5148 17.0402C41.3348 17.0402 46.1449 17.0402 50.9649 17.0402ZM50.9649 23.7202C54.0849 23.7202 57.2049 23.7202 60.3249 23.7202C62.1249 23.7202 62.6148 23.1902 62.6648 21.4002C62.6848 20.6002 62.4648 20.3502 61.6448 20.3602C56.1548 20.3902 50.6548 20.3802 45.1648 20.3802C43.4748 20.3802 41.7849 20.3802 40.0949 20.3802C39.7749 20.3802 39.3848 20.2402 39.2748 20.8002C38.9048 22.6702 39.7049 23.7102 41.6049 23.7102C44.7249 23.7102 47.8449 23.7102 50.9649 23.7102V23.7202ZM50.9649 47.0702C52.3949 47.0702 53.8248 47.0502 55.2548 47.0802C55.7948 47.0902 56.0048 46.9302 55.9948 46.3702C55.9648 45.1702 55.9648 43.9702 55.9948 42.7702C56.0048 42.2202 55.8048 42.0402 55.2548 42.0402C52.3948 42.0602 49.5349 42.0602 46.6849 42.0402C46.1349 42.0402 45.9349 42.2202 45.9549 42.7702C45.9849 43.9702 45.9849 45.1702 45.9549 46.3702C45.9349 46.9402 46.1549 47.0902 46.6949 47.0802C48.1249 47.0502 49.5549 47.0702 50.9849 47.0702H50.9649ZM50.9948 50.4002C49.5348 50.4002 48.0749 50.4202 46.6149 50.4002C46.1049 50.4002 45.9249 50.5602 45.9449 51.0702C45.9749 52.3002 45.9749 53.5402 45.9449 54.7702C45.9349 55.2902 46.1648 55.4402 46.6448 55.4302C49.5348 55.4202 52.4249 55.4202 55.3149 55.4302C55.8249 55.4302 55.9949 55.2302 55.9849 54.7402C55.9649 53.5402 55.9449 52.3402 55.9849 51.1402C56.0049 50.5002 55.7348 50.3902 55.1748 50.4002C53.7748 50.4302 52.3849 50.4102 50.9849 50.4102L50.9948 50.4002ZM50.9449 38.7102C52.3749 38.7102 53.8049 38.7002 55.2249 38.7102C55.7349 38.7102 56.0049 38.6102 55.9849 38.0202C55.9449 36.8202 55.9549 35.6202 55.9849 34.4202C55.9849 33.9302 55.8349 33.7302 55.3149 33.7302C52.4249 33.7502 49.5348 33.7502 46.6448 33.7302C46.0748 33.7302 45.9249 33.9502 45.9349 34.4802C45.9649 35.6202 45.9749 36.7502 45.9349 37.8902C45.9149 38.5102 46.0948 38.7502 46.7548 38.7302C48.1448 38.6802 49.5449 38.7202 50.9449 38.7202V38.7102ZM50.9749 58.7502C49.5449 58.7502 48.1149 58.7702 46.6949 58.7502C46.1749 58.7502 45.9249 58.8802 45.9449 59.4502C45.9749 60.6502 45.9749 61.8502 45.9449 63.0502C45.9349 63.5502 46.1149 63.7302 46.6149 63.7302C49.5049 63.7102 52.3948 63.7102 55.2848 63.7302C55.8648 63.7302 55.9949 63.5002 55.9849 62.9802C55.9549 61.8102 55.9549 60.6402 55.9849 59.4702C55.9949 58.9202 55.8148 58.7302 55.2548 58.7402C53.8248 58.7702 52.3949 58.7402 50.9749 58.7402V58.7502ZM50.9449 67.0502C49.6749 67.0502 48.4148 67.0302 47.1448 67.0602C46.7548 67.0602 46.2148 66.8102 46.0048 67.3002C45.8348 67.6902 46.0949 68.1102 46.3349 68.4702C47.7349 70.5702 49.1548 72.6702 50.5348 74.7902C50.8948 75.3402 51.0648 75.2602 51.3848 74.7702C52.7548 72.6802 54.1548 70.6103 55.5348 68.5303C55.6548 68.3402 55.7649 68.1402 55.8449 67.9302C56.0649 67.3502 55.9649 67.0202 55.2249 67.0402C53.7949 67.0802 52.3649 67.0502 50.9449 67.0502ZM50.9048 30.4002H53.5348C56.0448 30.4002 56.0249 30.4002 55.9849 27.8802C55.9849 27.2502 55.7848 27.0302 55.1448 27.0402C52.9048 27.0702 50.6648 27.0502 48.4248 27.0502C45.8348 27.0502 45.8548 27.0502 45.9248 29.6202C45.9448 30.2102 46.1149 30.4202 46.7149 30.4102C48.1149 30.3802 49.5048 30.4002 50.9048 30.4002Z" fill="black"/>
<path d="M90.0552 87.0805C89.2752 87.0805 88.4952 87.1105 87.7152 87.0805C86.6552 87.0205 85.9352 86.2805 85.9752 85.3505C86.0152 84.4405 86.7052 83.7905 87.7352 83.7705C89.3252 83.7405 90.9251 83.7405 92.5151 83.7705C93.5951 83.7905 94.3152 84.4805 94.3052 85.4305C94.2952 86.3305 93.5952 87.0305 92.5852 87.0805C91.7452 87.1205 90.8952 87.0806 90.0452 87.0906L90.0552 87.0805Z" fill="black"/>
<path d="M11.835 83.7604C12.645 83.7604 13.465 83.7304 14.275 83.7604C15.235 83.8004 15.905 84.4604 15.945 85.3304C15.985 86.1804 15.335 87.0004 14.405 87.0404C12.655 87.1104 10.8849 87.1104 9.13494 87.0404C8.20494 87.0004 7.56504 86.1804 7.61504 85.3204C7.66504 84.4404 8.32497 83.8004 9.29497 83.7604C10.145 83.7304 10.985 83.7604 11.835 83.7604Z" fill="black"/>
<path d="M30.0357 87.0805C29.2557 87.0805 28.4758 87.1105 27.6958 87.0805C26.6358 87.0205 25.9358 86.2905 25.9658 85.3505C26.0058 84.4305 26.6758 83.7905 27.7158 83.7705C29.3058 83.7405 30.9057 83.7405 32.4957 83.7705C33.5757 83.7905 34.2957 84.4805 34.2757 85.4305C34.2657 86.3405 33.5857 87.0305 32.5557 87.0805C31.7157 87.1205 30.8657 87.0805 30.0157 87.0805H30.0357Z" fill="black"/>
<path d="M71.7258 87.0805C70.9458 87.0805 70.1657 87.1105 69.3857 87.0805C68.3157 87.0305 67.6057 86.3005 67.6357 85.3605C67.6657 84.4505 68.3557 83.7905 69.3857 83.7705C71.0157 83.7405 72.6357 83.7405 74.2657 83.7705C75.2457 83.7905 75.9057 84.4205 75.9557 85.3105C76.0057 86.2105 75.3458 86.9905 74.3558 87.0605C73.4858 87.1205 72.5958 87.0705 71.7258 87.0705V87.0805Z" fill="black"/>
<path d="M20.1854 90.4306C20.9954 90.4306 21.8153 90.4006 22.6253 90.4306C23.5953 90.4706 24.2353 91.1106 24.2553 92.0206C24.2753 92.9206 23.6754 93.6805 22.7254 93.7205C21.0054 93.7805 19.2753 93.7805 17.5553 93.7205C16.5653 93.6905 15.9254 92.9105 15.9754 91.9705C16.0254 91.0705 16.6553 90.4606 17.6453 90.4206C18.4853 90.3906 19.3354 90.4206 20.1854 90.4206V90.4306Z" fill="black"/>
<path d="M81.8949 90.4306C82.7049 90.4306 83.5249 90.4006 84.3349 90.4306C85.3049 90.4706 85.9349 91.1206 85.9549 92.0306C85.9749 92.9206 85.3549 93.6806 84.4049 93.7106C82.6849 93.7706 80.955 93.7706 79.235 93.7106C78.235 93.6806 77.6149 92.8906 77.6749 91.9506C77.7249 91.0506 78.365 90.4506 79.365 90.4206C80.205 90.3906 81.0549 90.4206 81.9049 90.4206L81.8949 90.4306Z" fill="black"/>
<path d="M38.5057 90.4303C39.3157 90.4303 40.1357 90.4103 40.9457 90.4303C41.9357 90.4703 42.5558 91.0803 42.5958 91.9903C42.6358 92.9303 42.0057 93.6903 41.0057 93.7203C39.3157 93.7703 37.6257 93.7703 35.9357 93.7203C34.9357 93.6903 34.2958 92.9403 34.3358 92.0003C34.3658 91.0903 34.9958 90.4703 35.9758 90.4303C36.8158 90.4003 37.6657 90.4303 38.5157 90.4303H38.5057Z" fill="black"/>
<path d="M63.5247 90.4298C64.3047 90.4298 65.0848 90.4098 65.8648 90.4298C66.9248 90.4598 67.5648 91.0698 67.5948 92.0198C67.6248 92.9598 66.9848 93.7098 65.9848 93.7398C64.2948 93.7898 62.6048 93.7898 60.9148 93.7398C59.9148 93.7098 59.2848 92.9498 59.3348 91.9998C59.3748 91.0898 60.0047 90.4798 60.9947 90.4498C61.8347 90.4198 62.6848 90.4498 63.5348 90.4498L63.5247 90.4298Z" fill="black"/>
</svg>
