<svg width="101" height="99" viewBox="0 0 101 99" fill="none" xmlns="http://www.w3.org/2000/svg">
<path d="M53.2545 76.2597C49.5645 76.2597 45.8846 76.2797 42.1946 76.2497C41.5246 76.2497 41.2846 76.4197 41.2946 77.1197C41.3346 79.2597 41.3446 81.3997 41.2946 83.5397C41.2746 84.2997 41.4646 84.6697 42.2346 84.9497C45.1346 86.0097 46.8245 88.7697 46.6345 91.9397C46.4645 94.7597 44.3445 97.2897 41.5245 98.0397C37.9745 98.9797 34.3446 97.0097 33.1846 93.5297C32.0446 90.0897 33.7246 86.3397 37.1146 85.0097C37.9946 84.6697 38.1946 84.2397 38.1746 83.3797C38.1146 81.3397 38.1146 79.2997 38.1746 77.2597C38.2046 76.4097 37.9145 76.2197 37.1245 76.2497C35.1145 76.3097 33.1146 76.2797 31.1046 76.2697C29.6246 76.2697 29.0646 75.7097 29.0646 74.2497C29.0646 72.0097 29.0346 69.7697 29.0746 67.5397C29.0846 66.8297 28.8546 66.6597 28.1746 66.6697C26.2346 66.7097 24.2946 66.7097 22.3546 66.6697C21.7746 66.6597 21.3746 66.8497 20.9846 67.2597C18.6246 69.6897 16.2345 72.0897 13.8745 74.5297C13.3045 75.1197 12.7045 75.3897 11.8745 75.3797C8.71452 75.3497 5.55454 75.3797 2.39454 75.3597C1.41454 75.3597 0.804548 74.7397 0.774548 73.8597C0.744548 72.9697 1.32455 72.3397 2.27455 72.2297C2.53455 72.1997 2.80459 72.2097 3.06459 72.2097C5.66459 72.2097 8.26464 72.1897 10.8646 72.2197C11.4746 72.2197 11.9046 72.0397 12.3246 71.5997C14.6746 69.1597 17.0646 66.7597 19.4246 64.3197C19.9646 63.7597 20.5646 63.4997 21.3446 63.5097C23.6146 63.5397 25.8846 63.4997 28.1546 63.5297C28.7946 63.5297 29.0746 63.4297 29.0646 62.6897C29.0246 59.0697 29.0346 55.4497 29.0646 51.8297C29.0646 51.1997 28.9145 50.9797 28.2545 50.9897C26.2445 51.0297 24.2446 51.0197 22.2346 50.9897C21.6846 50.9897 21.3246 51.1797 20.9546 51.5597C18.6146 53.9697 16.2546 56.3497 13.9246 58.7697C13.3146 59.4097 12.6445 59.7097 11.7545 59.6997C8.82453 59.6697 5.89461 59.6897 2.96461 59.6897C2.73461 59.6897 2.50455 59.6997 2.27455 59.6697C1.32455 59.5497 0.754557 58.9197 0.784557 58.0297C0.814557 57.1497 1.42455 56.5497 2.40455 56.5397C5.10455 56.5197 7.80452 56.4997 10.4945 56.5397C11.3145 56.5497 11.8946 56.3397 12.4746 55.7297C14.7146 53.3697 17.0346 51.0797 19.2946 48.7297C19.9146 48.0897 20.5746 47.7997 21.4646 47.8197C23.7346 47.8697 26.0045 47.8197 28.2745 47.8497C28.8745 47.8497 29.0746 47.6997 29.0646 47.0797C29.0246 45.0697 29.0346 43.0697 29.0646 41.0597C29.0746 40.4597 28.8946 40.2597 28.2846 40.2797C26.7046 40.3097 25.1246 40.2797 23.5446 40.2997C22.8146 40.2997 22.2146 40.0897 21.7046 39.5397C20.8046 38.5797 19.7946 37.7197 18.9346 36.7297C18.1146 35.7797 17.2146 35.3997 15.9446 35.4597C14.9346 35.5097 14.3746 35.6497 13.9346 36.7397C12.7346 39.7497 9.37453 41.3897 6.25453 40.7097C2.97453 39.9897 0.724548 37.1597 0.774548 33.8097C0.824548 30.5997 3.12461 27.7897 6.21461 27.1697C9.52461 26.5097 12.8145 28.1697 13.9945 31.2697C14.3545 32.2197 14.8246 32.3697 15.7146 32.3697C19.6746 32.3697 18.5646 31.7897 21.2146 34.6897C22.9346 36.5597 24.7045 37.4997 27.2645 37.1897C29.0245 36.9797 29.0446 37.1497 29.0446 35.3197C29.0446 31.9297 29.0446 28.5397 29.0446 25.1497C29.0446 23.6197 29.5845 23.0897 31.1345 23.0797C33.5345 23.0797 35.9346 23.0597 38.3446 23.0797C38.9346 23.0797 39.1245 22.9297 39.1345 22.3097C39.1845 19.4697 39.2046 19.4697 36.9646 17.6797C35.1346 16.2197 33.3346 14.7497 31.4846 13.3197C30.7446 12.7497 30.3946 12.0997 30.4146 11.1397C30.4546 8.1797 30.4246 5.2197 30.4346 2.2597C30.4346 0.9797 30.9746 0.29972 31.9846 0.27972C33.0346 0.25972 33.5946 0.949668 33.5946 2.28967C33.5946 4.88967 33.6146 7.48972 33.5846 10.0897C33.5846 10.7197 33.7645 11.1097 34.2545 11.4997C36.6345 13.3697 38.9846 15.2797 41.3646 17.1497C42.0146 17.6597 42.3346 18.2497 42.2946 19.0897C42.2546 20.2097 42.2945 21.3297 42.2745 22.4497C42.2745 22.9097 42.4145 23.0897 42.8945 23.0897C45.6245 23.0797 48.3546 23.0697 51.0846 23.0897C51.6246 23.0897 51.7446 22.8597 51.7346 22.3797C51.7146 20.0397 51.7046 17.7097 51.7346 15.3697C51.7446 14.7297 51.3846 14.6497 50.9346 14.4797C47.9346 13.3497 46.2046 10.6197 46.4046 7.36969C46.5846 4.48969 48.7946 1.9497 51.7346 1.2597C55.2146 0.4397 58.7446 2.42968 59.8546 5.85968C60.9746 9.30968 59.2645 13.0697 55.8745 14.3597C55.0345 14.6797 54.8246 15.0797 54.8546 15.9197C54.9146 18.0197 54.9046 20.1297 54.8546 22.2397C54.8446 22.9397 55.0645 23.1297 55.7445 23.1197C58.2745 23.0797 60.8146 23.0697 63.3446 23.1197C64.1646 23.1397 64.3546 22.8397 64.3146 22.0997C64.2646 21.0797 64.3246 20.0597 64.2946 19.0397C64.2646 18.2397 64.5846 17.6797 65.2046 17.1897C67.5546 15.3397 69.8746 13.4397 72.2346 11.5997C72.7846 11.1797 73.0145 10.7397 73.0045 10.0397C72.9645 7.33967 72.9745 4.6397 73.0045 1.9497C73.0045 0.939703 73.5946 0.349688 74.4746 0.309688C75.4046 0.269688 76.0345 0.859695 76.1345 1.8797C76.1645 2.1397 76.1445 2.40967 76.1445 2.66967C76.1445 5.13967 76.0346 7.6097 76.1846 10.0697C76.2946 11.8497 75.7045 13.0197 74.2645 14.0497C72.1545 15.5597 70.2045 17.2897 68.1445 18.8797C67.6145 19.2897 67.3846 19.7297 67.4546 20.3697C67.5446 21.2397 67.0746 22.3797 67.6546 22.9297C68.2246 23.4797 69.3446 23.0897 70.2246 23.0997C72.0046 23.1297 73.7746 23.0997 75.5546 23.1097C76.9746 23.1197 77.5346 23.6797 77.5446 25.0897C77.5646 28.0197 77.5746 30.9497 77.5446 33.8797C77.5446 34.5697 77.7346 34.7797 78.4246 34.7697C81.3846 34.7297 84.3446 34.7497 87.3046 34.7697C87.8346 34.7697 88.2345 34.6297 88.6445 34.2897C91.4845 31.9397 94.3346 29.6097 97.1846 27.2697C97.5146 26.9997 97.8346 26.7097 98.1846 26.4597C98.9446 25.9097 99.8545 25.9997 100.395 26.6497C100.935 27.2897 100.895 28.2697 100.185 28.8597C96.6646 31.7797 93.1246 34.6797 89.5946 37.5697C89.1546 37.9297 88.6146 37.9097 88.0846 37.9097C84.9246 37.9097 81.7646 37.9297 78.6046 37.8897C77.8146 37.8797 77.5146 38.0497 77.5346 38.9097C77.5946 41.6097 77.5746 44.3097 77.5346 46.9997C77.5346 47.6897 77.7346 47.8997 78.4246 47.8897C81.3846 47.8597 84.3446 47.8597 87.3046 47.8897C87.8946 47.8897 88.2946 47.6497 88.7046 47.3097C91.7046 44.8397 94.7046 42.3797 97.7046 39.9197C97.8346 39.8197 97.9546 39.6997 98.0846 39.6097C98.9046 39.0097 99.8045 39.0597 100.375 39.7497C100.945 40.4197 100.865 41.3897 100.105 42.0297C96.6346 44.8997 93.1446 47.7497 89.6546 50.6097C89.1646 51.0197 88.5846 51.0497 87.9746 51.0497C84.7846 51.0497 81.5946 51.0697 78.4046 51.0297C77.7046 51.0297 77.5246 51.2397 77.5246 51.9197C77.5546 55.2797 77.5546 58.6297 77.5246 61.9897C77.5246 62.6297 77.7146 62.8397 78.3646 62.8297C80.5646 62.7997 82.7746 62.7897 84.9746 62.8297C85.6346 62.8397 85.9346 62.6497 86.1746 61.9997C87.2246 59.1397 90.0146 57.3197 92.9146 57.4897C95.9746 57.6697 98.4946 59.6597 99.2946 62.5197C100.275 66.0497 98.3546 69.7297 94.9046 70.9297C91.4146 72.1397 87.5645 70.4097 86.2445 66.9397C85.9345 66.1197 85.5345 65.9397 84.7545 65.9597C82.6845 66.0097 80.6046 65.9997 78.5346 65.9597C77.7846 65.9397 77.5046 66.1197 77.5246 66.9297C77.5845 69.1997 77.5446 71.4697 77.5446 73.7397C77.5446 75.8997 77.1546 76.2997 75.0346 76.2997C73.0946 76.2997 71.1546 76.3197 69.2146 76.2897C68.6146 76.2897 68.4146 76.4697 68.4246 77.0797C68.4546 79.2797 68.4546 81.4897 68.4246 83.6897C68.4146 84.3797 68.5946 84.7097 69.2946 84.9597C72.4446 86.1197 74.1846 89.2297 73.6546 92.6097C73.1846 95.6597 70.4146 98.1397 67.3246 98.2897C63.8846 98.4497 61.0446 96.4097 60.1646 93.1497C59.2546 89.7797 61.0246 86.2397 64.3446 84.9897C65.1046 84.6997 65.3046 84.3297 65.2846 83.5697C65.2346 81.5597 65.2645 79.5597 65.2645 77.5497C65.2645 76.7163 64.8313 76.2997 63.9646 76.2997C60.3746 76.2997 56.7946 76.2997 53.2046 76.2997L53.2545 76.2597ZM32.2246 49.6897C32.2246 57.1897 32.2346 64.6897 32.2046 72.1897C32.2046 72.9297 32.4045 73.1397 33.1345 73.1297C35.7345 73.0897 38.3246 73.1097 40.9246 73.1097C51.7146 73.1097 62.4946 73.0997 73.2846 73.1297C74.1846 73.1297 74.4446 72.9097 74.4346 71.9897C74.3746 64.4597 74.3646 56.9297 74.3646 49.3997C74.3646 42.0297 74.3846 34.6697 74.4346 27.2997C74.4346 26.4097 74.1846 26.1997 73.3246 26.2097C66.6546 26.2597 59.9746 26.2797 53.3046 26.2797C46.6346 26.2797 39.9546 26.2597 33.2846 26.1997C32.4246 26.1997 32.1846 26.3997 32.1946 27.2797C32.2346 34.7497 32.2146 42.2097 32.2146 49.6797L32.2246 49.6897ZM49.5746 7.99969C49.5846 10.0697 51.2846 11.7497 53.3546 11.7297C55.4146 11.7097 57.1046 9.98968 57.0846 7.92968C57.0646 5.85968 55.3646 4.20966 53.2846 4.21966C51.1846 4.22966 49.5646 5.88969 49.5746 7.99969ZM96.4246 64.3697C96.4246 62.2897 94.7646 60.5997 92.6946 60.5997C90.6346 60.5997 88.9346 62.2797 88.9346 64.3497C88.9346 66.4297 90.6046 68.0997 92.6746 68.1097C94.7546 68.1097 96.4246 66.4497 96.4246 64.3697ZM39.7946 95.0997C41.8846 95.0797 43.5145 93.4197 43.4945 91.3197C43.4745 89.2397 41.7846 87.5797 39.7046 87.6097C37.6346 87.6297 35.9646 89.3397 35.9846 91.4097C36.0046 93.4797 37.7046 95.1197 39.7946 95.1097V95.0997ZM66.8945 95.0997C68.9745 95.0997 70.6545 93.4097 70.6445 91.3497C70.6345 89.2797 68.9446 87.6097 66.8646 87.6097C64.7846 87.6097 63.1245 89.2897 63.1245 91.3697C63.1245 93.4597 64.7845 95.0997 66.8845 95.0997H66.8945ZM7.68458 37.6597C9.76458 37.6597 11.4546 35.9797 11.4546 33.9197C11.4546 31.8797 9.72458 30.1497 7.68458 30.1497C5.62458 30.1497 3.94459 31.8397 3.94459 33.9197C3.94459 36.0197 5.58458 37.6597 7.68458 37.6597Z" fill="black"/>
<path d="M58.6842 67.7499C55.9242 67.7499 53.1542 67.7499 50.3942 67.7499C48.7842 67.7499 48.2541 67.2199 48.2441 65.6299C48.2441 60.0999 48.2441 54.5699 48.2441 49.0499C48.2441 47.4599 48.7842 46.9299 50.3942 46.9199C55.9242 46.9199 61.4542 46.9199 66.9742 46.9199C68.5142 46.9199 69.0642 47.4599 69.0742 48.9999C69.0742 54.5599 69.0742 60.1199 69.0742 65.6799C69.0742 67.2199 68.5242 67.7399 66.9742 67.7499C64.2142 67.7499 61.4442 67.7499 58.6842 67.7499ZM51.4042 57.2999C51.4042 59.4699 51.4242 61.6399 51.3942 63.8099C51.3942 64.4099 51.5742 64.6099 52.1742 64.5999C56.5142 64.5799 60.8542 64.5799 65.1942 64.5999C65.7442 64.5999 65.9342 64.4099 65.9342 63.8599C65.9142 59.5199 65.9142 55.18 65.9342 50.84C65.9342 50.24 65.7442 50.0499 65.1442 50.0599C60.8342 50.0799 56.5342 50.0799 52.2242 50.0599C51.5742 50.0599 51.3842 50.25 51.3942 50.9C51.4342 53.04 51.4042 55.1699 51.4042 57.3099V57.2999Z" fill="black"/>
<path d="M43.5743 33.8301C45.1543 33.8301 46.7343 33.8301 48.3143 33.8301C49.4943 33.8301 50.1843 34.4301 50.1843 35.3901C50.1843 36.3501 49.4843 36.98 48.3243 36.98C45.1343 36.99 41.9442 36.99 38.7542 36.98C37.5942 36.98 36.9143 36.34 36.9443 35.36C36.9643 34.42 37.6142 33.8501 38.7442 33.8401C40.3542 33.8201 41.9643 33.8401 43.5843 33.8401L43.5743 33.8301Z" fill="black"/>
</svg>
