<svg width="41" height="42" viewBox="0 0 41 42" fill="none" xmlns="http://www.w3.org/2000/svg">
<path d="M0.504689 21.214C0.504689 18.4428 0.504689 15.6822 0.504689 12.9111C0.504689 9.89853 2.35467 7.52626 5.17467 6.92795C5.57467 6.84397 5.98469 6.8125 6.38469 6.8125C11.2047 6.8125 16.0247 6.8125 20.8447 6.8125C21.5747 6.8125 22.0247 7.08536 22.2147 7.6102C22.5047 8.39745 22.0047 9.21624 21.1747 9.30022C21.0347 9.31071 20.8947 9.30022 20.7547 9.30022C15.9147 9.30022 11.0847 9.30022 6.24468 9.30022C4.63468 9.30022 3.36471 10.3289 2.96471 11.9244C2.87471 12.2708 2.83471 12.6486 2.83471 13.016C2.83471 18.4953 2.83471 23.9641 2.83471 29.4434C2.83471 31.6582 4.29471 33.1802 6.40471 33.1802C8.14471 33.1802 9.88467 33.1802 11.6147 33.1802C12.5747 33.1802 13.0147 33.6316 12.9947 34.6288C12.9647 35.8464 12.9047 37.064 12.8847 38.2921C12.8847 38.5126 12.9647 38.8379 13.1147 38.9219C13.2547 39.0059 13.5747 38.9114 13.7347 38.7855C15.9547 37.0535 18.1547 35.3216 20.3547 33.5686C20.6947 33.2957 21.0447 33.1697 21.4747 33.1697C24.0547 33.1802 26.6347 33.1802 29.2147 33.1697C30.9947 33.1697 32.3247 32.0361 32.6647 30.2516C32.7147 29.9997 32.7147 29.7268 32.7147 29.4644C32.7147 26.1579 32.7147 22.841 32.7147 19.5345C32.7147 18.5583 33.3647 17.96 34.1847 18.1699C34.6347 18.2854 34.9647 18.6633 35.0347 19.1461C35.0547 19.2931 35.0647 19.44 35.0647 19.587C35.0647 22.9144 35.0847 26.2419 35.0647 29.5589C35.0447 32.5084 33.2947 34.8177 30.6147 35.4685C30.1947 35.5735 29.7547 35.605 29.3247 35.605C26.9147 35.6155 24.5047 35.6049 22.0947 35.6259C21.8347 35.6259 21.5447 35.7309 21.3347 35.8989C19.2247 37.5363 17.1447 39.2053 15.0447 40.8428C13.9047 41.7351 12.4747 41.693 11.4547 40.7483C10.8447 40.1815 10.5147 39.4678 10.5147 38.607C10.5147 37.7568 10.5447 36.8961 10.5947 36.0458C10.6147 35.6889 10.4847 35.5945 10.1647 35.605C8.83466 35.6155 7.50467 35.6155 6.17467 35.605C3.03467 35.5945 0.514679 32.9703 0.494679 29.6638C0.484679 26.8402 0.494679 24.0166 0.494679 21.1824L0.504689 21.214Z" fill="#A7FF2F"/>
<path d="M26.825 13.8032C26.895 12.764 26.975 11.8403 27.005 10.9166C27.005 10.6961 26.9249 10.4232 26.7849 10.2448C26.2549 9.54149 25.725 8.83824 25.145 8.17694C23.795 6.64442 24.805 4.79699 26.235 4.55556C27.085 4.40861 27.925 4.13568 28.755 3.88376C28.975 3.82078 29.205 3.64235 29.325 3.44292C29.805 2.68715 30.255 1.89989 30.715 1.13363C31.595 -0.346411 33.365 -0.367371 34.265 1.10217C34.745 1.88942 35.205 2.70812 35.705 3.48488C35.815 3.66332 36.025 3.82077 36.215 3.87325C37.085 4.13567 37.9749 4.3456 38.8549 4.58702C40.4749 5.02788 41.005 6.73887 39.925 8.08245C39.335 8.80672 38.745 9.54153 38.175 10.2868C38.055 10.4442 37.975 10.6857 37.985 10.8746C38.035 11.8718 38.135 12.8585 38.195 13.8556C38.275 15.1257 37.205 16.4903 35.635 15.9865C34.745 15.7031 33.875 15.2937 33.025 14.9053C32.655 14.7374 32.345 14.7479 31.985 14.9053C31.175 15.2727 30.3549 15.6191 29.5349 15.955C28.4349 16.3958 27.255 15.8291 26.925 14.6849C26.835 14.37 26.845 14.0236 26.825 13.8032ZM27.115 6.85435C27.295 7.09577 27.425 7.27422 27.565 7.45267C28.045 8.05098 28.545 8.62826 28.985 9.24757C29.175 9.50998 29.3349 9.84593 29.3549 10.1503C29.3849 10.6542 29.295 11.1685 29.255 11.6828C29.215 12.2601 29.185 12.8375 29.145 13.4883C29.385 13.4043 29.545 13.3623 29.695 13.2993C30.405 12.9949 31.135 12.7115 31.835 12.3861C32.305 12.1657 32.745 12.1867 33.205 12.3861C33.925 12.7115 34.655 13.0054 35.385 13.3098C35.515 13.3623 35.655 13.3938 35.865 13.4463C35.815 12.6905 35.8149 12.0187 35.7249 11.3574C35.5949 10.3602 35.605 9.41556 36.425 8.70178C36.535 8.60731 36.615 8.48134 36.705 8.36588C37.095 7.87253 37.4849 7.37916 37.9149 6.83333C37.7249 6.75986 37.615 6.71785 37.505 6.68637C36.765 6.48693 36.025 6.256 35.265 6.09855C34.685 5.97259 34.275 5.6682 33.985 5.13287C33.615 4.46108 33.205 3.81027 32.815 3.14898C32.735 3.01252 32.625 2.88659 32.495 2.71864C32.375 2.90758 32.275 3.03353 32.195 3.16999C31.785 3.85228 31.3649 4.53459 30.9749 5.22737C30.7149 5.69972 30.355 5.96214 29.865 6.0776C29.125 6.25605 28.3949 6.44496 27.6649 6.6444C27.4949 6.68639 27.335 6.75987 27.115 6.84384V6.85435Z" fill="#A7FF2F"/>
<path d="M18.0746 19.2407C15.9046 19.2407 13.7346 19.2407 11.5646 19.2407C10.7446 19.2407 10.2546 18.7788 10.2446 18.0335C10.2446 17.3408 10.7047 16.816 11.3947 16.774C11.7747 16.753 12.1547 16.774 12.5247 16.774C16.5347 16.774 20.5346 16.774 24.5446 16.774C25.3946 16.774 25.9246 17.2988 25.8846 18.0966C25.8546 18.6634 25.4646 19.1253 24.9246 19.2092C24.7346 19.2407 24.5347 19.2407 24.3347 19.2407C22.2447 19.2407 20.1646 19.2407 18.0746 19.2407Z" fill="#A7FF2F"/>
<path d="M14.9448 23.208C16.0748 23.208 17.2148 23.208 18.3448 23.208C19.1148 23.208 19.6548 23.7328 19.6448 24.4466C19.6448 25.1394 19.1048 25.6537 18.3648 25.6537C16.0748 25.6537 13.7748 25.6537 11.4848 25.6537C10.7248 25.6537 10.2348 25.1604 10.2448 24.4256C10.2448 23.6908 10.7448 23.2185 11.5048 23.208C12.6548 23.208 13.7948 23.208 14.9448 23.208Z" fill="#A7FF2F"/>
</svg>
