<svg xmlns="http://www.w3.org/2000/svg" width="67" height="67" viewBox="0 0 67 67" fill="none">
  <path d="M66.2675 12.2775C66.2575 5.40749 60.8675 0.0175 54.0075 0.0075C40.0875 -0.0025 26.1675 -0.0025 12.2575 0.0075C5.3875 0.0175 0.0075 5.41751 0.0075 12.2975C-0.0025 26.1875 -0.0025 40.0775 0.0075 53.9675C0.0075 60.9775 5.29755 66.2675 12.3075 66.2775C20.7875 66.2875 29.2675 66.2875 37.7475 66.2875H53.9776C54.8976 66.2875 55.7076 66.2075 56.4676 66.0475C62.3176 64.8375 66.2575 60.0075 66.2675 54.0375C66.2775 49.2075 66.2775 44.3875 66.2775 39.5675V26.7575C66.2775 21.9375 66.2775 17.1075 66.2675 12.2775ZM63.0175 53.7975C63.0175 59.2275 59.2075 63.0275 53.7475 63.0275H12.6475C7.02751 63.0275 3.2575 59.2675 3.2575 53.6675C3.2475 39.9675 3.2475 26.2675 3.2575 12.5675C3.2575 7.0875 7.06752 3.2575 12.5275 3.2575H53.7975C59.2275 3.2575 63.0175 7.0375 63.0175 12.4475C63.0275 26.2375 63.0275 40.0175 63.0175 53.7975Z" fill="#57B900"/>
  <path d="M43.7475 46.2674C42.6875 45.1974 41.6375 44.1274 40.5475 43.0874C40.2975 42.8474 39.9576 42.4574 39.9576 41.8974C39.9576 41.2674 40.3975 40.8474 40.5575 40.6874C41.3775 39.9074 42.1676 39.1074 42.9676 38.3074L44.0876 37.1774C44.3176 36.9574 44.5275 36.7174 44.6475 36.4474C44.9375 35.7474 44.7076 34.9374 44.0976 34.5074C43.4176 34.0274 42.6075 34.0974 41.9875 34.6974C40.7675 35.8774 39.5075 37.1374 38.2475 38.4374C37.9975 38.6874 37.5975 39.0474 37.0475 39.0174C36.4275 39.0074 36.0175 38.5674 35.8775 38.4174C35.4675 37.9574 35.0176 37.5274 34.5776 37.0974L30.1775 32.7274L32.4576 32.1774C32.7576 32.1074 33.0075 32.0474 33.2675 31.9774C36.8575 30.8874 39.1476 27.3374 38.6876 23.5274C38.2576 19.8174 35.1075 16.9174 31.3875 16.7774C28.7375 16.6774 26.0375 16.6674 23.4175 16.6674H23.1375C22.6775 16.6574 22.2775 16.8174 21.9875 17.1074C21.6775 17.4174 21.5075 17.8774 21.5075 18.3974C21.4975 25.9474 21.4975 33.4974 21.5075 41.0374C21.5075 41.2674 21.5075 41.5074 21.5575 41.6974C21.7475 42.4574 22.4976 43.0074 23.2276 42.9474C24.1176 42.8674 24.7375 42.1874 24.7475 41.2974C24.7575 39.7174 24.7575 38.1474 24.7575 36.4974V31.8674L28.3476 35.4674C30.1876 37.3074 31.9575 39.0874 33.7475 40.8474C34.0675 41.1674 34.2276 41.5174 34.2276 41.8874C34.2276 42.4474 33.8576 42.8074 33.6876 42.9874C32.4576 44.1974 31.2475 45.4074 30.0375 46.6274C29.2375 47.4374 29.1576 48.4074 29.8276 49.0974C30.1276 49.4074 30.4975 49.5774 30.8975 49.5774C31.3675 49.6074 31.9076 49.3574 32.3376 48.9174L32.9975 48.2774C33.9275 47.3574 34.8875 46.4174 35.7775 45.4574C36.0475 45.1774 36.4675 44.8074 37.0575 44.7974H37.0676C37.7276 44.7974 38.1875 45.2774 38.3775 45.4874C39.2475 46.3974 40.1475 47.2874 41.0475 48.1774L41.7675 48.8974C42.6075 49.7274 43.5975 49.8074 44.2875 49.1174C45.1375 48.2774 44.7376 47.2674 44.0776 46.6074L43.7475 46.2674ZM26.4376 29.0774H26.3376C26.0776 29.0774 25.5475 29.0374 25.1575 28.6374C24.7075 28.1874 24.7375 27.5674 24.7475 27.3374C24.7675 26.6774 24.7575 26.0174 24.7575 25.3574V23.6574C24.7575 22.9974 24.7675 22.3274 24.7475 21.6674C24.7375 21.4174 24.7175 20.8274 25.1575 20.3874C25.5975 19.9474 26.1875 19.9574 26.3875 19.9674C27.9475 20.0074 29.5076 19.9774 31.0676 20.0174C33.5576 20.0774 35.4975 22.0674 35.4875 24.5574C35.4775 27.0374 33.5175 29.0174 31.0175 29.0574C30.3175 29.0674 29.6175 29.0674 28.9175 29.0574C28.0875 29.0574 27.2676 29.0574 26.4376 29.0774Z" fill="#57B900"/>
</svg>