<svg xmlns="http://www.w3.org/2000/svg" width="74" height="67" viewBox="0 0 74 67" fill="none">
  <path d="M73.5005 34.2526C73.3805 34.7326 73.2706 35.2226 73.1406 35.7026C71.8406 40.3226 67.6306 43.1626 62.7006 42.7126C62.2006 42.6626 61.9406 42.7725 61.6906 43.2225C60.4606 45.4125 59.2005 47.5825 57.9305 49.7425C57.7205 50.1025 57.7105 50.3326 57.9705 50.6825C60.2405 53.8125 60.6605 57.2026 59.0005 60.6926C57.3405 64.1926 54.4306 66.0025 50.5806 66.2225C46.7106 66.4425 42.9705 64.0426 41.4105 60.3926C41.2105 59.9226 40.9805 59.7626 40.4705 59.7726C38.0105 59.8026 35.5406 59.8026 33.0806 59.7726C32.5606 59.7726 32.3006 59.8925 32.0806 60.4125C29.8706 65.5025 23.8305 67.7025 18.9005 65.2225C18.6005 65.0725 18.2905 64.9325 18.1205 64.6226C17.8905 64.2026 17.9105 63.7825 18.2205 63.4225C18.5705 63.0125 19.0206 62.8826 19.5106 63.1326C20.4206 63.5826 21.3505 63.9026 22.3605 64.0326C25.3105 64.4126 28.4405 62.8126 29.8105 60.1926C29.8605 60.0926 29.8906 59.9825 29.9406 59.8625C27.3406 59.4625 26.1105 58.3425 26.1705 56.4725C26.2405 54.5825 27.5506 53.4525 29.8806 53.3025C29.9806 53.0125 29.7606 52.8225 29.6306 52.6125C27.5406 49.1925 23.0906 48.0126 19.5806 49.9526C16.0406 51.9126 14.6605 56.3225 16.4805 59.9325C16.5905 60.1425 16.7106 60.3526 16.8206 60.5626C17.1106 61.1726 16.9606 61.7726 16.4406 62.0626C15.9206 62.3526 15.3106 62.1825 14.9606 61.6125C13.9706 60.0025 13.4905 58.2425 13.5305 56.3625C13.5805 54.2725 14.2306 52.3726 15.5206 50.7126C15.7906 50.3726 15.7906 50.1326 15.5806 49.7726C14.3106 47.6126 13.0506 45.4426 11.8206 43.2526C11.5706 42.8126 11.3205 42.6825 10.8105 42.7325C4.81055 43.2725 -0.0594515 38.8625 0.000548527 32.9725C0.0605485 27.2825 4.90056 23.0126 10.7606 23.5226C11.3406 23.5726 11.6005 23.4025 11.8705 22.9325C13.0505 20.8325 14.2605 18.7425 15.4905 16.6625C15.7705 16.1925 15.7806 15.9025 15.4406 15.4125C13.1306 12.0925 12.9006 8.60255 14.7606 5.00255C15.1806 4.19255 16.0406 4.00257 16.5706 4.58257C17.0206 5.07257 16.8805 5.57253 16.6105 6.10253C15.3205 8.58253 15.3805 11.0626 16.7305 13.5026C16.8005 13.6226 16.8905 13.7426 17.0305 13.9426C17.6405 12.8026 18.4606 11.9925 19.7606 11.8525C20.5506 11.7725 21.2806 11.9226 21.9406 12.3726C23.4406 13.3826 23.7006 14.9626 22.7106 17.1426C23.5306 17.3026 24.3205 17.2025 25.0905 16.9825C28.0105 16.1525 29.9205 14.2625 30.5605 11.3025C31.2205 8.22254 30.2605 5.58255 27.7405 3.68255C25.2905 1.83255 22.6006 1.66253 19.8306 2.97253C18.8206 3.45253 18.2405 3.40255 17.9105 2.75255C17.5705 2.08255 17.8705 1.55254 18.8505 1.05254C23.7905 -1.45746 29.8305 0.682564 32.0505 5.76256C32.3005 6.32256 32.5905 6.47258 33.1605 6.46258C35.6205 6.43258 38.0905 6.44258 40.5505 6.46258C41.0005 6.46258 41.1906 6.32258 41.3906 5.90258C43.0806 2.21258 45.9806 0.152584 50.0206 0.0325839C53.9706 -0.0874161 57.0205 1.71253 58.8605 5.22253C60.7305 8.79253 60.3305 12.2925 57.9905 15.5525C57.7605 15.8725 57.7005 16.0825 57.9105 16.4325C59.2205 18.6625 60.5005 20.8926 61.7905 23.1326C61.9605 23.4326 62.1206 23.5625 62.5106 23.5425C68.3006 23.1225 72.1405 26.0325 73.4305 31.7925C73.4505 31.8625 73.4906 31.9225 73.5206 31.9825V34.2826L73.5005 34.2526ZM23.2505 46.8926C27.1105 46.8726 30.5905 49.1625 32.1105 52.7325C32.3005 53.1725 32.5005 53.3426 32.9905 53.3326C35.5005 53.3026 38.0105 53.3126 40.5305 53.3326C40.9705 53.3326 41.1905 53.2126 41.3705 52.7826C43.0805 48.7326 47.2005 46.3626 51.5405 46.9426C51.9605 47.0026 52.1306 46.8825 52.3206 46.5525C53.6006 44.3125 54.8806 42.0725 56.2006 39.8525C56.4106 39.4925 56.3505 39.2825 56.1205 38.9725C53.4305 35.3525 53.4405 30.8626 56.1505 27.1926C56.3705 26.8926 56.3906 26.6926 56.2106 26.3826C54.8906 24.1326 53.5905 21.8825 52.3005 19.6125C52.1205 19.2925 51.9406 19.2026 51.5706 19.2526C47.2606 19.8326 43.1005 17.4926 41.4105 13.5126C41.1905 12.9926 40.9205 12.8726 40.4005 12.8726C37.9605 12.8926 35.5206 12.9025 33.0806 12.8726C32.5506 12.8726 32.3006 13.0126 32.0806 13.5226C30.3906 17.4926 26.2305 19.8526 21.9905 19.2626C21.5405 19.2026 21.3505 19.3325 21.1505 19.6825C19.8805 21.9025 18.6106 24.1226 17.3206 26.3226C17.1306 26.6526 17.1005 26.8626 17.3505 27.2026C20.0605 30.8826 20.0705 35.3425 17.3705 38.9825C17.1305 39.3025 17.1105 39.5125 17.3105 39.8625C18.5205 41.9225 19.7306 43.9826 20.8906 46.0726C21.2406 46.7126 21.5705 47.1826 22.4005 46.9026C22.6605 46.8126 22.9706 46.8926 23.2606 46.8926H23.2505ZM50.7606 49.1025C47.8006 48.5625 44.3706 50.7826 43.2006 54.0026C41.9606 57.3926 43.3605 61.2426 46.5005 63.0626C49.6506 64.8926 53.7305 64.1826 56.0605 61.3926C58.2505 58.7726 58.4505 54.6626 56.4905 52.3826C54.9805 54.3826 53.4706 54.9126 51.8306 54.0226C50.1706 53.1126 49.8406 51.5825 50.7606 49.1125V49.1025ZM43.5605 12.9325C44.7505 15.9725 48.5806 17.7926 52.0005 17.0026C55.5305 16.1826 58.0905 12.7625 57.8105 9.23254C57.5005 5.30254 54.5705 2.40256 50.6505 2.13256C47.7105 1.93256 44.1205 4.10256 43.6205 6.38256C46.0005 6.60256 47.3006 7.75256 47.3306 9.63256C47.3506 11.5326 46.0405 12.6825 43.5605 12.9325ZM57.6605 28.9426C57.4505 29.0126 57.3805 29.1826 57.3105 29.3226C55.8205 32.1026 55.8706 34.8626 57.6906 37.4426C59.5106 40.0326 62.1305 41.0525 65.2205 40.4925C69.0605 39.8025 71.6506 36.3125 71.3306 32.4825C71.0206 28.6725 67.9205 25.7426 64.0605 25.5726C63.2405 25.5426 63.2405 25.5426 63.6005 26.2826C64.3505 27.8426 63.8105 29.6726 62.3405 30.5226C60.8605 31.3826 59.0005 30.9426 58.0305 29.5126C57.9005 29.3226 57.7805 29.1225 57.6505 28.9325L57.6605 28.9426ZM15.8806 37.3625C16.7306 36.1825 17.1306 34.9326 17.2106 33.5826C17.4606 29.3726 14.2805 25.8325 10.0905 25.6025C5.96051 25.3725 2.40052 28.5326 2.16052 32.6326C1.91052 36.8526 5.09051 40.4026 9.34051 40.6326C10.2405 40.6826 10.2506 40.6726 9.88055 39.8726C8.85055 37.6626 10.4305 35.2126 12.8605 35.2626C14.2805 35.2926 15.2006 36.0926 15.8806 37.3726V37.3625ZM38.6705 10.7325C40.4605 10.7325 42.2505 10.7325 44.0505 10.7325C44.7305 10.7325 45.1705 10.2825 45.1805 9.68255C45.1805 9.09255 44.7406 8.65258 44.0806 8.59258C43.8906 8.57258 43.7006 8.59258 43.5106 8.59258C40.5206 8.59258 37.5405 8.59258 34.5505 8.59258C32.9005 8.59258 32.9306 8.59257 32.8906 10.2026C32.8906 10.6626 33.0206 10.7626 33.4506 10.7626C35.1906 10.7426 36.9405 10.7626 38.6805 10.7626L38.6705 10.7325ZM34.8806 57.6326H39.0405C40.6205 57.6326 40.6006 57.6326 40.6406 56.0326C40.6506 55.5826 40.5405 55.4626 40.0905 55.4626C36.6005 55.4826 33.1105 55.4726 29.6205 55.4626C29.1905 55.4626 28.8105 55.5325 28.5505 55.9125C28.3105 56.2525 28.2706 56.6226 28.4606 57.0026C28.6906 57.4626 29.0906 57.6226 29.5806 57.6226C31.3506 57.6226 33.1206 57.6226 34.8906 57.6226L34.8806 57.6326ZM21.2006 15.0626C21.2206 14.4926 20.7606 14.0025 20.1906 13.9725C19.6006 13.9425 19.3005 14.3126 19.0305 14.7726C17.4405 17.5426 15.8305 20.3126 14.2305 23.0826C13.8105 23.8092 13.9505 24.3792 14.6505 24.7925C14.7505 24.8525 14.8706 24.9025 14.9506 24.9825C15.3206 25.3225 15.5205 25.1925 15.7405 24.7925C17.4605 21.7825 19.1905 18.7925 20.9305 15.7925C21.0605 15.5625 21.1706 15.3226 21.2006 15.0626ZM53.4905 52.2425C53.9805 52.2425 54.2405 51.8625 54.4905 51.4325C56.0405 48.7425 57.5906 46.0625 59.1406 43.3726C59.3806 42.9626 59.8205 42.5226 59.7905 42.1326C59.7605 41.6426 59.0105 41.6426 58.6605 41.3126C58.1805 40.8626 57.9605 41.0926 57.6805 41.5826C56.0305 44.4926 54.3505 47.3726 52.6805 50.2726C52.5705 50.4626 52.4606 50.6426 52.3906 50.8426C52.1306 51.5726 52.6505 52.2726 53.4905 52.2526V52.2425ZM61.7805 27.6725C61.8105 27.4025 61.6105 27.1226 61.4406 26.8426C59.9106 24.2026 58.3905 21.5525 56.8605 18.9125C56.6005 18.4625 56.4106 17.8126 56.0106 17.6326C55.6406 17.4726 55.1905 18.1026 54.7205 18.2626C54.2205 18.4326 54.2105 18.6626 54.4705 19.0926C56.2005 22.0526 57.9106 25.0326 59.6306 28.0126C59.7206 28.1726 59.8206 28.3525 59.9506 28.4825C60.2906 28.8225 60.7006 28.9026 61.1306 28.7126C61.5406 28.5426 61.7506 28.2125 61.7606 27.6625L61.7805 27.6725ZM11.7205 38.6625C11.7205 38.8125 11.8905 39.0826 12.0405 39.3426C13.6405 42.1126 15.2306 44.8826 16.8306 47.6526C17.2239 48.3392 17.7772 48.4859 18.4905 48.0926C18.5705 48.0426 18.6505 47.9926 18.7405 47.9626C19.2805 47.8026 19.2705 47.5426 19.0005 47.0826C17.2705 44.1426 15.5805 41.1825 13.8705 38.2225C13.7605 38.0425 13.6505 37.8426 13.5005 37.7026C13.1605 37.3726 12.7405 37.3126 12.3105 37.5126C11.9005 37.7026 11.7106 38.0425 11.7106 38.6625H11.7205Z" fill="#B3C619"/>
  <path d="M36.7107 46.4327C34.5107 46.4327 32.3107 46.4127 30.1107 46.4327C29.3907 46.4327 28.9107 46.1927 28.5407 45.5527C26.3207 41.6727 24.0907 37.8027 21.8407 33.9427C21.4807 33.3327 21.5007 32.8127 21.8407 32.2127C24.0907 28.3527 26.3307 24.4827 28.5507 20.6027C28.9007 19.9927 29.3607 19.7427 30.0607 19.7427C34.5107 19.7627 38.9607 19.7627 43.4107 19.7427C44.1507 19.7427 44.6007 20.0227 44.9607 20.6527C47.1707 24.5127 49.3907 28.3627 51.6307 32.1927C52.0007 32.8327 51.9907 33.3627 51.6207 33.9927C49.3907 37.8127 47.1807 41.6327 44.9907 45.4727C44.6007 46.1627 44.1007 46.4427 43.3207 46.4327C41.1207 46.4027 38.9207 46.4227 36.7207 46.4227L36.7107 46.4327ZM24.5607 34.2227C24.6107 34.3627 24.6307 34.4527 24.6807 34.5327C26.4807 37.6627 28.3007 40.7827 30.0807 43.9227C30.3007 44.3127 30.5907 44.2827 30.9207 44.2827C34.8007 44.2827 38.6707 44.2827 42.5507 44.2927C43.0107 44.2927 43.2707 44.1627 43.5107 43.7527C45.2107 40.7627 46.9407 37.7827 48.6607 34.8027C48.7607 34.6327 48.9607 34.4827 48.8507 34.2327H24.5607V34.2227ZM29.6107 23.1027C27.9207 26.0327 26.2307 28.9727 24.5007 31.9727C24.7307 32.0027 24.8207 32.0227 24.9107 32.0227C28.0207 32.0227 31.1207 32.0227 34.2307 32.0327C34.8307 32.0327 34.7907 31.8427 34.5407 31.4227C33.0007 28.7827 31.4807 26.1327 29.9507 23.4827C29.8707 23.3427 29.8207 23.1627 29.6007 23.1027H29.6107ZM43.8707 23.1027C43.6207 23.2227 43.5607 23.4427 43.4607 23.6227C41.9807 26.1827 40.5007 28.7527 39.0207 31.3127C38.6107 32.0227 38.6207 32.0227 39.4107 32.0227C42.3707 32.0227 45.3407 32.0227 48.3007 32.0227C48.5007 32.0227 48.7307 32.1027 48.9407 31.8727C47.2507 28.9527 45.5607 26.0227 43.8707 23.0927V23.1027ZM36.7407 30.9527C38.5107 27.8827 40.2007 24.9527 41.9307 21.9627H31.5507C33.2807 24.9627 34.9707 27.8927 36.7407 30.9527Z" fill="#B3C619"/>
</svg>