<svg xmlns="http://www.w3.org/2000/svg" width="66" height="66" viewBox="0 0 66 66" fill="none">
  <path d="M19.62 65.6789H16.67C16.04 65.5689 15.41 65.4789 14.79 65.3489C5.99998 63.5789 0.01 56.2489 0 47.2789C0 35.7389 0 24.1989 0 12.6589C0 11.3689 0.189971 11.1689 1.46997 11.1689C18.52 11.1689 35.58 11.1689 52.63 11.1789C53.22 11.1789 53.37 11.0289 53.36 10.4489C53.33 7.34889 53.34 4.2489 53.35 1.1489C53.35 0.328903 53.66 0.00888889 54.46 0.00888889C56.19 0.00888889 57.92 -0.0111111 59.65 0.00888889C62.18 0.0488889 64.41 1.66888 65.27 4.05888C65.41 4.44888 65.53 4.85889 65.65 5.25889V49.2489C65.65 49.2489 65.58 49.3089 65.57 49.3389C64.64 52.8689 62.53 54.5089 58.88 54.5089C51.15 54.5089 43.41 54.5089 35.68 54.4989C35.14 54.4989 34.87 54.6389 34.63 55.1489C32.27 60.1089 28.43 63.3589 23.18 64.9689C22.01 65.3289 20.8 65.4389 19.61 65.6789H19.62ZM50.54 27.4189C51.33 28.1889 52.0599 28.8789 52.7599 29.5889C53.2399 30.0689 53.23 30.4989 52.78 30.9989C52.55 31.2489 52.33 31.5189 52.05 31.7189C51.03 32.4689 50.59 33.4389 50.81 34.6989C50.95 35.5089 50.67 36.1689 50 36.6489C49.45 37.0389 49.3 37.5589 49.37 38.1989C49.42 38.6689 49.37 39.1089 48.98 39.4889C48.01 40.4189 47.07 41.3889 46.12 42.3389C45.56 42.8889 45.14 42.8889 44.58 42.3289C43.88 41.6389 43.2 40.9289 42.49 40.2489C42.15 39.9289 42.02 39.5689 42.03 39.1089C42.05 38.0789 42.03 37.0589 42.04 36.0289C42.04 35.7089 41.96 35.4689 41.72 35.2389C40.98 34.5289 40.26 33.7989 39.54 33.0689C39.34 32.8689 39.14 32.7389 38.86 32.7889C37 33.1489 35.65 32.3589 34.58 30.9289C34.54 30.8789 34.49 30.8289 34.44 30.7889C33.86 30.3489 33.78 29.7589 33.68 29.0689C33.4 26.9889 34.09 25.4489 35.73 24.1289C36.76 23.3089 37.61 22.3389 38.94 21.8989C40.73 21.3089 40.45 21.1289 41.84 22.5289C42.04 22.7389 42.22 22.9289 42.58 22.9689C44.68 23.1689 46.64 22.7289 48.53 21.8489C48.75 21.7489 48.87 21.6589 48.89 21.3989C48.94 20.5289 48.95 19.6889 48.09 19.1389C47.86 18.9889 47.67 18.7689 47.5 18.5489C47.21 18.1789 46.86 18.0789 46.39 18.0789C40.34 18.0989 34.29 18.0889 28.25 18.0889C25.58 18.0889 22.91 18.0989 20.24 18.0789C19.82 18.0789 19.64 18.2089 19.54 18.6089C19.28 19.5989 18.97 20.5789 18.69 21.5589C18.53 22.1189 18.22 22.4289 17.61 22.4689C17.1 22.5089 16.6 22.6189 15.94 22.7089C16.68 23.1889 17.26 23.5689 17.85 23.9589C18.01 24.0589 18.16 24.0989 18.33 24.0189C19.21 23.6489 19.8799 23.9989 20.5099 24.6089C20.8599 24.9489 21.31 25.1989 21.65 25.5389C22.3 26.1989 23.01 26.4389 23.94 26.1889C24.68 25.9889 25.46 25.9689 26.21 25.8189C26.78 25.7089 27.2 25.8589 27.55 26.3189C28.3 27.3089 29.07 28.2789 29.84 29.2489C30.08 29.5489 30.17 29.8789 30.17 30.2589C30.15 31.2889 30.17 32.3089 30.14 33.3389C30.14 33.6589 30.22 33.8889 30.46 34.1189C34.18 37.5989 36.16 41.8889 36.32 46.9889C36.34 47.4589 36.47 47.5889 36.95 47.5889C39.58 47.5689 42.21 47.5789 44.84 47.5789C49.29 47.5789 53.73 47.5789 58.18 47.5789C58.62 47.5789 58.77 47.4789 58.75 47.0189C58.71 46.1889 58.71 45.3489 58.75 44.5189C58.77 44.0389 58.59 43.9589 58.16 43.9689C57.01 43.9989 55.85 43.9689 54.7 43.9689C53.6 43.9689 53.35 43.7189 53.35 42.6189C53.35 37.8789 53.35 33.1289 53.35 28.3889C53.35 28.1889 53.46 27.9189 53.24 27.7889C52.57 27.3989 52 26.5889 51.05 27.1989C50.94 27.2689 50.81 27.2889 50.54 27.3889V27.4189ZM63.82 43.9889C63.85 43.7889 63.86 43.7289 63.86 43.6589C63.86 31.1389 63.86 18.6189 63.86 6.10886C63.86 3.72886 61.94 1.84888 59.57 1.80888C58.33 1.78888 57.09 1.83886 55.85 1.78886C55.24 1.75886 55.13 1.96891 55.13 2.52891C55.15 15.5189 55.14 28.5089 55.14 41.4889C55.14 41.5789 55.15 41.6589 55.14 41.7489C55.08 42.1289 55.26 42.2189 55.61 42.2089C56.51 42.1889 57.41 42.2389 58.3 42.1989C60.33 42.0989 62.21 42.4489 63.82 43.9889ZM1.78998 39.3489C1.78998 39.3489 1.85995 39.3689 1.88995 39.3789C1.97995 39.2189 2.07997 39.0689 2.15997 38.9089C2.85997 37.6089 3.69997 36.3989 4.71997 35.3189C5.01997 34.9989 5.13995 34.6789 5.13995 34.2389C5.12995 28.7489 5.13995 23.2589 5.13995 17.7689C5.13995 16.5189 5.34996 16.3089 6.57996 16.3089C21.86 16.3089 37.14 16.3089 52.41 16.3089C52.58 16.3089 52.75 16.2889 52.92 16.3089C53.25 16.3489 53.37 16.2289 53.36 15.8789C53.34 15.1489 53.32 14.4289 53.36 13.6989C53.39 13.1489 53.27 12.9489 52.65 12.9489C35.94 12.9689 19.23 12.9689 2.51996 12.9489C1.94996 12.9489 1.77997 13.0689 1.77997 13.6689C1.79997 22.0189 1.78998 30.3789 1.78998 38.7289C1.78998 38.9289 1.78998 39.1389 1.78998 39.3389V39.3489ZM34.55 47.5289C34.64 38.5989 27.32 31.2089 18.32 31.1389C9.32001 31.0689 1.88999 38.2989 1.79999 47.2489C1.69999 56.3389 8.94 63.7889 17.94 63.8789C27.1 63.9689 34.46 56.7189 34.55 47.5289ZM49.74 18.0989C49.74 18.0989 49.67 18.1989 49.64 18.2489C50.69 18.8189 50.75 19.7589 50.68 20.7589C50.64 21.2489 50.66 21.7389 50.68 22.2289C50.69 22.7189 50.4599 23.0389 50.0099 23.2089C49.5299 23.3889 49.03 23.5289 48.57 23.7489C46.8 24.6189 44.94 24.8389 42.98 24.7789C41.97 24.7489 41.14 24.5989 40.52 23.7589C40.41 23.6089 40.2699 23.3489 40.0099 23.4489C39.3599 23.7089 38.64 23.8189 38.11 24.3289C37.33 25.0889 36.57 25.8689 35.8 26.6389C35.65 26.7889 35.52 26.9289 35.5 27.1789C35.42 28.4589 35.39 29.7089 36.68 30.4989C36.77 30.5489 36.84 30.6389 36.91 30.7189C37.09 30.9389 37.32 31.0389 37.59 30.9889C39.41 30.6489 40.77 31.3789 41.82 32.8189C41.86 32.8689 41.9 32.9189 41.96 32.9589C43.53 34.0589 44.15 35.5489 43.82 37.4289C43.62 38.5889 44 39.5089 44.97 40.1789C45 40.1989 45.03 40.2389 45.06 40.2689C45.25 40.5289 45.42 40.5489 45.66 40.2889C46.2 39.7089 46.76 39.1589 47.34 38.6089C47.55 38.4089 47.64 38.1989 47.6 37.9289C47.42 36.8889 47.81 36.0989 48.63 35.4889C48.95 35.2589 49.1 34.9489 49.04 34.5489C48.77 32.9089 49.25 31.5789 50.64 30.6189C50.95 30.3989 50.89 30.2189 50.64 29.9689C49.87 29.2289 49.11 28.4689 48.37 27.7089C47.72 27.0389 47.9 26.3389 48.8 26.0589C49.55 25.8189 50.31 25.6089 51.07 25.3689C51.85 25.1189 52.64 24.6689 53.37 25.7289C53.37 23.1689 53.37 20.8189 53.37 18.4689C53.37 18.2589 53.37 18.0989 53.07 18.0989C51.97 18.0989 50.8599 18.0989 49.7599 18.0989H49.74ZM60.53 44.1889C60.53 45.4589 60.53 46.7089 60.53 47.9689C60.53 49.1689 60.31 49.3889 59.12 49.3889C51.7 49.3889 44.29 49.3889 36.87 49.3789C36.38 49.3789 36.22 49.5189 36.16 49.9989C36.07 50.7189 35.94 51.4389 35.74 52.1289C35.59 52.6289 35.69 52.7289 36.2 52.7289C43.9399 52.7189 51.67 52.7189 59.41 52.7289C59.95 52.7289 60.47 52.6489 60.98 52.4689C62.83 51.8089 64.01 49.9589 63.85 48.0089C63.7 46.1589 62.3 44.5289 60.53 44.1989V44.1889ZM28.29 32.3889C28.49 31.1389 28.45 30.0589 27.5 29.1889C27.16 28.8789 26.89 28.4789 26.63 28.0789C26.41 27.7389 26.15 27.6589 25.77 27.7189C24.82 27.8789 23.87 27.9889 22.92 28.1689C22.41 28.2689 22.01 28.1589 21.62 27.8289C20.93 27.2489 20.21 26.7189 19.53 26.1389C19.17 25.8289 18.83 25.7089 18.37 25.8689C17.92 26.0289 17.5 25.9289 17.1 25.6489C16.47 25.2089 15.84 24.7489 15.17 24.3989C14.37 23.9789 13.94 23.3289 13.68 22.5089C13.41 21.6689 13.68 21.1889 14.57 21.0689C15.27 20.9789 15.97 20.8789 16.67 20.8089C16.91 20.7889 17.07 20.7089 17.13 20.4689C17.32 19.7889 17.51 19.1089 17.72 18.4389C17.8 18.1789 17.75 18.0989 17.48 18.0989C14.08 18.0989 10.69 18.0989 7.28998 18.0989C7.14998 18.0989 6.93 18.0489 6.94 18.2689C7 19.0189 6.63997 19.8189 7.40997 20.4589C8.41997 21.2989 9.33 22.2389 9.56 23.6089C9.68 24.3289 10.08 24.4389 10.73 24.3889C11.31 24.3489 11.93 24.1489 12.49 24.4989C13.81 25.3189 15.13 26.1489 16.46 26.9689C16.85 27.2089 17.01 27.5489 16.94 27.9989C16.91 28.2289 16.88 28.4689 16.82 28.6889C16.69 29.1789 16.76 29.3989 17.38 29.3489C19.36 29.2089 21.3 29.4689 23.2 30.0189C24.99 30.5289 26.66 31.3289 28.3 32.3689L28.29 32.3889ZM6.94995 33.2189C8.14995 32.2989 9.32997 31.5689 10.59 30.9889C11.85 30.4089 13.17 29.9789 14.53 29.6989C14.69 29.6689 14.82 29.6189 14.89 29.4089C15.18 28.4889 15.11 28.2689 14.3 27.7589C14.12 27.6489 13.9199 27.5489 13.7599 27.4189C12.4899 26.3889 11.09 25.9089 9.44 26.2189C8.89 26.3289 8.50996 26.0389 8.32996 25.4889C8.08996 24.7789 7.81996 24.0889 7.57996 23.3789C7.46996 23.0489 7.30995 22.7889 6.94995 22.6289V33.2189Z" fill="#CF5018"/>
  <path d="M20.2101 61.619C19.6501 61.619 19.3001 61.2991 19.2701 60.7091C19.2401 60.2191 19.2401 59.729 19.2701 59.239C19.2901 58.839 19.1101 58.7091 18.7401 58.7191C16.7201 58.7591 17.1201 58.459 17.0801 60.299C17.0601 61.479 16.7101 61.779 15.5401 61.549C9.80008 60.449 5.25005 55.8991 4.14005 50.1591C3.91005 48.9591 4.2001 48.6191 5.4401 48.5991C7.2201 48.5791 6.92007 48.8991 6.97007 47.0191C6.98007 46.5391 6.81007 46.3691 6.34007 46.4091C6.02007 46.4391 5.70011 46.4091 5.38011 46.4091C4.24011 46.4091 3.91005 46.0191 4.14005 44.8991C4.86005 41.3191 6.64007 38.3991 9.53007 36.1591C11.3901 34.7191 13.4901 33.8191 15.8001 33.3991C16.6501 33.2491 17.0701 33.579 17.0901 34.429C17.0901 34.559 17.0901 34.689 17.0901 34.809C17.0901 36.329 17.4101 36.5691 18.9301 36.2791C19.2001 36.2291 19.2801 36.0791 19.2801 35.8391C19.2801 35.3891 19.2801 34.939 19.2801 34.489C19.3001 33.589 19.7201 33.2391 20.5801 33.3891C26.6001 34.4791 31.2701 39.159 32.2901 45.129C32.4201 45.919 32.0701 46.3591 31.2701 46.3891C30.8601 46.4091 30.4601 46.3891 30.0501 46.3891C29.9201 46.3891 29.7501 46.3491 29.6701 46.4091C29.1101 46.8991 29.5001 47.549 29.4001 48.129C29.3501 48.449 29.5701 48.5791 29.8801 48.5791C30.3701 48.5791 30.8601 48.5691 31.3501 48.5791C32.0201 48.5991 32.4101 49.0091 32.3001 49.6491C31.2701 56.1191 26.1201 60.699 20.4101 61.569C20.3501 61.569 20.2801 61.5791 20.2201 61.5891L20.2101 61.619ZM6.04008 50.439C6.42008 52.029 7.09006 53.449 8.02006 54.749C8.43339 55.329 8.90677 55.4057 9.4401 54.979C9.8501 54.649 10.2601 54.639 10.6601 54.979C11.0301 55.299 11.0301 55.829 10.6901 56.239C10.5701 56.389 10.4301 56.5291 10.2901 56.6491C10.0901 56.8191 10.0401 56.9591 10.2901 57.1491C11.7601 58.3291 13.38 59.179 15.26 59.619C15.2701 59.389 15.2801 59.199 15.2901 59.009C15.3501 57.759 16.1601 56.959 17.4201 56.919C17.8301 56.909 18.2301 56.919 18.6401 56.919C20.2701 56.919 20.9901 57.5991 21.0601 59.2191C21.0801 59.5791 21.1601 59.639 21.5001 59.539C22.9101 59.129 24.2201 58.5191 25.4001 57.6591C25.7101 57.4391 26.1601 57.2691 26.2301 56.9091C26.2801 56.6391 25.8401 56.4591 25.6401 56.2091C25.3201 55.7891 25.3001 55.369 25.6701 54.999C26.0401 54.629 26.4701 54.6491 26.8901 54.9491C26.9901 55.0191 27.1001 55.1091 27.1701 55.2191C27.5101 55.7191 27.7501 55.5491 28.0601 55.1491C29.0001 53.8891 29.7201 52.519 30.1801 51.009C30.3201 50.539 30.2901 50.3891 29.7401 50.3891C28.4301 50.3691 27.6201 49.499 27.6001 48.179C27.6001 47.749 27.6001 47.3291 27.6001 46.8991C27.6101 45.4791 28.3801 44.6691 29.8101 44.6391C30.3001 44.6391 30.3201 44.469 30.2001 44.069C29.7801 42.659 29.1501 41.369 28.2901 40.179C27.9101 39.659 27.4667 39.599 26.9601 39.999C26.6001 40.289 26.2201 40.329 25.8401 40.059C25.5101 39.829 25.4001 39.4991 25.5001 39.0991C25.5801 38.8091 25.7801 38.6191 25.9901 38.4491C26.3301 38.1791 26.3001 37.989 25.9601 37.729C24.6801 36.739 23.2801 35.9991 21.7301 35.5191C21.2401 35.3691 21.0601 35.389 21.0601 35.979C21.0601 37.229 20.2101 38.0491 18.9701 38.0891C18.5201 38.0991 18.0701 38.0891 17.6201 38.0891C16.1701 38.0791 15.3501 37.3091 15.3101 35.8491C15.3001 35.3991 15.1601 35.369 14.7801 35.479C13.4401 35.879 12.1901 36.4691 11.0501 37.2791C10.7201 37.5091 10.2901 37.739 10.1601 38.069C10.0601 38.309 10.5801 38.549 10.7801 38.819C11.0901 39.239 11.1001 39.669 10.7301 40.039C10.3601 40.409 9.92006 40.3991 9.52006 40.0791C9.34006 39.9391 9.17006 39.7591 9.02006 39.5891C8.85006 39.3991 8.73011 39.3991 8.57011 39.5991C7.36011 41.0691 6.52011 42.719 6.07011 44.609C6.28011 44.619 6.42011 44.6291 6.57011 44.6391C7.99011 44.6791 8.76006 45.4591 8.77006 46.8891C8.77006 47.4191 8.79005 47.959 8.76005 48.489C8.71005 49.359 8.13008 50.059 7.29008 50.319C6.91008 50.439 6.53011 50.3891 6.07011 50.4591L6.04008 50.439Z" fill="#CF5018"/>
  <path d="M12.3803 54.289C11.5603 54.289 11.2003 53.689 11.5003 52.919C12.1203 51.289 12.7702 49.659 13.4102 48.029C13.8302 46.959 14.2502 45.889 14.6602 44.809C14.8102 44.399 15.0802 44.149 15.4902 43.989C18.1702 42.949 20.8502 41.889 23.5302 40.839C23.9502 40.669 24.3602 40.599 24.7202 40.949C25.0802 41.299 25.0302 41.709 24.8602 42.139C23.8002 44.819 22.7502 47.499 21.7102 50.179C21.5502 50.589 21.3002 50.859 20.9002 51.019C18.2202 52.059 15.5402 53.109 12.8502 54.159C12.6702 54.229 12.4902 54.269 12.3902 54.299L12.3803 54.289ZM19.0703 49.789C18.0003 48.709 16.9602 47.669 15.8902 46.599C15.2402 48.269 14.5802 49.959 13.8402 51.829C15.7102 51.099 17.4003 50.439 19.0703 49.789ZM22.5102 43.169C20.7502 43.859 19.1502 44.499 17.5402 45.119C17.2702 45.219 17.2602 45.319 17.4502 45.509C18.3602 46.409 19.2602 47.319 20.1702 48.229C20.3602 48.419 20.4603 48.399 20.5603 48.139C21.1803 46.529 21.8102 44.929 22.5102 43.169Z" fill="#CF5018"/>
</svg>