<svg xmlns="http://www.w3.org/2000/svg" width="73" height="74" viewBox="0 0 73 74" fill="none">
  <path d="M51.7977 53.0194C51.9977 53.3694 52.1976 53.7195 52.3976 54.0695C54.4676 57.6395 56.5776 61.1794 58.6076 64.7694C60.5676 68.2294 58.6577 72.3795 54.7777 73.1695C54.3277 73.2595 53.8576 73.2694 53.3876 73.2694C37.5776 73.2694 21.7777 73.2694 5.96771 73.2694C1.12771 73.2694 -1.51233 68.6694 0.917666 64.4695C4.07767 59.0095 7.24768 53.5495 10.4377 48.1095C10.7477 47.5795 10.7076 47.3295 10.2276 46.9295C1.6976 39.8295 -1.6724 30.7495 0.977602 19.9995C3.6476 9.21948 10.8877 2.64945 21.7777 0.469451C33.5276 -1.88055 45.7176 4.79948 50.3876 15.8695C50.7076 16.6195 50.9776 16.8295 51.8576 16.6895C63.6776 14.8195 74.0476 24.6895 72.8776 36.6395C71.8776 46.7995 62.5476 54.2295 52.3776 52.9495C52.1976 52.9295 52.0077 52.8495 51.7777 53.0095L51.7977 53.0194ZM37.4677 28.3394C37.6377 27.9594 37.7277 27.7494 37.8277 27.5294C39.3477 24.0494 41.6977 21.2594 44.9377 19.2794C45.5777 18.8894 45.5577 18.5795 45.2977 17.9895C41.7177 9.73947 32.9876 4.61949 23.9776 5.81949C15.2376 6.97949 9.25769 11.8895 6.69769 20.3095C4.13769 28.7295 6.4876 36.0295 12.9776 41.9995C13.5376 42.5195 13.7576 42.4595 14.1376 41.7995C17.6176 35.7595 21.1276 29.7495 24.6176 23.7194C25.1676 22.7794 25.8277 21.9595 26.7877 21.4295C27.1477 21.2295 27.3476 20.9895 27.4876 20.5995C27.8576 19.5595 28.8376 18.9294 29.8976 18.9694C30.9576 19.0095 31.8777 19.6995 32.1977 20.7595C32.2977 21.0995 32.4176 21.3394 32.7276 21.5294C33.5876 22.0494 34.2177 22.7995 34.7177 23.6595C35.5877 25.1695 36.4777 26.6795 37.4577 28.3495L37.4677 28.3394ZM29.6577 71.5995C37.5877 71.5995 45.5177 71.5995 53.4577 71.5995C56.8777 71.5995 58.7577 68.4195 57.0577 65.4795C49.1277 51.7895 41.1677 38.1195 33.2077 24.4495C31.5377 21.5795 27.8677 21.5795 26.1977 24.4495C18.2377 38.1195 10.2877 51.7995 2.33771 65.4795C1.97771 66.0995 1.7277 66.7595 1.7077 67.4895C1.6377 69.8295 3.43769 71.5995 5.94769 71.5995C13.8477 71.5995 21.7577 71.5995 29.6577 71.5995ZM71.2776 34.6595C71.3176 33.9195 71.2177 33.0495 71.0777 32.1795C69.8477 24.4895 63.6777 18.7895 55.6977 18.1995C48.2677 17.6495 41.2876 22.3095 38.8776 29.5095C38.6776 30.0995 38.7177 30.5595 39.0377 31.1095C42.7677 37.4695 46.4677 43.8495 50.1577 50.2395C50.4477 50.7395 50.8076 50.9794 51.3476 51.0894C61.5876 53.1894 71.2776 45.2695 71.2776 34.6595ZM4.58771 26.3394C4.59771 24.9894 4.7177 23.6594 4.9577 22.3394C6.6277 13.1294 14.1077 5.98944 23.4477 4.70944C32.5777 3.44944 41.7277 8.27949 45.8077 16.5095C46.0877 17.0695 46.1976 17.8995 46.6476 18.1395C47.1676 18.4195 47.7977 17.6994 48.4277 17.5794C49.1677 17.4394 49.1176 17.1095 48.8576 16.5095C44.3676 6.05949 33.0477 -0.0505395 21.8277 2.22946C11.9477 4.23946 5.35762 10.2494 2.74762 19.9694C0.137622 29.6694 2.9576 38.0394 10.3476 44.8394C11.6376 46.0294 11.6777 45.9895 12.5377 44.5095C12.5677 44.4595 12.5876 44.4095 12.6176 44.3695C13.0376 43.8395 13.0077 43.4995 12.4277 42.9995C7.30768 38.6395 4.73771 33.0494 4.58771 26.3394ZM28.9976 20.5894C29.6076 20.5594 30.2076 20.6695 30.8576 20.7194C30.1676 19.9494 29.7276 19.9094 28.9976 20.5894Z" fill="#FF5A5A"/>
  <path d="M15.2476 21.2295C17.1976 21.2295 18.7476 22.7395 18.7676 24.6795C18.7876 26.6595 17.2176 28.2395 15.2576 28.2195C13.3276 28.2095 11.7676 26.6395 11.7676 24.7195C11.7676 22.7995 13.3176 21.2395 15.2576 21.2295H15.2476ZM17.6276 24.7395C17.6476 23.4295 16.6276 22.3895 15.3276 22.3595C13.9876 22.3395 12.8976 23.3995 12.9076 24.7195C12.9076 25.9995 13.9976 27.0695 15.2676 27.0795C16.5576 27.0795 17.6176 26.0395 17.6376 24.7395H17.6276Z" fill="#FF5A5A"/>
  <path d="M18.4078 12.6096C18.4178 11.2496 19.5578 10.0996 20.9078 10.0996C22.2678 10.0996 23.4078 11.2396 23.4178 12.6096C23.4278 14.0096 22.2577 15.1796 20.8677 15.1496C19.4977 15.1196 18.3978 13.9796 18.4078 12.6096ZM20.9478 13.9996C21.7078 13.9696 22.3178 13.2996 22.2778 12.5296C22.2378 11.7896 21.5977 11.2096 20.8677 11.2296C20.0977 11.2496 19.5078 11.8996 19.5478 12.6896C19.5878 13.4296 20.2178 14.0196 20.9478 13.9896V13.9996Z" fill="#FF5A5A"/>
  <path d="M26.7978 15.1296C26.4378 15.0396 26.2478 14.8296 26.3078 14.4296C26.4378 13.4796 28.2978 11.7196 29.2878 11.6096C29.5678 11.5796 29.7878 11.6696 29.8878 11.9196C30.0078 12.1996 29.9578 12.4996 29.6678 12.6196C28.5878 13.0696 27.7778 13.7896 27.2878 14.8596C27.2078 15.0396 27.0178 15.1196 26.7978 15.1296Z" fill="#FF5A5A"/>
  <path d="M38.3776 16.4395C38.6476 16.4395 38.8576 16.5395 38.9376 16.8195C39.0076 17.0895 38.9376 17.3395 38.6876 17.4495C37.6076 17.8895 36.8076 18.6095 36.3076 19.6795C36.1976 19.9295 35.9376 19.9895 35.6676 19.9095C35.3976 19.8195 35.3076 19.6094 35.3176 19.3294C35.3476 18.3594 37.3976 16.4295 38.3876 16.4395H38.3776Z" fill="#FF5A5A"/>
  <path d="M21.7577 21.6794C21.7677 22.2794 21.8677 22.8695 22.0477 23.4495C22.1677 23.8295 22.1578 24.1895 21.7178 24.3195C21.2778 24.4495 21.0778 24.1295 20.9578 23.7595C20.7078 22.9995 20.5877 22.2194 20.6277 21.4194C20.6477 21.0094 20.6577 20.5294 21.2577 20.5594C21.7977 20.5894 21.7677 21.0294 21.7577 21.4194C21.7577 21.4994 21.7577 21.5794 21.7577 21.6694V21.6794Z" fill="#FF5A5A"/>
  <path d="M14.0075 33.8495C13.9375 34.1695 13.7875 34.3895 13.5075 34.3695C12.8975 34.3195 12.3475 34.0695 11.8975 33.6695C11.6975 33.4895 11.7476 33.1995 11.9176 32.9995C11.9976 32.9095 12.1575 32.8095 12.2675 32.8195C12.8675 32.8995 13.4075 33.1395 13.8775 33.5295C13.9675 33.5995 13.9675 33.7695 13.9975 33.8495H14.0075Z" fill="#FF5A5A"/>
  <path d="M13.9977 17.1894C13.9977 17.4894 13.8378 17.6695 13.5778 17.7595C13.2878 17.8595 11.9877 17.2694 11.8477 16.9794C11.7277 16.7294 11.7577 16.4895 11.9777 16.3195C12.4277 15.9695 12.7978 16.3595 13.1878 16.5095C13.5378 16.6395 13.9377 16.7395 13.9877 17.1995L13.9977 17.1894Z" fill="#FF5A5A"/>
  <path d="M29.6678 67.8394C22.0978 67.8394 14.5178 67.8394 6.94778 67.8394C5.63778 67.8394 5.46771 67.5494 6.12771 66.4094C13.7177 53.3494 21.3077 40.2895 28.9077 27.2395C29.5277 26.1695 29.8478 26.1594 30.4578 27.2194C38.0678 40.2994 45.6677 53.3794 53.2777 66.4594C53.9077 67.5494 53.7377 67.8394 52.4777 67.8394C44.8777 67.8394 37.2778 67.8394 29.6778 67.8394H29.6678ZM29.6878 28.1295C22.1878 41.0395 14.7578 53.8094 7.29776 66.6494H52.0678C44.5978 53.7894 37.1778 41.0295 29.6778 28.1295H29.6878Z" fill="#FF5A5A"/>
  <path d="M62.5577 35.3592C61.4677 35.3592 60.3677 35.3792 59.2777 35.3592C58.8377 35.3492 58.5776 35.4292 58.4776 35.9192C58.3576 36.5492 58.0277 37.1092 57.5477 37.5292C57.1677 37.8592 57.2177 38.1093 57.4377 38.4893C58.5277 40.3493 59.5977 42.2292 60.6677 44.0992C61.1577 44.9592 61.1276 45.1193 60.2576 45.5593C56.5076 47.4393 52.7476 47.4093 48.9876 45.5593C48.2876 45.2093 48.1677 44.8392 48.5877 44.1492C49.6977 42.2992 50.7377 40.4092 51.8377 38.5492C52.0877 38.1292 52.1077 37.8593 51.7177 37.5093C51.2677 37.1093 50.9377 36.5592 50.8377 35.9692C50.7377 35.4092 50.4476 35.3693 49.9876 35.3693C47.8776 35.3893 45.7777 35.3693 43.6677 35.3693C42.5377 35.3693 42.4477 35.2893 42.5277 34.1393C42.8077 29.9793 44.7377 26.7892 48.2077 24.4892C48.8577 24.0592 49.2177 24.2192 49.5677 24.8492C50.6277 26.7292 51.7277 28.5892 52.7877 30.4692C53.0177 30.8792 53.2476 31.0892 53.7476 30.9092C54.3276 30.6992 54.9377 30.6992 55.5177 30.9092C56.0477 31.0992 56.2777 30.8793 56.5277 30.4393C57.5777 28.5593 58.6876 26.6993 59.7476 24.8193C60.0876 24.2093 60.4377 24.0792 61.0477 24.4792C64.6377 26.8392 66.5377 30.1593 66.8077 34.4393C66.8477 35.0893 66.5977 35.3993 65.9077 35.3893C64.7877 35.3693 63.6677 35.3893 62.5477 35.3893L62.5577 35.3592ZM62.1577 34.2192C63.1377 34.2192 64.1176 34.2092 65.1076 34.2192C65.5076 34.2192 65.6977 34.1593 65.6377 33.6793C65.2377 30.4593 63.7477 27.8693 61.1677 25.8893C60.7477 25.5593 60.5577 25.6492 60.3177 26.0892C59.4377 27.6592 58.5576 29.2293 57.6176 30.7593C57.2676 31.3293 57.1077 31.7493 57.7177 32.2593C58.1577 32.6193 58.3776 33.1893 58.4976 33.7593C58.5676 34.1193 58.7676 34.2292 59.1276 34.2192C60.1376 34.1992 61.1477 34.2192 62.1577 34.2192ZM47.1677 34.2192C48.1477 34.2192 49.1376 34.2192 50.1176 34.2192C50.4676 34.2192 50.7177 34.1993 50.8077 33.7493C50.9477 33.0393 51.3276 32.4293 51.8576 31.9393C52.1076 31.7093 52.1177 31.5192 51.9477 31.2392C50.9277 29.4992 49.9177 27.7493 48.9277 25.9993C48.7277 25.6493 48.5476 25.6092 48.2376 25.8492C45.6276 27.7892 44.1077 30.3592 43.6977 33.5992C43.6277 34.1192 43.7977 34.2593 44.3077 34.2393C45.2577 34.1993 46.2177 34.2292 47.1777 34.2292L47.1677 34.2192ZM54.6477 45.7892C56.1977 45.7792 57.6776 45.4793 59.1076 44.8693C59.4976 44.6993 59.6677 44.5592 59.3977 44.1092C58.3877 42.4192 57.4177 40.7193 56.4577 39.0093C56.2777 38.6893 56.0977 38.5092 55.6877 38.6492C55.0277 38.8792 54.3477 38.8692 53.6777 38.6692C53.3177 38.5592 53.0877 38.6293 52.8877 38.9893C51.9277 40.6992 50.9477 42.3992 49.9477 44.0892C49.6977 44.5092 49.7877 44.6993 50.2077 44.8693C51.6377 45.4793 53.1177 45.7792 54.6577 45.7892H54.6477ZM57.5177 34.7792C57.5177 33.1892 56.2477 31.9192 54.6577 31.9092C53.0777 31.9092 51.7776 33.1793 51.7576 34.7493C51.7376 36.3493 53.0577 37.6692 54.6777 37.6592C56.2577 37.6592 57.5177 36.3692 57.5177 34.7792Z" fill="#FF5A5A"/>
  <path d="M29.7378 39.7893C30.6978 39.7893 31.6478 39.8193 32.6078 39.7893C33.3578 39.7593 33.6379 40.0293 33.5679 40.7993C33.2379 44.2493 32.9478 47.7093 32.6378 51.1693C32.4978 52.6893 32.3379 54.2193 32.2179 55.7393C32.1179 57.0593 32.1078 57.0793 30.7478 57.0793C29.9778 57.0793 29.2179 57.0793 28.4479 57.0793C27.3279 57.0793 27.2879 57.0693 27.1779 55.9693C26.8679 52.7093 26.5878 49.4393 26.2878 46.1693C26.1278 44.4593 25.9579 42.7393 25.8179 41.0293C25.7179 39.8793 25.8179 39.7893 26.9379 39.7893C27.8679 39.7893 28.7978 39.7893 29.7278 39.7893H29.7378ZM27.0978 42.2093C27.4878 46.4793 27.8678 50.7593 28.2678 55.0293C28.2978 55.3493 28.0978 55.8793 28.5978 55.9093C29.3978 55.9593 30.2278 56.0993 31.0078 55.7993C31.0678 55.7793 31.0679 55.5493 31.0779 55.4193C31.5079 50.7893 31.9178 46.1693 32.3578 41.5393C32.3978 41.0793 32.2879 40.9093 31.8079 40.9193C30.6379 40.9493 29.4578 40.9193 28.2778 40.9193C27.4378 40.9193 27.0412 41.3427 27.0879 42.1894L27.0978 42.2093Z" fill="#FF5A5A"/>
  <path d="M29.6976 59.4593C30.2476 59.4593 30.7876 59.4793 31.3376 59.4593C31.8976 59.4393 32.1276 59.7193 32.1276 60.2493C32.1276 61.3393 32.1276 62.4293 32.1276 63.5293C32.1276 64.0693 31.8975 64.3493 31.3475 64.3393C30.2275 64.3393 29.1075 64.3393 27.9875 64.3393C27.4875 64.3393 27.2476 64.0993 27.2476 63.5793C27.2576 62.4593 27.2576 61.3393 27.2476 60.2193C27.2476 59.6493 27.5176 59.4393 28.0576 59.4593C28.6076 59.4793 29.1476 59.4593 29.6976 59.4593ZM29.7076 60.5993C28.2076 60.6193 28.3776 60.4093 28.3776 61.6893C28.3776 63.4093 28.1676 63.2094 29.5376 63.1994C31.1876 63.1994 30.9876 63.4193 30.9976 61.9793C31.0076 60.5893 30.9976 60.5893 29.7076 60.5893V60.5993Z" fill="#FF5A5A"/>
</svg>