<svg xmlns="http://www.w3.org/2000/svg" width="65" height="72" viewBox="0 0 65 72" fill="none">
  <path d="M37.2895 53.9713C35.4095 53.9713 33.6895 53.9713 31.9695 53.9713C31.6895 53.9713 31.5295 54.1113 31.3595 54.2813C30.4295 55.2113 29.5095 56.1512 28.5595 57.0712C28.2895 57.3312 28.2795 57.5412 28.4295 57.8812C29.2095 59.7012 28.9695 61.4213 27.6595 62.8913C26.3895 64.3113 24.7495 64.8012 22.8995 64.2412C20.9995 63.6712 19.8795 62.3412 19.6095 60.3812C19.3695 58.6612 19.9895 57.2113 21.3595 56.1413C22.7495 55.0513 24.3195 54.8212 25.9495 55.5012C26.4495 55.7112 26.7395 55.6813 27.1095 55.2813C27.8195 54.5113 28.5895 53.7812 29.3595 53.0612C29.6395 52.8012 29.7395 52.6113 29.5195 52.2213C28.5995 50.6313 27.7295 49.0113 26.8495 47.3913C26.6895 47.1013 26.5495 46.9312 26.1395 47.0012C24.0295 47.3512 22.0495 46.2212 21.2495 44.2312C21.0695 43.7812 20.8695 43.6212 20.3795 43.6312C17.8195 43.6612 15.2595 43.6512 12.6995 43.6312C12.3095 43.6312 12.0295 43.7413 11.7595 44.0213C10.8995 44.9213 10.0195 45.8013 9.11946 46.6613C8.81946 46.9513 8.75947 47.1813 8.93947 47.5813C9.70947 49.3813 9.44945 51.0713 8.16945 52.5213C6.91945 53.9313 5.29946 54.4312 3.48946 53.9212C1.61946 53.4012 0.469484 52.1212 0.139484 50.1912C-0.160516 48.4412 0.429499 46.9612 1.7795 45.8512C3.1695 44.7112 4.75945 44.4613 6.41945 45.1513C6.96945 45.3813 7.25948 45.2913 7.63948 44.8913C8.32948 44.1613 9.03951 43.4413 9.78951 42.7813C10.2095 42.4113 10.1595 42.1313 9.91945 41.7013C8.31945 38.8513 6.74947 35.9712 5.12947 33.1212C4.73947 32.4412 4.73947 31.8712 5.12947 31.1912C6.74947 28.3212 8.31947 25.4212 9.93947 22.5412C10.1695 22.1312 10.1595 21.8912 9.81948 21.5712C9.01948 20.8212 8.23945 20.0312 7.47945 19.2412C7.20945 18.9612 6.99946 18.9012 6.61946 19.0712C4.77946 19.8812 3.03946 19.6412 1.54946 18.2912C0.0894573 16.9612 -0.350501 15.2613 0.279499 13.3913C0.929499 11.4813 2.33949 10.4412 4.32949 10.2312C7.66949 9.87122 10.2495 13.3913 8.9695 16.5813C8.7695 17.0813 8.79948 17.3712 9.19948 17.7412C10.2195 18.6812 11.0295 20.0412 12.2195 20.5412C13.3795 21.0312 14.8995 20.6613 16.2695 20.6613C18.8995 20.6613 21.5295 20.6612 24.1695 20.6712C24.5995 20.6712 24.8495 20.5613 25.0695 20.1613C25.9495 18.5213 26.8595 16.8913 27.7795 15.2713C27.9695 14.9313 27.9595 14.7313 27.6995 14.4113C26.4395 12.8813 26.1895 11.1613 27.0795 9.39125C27.9595 7.62125 29.4795 6.75123 31.4695 6.87123C33.4195 6.99123 34.7594 8.05122 35.4795 9.86122C35.6194 10.2212 35.7795 10.3313 36.1395 10.3313C38.7495 10.3213 41.3595 10.3213 43.9595 10.3313C44.2795 10.3313 44.4895 10.2313 44.6795 9.97127C45.3095 9.10127 45.9395 8.23124 46.5995 7.38124C46.8195 7.10124 46.7695 6.90123 46.6395 6.62123C45.4495 4.06123 46.6095 1.19126 49.1895 0.271258C51.6995 -0.628742 54.4495 0.791265 55.1595 3.34126C55.8995 6.00127 54.2295 8.62123 51.4695 9.12123C50.6195 9.27123 49.7895 9.17124 49.0195 8.81124C48.6195 8.62124 48.4395 8.72122 48.2095 9.04122C47.6995 9.77122 47.1795 10.4812 46.6295 11.1712C46.3995 11.4612 46.4095 11.6912 46.5895 12.0012C48.1195 14.7312 49.6395 17.4713 51.1495 20.2113C51.3395 20.5513 51.5495 20.6712 51.9295 20.6712C53.3395 20.6512 54.7495 20.6612 56.1595 20.6712C57.1995 20.6712 57.6095 21.0713 57.6095 22.0913C57.6095 23.4513 57.6095 24.8212 57.6095 26.1812C57.6095 27.1312 57.1895 27.5412 56.2595 27.5612C56.2395 27.5612 56.2095 27.5612 56.1895 27.5612C55.5295 27.6212 54.6295 27.2613 54.2795 27.7113C53.9495 28.1313 54.1695 28.9913 54.1695 29.6613C54.1695 34.7313 54.1695 39.8112 54.1695 44.8812C54.1695 45.3812 54.2795 45.7913 54.5495 46.2213C57.7295 51.1413 60.8895 56.0712 64.0695 60.9912C64.3795 61.4712 64.5295 61.9613 64.5195 62.5313C64.4895 64.1813 64.4995 65.8312 64.5195 67.4812C64.5195 67.9912 64.3795 68.4113 64.0095 68.7713C63.3395 69.4213 62.6795 70.0812 62.0295 70.7512C61.7095 71.0712 61.3395 71.2312 60.8795 71.2312C52.5795 71.2312 44.2695 71.2312 35.9695 71.2312C35.5395 71.2312 35.1695 71.1012 34.8795 70.7912C34.8295 70.7412 34.7794 70.6813 34.7295 70.6413C32.7394 69.2513 32.2195 67.3713 32.2695 64.9613C32.3195 62.7113 32.7195 60.7912 34.0895 58.9812C35.2495 57.4412 36.1995 55.7512 37.3295 53.9912L37.2895 53.9713ZM18.5395 22.9513C16.6495 22.9513 14.7595 22.9613 12.8695 22.9513C12.4595 22.9513 12.2395 23.0812 12.0395 23.4412C10.5295 26.1812 9.0095 28.9213 7.4695 31.6413C7.2495 32.0313 7.27946 32.3112 7.48946 32.6812C9.00946 35.3912 10.5295 38.1012 12.0195 40.8212C12.2295 41.2112 12.4695 41.3513 12.9095 41.3413C15.3995 41.3213 17.8795 41.3213 20.3695 41.3413C20.8195 41.3413 21.0195 41.2113 21.1895 40.7813C21.9895 38.7613 23.9895 37.6312 26.1295 37.9812C26.5495 38.0512 26.6795 37.8713 26.8395 37.5813C27.7495 35.9313 28.6595 34.2713 29.5995 32.6413C29.7995 32.2913 29.7995 32.0213 29.5995 31.6613C28.0595 28.9313 26.5395 26.2013 25.0395 23.4613C24.8195 23.0613 24.5695 22.9513 24.1395 22.9513C22.2695 22.9713 20.4095 22.9513 18.5395 22.9513ZM48.4095 68.9013C51.8995 68.9013 55.3995 68.8412 58.8895 68.9312C60.1195 68.9612 61.0395 68.6712 61.7895 67.6912C62.0395 67.3712 62.1995 67.1012 62.1895 66.6812C62.1695 65.4612 62.1595 64.2413 62.1895 63.0213C62.1995 62.5413 62.0695 62.1512 61.8195 61.7512C58.6395 56.8312 55.4795 51.9013 52.3095 46.9713C52.1195 46.6713 51.8995 46.3812 51.8495 46.0112C51.7895 45.6012 52.0795 45.0412 51.6795 44.8212C51.3495 44.6312 50.8395 44.7713 50.4095 44.7713C50.3095 44.7713 50.2195 44.7713 50.1195 44.7713C48.3095 44.7713 48.3195 44.7713 48.3895 42.9513C48.3995 42.5813 48.4995 42.4513 48.8795 42.4613C49.6895 42.4813 50.5095 42.4412 51.3195 42.4812C51.7995 42.5012 51.8595 42.3013 51.8595 41.8913C51.8595 41.4913 51.7995 41.2912 51.3195 41.3012C50.1495 41.3412 48.9795 41.3112 47.7995 41.3112C46.0695 41.3112 46.0995 41.3112 46.0895 39.6112C46.0895 39.0712 46.2895 38.9912 46.7495 39.0012C48.2795 39.0312 49.8095 39.0013 51.3395 39.0213C51.6795 39.0213 51.8395 38.9612 51.8595 38.5612C51.8895 37.9912 51.7095 37.7912 51.1495 37.8612C50.8195 37.9012 50.4795 37.8612 50.1495 37.8612C48.3295 37.8612 48.3495 37.8612 48.3895 36.0612C48.3995 35.6312 48.5395 35.5412 48.9295 35.5512C49.7195 35.5712 50.5095 35.5312 51.2995 35.5712C51.7495 35.5912 51.8595 35.4412 51.8595 35.0112C51.8595 34.5513 51.7495 34.3913 51.2695 34.4013C50.1195 34.4413 48.9695 34.4113 47.8295 34.4113C46.0595 34.4113 46.0795 34.4113 46.0995 32.6613C46.0995 32.2113 46.2295 32.1012 46.6695 32.1012C48.2495 32.1212 49.8295 32.1012 51.4095 32.1212C51.8995 32.1212 51.8595 31.8613 51.8695 31.5313C51.8695 31.2013 51.8995 30.9312 51.4095 30.9513C50.5695 30.9913 49.7395 30.9513 48.8995 30.9713C48.5195 30.9813 48.4295 30.8512 48.4095 30.4812C48.3495 28.6612 48.3395 28.6613 50.1495 28.6613C50.1995 28.6613 50.2495 28.6613 50.2895 28.6613C51.3362 28.6613 51.8595 28.1246 51.8595 27.0512C51.8595 25.4812 52.1195 25.2113 53.6795 25.2113C55.3195 25.2113 55.2895 25.2113 55.3195 23.5813C55.3195 23.0513 55.1995 22.9013 54.6495 22.9013C50.8495 22.9313 47.0395 22.9113 43.2395 22.9113C41.4795 22.9113 41.4895 22.9113 41.5095 24.6613C41.5095 25.1113 41.6395 25.2213 42.0795 25.2213C43.9895 25.2013 45.9095 25.2213 47.8195 25.2213C49.6395 25.2213 49.6195 25.2213 49.5795 27.0213C49.5695 27.4513 49.4195 27.5313 49.0295 27.5213C47.9095 27.5013 46.7795 27.5512 45.6595 27.5012C45.0795 27.4712 44.9595 27.6713 44.9595 28.2213C44.9795 33.9113 44.9594 39.6112 44.9795 45.3012C44.9795 45.9512 44.8095 46.4912 44.4595 47.0412C41.7695 51.1912 39.1795 55.4212 36.3895 59.5012C35.0895 61.4012 34.4195 63.2912 34.5795 65.6112C34.6595 66.7912 34.8695 67.7012 35.8095 68.4512C36.1495 68.7212 36.4295 68.8912 36.8795 68.8812C40.7295 68.8612 44.5795 68.8712 48.4295 68.8712L48.4095 68.9013ZM48.7195 20.6613C48.5595 20.3513 48.4595 20.1512 48.3495 19.9412C47.1095 17.7112 45.8495 15.4812 44.6395 13.2312C44.3895 12.7712 44.1295 12.5912 43.5895 12.6012C41.2695 12.6312 38.9495 12.6112 36.6295 12.6112C35.8961 12.6112 35.4328 12.9946 35.2395 13.7612C37.5695 13.7612 39.8795 13.7612 42.1995 13.7612C43.8095 13.7612 43.7695 13.7613 43.8195 15.3413C43.8395 15.9613 43.6295 16.0712 43.0595 16.0712C39.2095 16.0412 35.3595 16.0612 31.5095 16.0512C31.1995 16.0512 30.8695 16.0812 30.5795 15.9912C30.1495 15.8612 29.9395 15.9912 29.7395 16.3812C28.8395 18.0412 27.9195 19.6913 26.9895 21.3313C26.8095 21.6513 26.7795 21.9012 26.9695 22.2412C28.5295 25.0112 30.0695 27.7912 31.6095 30.5712C31.7595 30.8412 31.9195 31.0012 32.2595 31.0012C35.5595 30.9912 38.8595 30.9912 42.1595 31.0012C42.5195 31.0012 42.6695 30.9213 42.6595 30.5313C42.6295 29.6913 42.6295 28.8613 42.6595 28.0213C42.6695 27.6313 42.5295 27.5212 42.1595 27.5412C41.6795 27.5712 41.1995 27.5412 40.7295 27.5412C39.5994 27.5412 39.2095 27.1612 39.2095 26.0512C39.2095 24.7612 39.2095 23.4712 39.2095 22.1812C39.2095 21.0212 39.5795 20.6613 40.7695 20.6613C43.3795 20.6613 45.9795 20.6613 48.7195 20.6613ZM37.2595 33.3012C35.6295 33.3012 34.0095 33.3112 32.3795 33.3012C31.9995 33.3012 31.7795 33.4012 31.5895 33.7512C30.6895 35.4112 29.7795 37.0613 28.8395 38.7013C28.6495 39.0413 28.6595 39.2512 28.9095 39.5612C30.3695 41.3612 30.3695 43.6212 28.9095 45.4212C28.6595 45.7312 28.6195 45.9313 28.8195 46.2813C29.7595 47.9213 30.6695 49.5712 31.5695 51.2312C31.7495 51.5712 31.9595 51.6912 32.3495 51.6912C34.3095 51.6712 36.2695 51.6712 38.2395 51.6912C38.6295 51.6912 38.8395 51.5512 39.0395 51.2312C40.1395 49.4912 41.2495 47.7612 42.3695 46.0412C42.5595 45.7512 42.6495 45.4612 42.6495 45.1112C42.6395 42.5312 42.6295 39.9412 42.6495 37.3612C42.6495 36.8412 42.4895 36.7312 41.9995 36.7412C39.2995 36.7612 36.5895 36.7512 33.8895 36.7512C32.2895 36.7512 32.3095 36.7513 32.2895 35.1613C32.2895 34.6113 32.3995 34.4312 32.9895 34.4412C35.9995 34.4712 39.0195 34.4413 42.0295 34.4613C42.4595 34.4613 42.6695 34.4013 42.6595 33.8913C42.6595 33.4213 42.5195 33.2912 42.0495 33.2912C40.4495 33.3212 38.8395 33.3012 37.2395 33.3012H37.2595ZM7.03951 49.3913C7.03951 48.1313 6.01949 47.1013 4.76949 47.0913C3.48949 47.0813 2.43948 48.1313 2.44948 49.4113C2.46948 50.6613 3.49948 51.6812 4.75948 51.6812C5.99948 51.6812 7.03951 50.6413 7.03951 49.3913ZM21.9795 59.6613C21.9494 60.9113 22.9395 61.9712 24.1995 62.0112C25.4395 62.0513 26.5195 61.0512 26.5695 59.8112C26.6195 58.5312 25.5995 57.4512 24.3195 57.4212C23.0695 57.4012 22.0195 58.4013 21.9795 59.6513V59.6613ZM4.72945 17.2213C5.98945 17.2213 7.01951 16.2113 7.03951 14.9613C7.05951 13.6813 5.9995 12.6213 4.7195 12.6413C3.4595 12.6513 2.44948 13.6812 2.44948 14.9412C2.44948 16.1812 3.48945 17.2312 4.72945 17.2312V17.2213ZM25.4495 40.2013C24.1995 40.1813 23.1495 41.1912 23.1195 42.4412C23.0895 43.6812 24.0995 44.7512 25.3395 44.7912C26.6195 44.8212 27.6995 43.7912 27.6995 42.5112C27.6995 41.2612 26.6895 40.2213 25.4395 40.2013H25.4495ZM50.7095 2.29122C49.4595 2.28122 48.4095 3.29122 48.3995 4.54122C48.3795 5.80122 49.3895 6.84123 50.6395 6.87123C51.9195 6.90123 52.9895 5.86126 52.9895 4.58126C52.9895 3.33126 51.9695 2.30127 50.7195 2.28127L50.7095 2.29122ZM31.1495 9.18123C29.8995 9.18123 28.8695 10.2113 28.8695 11.4713C28.8695 12.7313 29.8795 13.7613 31.1395 13.7713C32.4195 13.7813 33.4795 12.7312 33.4595 11.4513C33.4495 10.2013 32.4095 9.18123 31.1495 9.18123Z" fill="#00D758"/>
  <path d="M18.5695 24.1013C20.2895 24.1013 22.0095 24.1213 23.7295 24.0913C24.1795 24.0913 24.2796 24.2213 24.2896 24.6613C24.2996 26.4013 24.3195 26.4013 22.5495 26.4013C19.5095 26.4013 16.4795 26.3913 13.4395 26.4113C12.8895 26.4113 12.7695 26.2613 12.7695 25.7313C12.7895 24.1013 12.7695 24.1013 14.3995 24.1013C15.7895 24.1013 17.1695 24.1013 18.5595 24.1013H18.5695Z" fill="#00D758"/>
  <path d="M48.3596 67.7511C45.0596 67.7511 41.7597 67.7511 38.4597 67.7511C37.2797 67.7511 36.9097 67.3811 36.9097 66.2211C36.9097 64.9311 36.9197 63.6411 36.9097 62.3511C36.9097 61.9011 37.0096 61.5111 37.2496 61.1311C39.0596 58.2611 40.8596 55.3911 42.6396 52.5011C43.0096 51.9111 43.4696 51.6611 44.1696 51.6611C46.9896 51.6811 49.8096 51.6811 52.6296 51.6611C53.3296 51.6611 53.7897 51.9011 54.1597 52.5011C55.9397 55.3911 57.7496 58.2611 59.5496 61.1311C59.7696 61.4811 59.8996 61.8511 59.8896 62.2711C59.8696 63.6311 59.8896 65.0011 59.8896 66.3611C59.8896 67.3411 59.4696 67.7511 58.4796 67.7511C55.1096 67.7511 51.7396 67.7511 48.3696 67.7511H48.3596ZM48.3896 65.4511C50.8496 65.4511 53.3197 65.4611 55.7797 65.4511C56.3697 65.4511 57.1496 65.7211 57.4896 65.3211C57.7796 64.9811 57.6097 64.2311 57.5797 63.6611C57.5597 63.0811 57.6997 62.5011 57.3397 61.9311C55.7597 59.4511 54.2096 56.9511 52.6696 54.4511C52.4596 54.1111 52.2296 53.9711 51.8196 53.9711C49.5496 53.9911 47.2796 53.9911 44.9996 53.9711C44.5496 53.9711 44.3197 54.1411 44.0997 54.5011C42.8997 56.4611 41.7596 58.4611 40.4396 60.3311C39.4596 61.7111 39.0396 63.1311 39.1796 64.8011C39.2296 65.3811 39.3896 65.4911 39.9196 65.4811C42.7396 65.4611 45.5596 65.4711 48.3896 65.4711V65.4511Z" fill="#00D758"/>
</svg>