<svg xmlns="http://www.w3.org/2000/svg" width="73" height="74" viewBox="0 0 73 74" fill="none">
  <path d="M72.7297 14.0185C72.6488 14.1298 72.5578 14.231 72.4769 14.3423C72.113 14.8481 71.6278 15.091 71.001 14.9493C70.3236 14.7875 69.9495 14.3119 69.899 13.6341C69.8585 13.0877 69.8787 12.5414 69.8787 12.0052C69.8787 9.42535 69.8686 6.84545 69.8889 4.26558C69.8889 3.76984 69.7574 3.63832 69.2621 3.63832C66.3302 3.65856 63.3984 3.64844 60.4565 3.63832C60.1936 3.63832 59.9308 3.63834 59.6781 3.58775C59.0108 3.45623 58.5357 2.88965 58.5255 2.24215C58.5154 1.57442 59.0007 0.977568 59.7084 0.846045C59.9611 0.79546 60.224 0.805537 60.4868 0.805537C63.8938 0.805537 67.3008 0.825762 70.7077 0.79541C71.5873 0.79541 72.2747 1.00787 72.7196 1.80712V14.0286L72.7297 14.0185Z" fill="#B8C636"/>
  <path d="M1.01097 73.5579C0.222414 73.1128 0 72.4248 0 71.5446C0.0303292 68.1351 0.0101295 64.7256 0.0202392 61.3162C0.0202392 61.0329 0.0202367 60.7395 0.080895 60.4664C0.232541 59.7986 0.81889 59.3433 1.4558 59.3534C2.07249 59.3636 2.62853 59.7986 2.78017 60.436C2.84083 60.7091 2.85095 61.0026 2.85095 61.2757C2.85095 64.2097 2.86106 67.1538 2.85095 70.0878C2.85095 70.5835 2.98237 70.7251 3.47775 70.715C6.48033 70.6948 9.49307 70.6948 12.4957 70.715C13.4864 70.715 14.1031 71.1703 14.1941 71.9695C14.2952 72.7486 13.7897 73.1735 13.2235 73.5579H1.01097Z" fill="#B8C636"/>
  <path d="M59.526 73.5578C59.435 73.487 59.3542 73.4161 59.2531 73.3453C58.6869 72.9609 58.4139 72.4449 58.606 71.767C58.7981 71.0892 59.2935 70.7654 59.9708 70.7249C60.4156 70.6946 60.8706 70.7249 61.3154 70.7249C63.9642 70.7249 66.6129 70.7148 69.2617 70.7351C69.757 70.7351 69.8986 70.6035 69.8885 70.1078C69.8682 67.0727 69.8682 64.0477 69.8885 61.0125C69.8885 59.7378 70.9601 58.9992 71.9609 59.5354C72.3148 59.7175 72.4765 60.0716 72.7192 60.3448V72.5663C72.4563 72.9608 72.1227 73.2947 71.7284 73.5578H59.5159H59.526Z" fill="#B8C636"/>
  <path d="M17.9141 30.4689C17.9646 27.6968 18.0454 24.9349 19.0059 22.2842C20.5527 17.9945 23.3935 14.7469 27.3363 12.6021C33.7156 9.13189 40.0948 9.3443 46.3325 13.118C46.5144 13.2293 46.6964 13.3507 46.8481 13.4924C47.3637 13.978 47.4547 14.6558 47.1109 15.2325C46.7773 15.7889 46.0797 16.052 45.4428 15.8193C45.1799 15.7283 44.9373 15.5664 44.6947 15.4247C38.9726 12.076 33.2404 12.1164 27.7003 15.7181C23.5755 18.4093 21.1795 22.2842 20.8964 27.3225C20.7953 29.0728 20.7549 30.823 20.765 32.5733C20.765 33.0893 20.7751 33.6153 20.765 34.1313C20.7347 35.0924 20.1483 35.7501 19.3193 35.7298C18.5207 35.7096 17.9443 35.0823 17.9342 34.1516C17.914 32.9173 17.9342 31.6931 17.9342 30.4588L17.9141 30.4689Z" fill="#B8C636"/>
  <path d="M35.8689 58.4836C29.2673 58.2408 23.7878 52.8787 23.6361 46.2621C23.5047 40.1817 23.5957 34.0912 23.6159 28.0108C23.6159 26.5843 23.9798 25.1982 24.5258 23.8728C24.8897 23.0028 25.6278 22.6284 26.386 22.9218C27.1644 23.2253 27.498 23.9639 27.1644 24.8542C26.5679 26.4325 26.4163 28.0614 26.4163 29.7307C26.4365 35.0119 26.4163 40.293 26.4264 45.5741C26.4466 50.4303 29.5604 54.3356 34.2614 55.408C34.8377 55.5395 35.424 55.6002 36.0104 55.6407C37.1528 55.7115 37.8201 56.2781 37.7695 57.1481C37.7089 58.0384 37.0214 58.5241 35.8588 58.4836H35.8689Z" fill="#B8C636"/>
  <path d="M36.2836 64.1996C28.671 63.7241 22.9489 60.3045 19.552 53.3237C18.4298 51.017 17.9749 48.5281 17.9244 45.9685C17.9041 44.9973 18.4602 44.3295 19.2891 44.2992C20.108 44.2688 20.7349 44.8961 20.7551 45.8774C20.8359 48.9834 21.6346 51.8567 23.4139 54.4264C26.0627 58.2406 29.7123 60.4967 34.292 61.1948C38.0427 61.7613 41.5204 60.9419 44.7252 58.9286C44.8667 58.8375 45.0083 58.7464 45.1498 58.6756C45.9081 58.3013 46.6865 58.4733 47.0909 59.1208C47.5155 59.7885 47.3436 60.5979 46.6056 61.0936C44.2096 62.7023 41.581 63.6937 38.72 64.0579C37.9213 64.1591 37.1227 64.2299 36.2937 64.2299L36.2836 64.1996Z" fill="#B8C636"/>
  <path d="M36.7288 69.8854C27.4178 69.6527 20.2197 65.6968 15.3872 57.6335C14.9424 56.8848 14.5885 56.0755 14.2246 55.2863C13.6989 54.1431 13.8707 53.3539 14.7098 52.9695C15.5489 52.5749 16.2971 52.9897 16.8127 54.1633C17.763 56.3284 18.9963 58.3012 20.5937 60.0413C24.2534 64.0174 28.7725 66.3039 34.1407 66.8907C37.5679 67.265 40.8839 66.7794 44.0988 65.5552C44.3414 65.4641 44.5841 65.3731 44.8368 65.3124C45.6254 65.1505 46.323 65.5249 46.5454 66.2128C46.7678 66.9109 46.4544 67.6494 45.7164 67.9631C44.9379 68.2969 44.1291 68.5903 43.3204 68.8331C41.1771 69.4604 38.9833 69.8044 36.7288 69.8752V69.8854Z" fill="#B8C636"/>
  <path d="M49.1536 34.5258C49.1536 36.7314 49.1536 38.9268 49.1536 41.1323C49.1536 41.6988 49.0424 42.2149 48.5572 42.5791C47.7888 43.1457 46.7374 42.8117 46.4139 41.9012C46.3027 41.5775 46.3128 41.2436 46.3128 40.9199C46.3128 36.8427 46.333 32.7756 46.3128 28.6984C46.2824 23.9028 43.1383 20.0077 38.4676 18.9353C36.6984 18.5306 34.9495 18.6419 33.2207 19.2287C32.9276 19.3299 32.6444 19.4513 32.3513 19.5221C31.5728 19.7042 30.8955 19.3501 30.6427 18.6318C30.4001 17.9641 30.6933 17.2457 31.3808 16.9119C32.1087 16.5578 32.8871 16.3453 33.6655 16.1632C41.3287 14.4635 48.82 20.2101 49.1233 28.0711C49.2042 30.226 49.1334 32.381 49.1334 34.536H49.1536V34.5258Z" fill="#B8C636"/>
  <path d="M57.6764 31.3388C57.7573 28.1621 57.4945 24.6211 56.2712 21.2015C54.411 15.9811 50.9939 12.1467 46.0502 9.66795C45.6054 9.44538 45.1505 9.25314 44.7057 9.02044C43.8868 8.57529 43.6037 7.78616 43.9676 7.06784C44.3215 6.36976 45.0899 6.11686 45.9189 6.47096C47.7285 7.23987 49.4471 8.19088 51.0141 9.38471C56.8474 13.8059 59.7287 19.8053 60.3757 26.9885C60.6386 29.9629 60.4768 32.9475 60.5072 35.9321C60.5173 36.9235 59.9208 37.5306 59.0715 37.5103C58.2223 37.5002 57.6865 36.8931 57.6764 35.8814C57.6663 34.5055 57.6764 33.1397 57.6764 31.3388Z" fill="#B8C636"/>
  <path d="M12.2333 30.2361C12.112 27.1605 12.4456 23.7915 13.6385 20.5439C16.0346 14.0082 20.4323 9.3442 26.761 6.49117C27.6203 6.10672 28.419 6.34953 28.7728 7.06785C29.157 7.83675 28.8436 8.6461 27.8933 9.07102C25.1839 10.2952 22.7878 11.9342 20.776 14.1195C17.2275 17.9742 15.337 22.537 15.0943 27.7675C15.0034 29.7505 15.0641 31.7436 15.0641 33.7265C15.0641 33.9188 15.0641 34.111 15.0641 34.2931C14.9933 35.1227 14.4271 35.7095 13.679 35.7297C12.9107 35.75 12.2738 35.1429 12.2435 34.2728C12.2131 33.0386 12.2435 31.8144 12.2435 30.2159L12.2333 30.2361Z" fill="#B8C636"/>
  <path d="M29.2772 34.7384C29.2772 32.6543 29.2468 30.5701 29.2772 28.486C29.358 24.1558 33.412 20.8779 37.6581 21.6772C40.7517 22.264 43.1679 24.9146 43.4409 28.0408C43.4611 28.233 43.4611 28.4152 43.451 28.6074C43.4004 29.437 42.8343 30.0339 42.0861 30.0642C41.3684 30.0946 40.7517 29.5584 40.6506 28.7693C40.5697 28.1117 40.4989 27.454 40.2058 26.847C39.397 25.1676 37.6278 24.1963 35.8485 24.4391C33.9681 24.7022 32.5426 26.0478 32.1989 27.9094C32.1281 28.3242 32.1079 28.7591 32.1079 29.1841C32.1079 33.0488 32.1079 36.9035 32.1079 40.7682C32.1079 40.9604 32.1079 41.1425 32.1079 41.3348C32.0573 42.2554 31.471 42.8827 30.6723 42.8625C29.8938 42.8523 29.3277 42.2352 29.2772 41.355C29.2772 41.1931 29.2772 41.0212 29.2772 40.8593C29.2772 38.8257 29.2772 36.782 29.2772 34.7485V34.7384Z" fill="#B8C636"/>
  <path d="M54.8249 38.9166C54.8249 41.3549 54.8653 43.7931 54.8148 46.2314C54.7339 49.6914 53.7128 52.8783 51.8324 55.7921C51.2864 56.6318 50.508 56.8746 49.7902 56.4395C49.0724 56.0146 48.8803 55.1547 49.4161 54.3251C51.3875 51.3001 52.0851 47.9715 52.0143 44.4002C51.9436 40.1105 51.9941 35.8309 51.9941 31.5413C51.9941 31.3794 51.9941 31.2074 51.9941 31.0455C52.0143 30.0237 52.6007 29.3559 53.4398 29.3762C54.2587 29.3964 54.8249 30.0439 54.8249 31.0253C54.8249 33.6557 54.8249 36.2862 54.8249 38.9166C54.8249 38.9166 54.8249 38.9166 54.8148 38.9166H54.8249Z" fill="#B8C636"/>
  <path d="M43.4722 42.1136C43.3913 43.53 43.6137 45.26 43.3407 46.9799C42.8656 49.9847 40.318 52.3724 37.1637 52.7569C34.1712 53.1211 31.0575 51.3404 29.9151 48.6088C29.5713 47.7994 29.814 47.0305 30.5216 46.6663C31.2293 46.3021 32.0078 46.5449 32.4223 47.3543C33.0794 48.6189 34.0095 49.5194 35.4249 49.8431C38.0736 50.4501 40.5909 48.4874 40.6212 45.7659C40.6516 43.1354 40.6314 40.5151 40.6415 37.8846C40.6415 37.6924 40.6415 37.5103 40.6415 37.3181C40.692 36.3873 41.2683 35.76 42.067 35.7701C42.8656 35.7701 43.4621 36.4076 43.4722 37.3282C43.4924 38.8154 43.4722 40.3127 43.4722 42.1035V42.1136Z" fill="#B8C636"/>
  <path d="M7.15719 0.795466C8.85562 0.795466 10.5641 0.795466 12.2626 0.795466C12.4749 0.795466 12.6872 0.795485 12.8995 0.81572C13.6476 0.916891 14.1835 1.48343 14.1936 2.18151C14.2138 2.89983 13.6577 3.52712 12.8793 3.60806C12.3637 3.65865 11.838 3.62831 11.3224 3.62831C8.72419 3.62831 6.11591 3.64854 3.51771 3.61819C2.93135 3.61819 2.8302 3.80026 2.8302 4.33646C2.85042 7.21985 2.84032 10.1133 2.84032 12.9967C2.84032 13.189 2.84032 13.3812 2.84032 13.5633C2.76955 14.3929 2.19329 14.9797 1.44517 14.9898C0.697052 15 0.100606 14.4233 0.0197286 13.5937C-0.000490831 13.4318 0.0197286 13.2598 0.0197286 13.0979C0.0197286 9.61764 0.0197286 6.13734 0.0197286 2.65705C0.0197286 1.271 0.5151 0.7854 1.91024 0.7854C3.65922 0.7854 5.40821 0.7854 7.15719 0.7854V0.795466Z" fill="#B8C636"/>
  <path d="M60.4961 45.4325C60.4354 52.8888 57.6855 59.1311 52.0544 64.0683C51.7815 64.301 51.5187 64.5438 51.1547 64.6146C50.5178 64.736 49.9719 64.564 49.6281 63.9772C49.2743 63.3702 49.3451 62.7834 49.8303 62.2877C50.7705 61.3164 51.8017 60.4565 52.6712 59.4144C55.1885 56.3792 56.7757 52.9293 57.3823 49.0241C57.6249 47.456 57.6755 45.8676 57.6654 44.2893C57.6654 44.006 57.6552 43.7227 57.6957 43.4394C57.8069 42.7009 58.4034 42.1748 59.1009 42.1748C59.7985 42.1748 60.4152 42.711 60.4758 43.4496C60.5365 44.1072 60.486 44.7749 60.486 45.4325H60.4961Z" fill="#B8C636"/>
  <path d="M37.7903 37.2477C37.7903 39.949 37.7903 42.6503 37.7903 45.3515C37.7903 45.8068 37.7397 46.252 37.4263 46.6162C36.7287 47.4255 35.4347 47.1928 35.0606 46.1912C34.9393 45.8675 34.9494 45.5437 34.9494 45.2099C34.9494 39.8579 34.9494 34.5059 34.9494 29.154C34.9494 28.9921 34.9494 28.8201 34.9494 28.6583C35.0202 27.8286 35.6167 27.252 36.3648 27.252C37.1129 27.252 37.7296 27.8388 37.7701 28.6684C37.8105 29.4676 37.7801 30.277 37.7801 31.0863C37.7801 33.1502 37.7801 35.204 37.7801 37.2679L37.7903 37.2477Z" fill="#B8C636"/>
  <path d="M54.4513 25.0562C54.4513 25.9162 53.9761 26.5029 53.2684 26.6243C52.6113 26.7356 51.9339 26.3107 51.7216 25.5519C51.3375 24.2064 50.9836 22.8608 50.3164 21.6265C50.0232 21.0903 49.6997 20.5642 49.4065 20.028C48.9212 19.1579 49.083 18.3384 49.7906 17.9135C50.5084 17.4785 51.2869 17.7314 51.8328 18.5711C53.0359 20.4326 53.8851 22.446 54.3805 24.611C54.4209 24.7932 54.4412 24.9854 54.4513 25.0663V25.0562Z" fill="#B8C636"/>
  <path d="M48.8803 48.1638C48.6883 49.3981 48.1929 50.6729 47.5459 51.8768C47.01 52.8784 46.3125 53.7788 45.534 54.6084C44.9376 55.2357 44.0984 55.3166 43.5121 54.8108C42.9055 54.2948 42.7943 53.4551 43.3908 52.7975C44.7657 51.3001 45.6654 49.5802 46.181 47.6175C46.3832 46.8587 47.0808 46.4742 47.7581 46.6058C48.4456 46.7373 48.9005 47.3038 48.9005 48.1638H48.8803Z" fill="#B8C636"/>
  <path d="M15.0734 42.9028C15.0734 43.783 15.0835 44.6531 15.0734 45.5333C15.0532 46.4641 14.4871 47.0913 13.6884 47.1115C12.8695 47.1318 12.2528 46.4843 12.2427 45.513C12.2225 43.7425 12.2225 41.9619 12.2427 40.1813C12.2427 39.2505 12.8291 38.6232 13.6277 38.603C14.4466 38.5828 15.0532 39.2303 15.0734 40.2015C15.0936 41.102 15.0734 42.0024 15.0734 42.9028Z" fill="#B8C636"/>
  <path d="M36.3644 7.32102C35.6972 7.36149 35.04 7.42219 34.3829 7.44242C33.3416 7.47277 32.6945 6.94671 32.6642 6.07663C32.6339 5.19644 33.2203 4.69056 34.2818 4.59951C35.7174 4.4781 37.153 4.48822 38.5885 4.59951C39.5591 4.68045 40.1353 5.247 40.0949 6.10695C40.0544 6.91632 39.4074 7.46265 38.4874 7.4323C37.7797 7.41206 37.0721 7.35135 36.3745 7.30077L36.3644 7.32102Z" fill="#B8C636"/>
  <path d="M19.309 38.6132C20.047 38.603 20.7243 39.2505 20.7445 39.9992C20.7546 40.7377 20.1076 41.4156 19.3595 41.4359C18.6114 41.446 17.9442 40.7985 17.9239 40.0498C17.9138 39.3113 18.5609 38.6334 19.309 38.6132Z" fill="#B8C636"/>
</svg>