<svg xmlns="http://www.w3.org/2000/svg" width="71" height="79" viewBox="0 0 71 79" fill="none">
  <path d="M39.4077 28.4038C43.7953 28.4949 47.5056 29.8404 50.68 32.5923C50.9934 32.8655 51.2158 33.0071 51.6506 32.7643C52.2066 32.4608 52.7525 32.6834 53.1973 33.1386C53.9252 33.8772 54.6835 34.5752 55.3811 35.3442C55.7551 35.759 55.9876 35.7084 56.3213 35.3239C56.6953 34.8889 57.1098 34.4943 57.5243 34.0998C58.2421 33.4118 58.9801 33.3915 59.6777 34.0795C61.457 35.8399 63.2363 37.6104 64.9954 39.4011C65.6323 40.0486 65.6222 40.7568 64.9954 41.4246C64.5506 41.9001 64.0956 42.3756 63.6104 42.8106C63.3071 43.0939 63.2869 43.276 63.6104 43.5795C64.3484 44.2675 65.0359 45.006 65.7638 45.7041C66.3299 46.2504 66.6231 46.8473 66.1782 47.5859C65.9356 47.9805 66.2591 48.1322 66.431 48.3346C69.3931 51.8148 70.7782 55.8415 70.5659 60.3942C70.4547 62.711 69.7975 64.957 69.383 67.2233C69.3122 67.5976 69.2314 67.9719 69.1505 68.3462C69.0191 69.014 68.6248 69.4288 67.9373 69.4693C67.2498 69.5199 66.805 69.1354 66.5927 68.5081C66.1883 67.3244 65.7536 66.1508 65.4099 64.9469C64.5506 61.932 62.9734 59.3825 60.6583 57.268C60.2337 56.8835 59.8496 56.4586 59.4452 56.0539C59.0206 55.629 58.6869 55.113 57.9085 55.5481C57.494 55.7808 57.0188 55.4874 56.6751 55.1333C55.9674 54.415 55.2092 53.7371 54.5521 52.9783C54.1072 52.4624 53.8545 52.5838 53.4299 53.0087C47.5258 58.9373 41.6116 64.8457 35.6974 70.7643C33.5643 72.899 31.4513 75.0742 29.2778 77.1684C26.3055 80.0316 21.5236 78.7163 20.5328 74.7605C20.0273 72.7472 20.634 71.0172 22.0999 69.5502C26.9829 64.6838 31.8456 59.7973 36.7185 54.9309C39.8424 51.8047 42.9461 48.6786 46.0902 45.5726C46.535 45.1376 46.535 44.915 46.0902 44.5103C45.3421 43.8324 44.6546 43.0939 43.947 42.3857C43.4718 41.9102 43.31 41.374 43.6133 40.7568C43.7448 40.5039 43.7548 40.342 43.5324 40.1296C42.2081 38.875 41.005 37.489 39.5897 36.3356C37.7295 34.8282 35.5255 34.0593 33.2913 33.341C32.4117 33.0577 31.5322 32.7643 30.6527 32.481C29.9955 32.2584 29.5507 31.8537 29.5912 31.1152C29.6316 30.3868 30.0663 29.9922 30.774 29.8708C33.7159 29.3447 36.5972 28.4848 39.4178 28.4139L39.4077 28.4038ZM23.0401 73.6072C23.0502 73.6881 23.0805 73.9309 23.1513 74.1636C23.7376 76.1162 26.0932 76.6423 27.6197 75.1349C29.8843 72.899 32.1287 70.6328 34.3832 68.3766C40.1154 62.6402 45.8476 56.8937 51.6 51.1674C52.0246 50.7424 52.1257 50.4996 51.6202 50.0443C50.6699 49.1844 49.7802 48.2637 48.9007 47.333C48.5671 46.989 48.375 46.9283 48.0211 47.3127C47.1315 48.2638 46.1812 49.1743 45.2612 50.095C38.1945 57.1668 31.138 64.2387 24.0612 71.3005C23.4546 71.8974 23.0199 72.555 23.0502 73.6072H23.0401ZM52.1358 35.85C51.9639 36.0018 51.8224 36.1131 51.691 36.2446C50.1341 37.8026 48.5772 39.3708 47.0102 40.9187C46.6867 41.2323 46.6463 41.4246 46.99 41.7685C50.4273 45.1881 53.8444 48.6077 57.2614 52.0476C57.5951 52.3814 57.7872 52.3713 58.1107 52.0476C59.6777 50.4592 61.2447 48.8708 62.842 47.3127C63.206 46.9586 63.1048 46.7664 62.8016 46.4629C59.3845 43.0635 55.9876 39.6541 52.5806 36.2446C52.4492 36.1131 52.3077 36.0018 52.1358 35.85ZM36.2939 31.4288C36.3445 31.7121 36.5467 31.6817 36.6882 31.7425C39.1145 32.6732 41.2173 34.0795 43.0269 35.931C43.7447 36.6695 44.503 37.3777 45.2107 38.1264C45.5241 38.4501 45.7162 38.5715 46.0902 38.1668C47.0203 37.1754 47.9807 36.2142 48.9715 35.2834C49.3354 34.9395 49.2647 34.7574 48.9209 34.4842C48.2132 33.9278 47.5056 33.3814 46.717 32.9464C43.4314 31.1152 39.9738 30.5992 36.2939 31.4288ZM67.5026 62.7616C68.5843 58.0065 67.5632 53.7675 64.4596 50.0241C64.1563 49.6599 63.9945 49.8319 63.7721 50.0646C62.8521 50.9954 61.9524 51.9464 60.9919 52.8266C60.4966 53.2818 60.5775 53.5247 61.0122 53.9496C63.6912 56.489 66.2793 59.0992 67.5026 62.7616ZM62.2354 40.4027C62.1748 40.3218 62.1343 40.251 62.0737 40.2004C61.0021 39.1179 59.9304 38.0252 58.8386 36.973C58.3937 36.5481 58.2927 37.1754 58.0399 37.317C57.7973 37.4688 57.6658 37.661 57.9691 37.9443C59.0104 38.9459 60.0113 39.9879 61.0425 40.9996C61.1739 41.1311 61.2952 41.4246 61.548 41.1716C61.7906 40.9288 62.0939 40.7366 62.2354 40.4027Z" fill="#9893F5"/>
  <path d="M0 37.5801C0 26.0162 0 14.4624 0 2.89852C0 1.27978 0.343733 0.935791 1.96129 0.935791C19.8353 0.935791 37.7093 0.935791 55.5732 0.935791C57.1907 0.935791 57.5446 1.27978 57.5446 2.89852C57.5446 12.0545 57.5446 21.2206 57.5446 30.3766C57.5446 30.6498 57.5749 30.9331 57.5243 31.1962C57.3929 31.9044 56.9582 32.3293 56.2404 32.3293C55.5226 32.3293 55.0778 31.9043 54.9565 31.2063C54.9059 30.9432 54.9362 30.6599 54.9362 30.3868C54.9362 21.7467 54.9261 13.0966 54.9565 4.45654C54.9565 3.68763 54.734 3.53587 54.0162 3.53587C37.1835 3.55611 20.3408 3.55611 3.5081 3.53587C2.79031 3.53587 2.61844 3.69775 2.61844 4.42619C2.63866 26.5321 2.63866 48.6482 2.61844 70.7541C2.61844 71.523 2.86105 71.6242 3.5384 71.6242C7.84514 71.5939 12.1519 71.6141 16.4485 71.6141C16.6912 71.6141 16.9439 71.5939 17.1865 71.6343C17.8942 71.7659 18.3188 72.2009 18.3188 72.9192C18.3188 73.6375 17.8942 74.0725 17.1865 74.2142C16.9742 74.2547 16.7518 74.2344 16.5294 74.2344C11.6262 74.2344 6.72301 74.2344 1.8198 74.2344C0.424658 74.2344 0.0202392 73.8298 0.0202392 72.4336C0.0202392 60.8191 0.0202392 49.2046 0.0202392 37.5902L0 37.5801Z" fill="#9893F5"/>
  <path d="M28.6811 25.7935C21.5133 25.7935 14.3455 25.7935 7.18785 25.7935C6.94522 25.7935 6.69243 25.8036 6.4498 25.7834C5.73201 25.7025 5.22656 25.1663 5.22656 24.4884C5.22656 23.8004 5.7219 23.244 6.4498 23.1934C7.09682 23.153 7.76406 23.1327 8.41109 23.1934C9.05811 23.2541 9.16931 23.0012 9.1592 22.4144C9.11876 20.6135 9.13903 18.8127 9.14914 17.0118C9.14914 15.7775 9.59393 15.3324 10.8172 15.3223C12.3438 15.3223 13.8704 15.3223 15.3969 15.3223C16.5191 15.3223 16.9942 15.7877 16.9942 16.9107C16.9942 18.7924 17.0144 20.6742 16.9942 22.556C16.9942 23.072 17.1459 23.1833 17.6413 23.1934C19.6228 23.2137 19.6228 23.2238 19.6228 21.2914C19.6228 18.1247 19.6228 14.9682 19.6228 11.8015C19.6228 10.5268 20.0575 10.1018 21.3515 10.0917C22.8781 10.0917 24.4047 10.0917 25.9312 10.0917C26.9928 10.0917 27.4679 10.5773 27.4679 11.6498C27.4679 15.2211 27.4882 18.7925 27.4679 22.3638C27.4679 22.9708 27.5791 23.2035 28.2565 23.1934C30.0964 23.153 30.0964 23.1934 30.0964 21.3116C30.0964 16.8702 30.0964 12.4187 30.0964 7.97724C30.0964 6.57095 30.5008 6.16626 31.8758 6.16626C33.2911 6.16626 34.7065 6.16626 36.1219 6.16626C37.517 6.16626 37.9315 6.57097 37.9315 7.95701C37.9315 12.7525 37.9517 17.5582 37.9112 22.3537C37.9112 23.0416 38.0831 23.2136 38.7605 23.2035C40.5398 23.163 40.5398 23.1934 40.5398 21.4229C40.5398 18.236 40.5398 15.039 40.5398 11.8521C40.5398 10.5166 40.9543 10.1018 42.2989 10.1018C43.7951 10.1018 45.2914 10.1018 46.7977 10.1018C47.9199 10.1018 48.3849 10.5773 48.3849 11.7003C48.3849 15.1402 48.3849 18.5699 48.3849 22.0097C48.3849 22.7988 48.7657 23.1934 49.5273 23.1934C50.0227 23.1934 50.5079 23.1732 50.9932 23.1934C51.7717 23.2339 52.2974 23.7802 52.2974 24.4884C52.2974 25.1966 51.7717 25.7429 50.9932 25.7935C50.5888 25.8239 50.1744 25.7935 49.77 25.7935C42.7437 25.7935 35.7073 25.7935 28.6811 25.7935ZM35.303 15.9799V10.5874C35.303 8.77648 35.3029 8.80684 33.4832 8.76637C32.8564 8.75625 32.6643 8.91814 32.6744 9.56563C32.7047 13.4607 32.6946 17.3558 32.6946 21.2509C32.6946 23.2136 32.6946 23.1934 34.6357 23.1934C35.1614 23.1934 35.3333 23.0619 35.3232 22.5156C35.2928 20.3404 35.313 18.1551 35.313 15.9799H35.303ZM22.221 17.9123V21.261C22.221 23.2136 22.221 23.1934 24.162 23.1934C24.6877 23.1934 24.8495 23.0518 24.8495 22.5156C24.8192 19.9053 24.8394 17.285 24.8394 14.6748C24.8394 12.6615 24.8394 12.6817 22.8579 12.7019C22.3625 12.7019 22.2008 12.8334 22.221 13.3393C22.2513 14.867 22.2311 16.3846 22.2311 17.9123H22.221ZM43.1481 17.8617C43.1481 19.0049 43.1481 20.1482 43.1481 21.2914C43.1481 23.2035 43.1481 23.1833 45.0487 23.1934C45.6047 23.1934 45.7867 23.072 45.7766 22.4751C45.7463 19.8649 45.7665 17.2445 45.7665 14.6343C45.7665 12.6716 45.7665 12.6918 43.8255 12.6918C43.3099 12.6918 43.1178 12.8132 43.138 13.3596C43.1784 14.8569 43.1481 16.3542 43.1481 17.8516V17.8617ZM11.7574 20.482C11.7574 20.7248 11.7574 20.9676 11.7574 21.2206C11.7574 23.2743 11.7574 23.2642 13.8198 23.1934C14.2343 23.1833 14.386 23.0821 14.3758 22.6471C14.3455 21.261 14.3455 19.875 14.3758 18.4889C14.3758 18.0438 14.2242 17.9527 13.8097 17.9426C11.7473 17.8718 11.7473 17.8617 11.7473 19.9154C11.7473 20.1077 11.7473 20.2999 11.7473 20.482H11.7574Z" fill="#9893F5"/>
  <path d="M47.1527 74.2244C44.2613 74.2244 41.38 74.2244 38.4886 74.2244C37.5889 74.2244 37.043 73.7995 36.952 73.0812C36.8408 72.2415 37.4777 71.6142 38.4886 71.6142C41.0262 71.6142 43.5536 71.6142 46.0912 71.6142C48.8107 71.6142 51.5403 71.6041 54.2598 71.6244C54.8058 71.6244 54.9372 71.4625 54.9372 70.9364C54.917 66.93 54.9372 62.9236 54.9271 58.9172C54.9271 58.4114 54.9473 57.9257 55.3618 57.5716C55.756 57.2277 56.2211 57.1063 56.7266 57.3288C57.2523 57.5615 57.5354 57.9763 57.5455 58.5429C57.5657 59.5749 57.5455 60.6169 57.5455 61.6488C57.5455 65.2708 57.5455 68.8927 57.5455 72.5248C57.5455 73.7995 57.1108 74.2346 55.8268 74.2346C52.9355 74.2346 50.0542 74.2346 47.1628 74.2346L47.1527 74.2244Z" fill="#9893F5"/>
  <path d="M24.1718 45.4308C19.3798 45.4308 14.5776 45.4308 9.7856 45.4308C9.51264 45.4308 9.22957 45.4612 8.96671 45.4106C8.26914 45.2689 7.84456 44.8339 7.85467 44.1055C7.85467 43.377 8.2995 42.9521 8.99707 42.8307C9.20938 42.7903 9.43181 42.8105 9.65423 42.8105C19.3494 42.8105 29.0547 42.8105 38.75 42.8105C38.9117 42.8105 39.0735 42.8105 39.2352 42.8105C40.0035 42.8712 40.5293 43.4175 40.5192 44.1257C40.5192 44.8339 39.9833 45.36 39.1948 45.4106C38.9825 45.4308 38.76 45.4106 38.5376 45.4106C33.7456 45.4106 28.9435 45.4106 24.1515 45.4106L24.1718 45.4308Z" fill="#9893F5"/>
  <path d="M20.9162 53.2816C17.1857 53.2816 13.4553 53.2816 9.72477 53.2816C9.48213 53.2816 9.22941 53.3018 8.98678 53.2614C8.28921 53.1299 7.85449 52.6948 7.85449 51.9765C7.85449 51.248 8.2791 50.813 8.98678 50.6916C9.24963 50.641 9.5327 50.6714 9.80566 50.6714C17.2161 50.6714 24.6265 50.6714 32.0369 50.6714C32.3099 50.6714 32.593 50.641 32.8558 50.6916C33.5635 50.8231 33.9881 51.2582 33.9881 51.9765C33.9881 52.6948 33.5635 53.1299 32.8558 53.2614C32.6233 53.3018 32.3706 53.2816 32.1178 53.2816C28.3873 53.2816 24.6568 53.2816 20.9263 53.2816H20.9162Z" fill="#9893F5"/>
  <path d="M24.9097 37.5802C22.3519 37.5802 19.7841 37.5802 17.2263 37.5802C16.2457 37.5802 15.629 37.0035 15.6896 36.184C15.7503 35.4253 16.3063 34.97 17.2465 34.97C20.4614 34.97 23.6763 34.97 26.8912 34.97C28.7211 34.97 30.5408 34.97 32.3707 34.97C33.4019 34.97 33.9983 35.4657 33.9882 36.2852C33.9882 37.0946 33.3816 37.5802 32.3504 37.5802C29.8736 37.5802 27.3967 37.5802 24.9097 37.5802Z" fill="#9893F5"/>
  <path d="M17.0644 58.5123C19.5413 58.5123 22.0182 58.5123 24.5052 58.5123C25.5364 58.5123 26.1329 58.9979 26.143 59.8073C26.143 60.6268 25.5465 61.1225 24.5254 61.1225C19.511 61.1225 14.4966 61.1225 9.49226 61.1225C8.46107 61.1225 7.8646 60.6369 7.85449 59.8174C7.85449 58.9979 8.45094 58.5022 9.47202 58.5022C12.0096 58.5022 14.537 58.5022 17.0745 58.5022L17.0644 58.5123Z" fill="#9893F5"/>
  <path d="M10.5138 37.5699C10.0791 37.5699 9.64443 37.5901 9.20971 37.5699C8.38072 37.5294 7.83475 36.9831 7.84486 36.2446C7.85497 35.5364 8.38068 35.0001 9.16924 34.9698C10.0083 34.9394 10.8576 34.9394 11.6967 34.9698C12.5257 34.99 13.0716 35.5465 13.0615 36.2951C13.0514 37.0337 12.4954 37.5497 11.6562 37.58C11.2721 37.6003 10.898 37.58 10.5138 37.58V37.5699Z" fill="#9893F5"/>
</svg>