<svg width="36" height="44" viewBox="0 0 36 44" fill="none" xmlns="http://www.w3.org/2000/svg">
<path d="M5.39026 43.4898C4.58026 43.2903 3.78026 43.0804 3.08026 42.5871C1.47026 41.4534 0.600234 39.8789 0.490234 37.853C0.490234 37.7166 0.490234 37.5801 0.490234 37.4332C0.490234 27.2933 0.490234 17.1535 0.490234 7.01367C0.490234 5.26072 1.01025 3.7387 2.26025 2.56307C4.27025 0.673663 6.78023 0.474206 9.11023 1.98573C15.4702 6.08995 21.8202 10.2047 28.1802 14.3194C29.8502 15.4005 31.5502 16.4292 33.1702 17.5944C36.2502 19.8302 36.2402 24.7741 33.1302 26.9679C31.1702 28.3535 29.1103 29.6026 27.0903 30.9042C23.3103 33.3394 19.5202 35.7642 15.7402 38.1994C15.2902 38.4933 14.8203 38.6823 14.2803 38.5038C13.6903 38.3149 13.3002 37.9055 13.1702 37.2757C13.0402 36.6459 13.2102 36.0896 13.6802 35.6697C13.8302 35.5332 14.0002 35.4283 14.1702 35.3233C19.7502 31.7334 25.3303 28.1436 30.9103 24.5642C31.5503 24.1548 32.0602 23.6405 32.2302 22.8427C32.4702 21.6776 32.0403 20.7119 30.9703 20.0191C28.0803 18.1507 25.1802 16.2823 22.2902 14.4034C17.3202 11.1914 12.3603 7.97938 7.39026 4.76739C6.17026 3.98013 4.77024 4.24253 4.06024 5.42865C3.84024 5.78554 3.78028 6.24742 3.66028 6.66729C3.63028 6.77226 3.66028 6.8877 3.66028 7.00316C3.66028 17.1325 3.66028 27.2618 3.66028 37.3807C3.66028 38.7137 4.27027 39.6585 5.34027 40.0468C5.97027 40.2778 6.54025 40.1413 7.13025 39.8474C7.49025 39.6794 7.90022 39.5325 8.29022 39.5535C8.99022 39.5955 9.49025 40.1518 9.63025 40.8656C9.76025 41.5479 9.49024 42.2617 8.87024 42.5871C8.23024 42.9229 7.53023 43.1434 6.86023 43.4058C6.78023 43.4373 6.69022 43.4583 6.60022 43.4898H5.41028H5.39026Z" fill="#C6DA00"/>
</svg>
