<svg width="36" height="48" viewBox="0 0 36 48" fill="none" xmlns="http://www.w3.org/2000/svg">
<path d="M18.1464 38.0686C17.9864 38.352 17.8664 38.5514 17.7564 38.7509C16.3964 41.2386 15.0464 43.7264 13.6864 46.2141C13.1564 47.1903 12.1364 47.4527 11.4064 46.7914C11.2064 46.6129 11.0463 46.3505 10.9163 46.1091C10.2963 44.902 9.68634 43.6843 9.10634 42.4562C8.95634 42.1518 8.78638 42.0679 8.46638 42.0889C7.18638 42.1624 5.91637 42.2043 4.63637 42.2778C3.94637 42.3198 3.33638 42.1938 2.96638 41.5115C2.60638 40.8607 2.78636 40.2519 3.12636 39.6431C4.27636 37.5858 5.41636 35.5074 6.62636 33.3136C6.51636 33.2401 6.37638 33.1771 6.27638 33.0827C1.91638 28.758 -0.0236629 23.4572 0.606337 17.2011C1.45634 8.91923 7.63634 2.25381 15.4863 0.994205C25.0563 -0.538316 34.0964 6.30556 35.5864 16.3614C36.5464 22.8589 34.6463 28.4221 30.1163 32.9777C29.7863 33.3031 29.7764 33.513 29.9964 33.9014C31.0864 35.8433 32.1463 37.8062 33.2363 39.7586C33.5763 40.3569 33.7163 40.9552 33.3563 41.5745C32.9863 42.2148 32.4063 42.3723 31.7263 42.3303C30.4363 42.2568 29.1363 42.2148 27.8463 42.1413C27.5463 42.1204 27.3864 42.2148 27.2464 42.5087C26.6564 43.7368 26.0364 44.9439 25.4364 46.1721C25.1364 46.7809 24.7163 47.1798 24.0463 47.2008C23.3763 47.2113 22.9464 46.8124 22.6264 46.2246C21.2664 43.7159 19.8864 41.2281 18.5164 38.7194C18.4164 38.5305 18.3064 38.3415 18.1464 38.0686ZM32.9364 19.4264C32.9664 10.8821 26.4164 3.97524 18.2764 3.91226C10.9664 3.85978 3.42636 9.74845 3.44636 19.7413C3.46636 28.2961 10.2964 34.8461 18.1264 34.8461C26.3064 34.8461 32.8964 28.0023 32.9364 19.4264ZM6.99635 39.0133C7.87635 39.0133 8.70634 39.0343 9.54634 39.0133C10.2963 38.9923 10.8164 39.2967 11.1564 40C11.5464 40.7977 11.9464 41.5955 12.3864 42.4667C13.3064 40.8293 14.1864 39.2443 15.0864 37.6278C12.8964 37.1974 10.9364 36.3996 9.08638 35.224C8.37638 36.5151 7.68635 37.7747 6.99635 39.0238V39.0133ZM24.0264 42.4562C24.4364 41.6375 24.8264 40.9342 25.1464 40.1994C25.5364 39.3177 26.1464 38.9399 27.0764 39.0028C27.8564 39.0553 28.6464 39.0133 29.4664 39.0133C28.7764 37.7642 28.0763 36.4941 27.3663 35.203C25.4963 36.3997 23.5263 37.1659 21.3663 37.6173C22.2563 39.2338 23.1164 40.7977 24.0264 42.4457V42.4562Z" fill="#20ACA4"/>
<path d="M26.6863 17.1279C26.5963 17.3378 26.4963 17.6947 26.3063 17.9991C25.6763 19.0278 24.9963 20.025 24.3563 21.0431C24.2363 21.2321 24.1663 21.4735 24.1463 21.6939C24.0663 22.985 24.0163 24.2762 23.9463 25.5568C23.8863 26.6799 23.0563 27.3622 22.0163 27.0787C20.8463 26.7638 19.6763 26.4175 18.5063 26.1026C18.2663 26.0396 17.9863 26.0396 17.7563 26.1026C16.6463 26.4175 15.5563 26.7744 14.4563 27.1103C13.2063 27.4986 12.3663 26.8478 12.3063 25.4623C12.2563 24.2237 12.1963 22.9851 12.1163 21.7465C12.0963 21.505 12.0163 21.2531 11.8863 21.0536C11.2563 20.025 10.5963 19.0173 9.95634 17.9991C9.27634 16.918 9.58633 15.8998 10.7563 15.4379C11.8263 15.0076 12.9064 14.5981 13.9664 14.1468C14.2364 14.0313 14.4963 13.8319 14.6863 13.601C15.4263 12.6773 16.1363 11.7326 16.8663 10.7984C17.6263 9.8327 18.6163 9.82219 19.3763 10.7879C20.1163 11.7326 20.8363 12.6983 21.5763 13.6325C21.7463 13.8424 21.9764 14.0209 22.2164 14.1258C23.3564 14.6087 24.5064 15.0496 25.6564 15.5114C26.2864 15.7633 26.5863 16.2566 26.6663 17.1069L26.6863 17.1279ZM18.1463 14.1153C17.6363 14.7766 17.1563 15.3644 16.7063 15.9837C16.3763 16.4351 15.9763 16.729 15.4763 16.9179C14.7763 17.1699 14.0963 17.4638 13.2563 17.7892C14.8163 19.4267 15.3763 21.3791 15.0863 23.6569C15.9963 23.405 16.7463 23.1635 17.5163 22.9956C17.8963 22.9116 18.3163 22.9116 18.6963 22.9956C19.4763 23.1635 20.2463 23.4049 21.0663 23.6359C21.1163 22.7751 21.1663 21.9879 21.1863 21.1901C21.1963 20.6443 21.3663 20.1719 21.6663 19.731C22.0863 19.1012 22.4864 18.44 22.9064 17.7682C22.1464 17.4638 21.4163 17.2224 20.7363 16.8865C20.3263 16.687 19.9363 16.3931 19.6263 16.0468C19.1063 15.4694 18.6663 14.8186 18.1363 14.1363L18.1463 14.1153Z" fill="#20ACA4"/>
</svg>
