<svg xmlns="http://www.w3.org/2000/svg" width="62" height="76" viewBox="0 0 62 76" fill="none">
  <path d="M37.138 0.457275C38.6444 1.09466 40.1406 1.72192 41.647 2.3593C43.4869 3.1282 44.0935 4.6053 43.3454 6.46686C43.1028 7.07389 42.5973 7.74167 42.6984 8.28799C42.7893 8.78373 43.5678 9.14793 44.0126 9.59308C44.5788 10.1698 45.1651 10.7363 45.6605 11.3636C45.984 11.7784 46.2671 11.829 46.7119 11.6064C47.2377 11.3433 47.7836 11.1208 48.3295 10.9184C49.7954 10.3822 51.3119 10.9892 51.9387 12.4259C52.5958 13.903 53.2125 15.3902 53.7887 16.8976C54.3549 18.3646 53.7179 19.8417 52.2925 20.5094C51.5848 20.8433 50.584 20.9546 50.2301 21.501C49.8864 22.0372 50.22 22.9983 50.2099 23.7773C50.2099 24.4855 50.1897 25.1937 50.1088 25.9019C50.0583 26.3066 50.2099 26.4685 50.5536 26.6C51.1299 26.8124 51.6859 27.0451 52.2419 27.2981C53.7281 27.9658 54.3751 29.4328 53.7988 30.9402C53.2226 32.4477 52.6059 33.9349 51.9589 35.412C51.3624 36.7677 49.7954 37.4152 48.3901 36.9195C47.7734 36.6969 47.1567 36.444 46.5603 36.1708C46.2368 36.0292 46.0346 36.0696 45.8223 36.3529C45.2157 37.1522 44.5282 37.8907 43.7599 38.5382C43.315 38.9125 43.4566 39.0541 43.8812 39.2767C47.3994 41.0978 50.8974 42.9493 54.4155 44.7501C55.194 45.1548 55.5074 45.6607 55.4872 46.5409C55.4467 49.576 55.477 52.6112 55.4669 55.6463C55.4669 56.5366 54.9109 57.0728 54.1628 56.911C53.4551 56.7592 53.263 56.2533 53.263 55.5957C53.263 52.8539 53.2529 50.1122 53.2833 47.3704C53.2833 46.8241 53.1215 46.551 52.6463 46.3082C49.6438 44.7703 46.6614 43.2022 43.679 41.6543C43.6285 41.715 43.5779 41.7555 43.588 41.7757C44.0834 43.4147 43.3251 45.003 41.4144 45.6708C40.1911 46.1058 39.0285 46.6623 37.8255 47.1479C36.0967 47.846 34.6207 47.2288 33.8726 45.4988C33.6603 45.0031 33.4379 44.5175 33.2559 44.0116C33.1144 43.6272 32.9223 43.5462 32.4977 43.5563C31.7395 43.5563 31.608 43.8801 31.608 44.568C31.6384 49.4141 31.6384 54.2602 31.608 59.1064C31.608 59.7538 31.7799 59.9663 32.4269 59.9157C33.2054 59.855 33.9939 59.8955 34.7724 59.9056C36.208 59.9258 37.1785 60.7959 37.1987 62.2022C37.2391 65.9253 37.2391 69.6383 37.1987 73.3614C37.1785 74.7575 36.1776 75.6479 34.7623 75.658C31.9518 75.6681 29.1412 75.6681 26.3206 75.658C24.8446 75.658 23.8539 74.7272 23.8438 73.24C23.8134 69.5978 23.8134 65.9455 23.8438 62.3033C23.8539 60.8161 24.8244 59.9157 26.3206 59.9056C27.1496 59.8955 27.9887 59.8853 28.8177 59.9056C29.2423 59.9157 29.4344 59.8044 29.4344 59.339C29.4243 54.2703 29.4344 49.2017 29.4344 44.1431C29.4344 43.9003 29.4546 43.5968 29.0907 43.6473C28.7065 43.6979 28.2112 43.2427 27.9483 43.8902C27.7259 44.4365 27.5136 44.9828 27.281 45.519C26.5531 47.2491 25.067 47.8763 23.3383 47.1883C22.1555 46.7128 20.9928 46.2171 19.8201 45.7315C17.7274 44.8816 17.1713 43.8902 17.5757 41.634C17.0905 41.8769 16.6456 42.1096 16.1907 42.3423C13.5622 43.6979 10.9437 45.0638 8.30508 46.3992C7.93102 46.5915 7.78954 46.8039 7.78954 47.2288C7.80976 51.2453 7.80976 55.2618 7.78954 59.2682C7.78954 59.7943 7.94115 59.9461 8.44663 59.9157C9.30596 59.8752 10.1552 59.8854 11.0145 59.9157C12.4198 59.9461 13.3701 60.887 13.3701 62.2831C13.3802 65.9557 13.3802 69.6281 13.3701 73.3007C13.3701 74.6867 12.3895 75.6681 11.0044 75.6681C8.12315 75.6883 5.23178 75.6883 2.35051 75.6681C1.01602 75.6681 0.0252743 74.6665 0.0151646 73.3412C-0.00505486 69.6484 -0.00505486 65.9455 0.0151646 62.2528C0.0151646 60.9072 0.985675 59.9562 2.33027 59.9157C3.15926 59.8955 3.99834 59.8752 4.82734 59.9157C5.43392 59.9562 5.61592 59.7741 5.60581 59.1569C5.57548 54.9482 5.60584 50.7395 5.57551 46.5308C5.57551 45.6506 5.87881 45.1447 6.65726 44.7501C10.1249 42.9999 13.5622 41.199 17.0197 39.4184C17.2522 39.297 17.4848 39.1655 17.7779 39.0137C16.8478 38.1234 15.938 37.2736 15.1696 36.2821C14.9876 36.0494 14.7854 36.1606 14.5832 36.2416C13.9969 36.4844 13.4105 36.7475 12.8242 36.9701C11.2774 37.5467 9.7811 36.9296 9.12397 35.412C8.50727 34.0058 7.92091 32.5792 7.35477 31.1527C6.72796 29.5744 7.35478 28.067 8.88134 27.379C9.5688 27.0654 10.5394 26.944 10.873 26.4179C11.2066 25.8918 10.873 24.961 10.8831 24.2124C10.8831 23.4839 10.9033 22.7453 10.9741 22.0169C11.0044 21.6628 10.9235 21.4807 10.5899 21.3492C9.99342 21.1266 9.40706 20.8838 8.83081 20.6208C7.32446 19.9429 6.69765 18.4557 7.30423 16.9078C7.87037 15.4711 8.45673 14.0547 9.06331 12.6383C9.73055 11.0803 11.2369 10.453 12.814 11.05C13.5217 11.313 14.2901 11.9301 14.8966 11.7885C15.5032 11.6468 15.9278 10.7565 16.4636 10.2203C16.9085 9.76507 17.3533 9.29966 17.8689 8.93544C18.3946 8.56111 18.4552 8.19688 18.1621 7.66067C17.9194 7.21552 17.7476 6.71982 17.5656 6.24431C16.9894 4.70651 17.606 3.19902 19.1225 2.5414C20.7299 1.84332 22.3475 1.17562 23.9651 0.487656C24.3088 0.487656 24.6525 0.487656 24.9962 0.487656C26.2903 0.841756 27.0586 1.71184 27.463 2.96637C27.5742 3.31035 27.7663 3.63411 27.8775 3.98821C27.9989 4.37266 28.2111 4.45356 28.5852 4.39286C29.7983 4.22087 31.0318 4.21078 32.2449 4.36254C32.9122 4.45359 33.1548 4.2209 33.3469 3.66445C33.8018 2.29864 34.3477 1.00363 35.8743 0.487656C36.3191 0.487656 36.7538 0.487656 37.1987 0.487656L37.138 0.457275ZM45.9436 14.2672C45.2359 14.3077 44.9427 14.0244 44.69 13.6703C43.588 12.1527 42.2839 10.8375 40.7573 9.75493C40.1406 9.31989 39.9889 8.79379 40.2922 8.10583C40.6562 7.25599 41.01 6.39605 41.3639 5.5361C41.5762 5.01001 41.4448 4.65594 40.8887 4.43336C39.5745 3.90727 38.2602 3.37103 36.9662 2.81459C36.3899 2.57177 36.0462 2.71345 35.8136 3.29012C35.4901 4.10961 35.1464 4.91896 34.8027 5.72833C34.4387 6.60852 34.1557 6.78049 33.2357 6.65909C31.3856 6.40616 29.5355 6.39607 27.6855 6.68947C26.9677 6.81087 26.5127 6.53771 26.2498 5.86998C25.896 4.98979 25.5119 4.10961 25.1479 3.22942C24.9356 2.72357 24.6121 2.592 24.0965 2.80446C22.7721 3.37102 21.4376 3.91736 20.1032 4.46368C19.5269 4.69638 19.4157 5.0808 19.6685 5.63724C20.0324 6.46685 20.3559 7.3066 20.7198 8.13621C21.0231 8.82417 20.8715 9.3604 20.2649 9.79543C18.7383 10.8881 17.4342 12.2033 16.3423 13.731C15.9076 14.338 15.3718 14.4999 14.6843 14.1964C13.8553 13.8321 13.0061 13.5185 12.1771 13.1543C11.5806 12.8913 11.2167 13.0531 10.9842 13.6703C10.4787 14.9652 9.94287 16.2501 9.39695 17.535C9.14421 18.1117 9.30599 18.4557 9.87214 18.6884C10.691 19.0121 11.4998 19.3561 12.3086 19.7001C13.1881 20.0643 13.3599 20.3476 13.2386 21.2682C12.9859 23.1197 12.9758 24.9812 13.269 26.8225C13.3903 27.5408 13.1173 27.9962 12.4501 28.2592C11.5706 28.6133 10.691 28.9977 9.81148 29.3619C9.306 29.5744 9.16442 29.8982 9.38683 30.4142C9.95297 31.7395 10.4989 33.0749 11.0448 34.4104C11.2774 34.9871 11.6515 35.0984 12.2176 34.8455C13.0163 34.4813 13.8452 34.1777 14.6439 33.8236C15.3516 33.51 15.9177 33.6213 16.3727 34.2587C17.4847 35.7965 18.8192 37.1218 20.366 38.2246C20.9322 38.6293 21.0434 39.1453 20.7906 39.7725C20.4469 40.6122 20.1233 41.4519 19.7493 42.2815C19.4763 42.8987 19.5774 43.2831 20.2447 43.5462C21.5387 44.052 22.8226 44.5883 24.1066 45.1346C24.6929 45.3875 25.0266 45.2155 25.249 44.649C25.5725 43.8295 25.9162 43.0201 26.2599 42.2107C26.6239 41.3406 26.9171 41.1586 27.8269 41.2901C29.6568 41.5329 31.4867 41.5531 33.3065 41.2698C34.1557 41.1383 34.4893 41.3305 34.8431 42.1399C35.1969 42.9695 35.5508 43.7991 35.8844 44.6389C36.0967 45.165 36.4101 45.3673 36.9662 45.1245C38.2905 44.5579 39.625 44.0116 40.9595 43.4652C41.4751 43.2528 41.657 42.9189 41.4144 42.3625C41.0403 41.5127 40.7168 40.6426 40.3428 39.7927C40.0395 39.1047 40.1912 38.5787 40.8078 38.1335C42.3243 37.0409 43.6386 35.7257 44.7203 34.198C45.155 33.5808 45.6807 33.4392 46.3783 33.7326C47.2073 34.0968 48.0464 34.4104 48.8754 34.7747C49.4719 35.0377 49.8358 34.8758 50.0683 34.2587C50.5738 32.9637 51.1096 31.6788 51.6556 30.3939C51.9083 29.8172 51.7466 29.4732 51.1703 29.2507C50.311 28.9168 49.4517 28.5526 48.5923 28.1985C47.9352 27.9253 47.6724 27.4701 47.7836 26.7518C48.0768 24.8801 48.0767 22.9983 47.7633 21.1266C47.642 20.4083 47.915 19.953 48.5822 19.69C49.4618 19.3359 50.3413 18.9514 51.2208 18.5872C51.6758 18.395 51.878 18.1016 51.6758 17.6058C51.0995 16.2299 50.5334 14.854 49.9571 13.478C49.7448 12.9722 49.391 12.8508 48.8956 13.0835C48.4104 13.3061 47.915 13.5084 47.4095 13.7006C46.8434 13.9131 46.3176 14.247 45.9335 14.2874L45.9436 14.2672ZM35.0251 67.7262C35.0251 66.0872 35.0049 64.4482 35.0251 62.8092C35.0251 62.2831 34.9139 62.0808 34.3376 62.0808C31.8001 62.1111 29.2524 62.101 26.7048 62.0808C26.2195 62.0808 26.0173 62.1921 26.0173 62.7283C26.0375 66.0771 26.0375 69.436 26.0173 72.7847C26.0173 73.2805 26.1387 73.4626 26.6644 73.4626C29.2322 73.4322 31.8001 73.4322 34.368 73.4626C34.9038 73.4626 35.0251 73.2805 35.015 72.7847C34.9948 71.0952 35.015 69.4056 35.015 67.716L35.0251 67.7262ZM2.20896 67.7767C2.20896 69.4663 2.21907 71.1458 2.20896 72.8353C2.20896 73.3007 2.32014 73.4727 2.81551 73.4626C5.4036 73.4423 7.99168 73.4423 10.5798 73.4626C11.0751 73.4626 11.1864 73.3007 11.1864 72.8353C11.1662 69.4663 11.1662 66.0872 11.1864 62.7182C11.1864 62.2528 11.065 62.0808 10.5798 62.0909C7.99168 62.1112 5.4036 62.1112 2.81551 62.0909C2.32014 62.0909 2.19885 62.2629 2.20896 62.7283C2.22918 64.4179 2.20896 66.0973 2.20896 67.7869V67.7767Z" fill="#6BD762"/>
  <path d="M47.7021 67.7256C47.7021 65.945 47.7021 64.1543 47.7021 62.3736C47.7021 60.8561 48.6525 59.905 50.179 59.905C52.9895 59.8949 55.8 59.8949 58.6105 59.905C60.1371 59.905 61.0571 60.8561 61.0672 62.3939C61.0672 65.9855 61.0672 69.5871 61.0672 73.1787C61.0672 74.6963 60.1068 75.6574 58.5903 75.6574C55.7798 75.6574 52.9693 75.6676 50.1588 75.6574C48.6626 75.6574 47.7123 74.6761 47.7021 73.1585C47.7021 71.3476 47.7021 69.5366 47.7021 67.7256ZM49.9061 67.8065C49.9061 69.4961 49.9162 71.1755 49.9061 72.8651C49.9061 73.29 49.9869 73.4722 50.4621 73.4722C53.0704 73.4519 55.6888 73.4519 58.2971 73.4722C58.7419 73.4722 58.8835 73.3406 58.8734 72.8955C58.8532 69.4961 58.8633 66.1069 58.8734 62.7075C58.8734 62.2826 58.7824 62.1005 58.3174 62.1005C55.709 62.1207 53.0906 62.1207 50.4823 62.1005C50.0375 62.1005 49.8959 62.232 49.9061 62.6873C49.9263 64.3971 49.9061 66.1069 49.9061 67.8167V67.8065Z" fill="#6BD762"/>
  <path d="M17.4642 24.1622C17.4945 21.4508 18.4853 19.2048 19.9613 17.1308C21.3362 15.2086 23.2369 13.7719 24.7836 12.0115C26.6944 9.8566 28.1906 9.99824 29.9497 12.0115C30.3844 12.5073 30.8899 12.9423 31.3448 13.4178C32.5984 14.7532 32.2951 16.5643 30.6776 17.3939C30.3136 17.5861 29.9396 17.7884 29.5554 17.9199C28.9791 18.1223 29.0702 18.3246 29.4442 18.6888C32.8815 22.1084 36.3087 25.5281 39.7157 28.9679C41.404 30.6777 40.9895 33.3688 38.8867 34.2996C37.5724 34.8864 36.3087 34.6942 35.2876 33.6926C32.5074 30.9711 29.7778 28.2091 27.028 25.4471C26.4618 24.8704 26.4517 24.233 26.9572 23.7677C27.4324 23.3326 28.0693 23.3832 28.6354 23.9599C31.2134 26.5296 33.7914 29.1095 36.3693 31.6893C37.168 32.4886 37.7342 32.61 38.2498 32.094C38.7755 31.568 38.6643 31.0217 37.8555 30.2224C34.4182 26.7826 30.9708 23.3427 27.5436 19.8826C27.1493 19.4881 26.9572 19.4982 26.573 19.8826C24.915 21.5722 23.1863 23.2112 21.8922 25.2245C21.316 26.1148 20.8004 27.0152 20.6791 28.0978C20.6286 28.5733 20.3151 28.8971 19.8197 28.9679C19.3244 29.0387 18.9099 28.9173 18.6268 28.4519C17.8281 27.0861 17.4844 25.609 17.4541 24.1521L17.4642 24.1622ZM19.6883 24.3645C19.7591 24.3645 19.7996 24.3747 19.7996 24.3645C19.9108 24.2027 20.0118 24.0408 20.1331 23.8891C22.7617 20.5909 25.2284 17.1207 29.4139 15.5727C29.9193 15.3906 30.0104 15.1579 29.5756 14.7634C28.9691 14.1968 28.3827 13.61 27.8166 13.003C27.5032 12.6691 27.2807 12.6287 26.9269 12.9828C25.6834 14.2575 24.3894 15.4817 23.1358 16.7565C22.0338 17.8795 21.1037 19.134 20.4567 20.5706C19.9107 21.7745 19.567 23.0291 19.6782 24.3645H19.6883Z" fill="#6BD762"/>
  <path d="M30.5562 69.0518C30.9505 69.0518 31.3347 69.0316 31.729 69.0518C32.3659 69.0923 32.7905 69.5273 32.8006 70.1242C32.8006 70.7211 32.3962 71.1966 31.7593 71.227C30.9303 71.2674 30.1013 71.2674 29.2723 71.227C28.6455 71.1966 28.231 70.6806 28.2815 70.0837C28.3321 69.4666 28.696 69.1024 29.3127 69.0518C29.7272 69.0215 30.1417 69.0518 30.5562 69.0518Z" fill="#6BD762"/>
  <path d="M30.6064 64.3165C31.0007 64.3165 31.3849 64.2962 31.7792 64.3165C32.406 64.3569 32.7598 64.7313 32.7902 65.3586C32.8104 65.9454 32.5071 66.3703 31.9208 66.4512C31.0008 66.5726 30.0707 66.5726 29.1507 66.4512C28.5643 66.3804 28.261 65.9454 28.2812 65.3586C28.3014 64.7414 28.6654 64.3671 29.2922 64.3165C29.7269 64.2861 30.1717 64.3165 30.6064 64.3165Z" fill="#6BD762"/>
  <path d="M6.73805 64.3168C7.15255 64.3168 7.56709 64.2864 7.98159 64.3168C8.57806 64.3674 8.91165 64.7417 8.95208 65.3285C8.98241 65.9153 8.67916 66.3503 8.1029 66.4313C7.18292 66.5628 6.25277 66.5527 5.33279 66.4414C4.7161 66.3706 4.39263 65.9153 4.43307 65.2982C4.47351 64.7215 4.82733 64.3573 5.4238 64.3067C5.85852 64.2764 6.30334 64.3067 6.73805 64.3067V64.3168Z" fill="#6BD762"/>
  <path d="M6.67738 71.2367C6.26289 71.2367 5.84841 71.267 5.43391 71.2367C4.80711 71.176 4.37239 70.6803 4.42294 70.1036C4.47349 69.4864 4.83745 69.102 5.45415 69.0716C6.28314 69.0311 7.1121 69.0311 7.9411 69.0716C8.55779 69.102 8.93184 69.5067 8.94195 70.1238C8.96217 70.7511 8.59827 71.1456 7.98158 71.2266C7.54686 71.2873 7.10198 71.2367 6.66726 71.2367H6.67738Z" fill="#6BD762"/>
  <path d="M54.4252 64.3071C54.8195 64.3071 55.2036 64.2869 55.5979 64.3071C56.2247 64.3374 56.6088 64.7017 56.6493 65.3188C56.6897 65.9359 56.3561 66.371 55.7394 66.4519C54.8397 66.5632 53.9297 66.5632 53.0401 66.4519C52.4234 66.371 52.0898 65.9359 52.1302 65.3188C52.1707 64.7421 52.5144 64.3677 53.1109 64.3273C53.5456 64.2969 53.9905 64.3273 54.4252 64.3273V64.3071Z" fill="#6BD762"/>
  <path d="M54.3343 71.2464C53.94 71.2464 53.5458 71.2768 53.1616 71.2464C52.5348 71.1958 52.1102 70.7203 52.1203 70.1335C52.1203 69.5467 52.5651 69.0813 53.202 69.0611C54.0108 69.0307 54.8196 69.0307 55.6183 69.0611C56.235 69.0914 56.5989 69.4658 56.6595 70.0931C56.7101 70.6697 56.2754 71.1554 55.6587 71.2464C55.6081 71.2464 55.5576 71.2464 55.5171 71.2464C55.1229 71.2464 54.7387 71.2464 54.3444 71.2464H54.3343Z" fill="#6BD762"/>
</svg>