<svg width="63" height="63" viewBox="0 0 63 63" fill="none" xmlns="http://www.w3.org/2000/svg">
<path d="M31.35 62.7C48.6641 62.7 62.7 48.6641 62.7 31.35C62.7 14.0359 48.6641 0 31.35 0C14.0359 0 0 14.0359 0 31.35C0 48.6641 14.0359 62.7 31.35 62.7Z" fill="#20ACA4"/>
<path d="M31.5401 3.37009C31.9201 3.55009 32.3301 3.6701 32.6601 3.9101C33.1801 4.2901 33.3701 4.88008 33.3701 5.52008C33.3701 5.85008 33.3701 6.1701 33.3701 6.5101C35.4801 6.8901 37.5401 7.30008 39.6201 7.61008C40.9501 7.81008 42.2201 7.54008 43.3701 6.77008C44.1901 6.21008 45.1501 6.72008 45.1601 7.71008C45.1701 10.5701 45.1801 13.4301 45.1501 16.2901C45.1501 16.6201 44.9501 17.0201 44.7101 17.2601C43.6401 18.3201 42.3001 18.7701 40.8101 18.8501C38.8901 18.9501 37.0601 18.4501 35.2201 18.0601C34.6401 17.9401 34.0601 17.8601 33.3901 17.7401C33.3901 18.4201 33.3901 19.0301 33.3901 19.6301C33.3901 19.9301 33.4001 20.2201 33.3801 20.5201C33.3501 20.9701 33.0701 21.2301 32.6701 21.2201C32.2801 21.2101 32.0301 20.9601 32.0001 20.5201C31.9901 20.3601 31.9901 20.2101 31.9901 20.0501C31.9901 15.3101 31.9901 10.5801 31.9901 5.84009C31.9901 5.65009 32.0301 5.4201 31.9401 5.2901C31.8101 5.0901 31.6001 4.88008 31.3801 4.83008C31.0801 4.76008 30.8401 4.9701 30.7801 5.2901C30.7501 5.4601 30.7501 5.63008 30.7501 5.80008C30.7501 13.3201 30.7501 20.8401 30.7501 28.3501C30.7501 28.5201 30.7501 28.6801 30.7501 28.8801C31.1801 28.8801 31.5501 28.8801 31.9801 28.8801C31.9801 28.6901 31.9801 28.5301 31.9801 28.3601C31.9801 26.9801 31.9801 25.6101 31.9801 24.2301C31.9801 24.0901 31.9801 23.9501 31.9901 23.8101C32.0301 23.3801 32.2701 23.1201 32.6601 23.1101C33.0701 23.1001 33.3601 23.3601 33.3701 23.8101C33.3901 24.8301 33.3801 25.8401 33.3801 26.8601C33.3801 27.5101 33.3801 28.1701 33.3801 28.8801C33.5801 28.8901 33.7401 28.9101 33.9101 28.9101C34.8801 28.9101 35.8501 28.9101 36.8201 28.9101C37.8701 28.9101 38.2001 29.2401 38.2001 30.2701C38.2001 32.0501 38.2001 33.8301 38.2001 35.6201C38.2001 35.7901 38.2001 35.9601 38.2001 36.1801C38.4101 36.1801 38.5701 36.1801 38.7401 36.1801C42.1301 36.1801 45.5201 36.1801 48.9201 36.1801C50.2101 36.1801 50.4601 36.4401 50.4601 37.7001C50.4601 41.5801 50.4601 45.4501 50.4601 49.3301C50.4601 49.5101 50.4601 49.7001 50.4601 49.9401C51.0701 49.9401 51.6301 49.9401 52.1901 49.9401C52.8901 49.9401 53.6001 49.9601 54.3001 49.9301C54.7301 49.9101 55.0901 50.0101 55.3701 50.3401C55.3701 50.5301 55.3701 50.7201 55.3701 50.9001C55.1101 51.2701 54.7401 51.3401 54.3101 51.3401C39.0101 51.3301 23.7001 51.3301 8.4001 51.3301C8.2801 51.3301 8.15011 51.3401 8.03011 51.3201C7.61011 51.2701 7.3501 50.9901 7.3501 50.6201C7.3501 50.2301 7.63009 49.9401 8.08009 49.9301C9.27009 49.9201 10.4601 49.9201 11.6401 49.9201C11.8201 49.9201 12.0101 49.9201 12.2601 49.9201C12.2601 49.6901 12.2601 49.5101 12.2601 49.3201C12.2601 46.3501 12.2601 43.3801 12.2601 40.4101C12.2601 39.3101 12.5801 38.9901 13.6901 38.9901C14.3301 38.9901 14.9701 38.9801 15.6101 38.9901C16.1601 39.0001 16.4601 39.2801 16.4501 39.7201C16.4401 40.1401 16.1401 40.3901 15.6101 40.3901C14.9901 40.4001 14.3601 40.3901 13.7001 40.3901C13.6901 40.5601 13.6701 40.6901 13.6701 40.8301C13.6701 43.7101 13.6701 46.5801 13.6601 49.4601C13.6601 49.7401 13.6801 49.9201 14.0501 49.9201C17.4601 49.9101 20.8701 49.9101 24.2701 49.9101C24.3301 49.9101 24.3901 49.9001 24.4801 49.8801C24.4801 46.7401 24.4801 43.6001 24.4801 40.3901C24.3301 40.3901 24.1601 40.3901 24.0001 40.3901C22.3901 40.3901 20.7801 40.3901 19.1701 40.3901C18.5801 40.3901 18.2601 40.1301 18.2601 39.6801C18.2701 39.2401 18.6001 38.9801 19.1901 38.9801C20.9401 38.9801 22.6901 38.9801 24.5201 38.9801C24.5201 38.7901 24.5201 38.6301 24.5201 38.4701C24.5201 35.7501 24.5201 33.0301 24.5201 30.3101C24.5201 29.1801 24.8301 28.8801 25.9801 28.8801C27.0701 28.8801 28.1701 28.8801 29.3401 28.8801C29.3401 28.6401 29.3401 28.4301 29.3401 28.2201C29.3401 20.7001 29.3401 13.1801 29.3401 5.67007C29.3401 4.71007 29.6601 3.9601 30.5601 3.5401C30.7501 3.4501 30.9701 3.40008 31.1701 3.33008C31.2901 3.37008 31.4101 3.37009 31.5401 3.37009ZM36.7501 49.9301C36.7501 43.3701 36.7501 36.8601 36.7501 30.3501C33.1301 30.3501 29.5401 30.3501 25.9501 30.3501C25.9501 36.8901 25.9501 43.4001 25.9501 49.9301C29.5601 49.9301 33.1401 49.9301 36.7501 49.9301ZM38.2101 49.9501C38.4101 49.9501 38.5701 49.9501 38.7201 49.9501C41.9901 49.9501 45.2501 49.9401 48.5201 49.9601C48.9601 49.9601 49.0701 49.8401 49.0601 49.4101C49.0401 45.6501 49.0501 41.8801 49.0501 38.1201C49.0501 37.9601 49.0501 37.7901 49.0501 37.6301C45.3901 37.6301 41.8101 37.6301 38.2101 37.6301C38.2101 41.7401 38.2101 45.8101 38.2101 49.9501ZM43.7301 8.24008C43.6301 8.27008 43.5701 8.2901 43.5201 8.3201C42.2801 8.9701 40.9401 9.20008 39.5701 9.02008C38.2001 8.84008 36.8401 8.55008 35.4701 8.30008C34.7901 8.18008 34.1101 8.05007 33.3701 7.92007C33.3701 8.21007 33.3701 8.40008 33.3701 8.58008C33.3701 10.8101 33.3701 13.0501 33.3701 15.2801C33.3701 16.3001 33.3701 16.2801 34.3701 16.4701C35.9501 16.7701 37.5201 17.1401 39.1001 17.3801C40.5901 17.6101 42.0601 17.5101 43.3601 16.5801C43.6401 16.3801 43.7601 16.1701 43.7601 15.8101C43.7401 13.4501 43.7501 11.0901 43.7501 8.73007C43.7601 8.57007 43.7401 8.42008 43.7301 8.24008Z" fill="black"/>
</svg>
