<svg width="50" height="50" viewBox="0 0 50 50" fill="none" xmlns="http://www.w3.org/2000/svg">
<path d="M23.28 49.5198C23.28 48.6698 23.28 47.8198 23.28 46.9398C17.71 46.4998 12.93 44.3798 9.01001 40.4498C5.10001 36.5298 2.98005 31.7697 2.55005 26.2197C1.70005 26.2197 0.87 26.2197 0 26.2197C0 25.2397 0 24.2998 0 23.3098C0.84 23.3098 1.67003 23.3098 2.53003 23.3098C3.05003 17.0998 5.60004 11.9297 10.29 7.85974C13.1 5.41974 16.36 3.82977 20.11 3.00977C19.84 3.58977 19.56 4.06978 19.39 4.58978C18.96 5.88978 18.2201 6.83975 16.8101 7.11975C10.2101 10.3098 6.44 15.5297 5.5 22.7997C5.49 22.8797 5.48998 22.9597 5.47998 23.0397C5.47998 23.0997 5.47998 23.1697 5.47998 23.2997C5.87998 23.2997 6.28005 23.2997 6.68005 23.2997C7.08005 23.2997 7.48004 23.2997 7.92004 23.2997C7.92004 24.2697 7.92004 25.2198 7.92004 26.1998C7.11004 26.1998 6.32997 26.1998 5.46997 26.1998C5.84997 30.6798 7.51003 34.5498 10.53 37.8198C13.95 41.5198 18.21 43.5597 23.28 44.0297C23.28 43.1897 23.28 42.4098 23.28 41.5898C24.26 41.5898 25.2001 41.5898 26.1801 41.5898C26.1801 42.3798 26.1801 43.1697 26.1801 44.0297C30.6301 43.6497 34.48 42.0097 37.73 39.0397C41.48 35.6097 43.54 31.3298 44.02 26.2098C43.56 26.2098 43.16 26.2098 42.76 26.2098C42.38 26.2098 41.9901 26.2098 41.5601 26.2098C41.5601 25.2398 41.5601 24.2998 41.5601 23.3098C42.3601 23.3098 43.16 23.3098 44.11 23.3098C43.81 21.8998 43.63 20.5297 43.23 19.2397C41.32 13.1297 37.34 8.92974 31.37 6.60974C31.08 6.49974 30.89 6.34975 30.76 6.05975C30.32 5.08975 29.86 4.12974 29.41 3.16974C29.4 3.14974 29.42 3.10977 29.42 3.07977C36.89 4.38977 45.99 11.4297 46.91 23.2997C47.76 23.2997 48.63 23.2997 49.49 23.2997C49.49 24.2697 49.49 25.2298 49.49 26.1998C48.63 26.1998 47.77 26.1998 46.91 26.1998C46.46 31.7898 44.3401 36.5398 40.4301 40.4598C36.5101 44.3798 31.7401 46.4998 26.1801 46.9398C26.1801 47.8198 26.1801 48.6698 26.1801 49.5198C25.2201 49.5198 24.25 49.5198 23.28 49.5198Z" fill="#A7FF2F"/>
<path d="M32.24 15.98C29.82 14.81 27.53 13.71 25.25 12.58C24.88 12.4 24.59 12.41 24.22 12.59C21.94 13.71 19.65 14.82 17.23 15.99C19.75 10.62 22.22 5.36 24.73 0C27.25 5.35 29.71 10.6 32.24 15.98Z" fill="#A7FF2F"/>
<path d="M23.04 29.7699C22.03 29.7699 21.11 29.7699 20.16 29.7699C20.16 26.0099 20.16 22.2699 20.16 18.4599C21.11 18.4599 22.06 18.4498 23 18.4698C23.13 18.4698 23.28 18.6499 23.36 18.7899C24.28 20.2899 25.18 21.7899 26.09 23.2899C26.17 23.4199 26.2601 23.5499 26.4401 23.6699C26.4401 21.9199 26.4401 20.1599 26.4401 18.3799C27.4301 18.3799 28.3601 18.3799 29.3201 18.3799C29.3201 22.1699 29.3201 25.9499 29.3201 29.7699C28.4601 29.7699 27.62 29.7799 26.79 29.7599C26.66 29.7599 26.5101 29.5699 26.4301 29.4399C25.4101 27.7599 24.39 26.0799 23.37 24.3999C23.29 24.2699 23.2 24.1299 23.03 23.8699C23.04 25.9299 23.04 27.8299 23.04 29.7699Z" fill="#A7FF2F"/>
</svg>
