<svg width="63" height="63" viewBox="0 0 63 63" fill="none" xmlns="http://www.w3.org/2000/svg">
<path d="M31.35 62.7C48.6641 62.7 62.7 48.6642 62.7 31.35C62.7 14.0359 48.6641 0 31.35 0C14.0358 0 0 14.0359 0 31.35C0 48.6642 14.0358 62.7 31.35 62.7Z" fill="#A7FF2F"/>
<path d="M30.28 56.5198C30.28 55.6698 30.28 54.8198 30.28 53.9398C24.71 53.4998 19.93 51.3798 16.01 47.4498C12.1 43.5298 9.98005 38.7697 9.55005 33.2197C8.70005 33.2197 7.87 33.2197 7 33.2197C7 32.2397 7 31.2998 7 30.3098C7.84 30.3098 8.67003 30.3098 9.53003 30.3098C10.05 24.0998 12.6 18.9297 17.29 14.8597C20.1 12.4197 23.36 10.8298 27.11 10.0098C26.84 10.5898 26.56 11.0698 26.39 11.5898C25.96 12.8898 25.2201 13.8398 23.8101 14.1198C17.2101 17.3098 13.44 22.5297 12.5 29.7997C12.49 29.8797 12.49 29.9597 12.48 30.0397C12.48 30.0997 12.48 30.1697 12.48 30.2997C12.88 30.2997 13.2801 30.2997 13.6801 30.2997C14.0801 30.2997 14.48 30.2997 14.92 30.2997C14.92 31.2697 14.92 32.2198 14.92 33.1998C14.11 33.1998 13.33 33.1998 12.47 33.1998C12.85 37.6798 14.51 41.5498 17.53 44.8198C20.95 48.5198 25.21 50.5597 30.28 51.0297C30.28 50.1897 30.28 49.4098 30.28 48.5898C31.26 48.5898 32.2001 48.5898 33.1801 48.5898C33.1801 49.3798 33.1801 50.1697 33.1801 51.0297C37.6301 50.6497 41.48 49.0097 44.73 46.0397C48.48 42.6097 50.54 38.3298 51.02 33.2098C50.56 33.2098 50.16 33.2098 49.76 33.2098C49.38 33.2098 48.9901 33.2098 48.5601 33.2098C48.5601 32.2398 48.5601 31.2998 48.5601 30.3098C49.3601 30.3098 50.16 30.3098 51.11 30.3098C50.81 28.8998 50.63 27.5297 50.23 26.2397C48.32 20.1297 44.34 15.9297 38.37 13.6097C38.08 13.4997 37.89 13.3498 37.76 13.0598C37.32 12.0898 36.86 11.1297 36.41 10.1697C36.4 10.1497 36.42 10.1098 36.42 10.0798C43.89 11.3898 52.99 18.4297 53.91 30.2997C54.76 30.2997 55.63 30.2997 56.49 30.2997C56.49 31.2697 56.49 32.2298 56.49 33.1998C55.63 33.1998 54.77 33.1998 53.91 33.1998C53.46 38.7898 51.3401 43.5398 47.4301 47.4598C43.5101 51.3798 38.7401 53.4998 33.1801 53.9398C33.1801 54.8198 33.1801 55.6698 33.1801 56.5198C32.2201 56.5198 31.25 56.5198 30.28 56.5198Z" fill="black"/>
<path d="M39.24 22.98C36.82 21.81 34.53 20.71 32.25 19.58C31.88 19.4 31.59 19.41 31.22 19.59C28.94 20.71 26.65 21.82 24.23 22.99C26.75 17.62 29.22 12.36 31.73 7C34.25 12.35 36.71 17.6 39.24 22.98Z" fill="black"/>
<path d="M30.04 36.7699C29.03 36.7699 28.11 36.7699 27.16 36.7699C27.16 33.0099 27.16 29.2699 27.16 25.4599C28.11 25.4599 29.06 25.4498 30 25.4698C30.13 25.4698 30.28 25.6499 30.36 25.7899C31.28 27.2899 32.18 28.7899 33.09 30.2899C33.17 30.4199 33.2601 30.5499 33.4401 30.6699C33.4401 28.9199 33.4401 27.1599 33.4401 25.3799C34.4301 25.3799 35.3601 25.3799 36.3201 25.3799C36.3201 29.1699 36.3201 32.9499 36.3201 36.7699C35.4601 36.7699 34.62 36.7799 33.79 36.7599C33.66 36.7599 33.5101 36.5699 33.4301 36.4399C32.4101 34.7599 31.39 33.0799 30.37 31.3999C30.29 31.2699 30.2 31.1299 30.03 30.8699C30.04 32.9299 30.04 34.8299 30.04 36.7699Z" fill="black"/>
</svg>
