<svg width="52" height="52" viewBox="0 0 52 52" fill="none" xmlns="http://www.w3.org/2000/svg">
<path d="M26.1899 0.0400085C26.5999 0.230009 27.05 0.360005 27.4 0.630005C27.97 1.05 28.17 1.68 28.17 2.37C28.17 2.72 28.17 3.08 28.17 3.44C30.45 3.85 32.6799 4.3 34.9299 4.63C36.3699 4.85 37.75 4.56 38.99 3.72C39.88 3.12 40.92 3.66999 40.92 4.73999C40.94 7.82999 40.94 10.93 40.9 14.02C40.9 14.38 40.68 14.81 40.42 15.07C39.26 16.22 37.81 16.7 36.2 16.79C34.13 16.9 32.15 16.35 30.15 15.93C29.53 15.8 28.89 15.71 28.17 15.59C28.17 16.33 28.17 16.98 28.17 17.63C28.17 17.95 28.18 18.27 28.16 18.59C28.13 19.08 27.83 19.36 27.39 19.35C26.97 19.34 26.7 19.06 26.66 18.6C26.65 18.43 26.65 18.26 26.65 18.09C26.65 12.97 26.65 7.84 26.65 2.72C26.65 2.52 26.7 2.27 26.6 2.12C26.46 1.91 26.23 1.67 26 1.62C25.68 1.55 25.42 1.77 25.35 2.12C25.32 2.3 25.3199 2.48998 25.3199 2.66998C25.3199 10.8 25.3199 18.93 25.3199 27.07C25.3199 27.25 25.3199 27.43 25.3199 27.64C25.7799 27.64 26.18 27.64 26.65 27.64C26.65 27.44 26.65 27.26 26.65 27.08C26.65 25.59 26.65 24.1 26.65 22.62C26.65 22.47 26.64 22.32 26.66 22.16C26.7 21.69 26.97 21.42 27.39 21.4C27.83 21.39 28.15 21.67 28.16 22.16C28.18 23.26 28.17 24.36 28.17 25.46C28.17 26.17 28.17 26.88 28.17 27.64C28.38 27.65 28.56 27.67 28.74 27.67C29.79 27.67 30.84 27.67 31.89 27.67C33.03 27.67 33.39 28.03 33.39 29.15C33.39 31.08 33.39 33 33.39 34.93C33.39 35.11 33.39 35.29 33.39 35.54C33.61 35.54 33.79 35.54 33.97 35.54C37.64 35.54 41.31 35.54 44.98 35.54C46.37 35.54 46.65 35.82 46.65 37.19C46.65 41.38 46.65 45.58 46.65 49.77C46.65 49.97 46.65 50.17 46.65 50.43C47.31 50.43 47.92 50.43 48.52 50.43C49.28 50.43 50.0399 50.45 50.7999 50.42C51.2699 50.4 51.66 50.5 51.96 50.87C51.96 51.07 51.96 51.28 51.96 51.48C51.68 51.88 51.2799 51.96 50.8099 51.96C34.2599 51.95 17.7 51.95 1.15002 51.95C1.01002 51.95 0.87999 51.96 0.73999 51.94C0.28999 51.89 0 51.59 0 51.18C0 50.76 0.310039 50.44 0.790039 50.43C2.07004 50.41 3.36002 50.42 4.65002 50.42C4.85002 50.42 5.04995 50.42 5.31995 50.42C5.31995 50.17 5.31995 49.97 5.31995 49.77C5.31995 46.56 5.31995 43.35 5.31995 40.13C5.31995 38.94 5.66999 38.59 6.85999 38.59C7.54999 38.59 8.24994 38.58 8.93994 38.59C9.52994 38.6 9.85998 38.9 9.84998 39.38C9.82998 39.84 9.51994 40.1 8.93994 40.11C8.26994 40.12 7.59 40.11 6.88 40.11C6.86 40.29 6.83997 40.44 6.83997 40.58C6.83997 43.69 6.83996 46.8 6.82996 49.91C6.82996 50.22 6.85 50.41 7.25 50.41C10.94 50.4 14.6199 50.4 18.3099 50.4C18.3799 50.4 18.44 50.38 18.54 50.37C18.54 46.97 18.54 43.58 18.54 40.1C18.37 40.1 18.2 40.1 18.02 40.1C16.28 40.1 14.54 40.1 12.79 40.1C12.15 40.1 11.7999 39.82 11.8099 39.34C11.8199 38.86 12.1799 38.58 12.8099 38.58C14.6999 38.58 16.5999 38.58 18.5699 38.58C18.5699 38.38 18.5699 38.2 18.5699 38.02C18.5699 35.08 18.5699 32.14 18.5699 29.19C18.5699 27.96 18.9 27.64 20.14 27.64C21.32 27.64 22.5 27.64 23.78 27.64C23.78 27.38 23.78 27.15 23.78 26.92C23.78 18.79 23.78 10.66 23.77 2.51999C23.77 1.47999 24.12 0.670001 25.09 0.220001C25.3 0.120001 25.53 0.07 25.75 0C25.92 0.04 26.0499 0.0400085 26.1899 0.0400085ZM31.8199 50.42C31.8199 43.33 31.8199 36.29 31.8199 29.24C27.8999 29.24 24.02 29.24 20.14 29.24C20.14 36.32 20.14 43.36 20.14 50.42C24.05 50.42 27.9199 50.42 31.8199 50.42ZM33.4 50.44C33.62 50.44 33.79 50.44 33.95 50.44C37.4799 50.44 41.0099 50.43 44.5499 50.45C45.0199 50.45 45.14 50.32 45.14 49.86C45.12 45.79 45.13 41.72 45.13 37.64C45.13 37.46 45.13 37.28 45.13 37.11C41.17 37.11 37.29 37.11 33.4 37.11C33.4 41.55 33.4 45.95 33.4 50.44ZM39.38 5.32001C39.27 5.36001 39.21 5.36999 39.15 5.39999C37.81 6.10999 36.36 6.34999 34.87 6.14999C33.38 5.94999 31.9099 5.64 30.4299 5.37C29.6899 5.24 28.96 5.09999 28.15 4.95999C28.15 5.27999 28.15 5.47999 28.15 5.67999C28.15 8.09999 28.15 10.51 28.15 12.93C28.15 14.03 28.15 14.01 29.23 14.22C30.94 14.54 32.63 14.94 34.35 15.2C35.97 15.45 37.56 15.34 38.96 14.33C39.26 14.11 39.4 13.89 39.39 13.5C39.37 10.95 39.38 8.4 39.38 5.84C39.4 5.68 39.39 5.51001 39.38 5.32001Z" fill="#20ACA4"/>
</svg>
