<svg xmlns="http://www.w3.org/2000/svg" width="69" height="69" viewBox="0 0 69 69" fill="none">
  <path d="M66.31 29.5694C64.96 29.6194 63.59 29.6094 62.27 29.5994C61.51 29.5994 60.75 29.5994 60 29.5994C59.39 29.6294 58.86 29.3894 58.43 28.9594C58.04 28.5494 57.64 28.1594 57.24 27.7594C56.7 27.2294 56.1499 26.6894 55.6299 26.1294C55.1799 25.6594 54.7299 25.4594 54.0699 25.4794C52.3799 25.4994 50.69 25.4994 48.99 25.4894H46.81C45.58 25.4894 45.28 25.7894 45.28 27.0194V46.5794C45.28 47.3794 45.24 48.0494 45.15 48.6894C44.73 51.7394 43 54.5194 40.4 56.3094C37.81 58.0994 34.61 58.7294 31.61 58.0494C26.33 56.8394 22.7699 52.3594 22.7599 46.8994C22.7499 42.6494 22.75 38.3994 22.75 34.1394V26.8594C22.75 25.8494 22.4 25.4894 21.4 25.4894H18.68C17.06 25.4894 15.43 25.4994 13.81 25.4794C13.32 25.4894 12.9 25.6394 12.52 26.0194C12.04 26.5194 11.54 27.0094 11.05 27.4994C10.57 27.9694 10.0999 28.4494 9.62994 28.9294C9.17994 29.3894 8.67995 29.6194 8.00995 29.5994C6.36995 29.5994 4.73998 29.5994 3.09998 29.5994H1.58997C0.269966 29.5994 0 29.8694 0 31.2094V67.1094C0 68.5294 0.249973 68.7794 1.65997 68.7794H24.36C38.33 68.7794 52.31 68.7794 66.28 68.7994H66.29C67.34 68.7994 67.76 68.5194 68.04 68.0394V30.3494C67.76 29.8494 67.34 29.5494 66.31 29.5794V29.5694ZM65.55 66.2494C65.13 66.6794 64.5499 66.6794 64.3199 66.6794C61.8499 66.6594 59.39 66.6594 56.92 66.6594H34.03L28.2599 66.6694C20.1299 66.6594 12 66.6594 3.87 66.6794H3.85999C3.42999 66.6794 2.88999 66.6194 2.48999 66.1994C2.07999 65.7694 2.06997 65.2194 2.08997 64.8394C2.13997 63.9294 2.11997 63.0094 2.08997 61.9894C2.08997 61.7694 2.06995 61.1994 2.50995 60.7794C2.79995 60.5094 3.19994 60.3794 3.68994 60.4194C4.17994 60.4494 4.68998 60.4394 5.22998 60.4194C5.86998 60.3994 6.32997 59.9794 6.33997 59.3894C6.34997 58.7894 5.87996 58.3494 5.20996 58.3194H4.76996C2.54996 58.3194 2.09998 57.8594 2.09998 55.6194V53.1194C2.09998 50.6294 2.10997 48.1294 2.08997 45.6394C2.08997 45.4094 2.07999 44.7894 2.54999 44.3594C3.00999 43.9294 3.61995 43.9894 3.81995 43.9994C4.20995 44.0394 4.61999 44.0194 5.04999 44.0094H5.20996C5.87996 43.9894 6.33997 43.5494 6.33997 42.9494C6.32997 42.3594 5.87998 41.9294 5.22998 41.9094C4.68998 41.8894 4.13998 41.8894 3.59998 41.9094C3.14998 41.9294 2.77 41.8094 2.5 41.5494C2.09 41.1494 2.08997 40.6194 2.08997 40.4394C2.10997 38.0294 2.10997 35.6194 2.08997 33.2094C2.08997 33.0294 2.07999 32.4994 2.48999 32.0894C2.88999 31.6794 3.41997 31.6894 3.65997 31.6894C4.45997 31.6994 5.24999 31.6994 6.04999 31.6894C7.05999 31.6894 8.05995 31.6894 9.06995 31.7094C9.57995 31.7194 9.97998 31.5594 10.35 31.1794C10.89 30.6194 11.45 30.0694 12 29.5194C12.44 29.0894 12.87 28.6594 13.3 28.2194C13.73 27.7894 14.23 27.5794 14.79 27.5894C16.24 27.5894 17.69 27.6094 19.14 27.5894C19.32 27.5894 19.8599 27.5794 20.2599 27.9794C20.6699 28.3794 20.66 28.9094 20.66 29.0894C20.64 31.4994 20.64 33.9094 20.66 36.3194C20.66 36.7894 20.53 37.1694 20.25 37.4394C19.83 37.8394 19.3 37.8094 19.1 37.8094C18.62 37.7894 18.12 37.7794 17.61 37.8094C16.99 37.8394 16.54 38.2794 16.55 38.8694C16.56 39.4394 17.01 39.8694 17.61 39.8994C18.09 39.9194 18.55 39.9394 18.98 39.8994C19.17 39.8794 19.74 39.8294 20.2 40.2394C20.65 40.6594 20.66 41.2494 20.66 41.4994C20.68 42.2994 20.66 43.0994 20.65 43.9094C20.62 45.6094 20.59 47.2194 20.79 48.8394C21.22 52.3594 23.15 55.6194 26.08 57.7894C29.02 59.9594 32.71 60.8494 36.21 60.2294C42.63 59.0894 47.21 53.7494 47.37 47.2494C47.42 45.2194 47.39 43.2294 47.37 41.5494C47.36 41.3094 47.35 40.6894 47.83 40.2494C48.31 39.8094 48.92 39.8794 49.12 39.8994C49.36 39.9294 49.59 39.9194 49.83 39.8994H50.17C50.59 39.8994 50.95 39.7794 51.18 39.5694C51.38 39.3894 51.48 39.1394 51.48 38.8294C51.47 37.8994 50.5399 37.7894 50.1299 37.7894H49.83C49.49 37.7894 49.15 37.7794 48.81 37.7994C48.38 37.8094 48.03 37.6894 47.77 37.4394C47.51 37.1794 47.3699 36.8394 47.3799 36.3994C47.3799 33.9194 47.3899 31.4394 47.3799 28.9594C47.3699 28.5394 47.5 28.2094 47.75 27.9594C48.13 27.5794 48.62 27.5794 48.79 27.5794C50.32 27.5794 51.84 27.5794 53.36 27.5794C54.09 27.5394 54.51 27.9994 54.71 28.1994L55.68 29.1594C56.35 29.8194 57.01 30.4894 57.67 31.1594C58.04 31.5394 58.42 31.6994 58.95 31.6994C59.8899 31.6794 60.83 31.6794 61.77 31.6894C62.63 31.6894 63.49 31.6894 64.35 31.6794C64.57 31.6794 65.12 31.6694 65.53 32.0794C65.95 32.4994 65.9499 33.0594 65.9399 33.2494C65.9199 35.6694 65.9199 38.0494 65.9399 40.3394C65.9499 40.5294 65.95 41.1094 65.5099 41.5294C65.0799 41.9394 64.52 41.9094 64.3 41.8994C63.84 41.8794 63.34 41.8794 62.7599 41.8994C62.1399 41.9294 61.69 42.3794 61.7 42.9594C61.7 43.5294 62.15 43.9594 62.75 43.9894C63.23 44.0094 63.79 44.0294 64.35 43.9894C64.84 43.9494 65.2199 44.0794 65.5099 44.3494C65.9399 44.7594 65.9399 45.3294 65.9399 45.5394C65.9399 49.2694 65.9399 53.0094 65.9399 56.7494C65.9399 56.9594 65.95 57.5394 65.5 57.9494C65.06 58.3694 64.49 58.3294 64.31 58.3194C63.79 58.2794 63.27 58.2994 62.77 58.3194C62.15 58.3394 61.69 58.7794 61.7 59.3694C61.7 59.9594 62.15 60.3894 62.79 60.4094C63.26 60.4294 63.81 60.4394 64.34 60.4094C64.53 60.3994 65.1 60.3594 65.53 60.7794C65.97 61.2094 65.9499 61.7694 65.9399 61.9594C65.9099 63.0994 65.9099 64.1094 65.9399 65.0394C65.9499 65.2294 65.97 65.7994 65.55 66.2394V66.2494Z" fill="#9A93F7"/>
  <path d="M42.9 1.00949C42.78 0.909491 42.6401 0.819502 42.5001 0.739502C42.4901 0.739502 42.49 0.729492 42.48 0.729492H25.5601C25.0901 1.04949 24.81 1.33949 24.76 1.56949C24.72 1.74949 24.7801 2.1395 25.3101 2.9295L26.08 4.08951C26.82 5.19951 27.5501 6.30951 28.3001 7.39951C28.7001 7.98951 28.8801 8.57948 28.8701 9.24948C28.8401 11.0495 28.8401 12.6295 28.8701 14.0695C28.9101 16.3795 29.92 17.9695 31.97 18.9195C32.98 19.3995 32.97 20.2795 32.97 20.5695C32.96 22.6295 32.95 24.6995 32.98 26.7695C32.99 27.5795 32.6301 28.1395 31.8701 28.4995C30.9601 28.9295 30.11 29.3395 29.34 29.7895C28.88 30.0595 28.73 30.6095 28.98 31.1095C29.23 31.5995 29.77 31.8095 30.29 31.6095C30.49 31.5395 30.72 31.4295 30.94 31.2995C31.15 31.1795 31.77 30.8295 32.39 31.1995C32.8 31.4495 33 31.8995 32.97 32.5195C32.94 33.3495 32.94 34.1695 32.97 34.9695C33.01 35.7595 32.65 36.3395 31.91 36.6895C31.03 37.0995 30.25 37.4895 29.52 37.8795C28.91 38.2095 28.7001 38.7795 28.9901 39.3295C29.2601 39.8595 29.83 40.0195 30.44 39.7595C30.65 39.6695 30.84 39.5895 31.01 39.4795C31.63 39.1095 32.0901 39.2295 32.3701 39.3895C32.9801 39.7395 32.97 40.4295 32.97 40.6595C32.96 41.5395 32.95 42.4095 32.97 43.2895C32.99 43.9995 32.66 44.5295 32.02 44.8395C31.21 45.2195 30.3501 45.6395 29.5001 46.0995C28.9201 46.4195 28.71 46.9695 28.97 47.5095C29.24 48.0595 29.83 48.2395 30.47 47.9595C30.55 47.9195 30.63 47.8795 30.71 47.8295C30.98 47.6895 31.35 47.4895 31.82 47.4395L32.64 47.3595L32.8701 48.1595C32.9001 48.2495 32.96 48.3995 32.96 48.5995V50.9195C32.97 51.2195 33.0501 52.1995 34.0001 52.2095C34.2801 52.2295 34.53 52.1295 34.7 51.9495C34.94 51.7295 35.06 51.3595 35.07 50.9195V50.2495C35.08 49.1595 35.0901 48.0795 35.0601 46.9895C35.0301 46.0595 35.4201 45.4195 36.2401 45.0595C37.1801 44.6395 37.98 44.2295 38.69 43.8095C39.15 43.5395 39.3001 42.9895 39.0501 42.4995C38.8101 41.9995 38.2701 41.7995 37.7501 41.9895C37.5401 42.0595 37.33 42.1695 37.09 42.2995C36.88 42.4195 36.25 42.7695 35.64 42.3995C35.23 42.1495 35.0401 41.6995 35.0601 41.0795C35.0901 40.2795 35.0901 39.4495 35.0601 38.6295C35.0301 37.8395 35.39 37.2595 36.13 36.9095C36.86 36.5695 37.63 36.1895 38.46 35.7495C39.11 35.4095 39.3301 34.8295 39.0501 34.2795C38.7101 33.6195 38.05 33.6395 37.54 33.8695C37.31 33.9695 37.16 34.0295 37.03 34.1195C36.41 34.4895 35.94 34.3795 35.66 34.2195C35.26 33.9795 35.0501 33.5495 35.0601 32.9395C35.0801 32.0995 35.0901 31.2395 35.0601 30.3995C35.0301 29.6195 35.38 29.0595 36.08 28.7295C36.98 28.3095 37.8501 27.8895 38.6801 27.4095C39.1401 27.1395 39.3001 26.5895 39.0601 26.0895C38.8101 25.5795 38.26 25.3695 37.72 25.5795C37.49 25.6695 37.2701 25.7695 37.0601 25.8995C36.5401 26.1995 36.07 26.2295 35.66 25.9995C35.25 25.7595 35.0501 25.3295 35.0601 24.7195C35.0801 23.3095 35.0801 21.9095 35.0601 20.5095C35.0501 19.7795 35.3901 19.2495 36.0601 18.9295C38.1101 17.9695 39.12 16.3795 39.17 14.0695C39.2 12.5195 39.19 10.9895 39.17 9.16949C39.17 8.54949 39.33 7.9995 39.7 7.4595C40.81 5.8295 41.9101 4.18948 42.9901 2.52948C43.4001 1.90948 43.37 1.39949 42.91 1.00949H42.9ZM38.71 5.16949C38.33 5.73949 37.97 6.28949 37.59 6.81949C37.21 7.34949 37.0401 7.88949 37.0601 8.56949C37.0901 10.0395 37.08 11.5095 37.07 12.9795V13.9995C37.06 15.8695 35.7901 17.2495 34.0601 17.2795H34.01C33.21 17.2795 32.4701 16.9795 31.9301 16.4495C31.3101 15.8395 30.97 14.9695 30.97 13.9895C30.96 12.0895 30.95 10.1995 30.97 8.2995C30.97 7.8395 30.86 7.4495 30.6 7.0795C30.2 6.4895 29.81 5.8995 29.4 5.2695L27.8001 2.8595H40.2401L38.71 5.16949Z" fill="#9A93F7"/>
  <path d="M14.5398 51.1696C14.5398 51.7596 14.0897 52.1896 13.4497 52.2096C12.9797 52.2296 12.5098 52.2196 12.0498 52.2196H11.4298H10.7798C10.3198 52.2196 9.86977 52.2196 9.40977 52.2096C8.78977 52.1896 8.33977 51.7396 8.34977 51.1596C8.34977 50.5796 8.78979 50.1396 9.36979 50.1296C10.0398 50.1096 10.7298 50.0996 11.4298 50.0996C12.1298 50.0996 12.7798 50.1096 13.4898 50.1196C14.0998 50.1396 14.5498 50.5896 14.5398 51.1696Z" fill="#9A93F7"/>
  <path d="M59.6899 51.1795C59.6899 51.7695 59.2299 52.1895 58.5799 52.2095C58.1299 52.2195 57.6799 52.2195 57.2199 52.2195H56.5599H55.9399C55.4999 52.2195 55.0499 52.2195 54.6099 52.2095C53.9399 52.1895 53.4799 51.7595 53.4899 51.1495C53.4999 50.5695 53.9599 50.1295 54.5799 50.1195C55.8799 50.0995 57.2199 50.0995 58.5799 50.1195C59.2299 50.1295 59.6899 50.5795 59.6899 51.1795Z" fill="#9A93F7"/>
</svg>