<svg xmlns="http://www.w3.org/2000/svg" width="77" height="77" viewBox="0 0 77 77" fill="none">
  <path d="M69.0519 62.1267C70.8515 64.0793 71.7108 66.1938 71.6299 68.6624C71.4782 73.1139 67.7983 76.8269 63.3298 76.9382C60.6305 77.009 57.9312 76.9584 55.2218 76.9584C45.5165 76.9584 35.8213 76.9584 26.1159 76.9584C21.9406 76.9584 18.5539 74.338 17.553 70.4025C16.1983 65.0404 20.1916 59.7997 25.7419 59.6581C26.6922 59.6378 27.1674 59.1489 27.1674 58.1911C27.1674 53.426 27.1674 48.6608 27.1674 43.8956C27.1674 40.0612 28.6636 36.9552 31.7167 34.6384C32.1211 34.3248 32.111 34.1832 31.7673 33.8392C27.7032 29.7923 23.6391 25.7252 19.5952 21.6581C19.3324 21.3951 19.0594 21.2231 18.7157 21.3445C18.3517 21.476 18.5336 21.8301 18.5336 22.0831C18.5235 34.8307 18.5336 47.5782 18.5336 60.3258C18.5336 63.1586 17.0981 64.5952 14.2572 64.5952C12.9935 64.5952 11.7298 64.6155 10.4762 64.5851C9.99096 64.575 9.9101 64.7369 9.86966 65.1922C9.71802 67.2055 10.1122 69.1176 10.83 70.9893C11.4467 72.5979 11.0929 74.2976 11.0727 75.9568C11.0626 76.6043 10.4762 76.9483 9.79889 76.9483C7.40289 76.9483 5.01695 76.9584 2.62095 76.9483C1.72119 76.9483 1.27637 76.4627 1.24604 75.5521C1.16517 73.3365 1.20563 71.1411 2.15594 69.0569C2.76253 67.7417 2.38848 66.3152 2.47946 64.9393C2.49968 64.656 2.34803 64.5952 2.09529 64.5952C1.81222 64.5952 1.52912 64.6054 1.24604 64.5952C0.508036 64.5447 0.0328566 64.0995 0.0227469 63.3711C-0.00758229 61.722 -0.00758229 60.0729 0.0227469 58.4238C0.0328566 57.665 0.518135 57.3109 1.23593 57.1592C2.48953 56.8961 2.47946 56.8759 2.47946 55.6213C2.47946 41.943 2.47941 28.2747 2.48952 14.5964C2.48952 14.0096 2.39855 13.6454 1.81219 13.3317C0.366497 12.5426 -0.270388 10.8733 0.134001 9.29499C0.548499 7.68637 1.94364 6.53301 3.61175 6.51278C5.87632 6.48243 8.14087 6.48243 10.4054 6.51278C10.9615 6.51278 11.2041 6.41159 11.1434 5.80456C11.0828 5.18742 11.1131 4.57026 11.1434 3.95311C11.2041 1.92968 12.8217 0.341327 14.8133 0.321093C16.8453 0.310976 18.4831 1.90946 18.5438 3.96324C18.564 4.58038 18.5842 5.19755 18.5438 5.81469C18.5033 6.3509 18.6651 6.51278 19.2212 6.51278C21.7385 6.48243 24.2659 6.49253 26.7832 6.50265C28.0368 6.50265 28.4311 6.89724 28.4412 8.172C28.4412 9.12301 28.4108 10.0841 28.4513 11.025C28.4917 11.8546 28.1783 12.3807 27.4201 12.7247C26.2777 13.2508 25.1656 13.8376 24.0434 14.4041C23.4571 14.6975 23.2751 15.5474 23.6997 16.0634C23.8008 16.1848 23.9121 16.2859 24.0233 16.3972C29.1893 21.567 34.3655 26.7369 39.5214 31.9169C39.9157 32.3115 40.31 32.4733 40.866 32.4733C43.2317 32.443 45.5974 32.4531 47.9732 32.4632C50.3692 32.4632 51.9159 34.0213 51.9159 36.4393C51.9159 38.9888 51.9362 41.5383 51.9159 44.0878C51.9159 44.6241 51.9867 44.8466 52.6135 44.8365C55.0601 44.796 57.5066 44.8062 59.9431 44.8365C60.4485 44.8365 60.6204 44.705 60.58 44.189C60.4587 42.3983 61.1259 41.0223 62.7839 40.2231C63.0265 40.1017 63.0468 39.9398 63.0468 39.7274C63.0468 39.3126 63.0366 38.8977 63.0468 38.493C63.1276 36.5202 64.7553 34.952 66.7166 34.9419C68.7082 34.9217 70.3662 36.5 70.4471 38.5133C70.4471 38.6145 70.4673 38.7257 70.4471 38.8269C70.3359 39.6464 70.5481 40.1927 71.367 40.6581C72.5398 41.336 72.9947 42.55 72.9138 43.9057C72.8835 44.5127 72.9542 44.8264 73.6923 44.9579C75.4412 45.2715 76.614 46.7486 76.6241 48.5292C76.6443 51.8274 76.6443 55.1256 76.6241 58.4137C76.614 60.5282 75.0166 62.1064 72.8936 62.1368C71.6906 62.157 70.4875 62.1368 69.1025 62.1368L69.0519 62.1267ZM36.6806 47.295C38.7935 47.295 40.8964 47.295 43.0093 47.295C43.9798 47.295 44.4651 46.8397 44.4651 45.9089C44.4752 42.4387 44.4651 38.9585 44.4752 35.4883C44.4752 35.0431 44.3438 34.9217 43.9091 34.9318C41.9073 34.952 39.8955 34.9015 37.8938 34.9622C34.2138 35.0633 30.908 37.7444 29.9475 41.3056C29.4724 43.0761 29.715 44.8871 29.624 46.6778C29.6038 47.1938 29.7757 47.3253 30.2711 47.3152C32.4042 47.2849 34.5373 47.3051 36.6705 47.3051L36.6806 47.295ZM13.5799 32.8477C13.5799 42.2667 13.5799 51.6959 13.5799 61.1149C13.5799 61.3173 13.5799 61.5298 13.5799 61.7321C13.5799 61.9648 13.6305 62.0862 13.9136 62.1267C15.3896 62.3594 16.0568 61.8029 16.0568 60.3157C16.0568 41.7204 16.0568 23.1352 16.0568 4.53992C16.0568 4.30723 16.077 4.07453 16.0366 3.84184C15.9051 3.17411 15.4906 2.77956 14.8133 2.78968C14.1359 2.78968 13.7214 3.20449 13.6102 3.87222C13.5698 4.12515 13.59 4.38814 13.59 4.64107C13.59 14.0399 13.59 23.4387 13.59 32.8375L13.5799 32.8477ZM74.1068 54.8929C74.1068 52.8088 74.1068 50.7854 74.1068 48.7518C74.1068 47.7401 73.6518 47.2848 72.6409 47.2848C65.928 47.2848 59.2152 47.2848 52.5023 47.2747C51.9968 47.2747 51.8553 47.4062 51.8553 47.9121C51.8856 49.8445 51.9058 51.7769 51.8553 53.6991C51.8351 54.468 51.9969 54.7209 52.836 54.7209C58.9523 54.6804 65.0788 54.7007 71.1952 54.7007C72.1455 54.7007 73.0958 54.6198 74.1068 54.8828V54.8929ZM39.4911 54.7108C42.524 54.7108 45.5671 54.6906 48.6 54.731C49.2268 54.731 49.4189 54.5995 49.4088 53.9419C49.3784 48.1954 49.3885 42.459 49.3885 36.7124C49.3885 35.296 49.0144 34.9622 47.6092 34.9217C47.0026 34.9015 46.9015 35.1139 46.9015 35.6603C46.9217 38.9787 46.9116 42.3072 46.9116 45.6256C46.9116 48.2965 45.4255 49.7737 42.7464 49.7737C38.6318 49.7737 34.507 49.7939 30.3924 49.7534C29.7251 49.7534 29.5735 49.9456 29.6038 50.5729C29.6543 51.7263 29.6442 52.8897 29.6038 54.0532C29.5836 54.5995 29.7453 54.7412 30.2912 54.731C33.3545 54.7007 36.4178 54.7209 39.481 54.7209L39.4911 54.7108ZM51.4711 59.6581H56.1823C61.6112 59.6581 67.0401 59.6581 72.4589 59.6581C73.5103 59.6581 74.0866 59.2332 74.0967 58.4441C74.1169 57.6347 73.5204 57.1895 72.4285 57.1794C72.2466 57.1794 72.0646 57.1794 71.8928 57.1794H31.3022C29.624 57.1794 29.6746 57.1794 29.6139 58.8588C29.5836 59.5974 29.8666 59.6682 30.4833 59.6682C37.4793 59.648 44.4752 59.6581 51.4711 59.6581ZM11.103 34.4664C11.103 27.8701 11.103 21.2838 11.103 14.6874C11.103 14.2322 11.1536 13.8679 10.456 13.8881C9.79885 13.8983 9.85954 14.2321 9.85954 14.6571C9.85954 27.9206 9.85953 41.1842 9.84942 54.4478C9.84942 55.156 10.0314 55.247 10.6784 55.075C11.2244 54.9334 11.103 54.5793 11.103 54.2454C11.103 47.6491 11.103 41.0628 11.103 34.4664ZM18.5135 13.9185C18.5135 15.3653 18.5135 16.8019 18.5135 18.2486C18.5135 18.451 18.382 18.7141 18.6853 18.8456C19.767 19.3211 20.96 18.5521 20.9701 17.3583C20.9802 16.2758 20.9903 15.1933 20.9701 14.1108C20.96 13.4329 21.2431 12.9979 21.8395 12.7045C22.8808 12.1986 23.8716 11.5814 24.9533 11.1768C25.843 10.8429 25.9845 10.2865 25.934 9.46696C25.9036 9.06228 25.7925 8.95098 25.3982 8.95098C23.2852 8.97121 21.1824 8.98133 19.0695 8.95098C18.5438 8.95098 18.4932 9.16345 18.5033 9.58837C18.5236 11.025 18.5033 12.4718 18.5033 13.9185H18.5135ZM6.81651 62.1267C8.0499 62.1267 9.28326 62.1064 10.5268 62.1368C11.0221 62.1469 11.1334 61.9851 11.1233 61.5197C11.0929 60.3663 11.0929 59.2028 11.1233 58.0394C11.1334 57.5841 11.0323 57.4829 10.5672 57.5942C8.54529 58.0697 6.5031 58.5047 4.47105 58.96C3.82403 59.1016 2.96472 59.0814 2.60077 59.4861C2.18628 59.9414 2.52999 60.8216 2.45922 61.4994C2.39857 62.0457 2.64116 62.1368 3.11632 62.1165C4.3497 62.0862 5.58313 62.1165 6.82663 62.1165L6.81651 62.1267ZM6.12906 74.4898C6.43235 74.4898 6.74572 74.4898 7.04901 74.4898C8.63624 74.4898 8.62614 74.4898 8.63625 72.8812C8.63625 71.7177 8.29249 70.5643 7.66569 69.7044C7.29163 69.1884 6.1695 69.6032 5.38095 69.5425C5.2293 69.5324 5.07763 69.5425 4.91588 69.5425C4.68335 69.5324 4.54181 69.6235 4.46093 69.8562C3.99588 71.2119 3.49043 72.5575 3.6724 74.0447C3.71284 74.3684 3.78361 74.5 4.11723 74.4898C4.78447 74.4696 5.45169 74.4898 6.11894 74.4898H6.12906ZM7.17032 11.4398C8.27228 11.4398 9.38437 11.3893 10.4762 11.4601C11.194 11.5005 11.2244 11.0553 11.0727 10.6608C10.8604 10.1043 11.75 9.05219 10.5166 8.99149C8.31272 8.89032 6.0987 8.96112 3.89479 8.97123C2.99502 8.97123 2.44911 9.47707 2.45922 10.2156C2.46933 10.9643 3.01522 11.4297 3.9352 11.4297C5.01694 11.4297 6.08858 11.4297 7.17032 11.4297V11.4398ZM36.6199 32.4228C36.1549 31.9978 35.6899 31.6033 35.245 31.1682C33.1119 29.0436 30.9787 26.919 28.8658 24.7742C28.5322 24.4302 28.2794 24.3189 27.966 24.7641C27.8649 24.9057 27.7335 25.0474 27.5818 25.1485C27.0561 25.5229 27.1775 25.8163 27.592 26.2209C29.4319 28.0218 31.3123 29.7822 33.031 31.7044C34.0723 32.8679 35.063 33.4041 36.6199 32.443V32.4228ZM66.7166 44.8163C67.768 44.8163 68.8194 44.8163 69.8708 44.8163C70.0528 44.8163 70.2752 44.9174 70.3965 44.6342C70.8616 43.5415 70.1033 42.3578 68.9205 42.3477C67.5557 42.3376 66.201 42.3477 64.8362 42.3477C63.3096 42.3477 62.9052 42.8029 62.9861 44.361C63.0063 44.7454 63.1377 44.8365 63.4815 44.8264C64.5632 44.8061 65.6348 44.8264 66.7166 44.8264V44.8163ZM59.9026 70.7768C61.1057 70.7768 62.0863 70.797 63.0569 70.7768C64.3105 70.7363 65.3214 69.7853 65.4529 68.5713C65.5843 67.3572 64.7958 66.1634 63.5725 65.9307C62.4301 65.7081 61.2674 65.8802 59.8925 65.8296C60.307 66.0724 60.5193 66.1735 60.7013 66.3152C60.9035 66.4771 61.0956 66.6491 61.2472 66.8514C61.3887 67.0436 61.5606 67.074 61.783 67.0841C62.9962 67.1751 62.9962 67.1752 62.9962 68.369C62.9962 68.4196 62.9962 68.4701 62.9962 68.5207C62.9962 69.5425 62.9962 69.5324 61.9954 69.5527C61.7224 69.5527 61.4393 69.4818 61.2371 69.7955C60.9642 70.2103 60.5294 70.4429 59.9026 70.7869V70.7768ZM28.8051 65.8296C28.0065 65.8296 27.2179 65.8296 26.4193 65.8296C26.2171 65.8296 26.0047 65.8296 25.8025 65.8296C24.5691 65.9105 23.5683 66.8817 23.4773 68.0958C23.3863 69.3402 24.2456 70.5644 25.4992 70.706C26.5911 70.8274 27.7133 70.7262 28.977 70.7262C28.4007 70.4227 27.966 70.19 27.693 69.7752C27.5313 69.5425 27.3291 69.5425 27.0966 69.5223C25.9441 69.4717 25.9441 69.4616 25.9441 68.3386C25.9441 68.1059 25.9744 67.8732 25.9441 67.6405C25.8733 67.1549 26.0755 67.0234 26.5406 67.0335C26.9247 67.0335 27.3696 67.2459 27.683 66.8109C27.9762 66.4062 28.3907 66.1533 28.8153 65.8093L28.8051 65.8296ZM26.6821 22.6496C26.49 22.4271 26.3788 22.2854 26.2575 22.164C25.6105 21.5063 24.9533 20.8589 24.3063 20.2012C23.9626 19.8573 23.6391 19.3109 23.2448 19.2502C22.8808 19.1996 22.7595 19.9382 22.3754 20.2012C21.9811 20.4744 22.1024 20.697 22.3956 20.9803C23.1942 21.7391 23.9525 22.5484 24.741 23.3072C24.9331 23.4893 25.0949 23.9547 25.4386 23.7321C25.8834 23.4488 26.2373 23.0341 26.672 22.6395L26.6821 22.6496ZM58.3558 70.7465C57.5268 69.2896 56.0812 69.5324 54.7062 69.5425C54.221 69.5425 53.7357 69.5425 53.2504 69.5425C52.1316 69.5425 51.1476 69.9439 50.2984 70.7465H58.3558ZM40.401 65.8498C40.7447 66.1533 41.1592 66.3658 41.4221 66.7502C41.604 67.0234 41.8366 67.0841 42.1399 67.074C43.7069 67.0638 45.2738 67.074 46.851 67.074C47.0532 67.074 47.2655 67.1043 47.407 66.902C47.7103 66.4568 48.1551 66.1735 48.8325 65.8599H40.401V65.8498ZM50.3388 65.8498C51.3195 67.4179 52.9067 67.0537 54.3827 67.074C54.7669 67.074 55.1713 67.0133 55.5352 67.0841C56.7888 67.3269 57.6482 66.6895 58.4468 65.8498H50.3388ZM38.6924 70.7667C37.8432 69.8562 36.8929 69.2997 35.5888 69.5223C34.962 69.6235 34.2947 69.6133 33.6679 69.5223C32.3638 69.3402 31.3427 69.7651 30.5238 70.7667H38.6924ZM40.1988 70.7465H48.8224C48.1551 70.4531 47.7305 70.1799 47.4373 69.755C47.2756 69.5122 47.0532 69.5425 46.8207 69.5425C45.2537 69.5425 43.6968 69.5425 42.1297 69.5425C41.9073 69.5425 41.6748 69.5021 41.5131 69.7449C41.23 70.1799 40.7852 70.4227 40.1988 70.7364V70.7465ZM38.8238 65.8903H30.3418C30.908 66.1736 31.3326 66.4164 31.6056 66.8312C31.7673 67.074 31.9796 67.0638 32.2121 67.0638C33.8095 67.0638 35.4068 67.0638 36.994 67.0638C37.2063 67.0638 37.3984 67.0638 37.54 66.8615C37.823 66.4264 38.2678 66.1735 38.8238 65.8801V65.8903ZM7.23098 21.9313C7.29164 21.9009 7.35229 21.8605 7.41295 21.8301C7.41295 21.1928 7.41295 20.5554 7.41295 19.918C7.41295 19.6651 7.4534 19.4121 7.2411 19.1996C6.53342 18.4712 5.83583 17.7225 5.13826 16.984C5.06749 17.0245 5.00688 17.0548 4.93612 17.0953C4.93612 17.8338 4.93612 18.5623 4.93612 19.3009C4.93612 19.5336 5.04732 19.6751 5.18886 19.8269C5.87632 20.525 6.54351 21.2332 7.22086 21.9313H7.23098ZM7.39277 40.6277C7.40288 39.5553 7.70614 38.5841 7.30176 37.9164C6.75583 37.0159 5.83583 36.3482 4.94617 35.4478C4.94617 36.3583 4.95628 37.0564 4.94617 37.7444C4.94617 38.0277 5.04732 38.2199 5.24952 38.4121C5.91676 39.0899 6.584 39.7779 7.40289 40.6176L7.39277 40.6277ZM5.13826 29.3472C5.0776 29.3775 5.00683 29.418 4.94617 29.4483C4.94617 30.025 4.93606 30.6017 4.94617 31.1784C4.94617 31.4718 4.83497 31.8056 5.07761 32.0586C5.7954 32.8072 6.52331 33.5457 7.2411 34.2944C7.41297 33.5356 7.41295 32.8578 7.41295 32.1698C7.41295 31.9371 7.41296 31.7247 7.23098 31.5324C6.5233 30.804 5.83583 30.0655 5.13826 29.337V29.3472ZM7.39277 52.9808C7.40288 51.9084 7.70614 50.9371 7.30176 50.2694C6.75583 49.369 5.83583 48.7013 4.94617 47.8109C4.94617 48.7215 4.95628 49.4195 4.94617 50.1075C4.94617 50.3908 5.05743 50.583 5.24952 50.7753C5.91676 51.4531 6.584 52.1411 7.40289 52.9808H7.39277ZM7.22086 28.1128C7.28152 28.0724 7.35229 28.042 7.41295 28.0016C7.41295 27.5159 7.43317 27.0405 7.41295 26.5548C7.39273 26.1805 7.57471 25.7454 7.29164 25.4419C6.57385 24.673 5.81561 23.9446 4.94617 23.0745C4.94617 23.975 4.94617 24.6629 4.94617 25.3509C4.94617 25.5937 4.97653 25.7859 5.1585 25.9781C5.85607 26.6863 6.5334 27.4047 7.22086 28.123V28.1128ZM7.2411 46.6576C7.30176 46.6272 7.35229 46.607 7.41295 46.5766C7.41295 45.9999 7.42306 45.4233 7.41295 44.8466C7.41295 44.5532 7.52421 44.2193 7.28158 43.9664C6.56379 43.2177 5.84599 42.4691 5.1282 41.7204C4.94623 42.3881 4.92596 42.9648 4.94617 43.5415C4.94617 43.8349 4.83497 44.1687 5.07761 44.4217C5.7954 45.1703 6.52331 45.9089 7.2411 46.6576ZM6.14923 64.5952C5.34046 64.5952 4.93612 64.8954 4.93612 65.4957C4.93612 66.5479 5.26635 67.074 5.92685 67.074C6.91086 67.074 7.40289 66.7367 7.40289 66.0622C7.40289 65.091 6.98165 64.6054 6.13918 64.6054L6.14923 64.5952ZM66.6762 39.869C67.5186 39.869 67.9399 39.6228 67.9399 39.1304C67.9399 37.9872 67.4951 37.3801 66.6762 37.4105C65.8775 37.4307 65.5338 38.0074 65.4529 39.1203C65.3619 40.3546 66.2718 39.697 66.6762 39.8791V39.869ZM63.0468 62.8653C63.0771 62.9361 62.8243 63.3003 63.2287 63.3509C63.9465 63.4419 64.6138 63.6544 65.281 63.9275C65.7764 64.1299 66.0089 63.5937 66.201 63.3003C66.4537 62.9361 65.9482 62.8956 65.7561 62.7944C65.1091 62.4302 64.3813 62.2582 63.6433 62.1469C63.1782 62.0761 62.8749 62.1571 63.0468 62.8653ZM25.9441 62.8551C25.9643 62.1065 25.9239 62.066 25.2263 62.1672C24.5692 62.2582 23.9222 62.4302 23.3257 62.7236C22.4967 63.1283 22.4967 63.2194 23.1943 63.8163C23.447 64.0287 23.629 63.9781 23.8817 63.8466C24.3872 63.5835 24.9331 63.4217 25.4891 63.3913C25.934 63.3711 25.9946 63.1586 25.9441 62.8551ZM22.6281 73.4781C23.4874 74.0852 24.458 74.3583 25.4791 74.4696C25.661 74.4898 25.934 74.5607 25.934 74.2369C25.934 73.7816 26.1867 73.1746 25.3072 73.1948C24.9634 73.1948 24.5691 73.1038 24.2861 72.9217C23.4773 72.3956 23.0325 72.8003 22.6382 73.4883L22.6281 73.4781ZM66.3223 73.4781C65.9179 72.8306 65.5034 72.3956 64.6744 72.9116C64.3206 73.124 63.8454 73.1948 63.4208 73.2252C62.7333 73.2657 63.0569 73.7614 63.0063 74.075C62.9255 74.51 63.2186 74.5101 63.5219 74.4797C64.5227 74.3583 65.463 74.0852 66.3223 73.4883V73.4781ZM59.2859 63.361C59.4173 63.361 59.5387 63.361 59.6701 63.361C60.1048 63.361 60.5597 63.5229 60.5597 62.7337C60.5597 61.9244 60.0543 62.157 59.6499 62.1267C59.3466 62.1064 59.0332 62.1469 58.7299 62.1267C58.2851 62.0963 58.0424 62.157 58.0424 62.7236C58.0424 63.3003 58.2548 63.4419 58.7602 63.3711C58.9321 63.3509 59.1141 63.3711 59.296 63.3711L59.2859 63.361ZM34.5576 63.361C34.7901 63.361 35.0226 63.3306 35.245 63.361C35.7505 63.4318 35.8213 63.189 35.8314 62.7439C35.8415 62.238 35.6899 62.0559 35.1844 62.1065C34.8002 62.1469 34.416 62.1469 34.0319 62.1065C33.5163 62.0559 33.3242 62.1874 33.3242 62.764C33.3242 63.3306 33.5769 63.4015 34.0116 63.361C34.1936 63.3408 34.3655 63.361 34.5475 63.361H34.5576ZM29.6847 63.361C29.8161 63.361 29.9374 63.361 30.0689 63.361C30.4834 63.361 30.8978 63.5127 30.918 62.764C30.9383 61.9749 30.4833 62.1267 30.0385 62.1267C29.7049 62.1267 29.3713 62.157 29.0376 62.1267C28.5221 62.066 28.4108 62.2683 28.3906 62.764C28.3805 63.3104 28.603 63.4217 29.068 63.3711C29.2702 63.3509 29.4825 63.3711 29.6847 63.3711V63.361ZM39.5012 63.361C39.7338 63.361 39.9663 63.3306 40.1887 63.361C40.6942 63.4318 40.7649 63.189 40.775 62.7439C40.7851 62.238 40.6335 62.0559 40.128 62.1065C39.7439 62.1469 39.3597 62.1469 38.9755 62.1065C38.4599 62.0559 38.2678 62.1874 38.2678 62.764C38.2678 63.3306 38.5206 63.4015 38.9553 63.361C39.1373 63.3408 39.3092 63.361 39.4911 63.361H39.5012ZM44.4651 63.361C44.5965 63.361 44.7178 63.361 44.8493 63.361C45.284 63.3509 45.7389 63.5127 45.7288 62.7236C45.7187 61.9142 45.2233 62.1469 44.8088 62.1267C44.5056 62.1064 44.1921 62.1469 43.8888 62.1267C43.4339 62.0862 43.2014 62.1672 43.2014 62.7236C43.2014 63.3003 43.4137 63.4318 43.9192 63.3711C44.091 63.3509 44.273 63.3711 44.455 63.3711L44.4651 63.361ZM49.338 63.361C49.4896 63.361 49.6413 63.361 49.803 63.361C50.2378 63.361 50.6927 63.5127 50.6826 62.7236C50.6725 61.9851 50.2478 62.1368 49.8333 62.1267C49.4997 62.1267 49.1661 62.1469 48.8325 62.1267C48.3674 62.0862 48.1451 62.1874 48.1552 62.7337C48.1653 63.2295 48.2865 63.4419 48.8021 63.3711C48.974 63.3408 49.156 63.3711 49.338 63.3711V63.361ZM54.3119 63.361C54.5445 63.361 54.777 63.3306 54.9994 63.361C55.4948 63.4318 55.5858 63.2092 55.5959 62.7539C55.5959 62.2582 55.4746 62.0559 54.959 62.1065C54.5748 62.1469 54.1906 62.1469 53.8065 62.1065C53.3111 62.0559 53.0887 62.1671 53.0887 62.7539C53.0887 63.3104 53.3212 63.4014 53.7762 63.3509C53.9581 63.3306 54.13 63.3509 54.3119 63.3509V63.361ZM29.624 74.4898C29.8566 74.4898 30.0891 74.4595 30.3115 74.4898C30.8271 74.5607 30.8776 74.3077 30.8979 73.8727C30.9181 73.3567 30.7361 73.1948 30.2407 73.2454C29.8565 73.2859 29.4724 73.2656 29.0882 73.2454C28.6636 73.2252 28.3704 73.2252 28.3806 73.8221C28.3806 74.3684 28.5524 74.5607 29.0781 74.4898C29.25 74.4595 29.4319 74.4898 29.6139 74.4898H29.624ZM34.5475 74.4898C34.78 74.4898 35.0125 74.4595 35.2349 74.4898C35.7303 74.5607 35.8213 74.338 35.8314 73.8828C35.8314 73.387 35.7101 73.1847 35.1945 73.2353C34.8103 73.2758 34.4261 73.2758 34.042 73.2353C33.5466 73.1847 33.3242 73.296 33.3242 73.8828C33.3242 74.4392 33.5567 74.5303 34.0116 74.4797C34.1936 74.4595 34.3655 74.4797 34.5475 74.4797V74.4898ZM39.4911 74.4898C39.7236 74.4898 39.9562 74.4595 40.1786 74.4898C40.674 74.5607 40.7649 74.338 40.775 73.8828C40.775 73.387 40.6436 73.1847 40.1382 73.2454C39.754 73.2859 39.3698 73.2859 38.9856 73.2454C38.4802 73.1948 38.2678 73.3162 38.2678 73.8929C38.2678 74.4493 38.5003 74.5404 38.9553 74.4898C39.1373 74.4696 39.3092 74.4898 39.4911 74.4898ZM44.5359 73.2555C44.3842 73.2555 44.2325 73.2555 44.0708 73.2555C43.626 73.2555 43.1812 73.1139 43.2014 73.903C43.2216 74.6416 43.6462 74.4797 44.0506 74.4898C44.3842 74.4898 44.7178 74.4696 45.0515 74.4898C45.5165 74.5303 45.7288 74.419 45.7187 73.8727C45.7187 73.3669 45.567 73.1746 45.0716 73.2353C44.8998 73.2556 44.7178 73.2353 44.5359 73.2353V73.2555ZM49.4795 73.2555C49.3279 73.2555 49.1762 73.2555 49.0145 73.2555C48.5797 73.2555 48.1248 73.1038 48.1349 73.8929C48.145 74.6315 48.5697 74.4797 48.9842 74.4898C49.3178 74.4898 49.6514 74.4696 49.985 74.4898C50.4501 74.5303 50.6725 74.4291 50.6623 73.8828C50.6522 73.387 50.5309 73.1746 50.0153 73.2454C49.8434 73.2757 49.6615 73.2454 49.4795 73.2454V73.2555ZM54.4231 73.2555C54.2715 73.2555 54.1199 73.2555 53.9581 73.2555C53.5234 73.2555 53.0685 73.1038 53.0786 73.8929C53.0887 74.6315 53.5133 74.4797 53.9278 74.4898C54.2614 74.4898 54.595 74.4696 54.9286 74.4898C55.3937 74.5303 55.6161 74.4291 55.606 73.8828C55.5959 73.387 55.4746 73.1746 54.959 73.2454C54.7871 73.2757 54.6051 73.2454 54.4231 73.2454V73.2555ZM59.2859 74.4898C59.4173 74.4898 59.5387 74.4898 59.6701 74.4898C60.1048 74.4797 60.5597 74.6416 60.5496 73.8525C60.5395 73.033 60.0442 73.2757 59.6297 73.2555C59.3264 73.2353 59.013 73.2757 58.7097 73.2555C58.2548 73.215 58.0323 73.296 58.0222 73.8525C58.0222 74.4291 58.2446 74.5607 58.74 74.5C58.9119 74.4797 59.0939 74.5 59.2758 74.5L59.2859 74.4898ZM19.9389 67.0031C21.142 67.165 21.1116 67.1549 21.516 66.1533C21.789 65.4957 21.2127 65.3136 20.9095 65.1011C20.5961 64.8785 20.5253 65.3743 20.4141 65.5665C20.1715 66.0117 19.9692 66.4872 19.9288 67.0031H19.9389ZM68.1522 65C67.4849 65.3945 67.1614 65.7992 67.586 66.6491C67.9196 67.3168 68.4251 67.1144 68.8093 67.0335C69.2845 66.9323 68.87 66.5276 68.8093 66.2949C68.6981 65.8295 68.4858 65.3844 68.1522 65ZM19.9086 69.6134C20.0198 70.2305 20.2422 70.7971 20.5556 71.3232C20.6263 71.4446 20.7073 71.7481 20.9196 71.5356C21.233 71.2118 21.7385 71.0399 21.4756 70.3115C21.1521 69.4313 20.6264 69.4717 19.9086 69.6134ZM68.1623 71.6267C68.5262 71.1208 68.7587 70.5542 68.9205 69.9674C68.9609 69.8359 69.0722 69.6943 68.8801 69.5729C68.5566 69.3706 67.8084 69.664 67.5961 69.9877C67.0805 70.787 67.4647 71.2422 68.1623 71.6267ZM6.68508 55.9047C6.0886 55.3179 5.53256 54.7715 4.96641 54.2252C4.86532 54.3162 4.93611 54.4781 4.926 54.6198C4.89904 55.8608 5.48539 56.2891 6.68508 55.9047ZM7.30176 15.6992C7.61516 13.8983 7.25121 13.5543 5.53256 14.0703C6.07848 14.5963 6.59408 15.0921 7.11979 15.5878C7.17034 15.6384 7.2411 15.6587 7.30176 15.6992Z" fill="#B65122"/>
  <path d="M56.8184 50.9272C56.8184 50.7451 56.8184 50.563 56.8184 50.391C56.8184 48.4485 56.8183 48.4586 58.7594 48.5294C59.1436 48.5395 59.2952 48.6306 59.2952 49.0454C59.275 50.3505 59.275 51.6657 59.2952 52.9708C59.2952 53.3857 59.1537 53.4767 58.7695 53.4868C56.8184 53.5475 56.8184 53.5677 56.8184 51.6253V50.9272Z" fill="#B65122"/>
  <path d="M55.5853 51.0181C55.5853 51.6858 55.5752 52.3535 55.5853 53.0212C55.5853 53.345 55.4842 53.4462 55.1506 53.4765C53.1084 53.6283 53.1084 53.6384 53.1084 51.6251C53.1084 50.755 53.1185 49.8748 53.1084 49.0048C53.1084 48.6406 53.2095 48.5293 53.5836 48.509C55.5853 48.3978 55.5853 48.3876 55.5853 50.4009C55.5853 50.6033 55.5853 50.8157 55.5853 51.0181Z" fill="#B65122"/>
  <path d="M60.5202 50.9977C60.5202 50.3603 60.5506 49.7128 60.5202 49.0754C60.5 48.6202 60.6618 48.5291 61.0864 48.5189C62.9971 48.4785 62.9971 48.4684 62.9971 50.3502C62.9971 51.2 62.9668 52.0498 63.0072 52.8896C63.0275 53.3853 62.8556 53.4865 62.4006 53.4865C60.5303 53.5067 60.5303 53.5169 60.5303 51.6148C60.5303 51.4125 60.5303 51.2 60.5303 50.9977H60.5202Z" fill="#B65122"/>
  <path d="M43.2316 50.9977C43.8685 50.9977 44.5155 51.0281 45.1524 50.9977C45.6074 50.9674 45.6984 51.1495 45.7085 51.5744C45.7489 53.4865 45.759 53.4866 43.8786 53.4866C43.0294 53.4866 42.1802 53.4461 41.3411 53.4967C40.6637 53.5473 40.6536 53.1021 40.785 52.7379C40.9872 52.1713 40.1583 51.2305 41.3108 51.0382C41.9376 50.9269 42.5947 51.018 43.2316 51.018V50.9977Z" fill="#B65122"/>
</svg>