<svg xmlns="http://www.w3.org/2000/svg" width="85" height="62" viewBox="0 0 85 62" fill="none">
  <path d="M0 60.3444C1.05 59.0644 1.95008 57.6644 3.08008 56.4444C5.85008 53.4544 8.99 51.0244 12.88 49.6544C15.87 48.5944 18.78 48.7444 21.63 50.1044C22.49 50.5144 23.33 50.9744 24.28 51.4744C24.5 50.2544 24.7201 49.0644 24.9301 47.8744C25.9401 42.0944 26.9501 36.3045 27.9701 30.5245C29.2001 23.5345 30.42 16.5344 31.66 9.54442C31.76 8.96442 31.74 8.68441 31 8.65441C29.39 8.57441 28.1601 7.21443 28.0801 5.55443C28.0501 4.90443 28.0701 4.24446 28.0801 3.58446C28.0901 1.36446 29.43 0.0144444 31.67 0.00444444C35.77 -0.00555556 39.8801 0.00444444 43.9801 0.00444444C46.7201 0.00444444 49.4501 0.00444444 52.1901 0.00444444C54.5801 0.00444444 55.87 1.31441 55.89 3.71441C55.89 4.26441 55.9 4.80442 55.89 5.35442C55.82 7.29442 54.68 8.50445 52.76 8.69445C52.44 8.72445 52.1401 8.69443 52.2301 9.17443C52.6201 11.3444 53 13.5144 53.4 15.7444C55.73 14.7844 58.06 14.4344 60.51 14.7244C67.28 15.5244 72.52 22.2044 71.64 28.9744C70.74 35.8944 65.38 40.6145 58.42 40.5745C57.88 40.5745 57.78 40.6844 57.89 41.2144C58.19 42.6844 58.4301 44.1744 58.6801 45.6544C58.7501 46.0444 58.8401 46.2744 59.3401 46.2344C65.2801 45.7044 70.39 47.7845 75.03 51.2745C78.31 53.7345 81.08 56.7244 83.62 59.9244C83.96 60.3544 84.19 60.8044 83.92 61.3544C83.67 61.8844 83.18 61.9444 82.67 61.9744C82.48 61.9844 82.2901 61.9744 82.1001 61.9744C55.3801 61.9744 28.6601 61.9744 1.94006 61.9744C1.17006 61.9744 0.46002 61.9244 0.0200195 61.1844V60.3644L0 60.3444ZM3.3501 59.6144H80.24C80.18 59.4844 80.16 59.3944 80.11 59.3444C77.81 56.6544 75.32 54.1645 72.4 52.1445C68.94 49.7345 65.16 48.1945 60.88 48.2045C57.12 48.2045 53.64 49.3544 50.26 50.9044C46.9 52.4344 43.7301 54.3244 40.4301 55.9644C35.8501 58.2444 31.34 58.2444 26.87 55.7344C24.92 54.6344 23.0201 53.4444 21.0601 52.3744C19.5301 51.5344 17.8701 51.0045 16.1001 51.2745C10.6401 52.0945 6.82009 55.4444 3.34009 59.6244L3.3501 59.6144ZM69.4301 27.4644C69.4301 21.5244 64.6301 16.7144 58.7001 16.7144C52.8001 16.7144 47.9601 21.5644 47.9601 27.4644C47.9601 33.3044 52.83 38.1744 58.67 38.1844C64.57 38.1944 69.4401 33.3545 69.4401 27.4545L69.4301 27.4644ZM46.28 23.7944C46.38 23.4644 46.1 23.2845 45.9 23.0745C44.68 21.7445 43.4301 20.4344 42.2301 19.0944C41.8801 18.7044 41.69 18.6544 41.3 19.0644C38.01 22.5044 34.7 25.9245 31.39 29.3345C31.03 29.7045 30.95 29.9045 31.4 30.2745C34.95 33.2745 38.49 36.2945 42.01 39.3245C42.41 39.6645 42.65 39.6545 43.03 39.3245C44.54 38.0145 46.0501 36.7144 47.6001 35.4644C48.0401 35.1044 47.9601 34.8644 47.7101 34.4644C46.2001 32.0744 45.57 29.4644 45.76 26.6544C45.82 25.6944 46.01 24.7644 46.28 23.7944ZM26.36 52.4344C26.3 52.6044 26.3101 52.8144 26.5601 52.9344C26.8501 53.0844 27.0201 52.8444 27.2001 52.6944C31.5801 48.9944 35.9601 45.2845 40.3501 41.5845C40.7001 41.2845 40.76 41.1144 40.37 40.7844C37.09 38.0244 33.8201 35.2345 30.5601 32.4545C30.1401 32.1045 29.9601 31.9944 29.8401 32.6944C29.2301 36.3244 28.56 39.9545 27.92 43.5845C27.4 46.5145 26.89 49.4444 26.37 52.4444L26.36 52.4344ZM49.77 48.8345C49.5 48.5845 49.31 48.4044 49.11 48.2344C47.13 46.5544 45.1401 44.8944 43.1901 43.1744C42.7001 42.7444 42.41 42.7344 41.92 43.1644C38.58 46.0244 35.21 48.8645 31.86 51.7045C30.89 52.5245 29.93 53.3344 28.91 54.1944C31.77 55.6044 34.62 55.8844 37.51 54.8444C41.79 53.3044 45.52 50.6245 49.78 48.8345H49.77ZM42.02 2.26445C38.58 2.26445 35.1301 2.26445 31.6901 2.26445C30.7101 2.26445 30.3701 2.58443 30.3501 3.49443C30.3401 4.01443 30.3501 4.53443 30.3501 5.05443C30.3501 6.14443 30.66 6.44441 31.78 6.46441C32.76 6.46441 33.7401 6.46441 34.7201 6.46441C40.1601 6.46441 45.6 6.46441 51.04 6.46441C52.78 6.46441 53.6467 5.58445 53.64 3.82445C53.64 2.54445 53.34 2.26445 52.03 2.26445C48.7 2.26445 45.36 2.26445 42.03 2.26445H42.02ZM56.41 46.1144C56.09 44.3144 55.75 42.3744 55.4 40.4444C55.35 40.1544 55.13 40.0744 54.88 40.0044C53 39.4244 51.32 38.4744 49.89 37.1144C49.57 36.8144 49.3701 36.8744 49.0701 37.1244C47.6201 38.3744 46.1601 39.6145 44.6901 40.8345C44.3201 41.1345 44.3101 41.3044 44.6901 41.6144C47.0301 43.5844 49.3501 45.5844 51.6801 47.5745C51.9301 47.7845 52.1401 47.8644 52.4801 47.7444C53.6301 47.3144 54.8 46.9544 56.01 46.7144C56.25 46.6644 56.52 46.6144 56.42 46.1244L56.41 46.1144ZM33.8501 10.0644C32.8801 15.5744 31.9301 20.9244 30.9801 26.2844C31.1001 26.2944 31.14 26.3144 31.15 26.2944C34.09 23.2844 37.0201 20.2645 39.9701 17.2645C40.3101 16.9145 40.0401 16.7544 39.8501 16.5444C38.5701 15.1644 37.29 13.7745 36 12.3945C35.32 11.6545 34.6401 10.9244 33.8401 10.0644H33.8501ZM50 10.0745C47.79 12.3545 45.6801 14.5444 43.5601 16.7244C43.3801 16.9044 43.4101 17.0345 43.5601 17.2045C44.8101 18.5545 46.0501 19.9144 47.3301 21.3044C48.2901 19.6644 49.44 18.3244 50.87 17.2444C51.11 17.0644 51.2401 16.8744 51.1801 16.5644C50.7901 14.4544 50.41 12.3445 50 10.0845V10.0745ZM35.75 8.72441C37.78 10.9244 39.66 12.9645 41.54 15.0145C41.94 15.4445 42.1 15.0345 42.3 14.8345C44.15 12.9445 45.9901 11.0344 47.8301 9.13445C47.9301 9.02445 48.12 8.94442 48.02 8.72441H35.75Z" fill="#F3EA70"/>
  <path d="M52.9402 29.8042C52.9302 28.8442 53.2202 27.9642 53.5902 27.1142C54.6602 24.6442 56.1502 22.4242 57.7202 20.2542C58.2602 19.5042 59.1301 19.4742 59.6501 20.2042C61.3201 22.5342 62.9101 24.9142 64.0201 27.5842C65.4401 31.0042 63.1301 34.2942 60.3901 35.1142C57.2201 36.0642 53.9201 34.1942 53.1101 30.9342C53.0201 30.5642 52.9902 30.1842 52.9302 29.8042H52.9402ZM58.7202 22.8442C57.6002 24.4442 56.6402 25.9942 55.8502 27.6442C55.6102 28.1542 55.4102 28.7042 55.2802 29.2642C55.0002 30.5042 55.6302 31.9042 56.7902 32.6442C58.0402 33.4442 59.3202 33.4442 60.5802 32.6642C61.7402 31.9442 62.4601 30.4942 62.1501 29.2942C61.5201 26.9042 60.1202 24.9142 58.7202 22.8342V22.8442Z" fill="#F3EA70"/>
</svg>