<svg xmlns="http://www.w3.org/2000/svg" width="407" height="65" viewBox="0 0 407 65" fill="none">
<path d="M148.891 63.4802C150.661 58.0802 152.351 52.9602 154.021 47.8402C158.951 32.7202 163.891 17.6102 168.771 2.48024C169.131 1.37024 169.621 1.01024 170.781 1.02024C177.381 1.08024 183.981 1.08024 190.581 1.02024C191.851 1.01024 192.421 1.34023 192.831 2.61023C199.241 22.1802 205.711 41.7402 212.161 61.2902C212.351 61.8802 212.581 62.4602 212.871 63.2702C213.301 62.4702 213.161 61.8302 213.161 61.2402C213.161 41.8902 213.181 22.5502 213.141 3.20025C213.141 1.72025 213.411 1.18024 215.041 1.22024C223.401 1.43024 231.781 0.890243 240.131 1.54024C248.191 2.18024 255.421 4.79024 260.851 11.1302C264.561 15.4602 266.341 20.6302 266.951 26.2002C267.651 32.5802 267.401 38.9202 265.321 45.0502C261.611 55.9802 253.641 61.9402 242.501 64.0502C239.601 64.6002 236.661 64.7702 233.701 64.7602C221.151 64.7402 208.591 64.7302 196.041 64.7802C194.811 64.7802 194.271 64.4802 193.991 63.2402C193.311 60.2202 192.431 57.2502 191.681 54.2502C191.451 53.3102 191.091 52.8502 189.981 52.8602C183.971 52.9202 177.961 52.9102 171.961 52.8602C170.961 52.8602 170.581 53.2002 170.341 54.1402C169.551 57.3002 168.631 60.4202 167.831 63.5802C167.611 64.4502 167.251 64.7702 166.311 64.7702C154.621 64.7402 142.921 64.7302 131.221 64.7702C130.241 64.7702 129.811 64.3403 129.371 63.6003C125.401 56.7603 121.401 49.9402 117.411 43.1102C116.691 41.8802 113.941 41.0702 112.691 41.7202C112.051 42.0503 112.311 42.6602 112.311 43.1502C112.291 49.7202 112.241 56.3002 112.341 62.8702C112.361 64.4502 111.931 64.8202 110.391 64.7802C105.731 64.6702 101.061 64.7102 96.391 64.7602C95.361 64.7702 95.001 64.5002 95.001 63.4302C95.031 43.1202 95.031 22.8102 95.001 2.50025C95.001 1.53025 95.301 1.21024 96.291 1.23024C104.601 1.38024 112.921 0.960238 121.221 1.52024C124.171 1.72024 127.071 2.25024 129.881 3.19024C138.001 5.91024 142.101 11.8602 141.911 20.4502C141.761 27.4802 138.391 32.6202 132.541 36.2602C131.431 36.9502 131.251 37.3502 132.031 38.5002C137.391 46.3602 142.671 54.2803 147.971 62.1903C148.211 62.5402 148.461 62.8802 148.871 63.4702L148.891 63.4802ZM230.451 32.8002C230.451 38.3002 230.471 43.8002 230.431 49.3002C230.431 50.3202 230.671 50.7502 231.771 50.6802C233.211 50.5802 234.661 50.6702 236.111 50.5902C242.241 50.2702 246.381 47.1502 248.141 41.2702C249.831 35.6202 249.851 29.8802 248.311 24.2002C246.921 19.1002 243.481 16.1002 238.211 15.4202C236.151 15.1502 234.031 15.3702 231.951 15.2402C230.721 15.1702 230.421 15.5802 230.431 16.7702C230.491 22.1102 230.461 27.4502 230.461 32.7902L230.451 32.8002ZM181.011 12.5402C180.831 12.7902 180.681 12.9002 180.661 13.0402C178.991 21.3602 176.711 29.5402 174.561 37.7502C174.301 38.7402 174.671 38.8202 175.461 38.8102C179.161 38.7902 182.861 38.7802 186.561 38.8102C187.431 38.8102 187.681 38.6102 187.441 37.7102C185.241 29.3802 182.921 21.0702 181.011 12.5402ZM115.551 14.3702C114.661 14.3702 113.961 14.3902 113.271 14.3702C112.611 14.3402 112.301 14.5502 112.311 15.2702C112.331 19.4902 112.321 23.7002 112.321 27.9202C112.321 28.3702 112.341 28.8002 112.961 28.8002C115.851 28.8202 118.771 28.9803 121.391 27.4103C123.701 26.0303 124.951 22.7502 124.401 19.6502C123.941 17.0302 122.241 15.3702 119.351 14.7402C118.041 14.4502 116.711 14.3002 115.561 14.3902L115.551 14.3702Z" fill="#515151"/>
<path d="M327.661 63.0302V61.2802C327.661 41.8802 327.682 22.4902 327.632 3.09019C327.632 1.61019 328.022 1.21018 329.492 1.24018C337.582 1.42018 345.681 0.990189 353.771 1.53019C356.941 1.74019 360.031 2.34019 363.031 3.39019C372.031 6.56019 375.321 13.6902 374.441 22.4202C373.811 28.6302 370.371 33.0902 365.171 36.2802C363.971 37.0202 364.002 37.4802 364.732 38.5502C370.292 46.7302 375.781 54.9502 381.291 63.1602C381.581 63.5902 381.842 64.0402 382.122 64.5002C381.572 64.9302 381.021 64.7402 380.521 64.7402C375.101 64.7602 369.691 64.7102 364.271 64.7802C363.081 64.8002 362.481 64.3802 361.901 63.3802C357.951 56.5302 353.941 49.7202 349.941 42.9002C349.351 41.8902 346.181 41.0802 345.271 41.7402C344.751 42.1202 345.002 42.7302 345.002 43.2402C344.982 49.8702 344.951 56.4902 345.021 63.1202C345.041 64.4702 344.661 64.7902 343.331 64.7802C332.391 64.7202 321.452 64.7302 310.502 64.7802C309.362 64.7802 308.821 64.5202 308.551 63.3202C307.831 60.2002 306.892 57.1402 306.132 54.0302C305.902 53.1002 305.482 52.8702 304.592 52.8702C298.532 52.9002 292.471 52.9102 286.411 52.8702C285.461 52.8702 285.111 53.2202 284.891 54.0602C284.071 57.2102 283.162 60.3402 282.382 63.4902C282.142 64.4302 281.781 64.7902 280.771 64.7802C275.351 64.7302 269.941 64.7302 264.521 64.7802C263.341 64.7802 263.062 64.5802 263.472 63.3502C268.742 47.3402 273.951 31.3002 279.171 15.2802C280.581 10.9702 282.042 6.67019 283.362 2.34019C283.712 1.21019 284.301 1.03019 285.331 1.03019C291.981 1.07019 298.631 1.08018 305.281 1.02018C306.551 1.01018 307.002 1.47018 307.372 2.61018C313.822 22.2802 320.331 41.9302 326.821 61.5902C326.981 62.0802 327.172 62.5702 327.342 63.0602C327.452 63.0602 327.551 63.0402 327.661 63.0302ZM295.252 12.9002C294.712 15.2802 294.232 17.6702 293.632 20.0302C292.162 25.8702 290.651 31.7102 289.151 37.5402C288.981 38.1802 288.661 38.8002 289.811 38.8002C293.671 38.7802 297.531 38.7802 301.391 38.8002C302.061 38.8002 302.181 38.5702 302.021 37.9302C299.851 29.5902 297.502 21.2902 295.262 12.9002H295.252ZM344.982 21.4302C344.982 23.5102 345.002 25.5902 344.972 27.6802C344.962 28.4402 345.072 28.8602 346.002 28.8302C347.772 28.7802 349.541 28.8302 351.281 28.4802C354.971 27.7402 357.031 25.1902 357.161 21.1602C357.271 17.9302 355.591 15.7102 352.391 14.8302C350.181 14.2202 347.931 14.4002 345.681 14.3802C344.791 14.3802 345.002 15.0202 344.992 15.5102C344.972 17.4902 344.992 19.4602 344.992 21.4402L344.982 21.4302Z" fill="#515151"/>
<path d="M0.821064 42.0199C0.821064 34.8599 0.841045 27.6999 0.801045 20.5399C0.801045 19.4299 1.0811 19.0799 2.2311 19.1099C6.8911 19.2099 11.5611 19.2599 16.2211 19.1999C17.6111 19.1799 18.0311 19.4999 18.0211 20.9499C17.9511 30.2999 18.0211 39.6499 17.9511 48.9999C17.9511 50.3299 18.3011 50.7799 19.6411 50.6899C21.5611 50.5599 23.4911 50.6899 25.4111 50.3899C30.8711 49.5299 34.321 46.3899 35.801 41.1799C37.361 35.6799 37.461 30.0899 35.991 24.5599C34.401 18.5999 30.2511 15.4499 24.0711 15.2799C24.0211 15.2799 23.9611 15.2799 23.9111 15.2799C22.4811 15.1599 20.5511 15.9199 19.7611 14.9499C19.0211 14.0499 19.4211 12.1999 19.3911 10.7699C19.3311 7.98994 19.3111 5.21993 19.2711 2.43993C19.2711 1.81993 19.2711 1.27994 20.1511 1.26994C27.3411 1.20994 34.4211 1.73994 40.9411 5.15994C47.5211 8.61994 51.7311 14.03 53.5711 21.16C55.6411 29.2 55.501 37.2799 52.861 45.1699C49.221 56.0499 41.2211 61.9399 30.1511 64.0599C27.0311 64.6599 23.8811 64.7899 20.7111 64.7799C14.6011 64.7499 8.48105 64.7299 2.37105 64.7999C1.06105 64.8199 0.791045 64.3899 0.801045 63.1799C0.851045 56.1299 0.831074 49.0699 0.831074 42.0199H0.821064Z" fill="#515151"/>
<path d="M75.0106 41.7903C72.0606 41.7903 69.1206 41.7603 66.1706 41.8103C65.1906 41.8303 64.7306 41.6303 64.7506 40.5003C64.8206 36.9803 64.8006 33.4603 64.7506 29.9303C64.7406 28.9903 64.9806 28.6103 66.0006 28.6203C72.0006 28.6603 78.0006 28.6603 84.0006 28.6203C85.0406 28.6203 85.2407 29.0003 85.2207 29.9303C85.1707 33.4503 85.1507 36.9803 85.2207 40.5003C85.2507 41.6303 84.8006 41.8203 83.8306 41.8103C80.8806 41.7703 77.9406 41.7903 74.9906 41.7903H75.0106Z" fill="#515151"/>
<path d="M382.601 12.3C382.591 5.53005 387.801 0.310059 394.561 0.310059C401.221 0.310059 406.471 5.54005 406.491 12.19C406.511 18.94 401.271 24.1601 394.511 24.1501C387.771 24.1401 382.611 19 382.601 12.3ZM394.521 21.48C399.681 21.49 403.831 17.3901 403.841 12.2601C403.841 7.16006 399.691 3.01005 394.541 2.99005C389.411 2.97005 385.231 7.13005 385.221 12.2401C385.221 17.3901 389.311 21.47 394.511 21.48H394.521Z" fill="#515151"/>
<path d="M9.13113 15.37C5.22113 15.34 2.15116 12.22 2.16116 8.31003C2.17116 4.45003 5.36115 1.27002 9.21114 1.27002C13.1211 1.27002 16.3311 4.55002 16.2711 8.46002C16.2111 12.35 13.0511 15.4 9.13113 15.37Z" fill="#515151"/>
<path d="M399.291 15.1303C399.341 15.2403 399.371 15.2903 399.381 15.3403C399.721 18.8903 399.381 19.3103 395.841 19.7103C391.591 20.1903 388.531 17.7503 388.071 13.5303C387.971 12.6203 387.981 11.7303 388.071 10.8203C388.471 7.13026 390.831 4.95025 394.541 4.80025C395.571 4.76025 396.571 4.90025 397.561 5.13025C400.221 5.74025 400.221 5.86025 399.131 8.30025C398.711 9.25025 398.291 9.24026 397.441 8.93026C395.331 8.17026 394.001 8.42025 393.191 9.55025C392.331 10.7603 392.321 13.9203 393.181 15.0603C393.701 15.7603 394.431 15.9903 395.281 16.0203C396.701 16.0803 397.991 15.5703 399.291 15.1203V15.1303Z" fill="#515151"/>
</svg>