<svg width="36" height="37" viewBox="0 0 36 37" fill="none" xmlns="http://www.w3.org/2000/svg">
<path d="M6.3902 13.109C6.3902 10.4848 6.3602 7.93415 6.3902 5.38345C6.4202 3.42056 7.33021 1.99301 9.03021 1.18476C9.56021 0.932841 10.1802 0.796389 10.7602 0.796389C14.7802 0.764899 18.8002 0.775386 22.8202 0.785882C23.9702 0.785882 24.9902 1.20577 25.8002 2.05601C27.7402 4.06088 29.6602 6.0867 31.5702 8.11257C32.4002 8.99429 32.7902 10.0965 32.8002 11.3351C32.8002 13.0355 32.8002 14.7361 32.8002 16.4365C34.2202 17.0453 35.1902 18.074 35.5802 19.6275C35.6802 20.0369 35.7302 20.4777 35.7302 20.9081C35.7402 24.4245 35.7402 27.9409 35.7302 31.4573C35.7302 34.2285 33.8202 36.2228 31.1802 36.2228C22.4602 36.2228 13.7502 36.2228 5.03021 36.2228C2.40021 36.2228 0.490234 34.218 0.490234 31.4573C0.490234 26.9332 0.490234 22.4091 0.490234 17.885C0.490234 15.1139 2.40021 13.13 5.03021 13.1195C5.46021 13.1195 5.88023 13.1195 6.36023 13.1195L6.3902 13.109ZM6.3902 16.1951C5.9202 16.1951 5.52019 16.1951 5.13019 16.1951C4.03019 16.1951 3.46021 16.7934 3.46021 17.9481C3.46021 22.4301 3.46021 26.9017 3.46021 31.3838C3.46021 32.5595 4.03022 33.1578 5.16022 33.1578C13.8202 33.1578 22.4702 33.1578 31.1302 33.1578C32.2602 33.1578 32.8302 32.57 32.8302 31.3838C32.8302 27.9514 32.8302 24.519 32.8302 21.0761C32.8302 19.8689 32.2602 19.2811 31.1102 19.2811C25.9702 19.2811 20.8302 19.2811 15.6902 19.2811C14.9002 19.2811 14.3702 19.5855 13.9602 20.2888C12.3802 23.0179 10.7802 25.7261 9.19019 28.4448C8.78019 29.148 8.14023 29.4419 7.49023 29.2425C6.79023 29.0325 6.41022 28.4552 6.41022 27.605C6.41022 23.9941 6.41022 20.3832 6.41022 16.7724C6.41022 16.6044 6.41022 16.426 6.41022 16.2056L6.3902 16.1951ZM29.8802 16.1951C29.8802 14.6205 29.8702 13.0986 29.8802 11.5765C29.8802 10.9572 29.7002 10.4639 29.2802 10.0335C27.5202 8.20706 25.7702 6.37012 24.0202 4.5122C23.5902 4.06085 23.1202 3.85091 22.5102 3.85091C18.6902 3.8614 14.8602 3.85091 11.0402 3.85091C9.86022 3.85091 9.31018 4.42822 9.31018 5.68783C9.31018 11.0202 9.31018 16.342 9.31018 21.6744V22.1257C10.1002 20.9501 10.8002 19.7639 11.5002 18.5568C12.4302 16.9508 13.7902 16.1741 15.5802 16.1741C19.8202 16.1741 24.0502 16.1741 28.2902 16.1741H29.8702L29.8802 16.1951Z" fill="#4680AE"/>
<path d="M19.6106 11.5663C17.6506 11.5663 15.7006 11.5663 13.7406 11.5663C12.9706 11.5663 12.3506 10.9679 12.2706 10.1912C12.1906 9.42493 12.6606 8.72163 13.3906 8.53269C13.5506 8.4907 13.7206 8.49072 13.8906 8.49072C17.7006 8.49072 21.5105 8.49072 25.3105 8.49072C26.2805 8.49072 26.9506 9.13099 26.9506 10.0337C26.9506 10.9364 26.2805 11.5663 25.3105 11.5663C23.4105 11.5663 21.5205 11.5663 19.6205 11.5663H19.6106Z" fill="#4680AE"/>
</svg>
