<svg xmlns="http://www.w3.org/2000/svg" width="33" height="41" viewBox="0 0 33 41" fill="none">
  <path d="M8.18553 0.374732C8.57287 0.374732 8.9602 0.374732 9.34755 0.374732C9.4313 0.395789 9.51505 0.427372 9.60926 0.437901C11.1377 0.585299 12.4987 1.14334 13.734 2.04879C18.8951 5.84957 24.0666 9.6398 29.2067 13.4722C33.9595 17.0097 33.9492 23.5795 29.1859 27.1066C24.0562 30.9073 18.916 34.6976 13.7653 38.4773C8.82408 42.1096 2.12412 39.6354 0.721306 33.6763C0.574743 33.0657 0.522461 32.455 0.522461 31.8233C0.522461 24.127 0.522461 16.4307 0.522461 8.73435C0.522461 4.95462 2.89881 1.78555 6.47912 0.701113C7.03396 0.532657 7.60974 0.4906 8.17505 0.364258L8.18553 0.374732Z" fill="#7A7A7A"/>
</svg>