<svg width="321" height="64" viewBox="0 0 321 64" fill="none" xmlns="http://www.w3.org/2000/svg">
<path d="M44.6803 27.1603C42.7803 29.5303 41.6803 31.9203 39.8203 33.0203C34.8503 35.9803 36.1503 38.8303 38.9003 42.5203C42.7903 47.7203 46.2703 53.2203 49.8603 58.6303C50.5503 59.6703 51.9603 60.7003 51.2003 62.1203C50.5603 63.3203 49.0903 62.6103 47.9903 62.8103C38.0103 64.5903 30.6303 61.8703 27.1203 51.4503C26.0803 48.3603 23.7903 45.7003 22.1503 42.8003C21.4103 41.4803 20.4503 40.8403 18.9203 41.0303C16.9103 41.2803 17.3003 42.8503 17.2903 44.0903C17.2403 49.0903 17.1503 54.0903 17.2903 59.0803C17.3703 61.9103 16.2503 62.7303 13.4903 62.8503C0.860281 63.4003 0.870286 63.4803 0.870286 50.8803C0.870286 36.3803 0.950289 21.8903 0.810289 7.3903C0.780289 4.0103 1.68029 2.56031 5.30029 2.77031C13.1003 3.24031 20.9503 2.16031 28.7403 3.56031C39.5703 5.50031 43.7003 9.6203 45.3703 20.3303C45.6503 20.1703 46.0603 20.0803 46.1703 19.8403C54.1903 3.17031 71.4703 -3.0097 88.4103 4.7603C89.4703 5.2403 90.5103 5.7703 91.5003 6.3903C101.26 12.4403 105.45 27.0703 102.01 43.0503C99.5903 54.3203 91.6903 61.4803 79.9403 63.0803C57.6703 66.1103 44.5403 54.6603 44.6503 32.2803C44.6503 30.7803 44.6503 29.2903 44.6503 27.1403L44.6803 27.1603ZM85.7803 33.1303C85.8703 29.3503 85.5103 25.8803 84.2303 22.5803C82.4103 17.8803 78.8503 15.4103 73.8803 15.4303C69.1403 15.4503 65.5803 17.7003 63.8403 22.2503C61.2503 29.0303 61.2003 35.9403 63.6703 42.7203C65.5803 47.9603 69.1603 49.9103 74.9903 49.6803C80.2803 49.4803 83.1403 46.3003 84.6503 41.7203C85.5803 38.8903 85.9803 35.8803 85.7803 33.1203V33.1303ZM17.0203 22.1103C18.5603 24.1503 14.7003 28.6603 20.3703 28.6803C25.1903 28.7003 28.4003 25.9703 28.4803 21.8003C28.5603 17.8003 25.7303 15.4003 20.7903 15.2303C14.8103 15.0303 18.3703 19.7303 17.0203 22.1003V22.1103Z" fill="black"/>
<path d="M169.291 26.2101C173.321 20.3401 177.601 14.6301 181.291 8.55008C183.901 4.25008 186.971 1.92009 192.141 2.81009C195.471 3.38009 200.341 1.18008 201.821 3.92008C203.051 6.19008 198.781 9.2801 196.961 12.0001C193.641 16.9901 190.211 21.9201 186.601 26.6901C184.931 28.9001 184.941 30.6201 186.311 32.9701C191.261 41.4501 195.951 50.0901 200.871 58.5901C202.711 61.7701 202.211 62.7901 198.391 62.8701C184.661 63.1501 184.671 63.2501 178.311 50.8601C177.021 48.3401 175.701 45.8301 174.311 43.3801C173.641 42.2101 173.451 40.1401 171.261 41.0001C169.521 41.6901 168.081 42.6601 168.131 44.9701C168.231 49.6301 168.051 54.3001 168.191 58.9601C168.271 61.6501 167.461 62.7301 164.551 62.8801C151.601 63.5201 151.601 63.6101 151.601 50.7201C151.601 37.6101 151.601 24.4901 151.601 11.3301C150.891 11.4101 150.431 11.3401 150.331 11.5001C148.951 13.7501 149.031 17.2701 146.701 18.3601C144.321 19.4701 141.841 16.9301 139.311 16.2701C129.681 13.7401 123.721 17.4501 121.871 27.2101C121.711 28.0301 121.551 28.8501 121.451 29.6701C119.381 46.5401 128.171 53.6801 144.191 48.1601C147.671 46.9601 149.421 48.2967 149.441 52.1701C149.491 61.2801 149.171 61.6201 139.911 62.9801C135.271 63.6601 130.641 63.8601 125.991 63.0401C116.101 61.2901 109.311 55.8901 106.221 46.2101C103.901 38.9301 103.441 31.5101 105.221 24.0401C109.331 6.78008 125.061 -1.62991 143.761 3.31009C146.901 4.14009 149.511 5.75007 153.501 3.32007C156.651 1.39007 161.931 2.78009 166.251 2.99009C168.761 3.11009 168.091 5.37008 168.111 6.89008C168.181 13.1801 168.141 19.4801 168.141 25.7801C168.521 25.9301 168.901 26.0801 169.291 26.2401V26.2101Z" fill="black"/>
<path d="M237.731 40.7104C237.731 34.7104 237.821 28.7103 237.691 22.7203C237.631 19.8903 238.801 19.0403 241.531 18.9103C254.451 18.3103 254.451 18.2403 254.451 31.1803C254.451 36.0103 254.561 40.8503 254.421 45.6703C254.341 48.6103 255.681 49.3703 258.371 49.2703C266.131 48.9903 270.761 44.9903 271.931 37.3203C272.431 34.0103 272.521 30.6903 272.081 27.3603C271.091 19.8803 267.691 15.9203 260.321 15.5403C255.961 15.3103 255.651 13.4204 255.641 10.0304C255.611 1.04036 255.731 0.840334 264.781 2.07033C281.591 4.35033 290.441 15.0403 289.871 32.3903C289.271 50.4503 279.031 61.7703 261.981 62.8003C255.171 63.2103 248.321 62.8403 241.491 62.9903C238.691 63.0504 237.641 61.9703 237.691 59.1903C237.811 53.0303 237.731 46.8603 237.731 40.7003V40.7104Z" fill="black"/>
<path d="M218.371 27.9404C218.701 27.9404 219.031 27.9404 219.361 27.9404C228.391 27.9404 229.611 29.5204 228.061 38.5704C227.711 40.6204 226.641 40.9005 225.021 40.9005C220.381 40.9005 215.741 40.8604 211.111 40.9104C209.061 40.9304 207.981 40.1304 208.061 38.0104C208.061 37.8404 208.061 37.6804 208.051 37.5104C207.517 31.1304 210.957 27.9404 218.371 27.9404Z" fill="black"/>
<path d="M308.571 0.910212C315.101 0.930212 320.241 6.22024 320.091 12.7802C319.951 19.1002 314.841 24.0402 308.481 24.0302C302.181 24.0102 297.011 18.9502 296.911 12.7002C296.811 6.24022 302.101 0.890212 308.571 0.910212ZM311.511 20.1902C316.531 17.9502 318.451 13.6802 316.501 9.07022C314.751 4.94022 309.381 2.69021 305.311 4.38021C301.061 6.14021 298.841 11.1902 300.411 15.5202C302.061 20.0702 306.231 21.7602 311.661 20.0702L311.511 20.1902Z" fill="black"/>
<path d="M246.211 1.87012C249.951 2.00012 253.131 5.36011 252.791 9.11011C252.421 13.1701 250.021 15.3401 245.931 15.4001C241.941 15.4601 238.921 12.4001 239.041 8.58011C239.161 4.87011 242.511 1.74012 246.221 1.87012H246.211Z" fill="black"/>
<path d="M311.671 20.0602C303.971 19.2902 301.321 16.7702 302.181 11.0702C302.881 6.45016 307.931 3.79018 312.111 5.81018C312.931 6.20018 313.591 6.65017 313.381 7.64017C313.161 8.68017 312.661 9.57018 311.351 9.28018C308.391 8.61018 306.871 9.61016 306.951 12.7902C307.031 16.0802 309.361 15.2902 311.451 15.8302C315.051 16.7502 312.831 18.6502 311.531 20.1702C311.521 20.1702 311.671 20.0602 311.671 20.0602Z" fill="black"/>
</svg>
