<svg xmlns="http://www.w3.org/2000/svg" width="432" height="74" viewBox="0 0 432 74" fill="none">
<path d="M175.63 36.6702C175.63 27.4702 175.77 18.2603 175.58 9.06026C175.47 3.47026 177.71 0.920239 183.44 1.10024C190.59 1.32024 197.82 1.74026 204.9 1.00026C214.13 0.040264 220.99 4.30024 223.9 11.7302C226.75 19.0102 227.94 28.1103 222.13 35.0003C217.87 40.0403 218.05 43.1903 222.34 47.9403C228 54.2003 224.92 62.2202 224.97 69.5302C224.98 71.4302 223.31 72.4903 221.44 72.5103C219.03 72.5403 217.63 71.1303 217.48 68.7603C217.22 64.6803 217.21 60.5903 216.94 56.5103C216.34 47.6503 211.54 42.9203 202.68 42.4303C199.96 42.2803 197.2 42.6303 194.5 42.3303C185.63 41.3203 181.82 45.0803 182.62 54.0003C182.98 58.0603 182.73 62.1803 182.58 66.2703C182.48 68.9303 182.68 72.4003 178.67 72.0203C175.59 71.7303 175.71 68.6902 175.7 66.3402C175.64 56.4502 175.68 46.5703 175.65 36.6803L175.63 36.6702ZM200.04 9.63027C196.3 9.63027 192.55 9.61027 188.81 9.63027C185.67 9.65027 183.98 11.1903 183.05 14.2703C178.58 28.9903 183.44 35.9202 198.45 35.9202C201.51 35.9202 204.58 35.8803 207.64 35.8903C214 35.9103 216.57 32.6902 216.92 26.4102C217.82 10.6602 216.86 9.53026 200.04 9.62026V9.63027Z" fill="#515151"/>
<path d="M353.98 36.7302C353.98 27.2002 353.95 17.6602 353.99 8.13022C354 5.00022 354.03 1.4502 358.41 1.6102C362.05 1.7402 362.2 4.88022 362.28 7.69022C362.31 8.71022 362.2 9.75021 362.32 10.7502C363.22 18.0302 358.65 28.3202 364.72 32.0102C372.86 36.9702 383.92 33.6702 393.72 33.5402C398.35 33.4802 398.72 29.6802 398.77 26.1402C398.87 19.6702 398.82 13.2002 398.93 6.73019C398.97 4.23019 399.44 1.6402 402.75 1.9202C405.2 2.1302 406.01 4.34021 406.02 6.43021C406.08 26.8602 406.07 47.2802 405.98 67.7102C405.98 69.8102 405.07 71.9602 402.56 72.0502C399.21 72.1702 398.97 69.4702 398.93 67.0502C398.8 60.5802 398.74 54.1102 398.79 47.6402C398.83 42.5702 396.58 40.0002 391.39 40.2502C391.05 40.2702 390.71 40.2502 390.37 40.2202C372.67 39.0602 363.313 47.1735 362.3 64.5602C362.11 67.8902 362.72 72.3602 357.9 72.2502C352.92 72.1402 354.06 67.5002 354.01 64.3102C353.88 55.1202 353.96 45.9202 353.97 36.7302H353.98Z" fill="#515151"/>
<path d="M26.7099 1.15046C32.7999 0.560464 40.1799 0.530454 45.2499 7.89045C47.0899 10.5605 49.1899 13.5204 46.5499 16.0604C42.8799 19.5904 41.8299 15.3304 39.9499 13.0704C37.0599 9.59045 17.5498 7.84044 12.7298 10.3704C7.36984 13.1804 8.40984 18.2904 8.34984 22.9704C8.25984 29.7404 12.0899 32.8904 18.4099 33.2804C23.1599 33.5704 27.9399 33.6204 32.6899 33.4404C41.3799 33.1004 47.3299 36.7904 49.0699 45.3504C51.5299 57.4504 46.4999 68.9804 38.0599 72.2504C29.3799 75.6104 9.58993 72.4405 4.56993 66.7005C2.24993 64.0505 -2.11011 60.9504 1.90989 57.4104C5.48989 54.2704 7.11985 58.9604 9.61985 61.0704C17.8499 68.0004 27.8599 64.9104 36.8299 63.5404C43.1799 62.5704 42.8598 55.4104 42.6098 49.8704C42.2998 42.9404 38.4199 39.2904 31.6699 38.8804C26.5799 38.5704 21.4699 38.8404 16.3699 38.6704C5.49986 38.3004 1.2899 33.5104 1.1699 21.6004C1.0499 9.08041 6.22984 1.86045 15.9798 1.20045C19.0298 1.00045 22.0999 1.17042 26.7099 1.17042V1.15046Z" fill="#515151"/>
<path d="M138.289 70.1404C137.939 70.7004 137.53 72.0704 136.95 72.1504C135.75 72.3004 133.85 72.1803 133.33 71.4203C131.63 68.9403 130.14 66.2203 129.08 63.4103C125.55 54.0303 104.609 48.1103 96.9095 54.8003C92.9995 58.2003 92.4495 63.7904 90.5895 68.4604C89.4295 71.3804 88.0095 73.6303 84.7695 72.4203C81.1995 71.0903 83.5995 68.2904 84.2595 66.3804C90.8595 47.1404 97.5394 27.9204 104.379 8.76037C105.459 5.72037 106.179 1.76037 110.489 1.45037C115.129 1.12037 115.699 5.22035 116.799 8.24035C123.609 27.0704 130.29 45.9504 136.96 64.8204C137.52 66.4104 137.789 68.1104 138.289 70.1404ZM110.81 47.8003C123.14 47.7903 123.989 46.6504 120.049 34.9604C118.309 29.8104 116.389 24.7203 114.529 19.6103C113.819 17.6603 112.869 15.3703 110.669 15.3403C108.389 15.3103 107.699 17.7504 107.039 19.6504C105.259 24.7804 103.56 29.9304 101.83 35.0704C97.8795 46.8004 98.5995 47.8103 110.82 47.8003H110.81Z" fill="#515151"/>
<path d="M316.67 67.4505C317.06 70.0905 317 71.9705 314.82 72.2405C313.7 72.3805 312.06 71.7205 311.34 70.8505C310.29 69.6005 309.45 67.8905 309.21 66.2705C307.44 54.6305 300.13 52.4505 289.48 52.5205C279.34 52.5805 272.32 54.3305 270.34 65.5805C269.84 68.4305 268.75 73.7005 264.27 71.9705C259.49 70.1305 263.37 65.7705 264.25 63.1705C270.54 44.5005 277.35 26.0005 283.89 7.42049C284.81 4.80049 285.28 2.01053 288.6 1.46053C291.37 1.01053 293.41 2.46048 294.27 4.84048C301.91 25.9405 309.42 47.1005 316.69 67.4505H316.67ZM291.11 47.8005C293.88 46.0605 302.83 50.8905 300.67 40.8105C299.05 33.2305 295.6 26.0405 292.88 18.7105C292.32 17.1905 291.75 15.3705 289.51 15.5205C287.43 15.6605 286.71 17.3305 286.14 18.8905C284.18 24.3205 282.28 29.7705 280.5 35.2705C276.64 47.2105 277.13 47.8305 291.1 47.8005H291.11Z" fill="#515151"/>
<path d="M159.5 67.2904C159.05 69.5804 158.18 72.0604 155.49 72.1304C152.57 72.2104 150.39 70.0804 150.11 67.2504C149.77 63.8904 152.42 62.6405 155.29 62.6505C158 62.6605 159.4 64.4504 159.5 67.2804V67.2904Z" fill="#515151"/>
<path d="M334.4 72.2102C331.31 72.3002 330.2 70.0702 329.78 67.8102C329.19 64.6502 330.86 62.6202 334.17 62.6502C336.69 62.6702 338.97 63.9702 339.11 66.6202C339.27 69.6102 337.05 71.2802 334.4 72.2002V72.2102Z" fill="#515151"/>
<path d="M71.6499 66.7704C71.3099 69.3304 70.0799 71.6104 67.4899 71.8704C64.3699 72.1804 62.2999 69.9704 62.0999 66.9904C61.9099 64.1504 64.2099 62.8804 66.7799 62.6604C69.5999 62.4204 71.1599 64.0204 71.6499 66.7704Z" fill="#515151"/>
<path d="M249.96 67.4803C249.79 70.1103 248.55 72.1303 245.79 71.8703C243.24 71.6303 241.81 69.5304 241.72 67.0104C241.63 64.2804 243.26 62.6104 245.99 62.7504C248.74 62.8904 249.91 64.8203 249.96 67.4803Z" fill="#515151"/>
<path d="M431.81 66.9504C431.5 69.5504 430.15 71.7104 427.5 71.7604C424.69 71.8104 423.46 69.4903 423.47 66.8703C423.47 64.6103 424.75 62.9604 427.11 62.7504C429.99 62.5004 431.43 64.1604 431.81 66.9504Z" fill="#515151"/>
</svg>