<svg xmlns="http://www.w3.org/2000/svg" width="97" height="99" viewBox="0 0 97 99" fill="none">
  <path d="M21.0699 98.7607C21.4799 95.9707 21.86 93.1806 22.3 90.3906C23.45 83.0306 24.63 75.6806 25.79 68.3306C26.95 61.0106 28.11 53.6907 29.27 46.3607C29.9 42.4007 30.52 38.4406 31.16 34.4006C30.34 34.3706 29.57 34.3307 28.7 34.3007V27.2906C24.28 28.1706 19.99 29.0306 15.7 29.8906C14.17 30.2006 12.64 30.5106 11.11 30.7906C10.49 30.9007 10.1801 31.1007 10.1801 31.7307C10.1801 43.6407 10.16 55.5506 10.14 67.4606C10.14 67.6806 10.19 67.9006 10.23 68.1506C10.74 68.1806 11.22 68.2107 11.76 68.2507V82.1807C9.62001 81.9707 7.59 82.0306 6.5 84.1406C9.4 86.2006 9.56005 88.4407 6.30005 90.6707C8.23005 92.0807 9.50994 93.6106 8.05994 95.7106C7.01994 97.2206 5.62002 97.6107 3.15002 97.1907C3.06002 95.7307 4.35997 94.9507 5.33997 94.0507C1.92997 90.8107 2.64998 89.7206 5.34998 87.2906C3.54998 85.9606 2.26997 84.4507 3.71997 82.1707H0V68.2206C0.49 68.2006 0.920039 68.1806 1.54004 68.1506C1.54004 67.7406 1.54004 67.3407 1.54004 66.9407C1.56004 51.2207 1.56998 35.5006 1.59998 19.7806C1.59998 19.2406 1.61996 18.6906 1.70996 18.1506C2.00996 16.4106 3.76998 15.1306 5.84998 15.1006C7.91998 15.0706 9.72996 16.3107 10.08 18.0507C10.19 18.5807 10.2 19.1307 10.21 19.6707C10.23 20.8807 10.21 22.0906 10.21 23.4106C13.21 22.8206 16.0799 22.2507 18.9399 21.6807C24.3299 20.6007 29.71 19.5107 35.1 18.4507C35.78 18.3207 36.09 18.0407 36.29 17.5007C38.69 10.9007 48.26 9.02064 53.74 14.0906C54.14 14.4606 54.4499 14.5906 55.0699 14.4706C62.3099 13.0106 69.5599 11.5806 76.8099 10.1406C76.9499 10.1106 77.08 10.0407 77.34 9.95068C76.79 7.88068 76.23 5.81068 75.64 3.63068C80.99 2.55068 86.29 1.49063 91.72 0.390625C93.47 7.03062 95.21 13.6307 96.99 20.3607C95.39 20.6907 93.8 20.9906 92.23 21.3406C90.37 21.7606 90.5599 21.3106 90.5599 23.1006C90.5599 27.7406 90.56 32.3906 90.54 37.0306C90.54 37.6806 90.72 38.0207 91.47 38.3207C93.72 39.2307 94.95 40.8106 94.98 42.9606C95.01 45.1506 93.8 46.7806 91.51 47.7206C90.73 48.0406 90.53 48.3906 90.54 49.0906C90.56 64.7106 90.5599 80.3406 90.5599 95.9706V97.2607H87.1899V96.0107C87.1899 80.4207 87.19 64.8206 87.21 49.2307C87.21 48.4307 86.97 48.0206 86.09 47.6406C83.89 46.7106 82.7801 45.0907 82.8 42.9807C82.82 40.8707 83.9799 39.2807 86.1899 38.3807C87.0399 38.0407 87.21 37.6507 87.2 36.9407C87.17 32.4907 87.1801 28.0406 87.1801 23.5906V22.3807C85.0201 22.8007 83.01 23.1906 80.89 23.6006C80.35 21.4806 79.82 19.4006 79.27 17.2106C77.3 17.5906 75.42 17.9506 73.54 18.3306C68.15 19.4006 62.77 20.4907 57.37 21.5406C56.54 21.7006 56.17 22.0206 55.88 22.7106C55.42 23.8006 54.7001 24.8207 54.05 25.9407H63.48V34.3506H61.09C61.49 36.9206 61.87 39.3806 62.26 41.8406C63.43 49.2306 64.6 56.6107 65.77 64.0007C67.01 71.8007 68.25 79.5906 69.49 87.3906C70.05 90.9106 70.6 94.4307 71.16 97.9507C71.2 98.2307 71.31 98.5106 71.38 98.7806H21.05L21.0699 98.7607ZM62.67 95.8406C62.69 95.7806 62.71 95.7307 62.74 95.6707C57.35 92.9807 51.9699 90.2907 46.5599 87.6307C46.2899 87.5007 45.71 87.6306 45.39 87.7906C40.31 90.3007 35.2401 92.8307 30.1801 95.3506C29.9501 95.4606 29.7601 95.6206 29.4301 95.8306H62.6801L62.67 95.8406ZM83.54 20.1406C86.77 19.4906 89.87 18.8607 92.99 18.2307C91.71 13.3707 90.46 8.65067 89.2 3.87067C85.96 4.52067 82.86 5.15064 79.72 5.78064C81 10.6006 82.26 15.3206 83.54 20.1406ZM64.64 78.1707C59.56 80.7007 54.59 83.1907 49.48 85.7307C55.45 88.7107 61.23 91.5906 67.24 94.5806C66.35 88.9706 65.5 83.6307 64.64 78.1707ZM42.79 85.7307C37.66 83.1707 32.69 80.7007 27.62 78.1707C26.75 83.6907 25.9 89.0406 25.02 94.5806C31.03 91.5906 36.82 88.7006 42.79 85.7206V85.7307ZM31.8199 74.3107H60.4301C55.6301 71.4707 51.07 68.7607 46.48 66.0707C46.29 65.9607 45.83 66.0306 45.61 66.1606C41.08 68.8206 36.5599 71.5007 31.8199 74.3107ZM30.99 56.8707C30.14 62.2407 29.33 67.4007 28.47 72.7906C33.49 69.8206 38.28 66.9806 43.16 64.0906C39.05 61.6606 35.1 59.3107 30.98 56.8807L30.99 56.8707ZM63.79 72.7906C62.93 67.3707 62.11 62.1907 61.26 56.8707C57.13 59.3207 53.15 61.6706 49.09 64.0806C53.98 66.9706 58.76 69.8106 63.79 72.7906ZM57.9301 52.8607C53.8501 49.8807 50.02 47.0907 46.14 44.2607C42.24 47.1007 38.4 49.9007 34.35 52.8607H57.9399H57.9301ZM6.78003 68.1506C6.78003 67.6906 6.78003 67.2907 6.78003 66.8807C6.80003 51.1607 6.81997 35.4507 6.83997 19.7307C6.83997 19.4707 6.83997 19.2206 6.83997 18.9606C6.80997 18.4306 6.56 17.9206 5.87 18.0406C5.50999 18.1106 5.21999 18.6007 4.98999 18.9507C4.87999 19.1207 4.95996 19.3907 4.95996 19.6107C4.93996 35.4507 4.92003 51.3006 4.91003 67.1406C4.91003 67.4806 4.91003 67.8106 4.91003 68.1406H6.78003V68.1506ZM33 77.3207C32.98 77.3807 32.9599 77.4407 32.9399 77.4907C37.1899 79.6107 41.44 81.7406 45.72 83.8306C46 83.9606 46.57 83.8306 46.91 83.6606C50.83 81.7306 54.73 79.7806 58.63 77.8306C58.87 77.7106 59.08 77.5607 59.49 77.3207H33ZM48.72 42.3707C52.53 45.1407 56.26 47.8706 59.99 50.5906C60.07 50.5506 60.15 50.5106 60.23 50.4706C59.46 45.6006 58.69 40.7207 57.89 35.6807C54.74 37.9707 51.77 40.1407 48.71 42.3707H48.72ZM31.96 50.8007C35.97 47.8807 39.71 45.1507 43.53 42.3707C40.48 40.1507 37.48 37.9607 34.35 35.6807C33.55 40.7507 32.77 45.6307 31.95 50.8107L31.96 50.8007ZM46.1 25.9606C49.93 25.9406 53.07 23.2907 53.09 20.0707C53.1 16.8207 49.95 14.0707 46.22 14.0707C42.35 14.0707 39.19 16.7606 39.2 20.0306C39.2 23.3106 42.31 25.9806 46.11 25.9606H46.1ZM35.38 55.8306C35.53 55.9906 35.57 56.0707 35.66 56.1207C38.97 58.0907 42.28 60.0707 45.62 61.9907C45.89 62.1407 46.53 62.0607 46.84 61.8807C49.9 60.1107 52.94 58.3007 55.97 56.5007C56.26 56.3307 56.53 56.1406 57.01 55.8306H35.38ZM32.1 31.3607H60.13V28.9307H32.1V31.3607ZM46.13 40.4807C48.87 38.4807 51.5601 36.5107 54.4301 34.4207H37.8199C40.6999 36.5207 43.38 38.4807 46.13 40.4807ZM3.33997 71.1307V79.2206H8.37V71.1307H3.33997ZM10.25 28.0206C19.01 26.2706 27.61 24.5407 36.28 22.8107C36.13 22.2707 36 21.8206 35.84 21.2806C27.26 23.0006 18.77 24.7006 10.25 26.4006V28.0306V28.0206ZM78.12 12.8506C70.69 14.3306 63.38 15.7807 55.99 17.2607C56.14 17.8207 56.27 18.2907 56.4 18.8007C63.86 17.3107 71.1899 15.8507 78.5599 14.3807C78.3999 13.8207 78.28 13.3906 78.12 12.8506ZM88.89 40.7206C87.41 40.7206 86.18 41.7507 86.16 43.0107C86.13 44.3207 87.37 45.4006 88.89 45.4006C90.37 45.4006 91.6 44.3607 91.63 43.1107C91.65 41.8007 90.42 40.7307 88.89 40.7307V40.7206Z" fill="#20ACA4"/>
  <path d="M46.1702 23.8702C43.6402 23.8602 41.6402 22.1402 41.6202 19.9702C41.6102 17.9602 43.6901 16.1702 46.0701 16.1602C48.6201 16.1502 50.7301 17.9602 50.6901 20.1302C50.6501 22.1602 48.5702 23.8802 46.1802 23.8702H46.1702ZM46.3401 18.9002C46.1801 18.9002 46.0101 18.9002 45.8501 18.9102C45.5801 19.2902 45.0401 19.7102 45.1101 20.0402C45.1801 20.3902 45.8201 20.9102 46.2001 20.9002C46.5701 20.9002 47.2001 20.3202 47.2201 19.9802C47.2401 19.6302 46.6601 19.2602 46.3501 18.8902L46.3401 18.9002Z" fill="#20ACA4"/>
</svg>