<svg width="224" height="166" viewBox="0 0 224 166" fill="none" xmlns="http://www.w3.org/2000/svg">
<path d="M185.39 104.41C186.6 103.88 187.8 103.35 189.01 102.82C190.8 101.48 192.68 100.23 194.54 98.7001C195.02 98.3101 195.47 97.8801 195.91 97.4501C195.85 97.4201 195.79 97.3901 195.73 97.3501C196.5 94.7901 197.18 92.5401 198 89.7901C160 105.25 87.2097 98.2901 61.4797 77.1401C61.6897 77.0701 61.9396 76.9001 62.1196 76.9501C67.2696 78.4501 72.4197 79.9901 77.5697 81.5001C113.35 91.9901 149.55 95.5401 186.36 87.8401C195.42 85.9501 203.86 82.6901 208.58 72.0701C153.09 92.7601 100.36 84.5401 48.6297 62.5901C89.7697 68.8601 130.92 70.3601 172.05 62.4301C187.18 59.5101 202.29 55.8101 214.98 46.3801C226.4 37.8901 226.34 27.4701 215.36 18.5301C204.02 9.30011 172.64 -0.459895 157.73 1.09011C159.93 2.25011 162.33 2.83012 164.58 3.79012C175.46 8.44012 186.97 12.1001 196.98 18.2101C208.18 25.0401 206.08 38.0501 193.91 43.7901C188.25 28.8301 172.51 19.5201 152.95 20.2101C156.04 22.1201 158.33 23.6301 160.71 25.0001C165.16 27.5601 169.9 29.7201 174.07 32.6701C178.09 35.5201 181.31 39.7101 177.37 44.5001C174.36 48.1601 170.06 50.7501 165.54 54.4701C164.04 41.9301 157.84 36.6401 146.59 38.7101C148.64 39.6401 149.67 39.8401 150.32 40.4501C157.49 47.1701 156.91 51.9201 148.25 56.4801C145.59 57.8801 142.7 59.4701 139.81 59.7001C125.66 60.8301 111.45 62.3401 97.2997 62.0601C89.6197 61.9101 81.6396 59.3201 74.4397 56.2901C67.1697 53.2301 67.5097 47.0201 74.4996 43.3401C77.9496 41.5201 81.6597 40.1901 86.7097 38.0101C68.1597 38.9201 61.2496 43.7701 60.3396 55.7801C58.5196 55.1501 56.4596 54.9501 55.1196 53.8701C51.4296 50.9001 48.0396 47.5601 44.5296 44.3701C47.7096 40.9401 50.3997 36.8001 54.1797 34.2401C59.2297 30.8101 65.1197 28.6101 71.4797 25.4701C62.0297 24.1701 50.0697 26.0301 42.3897 31.4601C37.0797 35.2101 33.1097 40.8501 28.1697 46.0401C16.2297 39.6201 15.3797 28.7401 28.9997 22.0301C40.5497 16.3301 53.4497 13.3601 65.7897 9.28011C68.1497 8.50011 70.6597 8.20012 73.0997 7.67012C72.8897 6.74012 72.6796 5.8001 72.4697 4.8701C60.1697 7.2001 47.5897 8.59012 35.6497 12.1401C25.5397 15.1501 15.5297 19.6601 6.66966 25.3701C-1.90034 30.8901 -1.45034 39.7001 6.91966 45.6101C12.5397 49.5801 19.3197 51.8601 25.4397 55.1601C28.7897 56.9601 32.2497 58.8801 34.9697 61.4601C41.0997 67.2701 47.1897 73.1701 52.9597 79.3501C60.2097 87.1101 71.1497 92.6201 81.5097 96.0701C115.22 107.31 150.1 107.49 185.37 104.43L185.39 104.41Z" fill="#515151"/>
<path d="M84.3001 71.7699C89.3401 71.7699 94.4101 71.4099 99.4201 71.8299C132.15 74.5499 164.26 72.2099 195.09 59.9899C201.34 57.5099 207.17 53.9999 213.86 50.6299C213.29 56.9499 209.66 61.6699 204.84 63.5299C193 68.0899 180.9 72.8399 168.48 74.8699C140.39 79.4499 112.16 77.3399 84.0801 73.4899C84.1601 72.9199 84.2401 72.3499 84.3201 71.7699H84.3001Z" fill="#515151"/>
<path d="M84.2393 103.01C97.2893 106.34 110.169 110.95 123.429 112.64C136.489 114.3 149.929 113 162.799 113C149.619 127.98 100.959 122.97 84.2393 103.01Z" fill="#515151"/>
<path d="M85.4199 50.2602C103.58 45.5202 120.62 43.9302 138.14 51.0502C130.1 62.4502 94.9299 62.0302 85.4199 50.2602Z" fill="#515151"/>
<path d="M146.419 130.11C147.259 129.41 148.099 128.72 148.949 128.02C146.829 127.02 144.719 125.69 142.599 125.67C127.359 125.53 112.219 124.95 97.6693 119.73C94.5093 118.59 91.4193 117.26 88.2893 116.01C87.7993 116.72 87.3093 117.44 86.8193 118.15C91.0993 121.64 94.9693 125.87 99.7393 128.48C114.929 136.77 130.669 135.86 146.429 130.1L146.419 130.11Z" fill="#515151"/>
<path d="M126.4 143.35C128.03 142.75 129.66 142.04 131.29 141.24C131.54 140.76 131.83 140.35 132.14 139.98C131.55 138.91 130.97 137.39 130.38 137.38C116 137.27 101.72 136.73 87.9199 130.64C89.3499 133.9 90.9499 136.72 93.3099 138.55C102.63 145.78 112.4 147.27 122.41 144.62C123.7 143.97 125.03 143.51 126.41 143.35H126.4Z" fill="#515151"/>
<path d="M112.83 150.67C108.81 155.54 105.04 160.11 100.22 165.96C94.9595 160.34 89.6195 154.62 84.2695 148.9C84.6595 148.39 85.0595 147.88 85.4495 147.37C94.2695 148.43 103.09 149.5 112.83 150.67Z" fill="#515151"/>
</svg>
